<svg xmlns="http://www.w3.org/2000/svg" viewBox="0 0 107.15 113.62"><defs><style>.cls-1{fill:#325f6d;}.cls-2{fill:#809ba3;}.cls-3{fill:#043b4c;}.cls-4{fill:#ffd2bc;}.cls-5{fill:#ea3e00;}</style></defs><g id="blue"><path class="cls-1" d="M54.58,0a40.2,40.2,0,1,0,40.2,40.2A40.2,40.2,0,0,0,54.58,0Zm0,72.25a32.05,32.05,0,1,1,32.05-32A32.05,32.05,0,0,1,54.58,72.25Z"/><path class="cls-1" d="M48.08,11.71A32.05,32.05,0,1,0,80.13,43.76,32.05,32.05,0,0,0,48.08,11.71Zm0,57.61A25.56,25.56,0,1,1,73.63,43.76,25.56,25.56,0,0,1,48.08,69.32Z"/><path class="cls-2" d="M51.07,113.58c31.85.54,50.93-5.88,55.43-7.59a1,1,0,0,0,.54-1.42l-8.86-74a1,1,0,0,0-1.2-.54c-3.73,1.1-20.12,5.47-45.69,5.52h4.56c-25.58,0-41.95-4.32-45.68-5.42a1,1,0,0,0-1.2.54l-8.86,74a1,1,0,0,0,.54,1.42c4.51,1.71,23.57,8.09,55.41,7.48Z"/><path class="cls-3" d="M51.07,55.68c31.85.54,50.93-5.88,55.43-7.6a1,1,0,0,0,.54-1.41L98.21,28.8A1,1,0,0,0,97,28.27c-3.73,1.1-20.12,5.47-45.69,5.52h4.56c-25.57,0-41.95-4.33-45.67-5.42A1,1,0,0,0,9,28.9L.11,46.78A1,1,0,0,0,.65,48.2c4.51,1.71,23.57,8.08,55.41,7.47Z"/><circle class="cls-4" cx="51.4" cy="84.22" r="23.68"/><path class="cls-5" d="M45.9,89.76a18.2,18.2,0,0,0,1.31,1.69A6.92,6.92,0,0,0,49.05,93a4.76,4.76,0,0,0,4.59.06,4.85,4.85,0,0,0,1.81-1.66,4.62,4.62,0,0,0,.74-2.68,5,5,0,0,0-.59-2.59A3.49,3.49,0,0,0,54,84.68a5.28,5.28,0,0,0-2.12-.43,8,8,0,0,0-2.25.34c-.76.23-1.46.48-2.11.74l-1.08-2.84L53.24,75h-9v-3.6H58.71l.72,1.44-7,7.81a7.25,7.25,0,0,1,3.79,1,7.75,7.75,0,0,1,3.77,6.75A8.13,8.13,0,0,1,58.69,93a8.26,8.26,0,0,1-3.24,3,9,9,0,0,1-4.26,1,8.69,8.69,0,0,1-3.66-.71,8,8,0,0,1-2.64-1.92,17.59,17.59,0,0,1-2-2.7Z"/></g></svg>