<?xml version="1.0" encoding="utf-8"?>
<!-- Generator: Adobe Illustrator 24.1.3, SVG Export Plug-In . SVG Version: 6.00 Build 0)  -->
<svg version="1.1" id="Layer_1" xmlns="http://www.w3.org/2000/svg" xmlns:xlink="http://www.w3.org/1999/xlink" x="0px" y="0px"
	 viewBox="0 0 270.6 244.2" style="enable-background:new 0 0 270.6 244.2;" xml:space="preserve">
<style type="text/css">
	.st0{display:none;fill:#EA3E00;}
	.st1{fill:#FFD2BC;}
</style>
<g id="Layer_3">
</g>
<path class="st0" d="M130.9,227.2c0,0,1.7-87.3-119.7-100.8c0,0,9.5,105.5,118.5,102.4"/>
<path class="st0" d="M263,126.4c-109-3.1-118.5,102.4-118.5,102.4C265.9,215.2,264.2,128,264.2,128"/>
<g>
	<path class="st1" d="M52,215c0,0,34.3,28,78.6,28.1h4.1l0,0h0.1l0,0h0.4l0,0l0,0l0,0h4.1c44.3,0.1,78.7-27.8,78.7-27.8
		c53-42.3,52.6-102.5,52.6-102.5s-54.9-4.1-99.9,35.6c0,0-26.9,24.9-35.4,54.4l-0.2,0.8l-0.2-0.8c-8.4-29.6-35.2-54.6-35.2-54.6
		c-44.8-39.9-99.7-36-99.7-36S-0.8,172.4,52,215z M148.3,226.1c0.9-35.7,32.9-65,32.9-65c29.6-30,69-28.5,69-28.5
		c-6.8,30.6-26.5,53.7-26.5,53.7C189.9,228,148.3,226.1,148.3,226.1L148.3,226.1z M20.3,132c0,0,39.4-1.2,68.9,28.9
		c0,0,31.8,29.4,32.6,65.1c0,0-41.6,1.8-75.1-40.1C46.6,185.9,27,162.6,20.3,132z"/>
	<path class="st1" d="M18.1,114L25.4,8.2c0.3-4.3-3.5-7.9-8.5-8.2l0,0c-5-0.2-9.3,3-9.6,7.3L0,112.6L18.1,114z"/>
	<path class="st1" d="M2.9,135l10.6,91.8c0.6,5.2,15.9,15.4,18.9,10L20.2,132L2.9,135z"/>
	<path class="st1" d="M252.5,114.6L245.3,8.8c-0.3-4.3,3.5-7.9,8.5-8.2l0,0c5-0.2,9.3,3,9.6,7.3l7.2,105.3L252.5,114.6z"/>
	<path class="st1" d="M267.8,135.6l-10.6,91.8c-0.6,5.2-15.9,15.4-18.9,10l12-104.8L267.8,135.6z"/>
	<path class="st1" d="M241,244.2H29.7c-9.1,0-16.4-8.1-16.4-18.2l0,0h244.1l0,0C257.4,236.1,250,244.2,241,244.2z"/>
</g>
<g id="text">
</g>
</svg>
