<svg id="Layer_1" data-name="Layer 1" xmlns="http://www.w3.org/2000/svg" viewBox="0 0 1108.72 880.81"><defs><style>.cls-1{fill:#fcd2bd;}.cls-2{fill:#fddac9;}.cls-3{fill:#fee7dc;}</style></defs><path class="cls-1" d="M1052.64,808.87c31.85.54,50.93-5.88,55.43-7.59a1,1,0,0,0,.54-1.42L1099.78,782a1,1,0,0,0-1.21-.54c-3.73,1.1-20.12,5.47-45.69,5.52h4.56c-25.57,0-42-4.33-45.67-5.43a1,1,0,0,0-1.2.54L1001.68,800a1,1,0,0,0,.54,1.42c4.51,1.7,23.57,8.08,55.41,7.47Z"/><path class="cls-2" d="M1052.64,844.83c31.85.54,50.93-5.89,55.43-7.6a1,1,0,0,0,.54-1.42L1099.78,818a1,1,0,0,0-1.21-.54c-3.73,1.11-20.12,5.48-45.69,5.52h4.56c-25.57,0-42-4.33-45.67-5.42a1,1,0,0,0-1.2.53l-8.89,17.89a1,1,0,0,0,.54,1.42c4.51,1.71,23.57,8.08,55.41,7.47Z"/><path class="cls-3" d="M1052.64,880.78c31.85.54,50.93-5.88,55.43-7.6a1,1,0,0,0,.54-1.42l-8.83-17.86a1,1,0,0,0-1.21-.53c-3.73,1.1-20.12,5.47-45.69,5.52h4.56c-25.57,0-42-4.33-45.67-5.42a1,1,0,0,0-1.2.53l-8.89,17.89a1,1,0,0,0,.54,1.42c4.51,1.71,23.57,8.08,55.41,7.47Z"/><path class="cls-1" d="M51.07,27.45C82.92,28,102,21.57,106.5,19.86a1,1,0,0,0,.54-1.42L98.21.58A1,1,0,0,0,97,0c-3.73,1.1-20.12,5.47-45.69,5.52h4.56C30.3,5.57,13.92,1.23,10.2.14A1,1,0,0,0,9,.67L.11,18.56A1,1,0,0,0,.65,20c4.51,1.7,23.57,8.08,55.41,7.47Z"/><path class="cls-2" d="M51.07,63.41c31.85.54,50.93-5.88,55.43-7.6a1,1,0,0,0,.54-1.42L98.21,36.53A1,1,0,0,0,97,36c-3.73,1.11-20.12,5.48-45.69,5.53h4.56c-25.57,0-41.95-4.33-45.67-5.42a1,1,0,0,0-1.2.53L.11,54.51a1,1,0,0,0,.54,1.42C5.16,57.64,24.22,64,56.06,63.4Z"/><path class="cls-3" d="M51.07,99.36c31.85.54,50.93-5.88,55.43-7.6a1,1,0,0,0,.54-1.41L98.21,72.48A1,1,0,0,0,97,72c-3.73,1.1-20.12,5.47-45.69,5.52h4.56C30.3,77.47,13.92,73.13,10.2,72a1,1,0,0,0-1.2.54L.11,90.46a1,1,0,0,0,.54,1.42c4.51,1.71,23.57,8.08,55.41,7.47Z"/></svg>