<svg xmlns="http://www.w3.org/2000/svg" viewBox="0 0 829.78 712.86"><defs><style>.cls-1{fill:#ffd2bc;}.cls-2{fill:#053b4c;}</style></defs><g id="logo-bg"><path class="cls-1" d="M309.89,28.06s-57,153.64,63.21,260.87l65.44,3.6S552.91,188.89,508.83,28.06l-99.67,96.49S356.35,44.74,309.89,28.06Z"/><path class="cls-1" d="M121.67,460.5s210.85,57.18,278.75-116.75c0,0-17.49-34.77-104-26.91C296.37,316.84,134.77,381.87,121.67,460.5Z"/><path class="cls-1" d="M422.65,341.55S460.79,495,679.58,461.69c0,0-66.26-180.14-255.5-123.43"/></g><g id="logo"><path class="cls-2" d="M713.2,469.29S679.81,371.1,577.78,322.58c0,0-62.95-28.24-120.42-21.18l-1.57.22,1.21-1c45.05-36.38,68.51-101.26,68.51-101.26C561.61,92.27,514.27,0,514.27,0S409.54,43.16,374.82,166.09c0,0-23.2,80.21,9.33,156.94l3,7.06h0l.05.1v0l.33.76v0l0,.09v0l3,7.05C423.09,414.91,496.86,454,496.86,454,609.35,514.53,713.2,469.29,713.2,469.29Zm-292-334.12S447,83.94,495.07,49.83c0,0,31.3,67.39.9,140.62,0,0-27.46,76.93-88.73,104.55C407.24,295,373.43,224.29,421.24,135.17Zm130.13,307c-97.29-27.61-124.6-101.08-124.6-101.08C489.21,316.23,563.6,350,563.6,350,637.37,379.07,664,448.42,664,448.42,606.09,459.27,551.37,442.14,551.37,442.14Z"/><path class="cls-2" d="M317.8,454.12S391.57,415,424.08,338.26l3-7.06h0l.05-.09v0l.33-.77v0l0-.09h0l3-7.06c32.51-76.75,9.29-156.94,9.29-156.94C405,43.26,300.3.12,300.3.12S253,92.4,289.1,199.45c0,0,23.49,64.88,68.53,101.26l1.21,1-1.55-.22c-57.48-7-120.42,21.21-120.42,21.21-102,48.53-135.38,146.73-135.38,146.73S205.34,514.69,317.8,454.12Zm89.6-159c-61.27-27.6-88.76-104.52-88.76-104.52-30.42-73.24.87-140.63.87-140.63,48.09,34.1,73.85,85.32,73.85,85.32C441.2,224.39,407.4,295.1,407.4,295.1ZM150.64,448.59s26.64-69.36,100.4-98.46c0,0,74.38-33.77,136.83-9,0,0-27.27,73.48-124.56,101.12C263.31,442.28,208.59,459.43,150.64,448.59Z"/></g><g id="word"><polygon class="cls-2" points="0 567.38 0 712.71 62.63 712.71 62.63 699.83 14.55 699.83 14.53 567.38 0 567.38"/><polygon class="cls-2" points="108.26 567.38 108.26 712.71 170.89 712.71 170.89 699.83 122.81 699.83 122.79 567.38 108.26 567.38"/><polygon class="cls-2" points="415.67 712.72 358.4 567.38 373.7 567.38 397.62 627.97 439.26 567.56 456.28 567.56 403.74 643.66 430.9 712.72 415.67 712.72"/><polygon class="cls-2" points="273.82 606.81 315.54 712.86 330.84 712.86 273.82 567.52 216.82 712.86 232.12 712.86 273.82 606.81"/><path class="cls-2" d="M273.3,695.72c16.26.34,25-4.12,25-4.12L294,681.41s-7.64,3-20.6,3h2c-13,0-20.6-3-20.6-3l-4.32,10.19s8.74,4.46,25,4.12Z"/><polygon class="cls-2" points="498.94 567.38 498.94 712.71 561.57 712.71 561.57 699.83 513.49 699.83 513.47 567.38 498.94 567.38"/><polygon class="cls-2" points="607.2 567.38 607.2 712.71 669.83 712.71 669.83 699.83 621.75 699.83 621.73 567.38 607.2 567.38"/><polygon class="cls-2" points="772.76 606.81 814.48 712.86 829.78 712.86 772.77 567.52 715.76 712.86 731.07 712.86 772.76 606.81"/><path class="cls-2" d="M772.24,695.72c16.27.34,25-4.12,25-4.12l-4.32-10.19s-7.63,3-20.6,3h2c-13,0-20.59-3-20.59-3l-4.32,10.19s8.74,4.46,25,4.12Z"/></g></svg>