<?xml version="1.0" encoding="utf-8"?>
<!-- Generator: Adobe Illustrator 24.1.0, SVG Export Plug-In . SVG Version: 6.00 Build 0)  -->
<svg version="1.1" id="Layer_1" xmlns="http://www.w3.org/2000/svg" xmlns:xlink="http://www.w3.org/1999/xlink" x="0px" y="0px"
	 viewBox="0 0 611.7 485.7" style="enable-background:new 0 0 611.7 485.7;" xml:space="preserve">
<style type="text/css">
	.st0{fill:#003A4C;}
	.st1{fill:#FFD2BC;}
</style>
<g id="logo-bg">
	<path class="st0" d="M208.4,28.1c0,0-57,153.6,63.2,260.9l34.6-156.1L337,292.5c0,0,114.4-103.6,70.3-264.5l-99.7,96.5
		C307.7,124.5,254.9,44.7,208.4,28.1z"/>
	<path class="st0" d="M20.2,460.5c0,0,210.9,57.2,278.8-116.8c0,0-17.5-34.8-104-26.9C194.9,316.8,33.3,381.9,20.2,460.5z"/>
	<path class="st0" d="M321.2,341.5c0,0,38.1,153.5,256.9,120.1c0,0-66.3-180.1-255.5-123.4"/>
</g>
<g id="logo">
	<path class="st1" d="M611.7,469.3c0,0-33.4-98.2-135.4-146.7c0,0-63-28.2-120.4-21.2l-1.6,0.2l1.2-1c45-36.4,68.5-101.3,68.5-101.3
		C460.1,92.3,412.8,0,412.8,0S308,43.2,273.3,166.1c0,0-23.2,80.2,9.3,156.9l3,7.1l0,0l0,0.1l0,0l0.3,0.8l0,0v0.1l0,0l3,7
		C321.6,414.9,395.4,454,395.4,454C507.9,514.5,611.7,469.3,611.7,469.3z M319.7,135.2c0,0,25.8-51.2,73.9-85.3
		c0,0,31.3,67.4,0.9,140.6c0,0-27.5,76.9-88.7,104.6C305.8,295,271.9,224.3,319.7,135.2L319.7,135.2z M449.8,442.2
		c-97.3-27.6-124.6-101.1-124.6-101.1c62.5-24.9,136.9,8.9,136.9,8.9c73.8,29.1,100.4,98.4,100.4,98.4
		C504.6,459.3,449.9,442.1,449.8,442.2L449.8,442.2z"/>
	<path class="st1" d="M216.3,454.1c0,0,73.8-39.1,106.3-115.9l3-7.1l0,0l0-0.1l0,0l0.3-0.8l0,0v-0.1l0,0l3-7.1
		c32.5-76.8,9.3-156.9,9.3-156.9C303.5,43.3,198.8,0.1,198.8,0.1s-47.3,92.3-11.2,199.3c0,0,23.5,64.9,68.5,101.3l1.2,1l-1.5-0.2
		c-57.5-7-120.4,21.2-120.4,21.2C33.4,371.2,0,469.4,0,469.4S103.8,514.7,216.3,454.1z M305.9,295.1
		c-61.3-27.6-88.8-104.5-88.8-104.5C186.7,117.4,218,50,218,50c48.1,34.1,73.9,85.3,73.9,85.3C339.7,224.4,305.9,295.1,305.9,295.1
		L305.9,295.1z M49.1,448.6c0,0,26.6-69.4,100.4-98.5c0,0,74.4-33.8,136.8-9c0,0-27.3,73.5-124.6,101.1
		C161.8,442.3,107.1,459.4,49.1,448.6z"/>
</g>
</svg>
