<?xml version="1.0" encoding="utf-8"?>
<!-- Generator: Adobe Illustrator 24.1.0, SVG Export Plug-In . SVG Version: 6.00 Build 0)  -->
<svg version="1.1" id="Layer_1" xmlns="http://www.w3.org/2000/svg" xmlns:xlink="http://www.w3.org/1999/xlink" x="0px" y="0px"
	 viewBox="0 0 829.8 712.9" style="enable-background:new 0 0 829.8 712.9;" xml:space="preserve">
<style type="text/css">
	.st0{fill:#FFD2BC;}
	.st1{fill:#053B4C;}
</style>
<g id="logo-bg">
	<path class="st0" d="M309.9,28.1c0,0-57,153.6,63.2,260.9l34.6-156.1l30.9,159.7c0,0,114.4-103.6,70.3-264.5l-99.7,96.5
		C409.2,124.5,356.4,44.7,309.9,28.1z"/>
	<path class="st0" d="M121.7,460.5c0,0,210.9,57.2,278.8-116.8c0,0-17.5-34.8-104-26.9C296.4,316.8,134.8,381.9,121.7,460.5z"/>
	<path class="st0" d="M422.6,341.5c0,0,38.1,153.5,256.9,120.1c0,0-66.3-180.1-255.5-123.4"/>
</g>
<g id="logo">
	<path class="st1" d="M713.2,469.3c0,0-33.4-98.2-135.4-146.7c0,0-63-28.2-120.4-21.2l-1.6,0.2l1.2-1c45-36.4,68.5-101.3,68.5-101.3
		C561.6,92.3,514.3,0,514.3,0S409.5,43.2,374.8,166.1c0,0-23.2,80.2,9.3,156.9l3,7.1l0,0l0,0.1l0,0l0.3,0.8l0,0v0.1l0,0l3,7
		C423.1,414.9,496.9,454,496.9,454C609.3,514.5,713.2,469.3,713.2,469.3z M421.2,135.2c0,0,25.8-51.2,73.9-85.3
		c0,0,31.3,67.4,0.9,140.6c0,0-27.5,76.9-88.7,104.6C407.2,295,373.4,224.3,421.2,135.2L421.2,135.2z M551.3,442.2
		C454,414.6,426.7,341.1,426.7,341.1c62.5-24.9,136.9,8.9,136.9,8.9c73.8,29.1,100.4,98.4,100.4,98.4
		C606.1,459.3,551.4,442.1,551.3,442.2L551.3,442.2z"/>
	<path class="st1" d="M317.8,454.1c0,0,73.8-39.1,106.3-115.9l3-7.1l0,0l0-0.1l0,0l0.3-0.8l0,0v-0.1l0,0l3-7.1
		c32.5-76.8,9.3-156.9,9.3-156.9C405,43.3,300.3,0.1,300.3,0.1S253,92.4,289.1,199.4c0,0,23.5,64.9,68.5,101.3l1.2,1l-1.5-0.2
		c-57.5-7-120.4,21.2-120.4,21.2c-102,48.5-135.4,146.7-135.4,146.7S205.3,514.7,317.8,454.1z M407.4,295.1
		c-61.3-27.6-88.8-104.5-88.8-104.5C288.2,117.4,319.5,50,319.5,50c48.1,34.1,73.9,85.3,73.9,85.3
		C441.2,224.4,407.4,295.1,407.4,295.1L407.4,295.1z M150.6,448.6c0,0,26.6-69.4,100.4-98.5c0,0,74.4-33.8,136.8-9
		c0,0-27.3,73.5-124.6,101.1C263.3,442.3,208.6,459.4,150.6,448.6z"/>
</g>
<g id="word">
	<polygon class="st1" points="0,567.4 0,712.7 62.6,712.7 62.6,699.8 14.6,699.8 14.5,567.4 	"/>
	<polygon class="st1" points="108.3,567.4 108.3,712.7 170.9,712.7 170.9,699.8 122.8,699.8 122.8,567.4 	"/>
	<polygon class="st1" points="415.7,712.7 358.4,567.4 373.7,567.4 397.6,628 439.3,567.6 456.3,567.6 403.7,643.7 430.9,712.7 	"/>
	<polygon class="st1" points="273.8,606.8 315.5,712.9 330.8,712.9 273.8,567.5 216.8,712.9 232.1,712.9 	"/>
	<path class="st1" d="M273.3,695.7c16.3,0.3,25-4.1,25-4.1l-4.3-10.2c0,0-7.6,3-20.6,3h2c-13,0-20.6-3-20.6-3l-4.3,10.2
		c0,0,8.7,4.5,25,4.1H273.3z"/>
	<polygon class="st1" points="498.9,567.4 498.9,712.7 561.6,712.7 561.6,699.8 513.5,699.8 513.5,567.4 	"/>
	<polygon class="st1" points="607.2,567.4 607.2,712.7 669.8,712.7 669.8,699.8 621.8,699.8 621.7,567.4 	"/>
	<polygon class="st1" points="772.8,606.8 814.5,712.9 829.8,712.9 772.8,567.5 715.8,712.9 731.1,712.9 	"/>
	<path class="st1" d="M772.2,695.7c16.3,0.3,25-4.1,25-4.1l-4.3-10.2c0,0-7.6,3-20.6,3h2c-13,0-20.6-3-20.6-3l-4.3,10.2
		c0,0,8.7,4.5,25,4.1H772.2z"/>
</g>
</svg>
