<?xml version="1.0" encoding="utf-8"?>
<!-- Generator: Adobe Illustrator 24.1.0, SVG Export Plug-In . SVG Version: 6.00 Build 0)  -->
<svg version="1.1" id="Layer_1" xmlns="http://www.w3.org/2000/svg" xmlns:xlink="http://www.w3.org/1999/xlink" x="0px" y="0px"
	 viewBox="0 0 829.8 145.5" style="enable-background:new 0 0 829.8 145.5;" xml:space="preserve">
<style type="text/css">
	.st0{fill:#003A4C;}
</style>
<g id="word">
	<polygon class="st0" points="0,0 0,145.3 62.6,145.3 62.6,132.5 14.6,132.5 14.5,0 	"/>
	<polygon class="st0" points="108.3,0 108.3,145.3 170.9,145.3 170.9,132.5 122.8,132.5 122.8,0 	"/>
	<polygon class="st0" points="415.7,145.3 358.4,0 373.7,0 397.6,60.6 439.3,0.2 456.3,0.2 403.7,76.3 430.9,145.3 	"/>
	<polygon class="st0" points="273.8,39.4 315.5,145.5 330.8,145.5 273.8,0.1 216.8,145.5 232.1,145.5 	"/>
	<path class="st0" d="M273.3,128.3c16.3,0.3,25-4.1,25-4.1L294,114c0,0-7.6,3-20.6,3h2c-13,0-20.6-3-20.6-3l-4.3,10.2
		c0,0,8.7,4.5,25,4.1H273.3z"/>
	<polygon class="st0" points="498.9,0 498.9,145.3 561.6,145.3 561.6,132.5 513.5,132.5 513.5,0 	"/>
	<polygon class="st0" points="607.2,0 607.2,145.3 669.8,145.3 669.8,132.5 621.8,132.5 621.7,0 	"/>
	<polygon class="st0" points="772.8,39.4 814.5,145.5 829.8,145.5 772.8,0.1 715.8,145.5 731.1,145.5 	"/>
	<path class="st0" d="M772.2,128.3c16.3,0.3,25-4.1,25-4.1l-4.3-10.2c0,0-7.6,3-20.6,3h2c-13,0-20.6-3-20.6-3l-4.3,10.2
		c0,0,8.7,4.5,25,4.1H772.2z"/>
</g>
</svg>
