<svg id="Layer_1" data-name="Layer 1" xmlns="http://www.w3.org/2000/svg" viewBox="0 0 611.71 485.68"><defs><style>.cls-1{fill:#043b4c;}</style></defs><path class="cls-1" d="M611.71,469.29S578.32,371.1,476.29,322.58c0,0-63-28.24-120.42-21.18l-1.56.22,1.21-1c45-36.38,68.51-101.26,68.51-101.26C460.12,92.27,412.79,0,412.79,0S308.05,43.16,273.34,166.09c0,0-23.21,80.21,9.32,156.94l3,7.06h0l.05.1v0l.33.76,0,0,0,.09v0l3,7.05C321.61,414.91,395.38,454,395.38,454,507.86,514.53,611.71,469.29,611.71,469.29Zm-292-334.12s25.75-51.23,73.83-85.34c0,0,31.3,67.39.91,140.62,0,0-27.47,76.93-88.74,104.55C305.75,295,272,224.29,319.75,135.17Zm130.13,307c-97.29-27.61-124.6-101.08-124.6-101.08C387.73,316.23,462.11,350,462.11,350c73.78,29.08,100.43,98.43,100.43,98.43C504.6,459.27,449.88,442.14,449.88,442.14Z"/><path class="cls-1" d="M216.31,454.12S290.08,415,322.59,338.26l3-7.06h0l0-.09v0l.33-.77v0l0-.09h0l3-7.06c32.51-76.75,9.3-156.94,9.3-156.94C303.56,43.26,198.82.12,198.82.12s-47.33,92.28-11.2,199.33c0,0,23.48,64.88,68.53,101.26l1.2,1-1.55-.22c-57.48-7-120.42,21.21-120.42,21.21C33.35,371.26,0,469.46,0,469.46S103.86,514.69,216.31,454.12Zm89.6-159c-61.27-27.6-88.76-104.52-88.76-104.52C186.73,117.34,218,50,218,50c48.1,34.1,73.86,85.32,73.86,85.32C339.71,224.39,305.91,295.1,305.91,295.1ZM49.16,448.59s26.63-69.36,100.4-98.46c0,0,74.38-33.77,136.83-9,0,0-27.28,73.48-124.57,101.12C161.82,442.28,107.1,459.43,49.16,448.59Z"/></svg>