<?xml version="1.0" encoding="utf-8"?>
<!-- Generator: Adobe Illustrator 24.1.0, SVG Export Plug-In . SVG Version: 6.00 Build 0)  -->
<svg version="1.1" xmlns="http://www.w3.org/2000/svg" xmlns:xlink="http://www.w3.org/1999/xlink" x="0px" y="0px"
	 viewBox="0 0 270.6 209.1" style="enable-background:new 0 0 270.6 209.1;" xml:space="preserve">
<style type="text/css">
	.st0{fill:#FFD2BC;}
	.st1{fill:#003A4C;}
</style>
<g id="Layer_3">
</g>
<g id="img">
	<g>
		<path class="st0" d="M130.9,116.8c0,0,1.7-87.3-119.7-100.8c0,0,9.5,105.5,118.5,102.4"/>
		<path class="st0" d="M262.9,16c-109-3.1-118.5,102.4-118.5,102.4C265.8,104.8,264.2,17.5,264.2,17.5"/>
		<g>
			<path class="st1" d="M52,102.8c0,0,34.3,28,78.6,28.1l4.1,0l0,0l0.1,0l0,0l0.4,0l0,0l0,0l0,0l4.1,0c44.3,0.1,78.7-27.8,78.7-27.8
				c53-42.3,52.6-102.5,52.6-102.5s-54.9-4.1-99.9,35.6c0,0-26.9,24.9-35.4,54.4l-0.2,0.8l-0.2-0.8c-8.4-29.6-35.2-54.6-35.2-54.6
				C54.9-3.8,0,0.1,0,0.1S-0.8,60.2,52,102.8z M148.3,113.9c0.9-35.7,32.9-65,32.9-65c29.6-30,69-28.5,69-28.5
				c-6.8,30.6-26.5,53.7-26.5,53.7C189.9,115.9,148.3,113.9,148.3,113.9L148.3,113.9z M20.3,19.9c0,0,39.4-1.2,68.9,28.9
				c0,0,31.8,29.4,32.6,65.1c0,0-41.6,1.8-75.1-40.1C46.6,73.7,27,50.5,20.3,19.9z"/>
			<path class="st1" d="M250.1,209.1L250.1,209.1c-5,0-9.1-4.1-9.1-9.1V50.6c0-5,4.1-9.1,9.1-9.1h0c5,0,9.1,4.1,9.1,9.1V200
				C259.2,205,255.2,209.1,250.1,209.1z"/>
		</g>
	</g>
</g>
<g id="text">
</g>
</svg>
