<?xml version="1.0" encoding="utf-8"?>
<!-- Generator: Adobe Illustrator 24.1.0, SVG Export Plug-In . SVG Version: 6.00 Build 0)  -->
<svg version="1.1" id="Layer_1" xmlns="http://www.w3.org/2000/svg" xmlns:xlink="http://www.w3.org/1999/xlink" x="0px" y="0px"
	 viewBox="0 0 319 966.4" style="enable-background:new 0 0 319 966.4;" xml:space="preserve">
<style type="text/css">
	.st0{fill:#FFD2BC;}
	.st1{fill:#003A4C;}
</style>
<g>
	<g>
		<path class="st0" d="M154.3,576.2c0,0,1.9-102.8-141.1-118.8c0,0,11.2,124.4,139.7,120.7"/>
		<path class="st0" d="M310,457.5c-128.5-3.7-139.7,120.7-139.7,120.7c143.1-16,141.1-118.8,141.1-118.8"/>
		<g>
			<path class="st1" d="M61.4,561.9c0,0,40.5,33.1,92.6,33.2l4.8,0l0,0l0.1,0l0,0l0.5,0l0,0l0.1,0l0,0l4.8,0
				c52.2,0.1,92.8-32.7,92.8-32.7c62.5-49.9,62-120.8,62-120.8s-64.7-4.9-117.7,41.9c0,0-31.7,29.3-41.8,64.1l-0.3,0.9l-0.2-0.9
				c-9.9-34.9-41.5-64.3-41.5-64.3C64.8,436.2,0,440.8,0,440.8S-0.9,511.7,61.4,561.9z M174.8,574.9c1-42,38.7-76.6,38.7-76.6
				c34.9-35.3,81.3-33.6,81.3-33.6c-8,36-31.3,63.3-31.3,63.3C223.8,577.3,174.8,574.9,174.8,574.9L174.8,574.9z M24,464.1
				c0,0,46.5-1.5,81.2,34c0,0,37.5,34.7,38.4,76.7c0,0-49,2.1-88.6-47.3C55,527.6,31.8,500.2,24,464.1z"/>
			<path class="st1" d="M21.4,442.9l8.5-124.7c0.3-5-4.2-9.3-10.1-9.6h0c-5.9-0.3-11,3.6-11.3,8.6L0,441.2L21.4,442.9z"/>
			<path class="st1" d="M3.4,467.6l12.4,108.2c0.7,6.1,18.7,18.2,22.2,11.7L23.9,464.1L3.4,467.6z"/>
			<path class="st1" d="M297.6,443.5l-8.5-124.7c-0.3-5,4.2-9.3,10.1-9.6l0,0c5.9-0.3,11,3.6,11.3,8.6l8.5,124.1L297.6,443.5z"/>
			<path class="st1" d="M315.6,468.4l-12.4,108.2c-0.7,6.1-18.7,18.2-22.2,11.7l14.2-123.5L315.6,468.4z"/>
			<path class="st1" d="M284.1,596.4h-249c-10.7,0-19.3-9.6-19.3-21.4v0h287.6v0C303.4,586.8,294.7,596.4,284.1,596.4z"/>
		</g>
	</g>
	<g>
		<path class="st0" d="M154.3,137.6c0,0,1.9-102.8-141.1-118.8c0,0,11.2,124.4,139.7,120.7"/>
		<path class="st0" d="M309.9,18.8c-128.5-3.7-139.7,120.7-139.7,120.7c143.1-16,141.1-118.8,141.1-118.8"/>
		<g>
			<path class="st1" d="M61.4,121.2c0,0,40.5,33.1,92.6,33.2l4.8,0l0,0l0.1,0l0,0l0.5,0l0,0l0.1,0l0,0l4.8,0
				c52.2,0.1,92.8-32.7,92.8-32.7C319.5,71.7,319,0.9,319,0.9S254.3-4,201.3,42.8c0,0-31.7,29.3-41.8,64.1l-0.3,0.9l-0.2-0.9
				c-9.9-34.9-41.5-64.3-41.5-64.3C64.8-4.5,0,0.1,0,0.1S-0.9,71,61.4,121.2z M174.8,134.2c1-42,38.7-76.6,38.7-76.6
				C248.4,22.4,294.9,24,294.9,24c-8,36-31.3,63.3-31.3,63.3C223.8,136.6,174.8,134.2,174.8,134.2L174.8,134.2z M24,23.4
				c0,0,46.5-1.5,81.2,34c0,0,37.5,34.7,38.4,76.7c0,0-49,2.1-88.6-47.3C55,86.9,31.8,59.5,24,23.4z"/>
			<path class="st1" d="M294.8,246.4L294.8,246.4c-5.9,0-10.7-4.8-10.7-10.7v-176c0-5.9,4.8-10.7,10.7-10.7l0,0
				c5.9,0,10.7,4.8,10.7,10.7v176C305.5,241.6,300.7,246.4,294.8,246.4z"/>
		</g>
		<path class="st1" d="M157.2,39.6"/>
	</g>
	<g>
		<path class="st0" d="M154.2,949.7c0,0,1.9-102.8-141.1-118.8c0,0,11.2,124.4,139.7,120.7"/>
		<path class="st0" d="M309.9,830.9c-128.5-3.7-139.7,120.7-139.7,120.7c143.1-16,141.1-118.8,141.1-118.8"/>
		<path class="st1" d="M61.3,933.2c0,0,40.5,33.1,92.6,33.2l4.8,0l0,0l0.1,0l0,0l0.5,0l0,0l0.1,0l0,0l4.8,0
			c52.2,0.1,92.8-32.7,92.8-32.7c62.5-49.9,62-120.8,62-120.8s-64.7-4.9-117.7,41.9c0,0-31.7,29.3-41.8,64.1l-0.3,0.9L159,919
			c-9.9-34.9-41.5-64.3-41.5-64.3C64.7,807.6,0,812.2,0,812.2S-0.9,883.1,61.3,933.2z M174.8,946.3c1-42,38.7-76.6,38.7-76.6
			c34.9-35.3,81.3-33.6,81.3-33.6c-8,36-31.3,63.3-31.3,63.3C223.8,948.6,174.8,946.3,174.8,946.3L174.8,946.3z M24,835.5
			c0,0,46.5-1.5,81.2,34c0,0,37.5,34.7,38.4,76.7c0,0-49,2.1-88.6-47.3C54.9,898.9,31.8,871.5,24,835.5z"/>
		<path class="st1" d="M290.1,769c-1,0.2,4.1,13.8,5.5,21.7c0,0,2,9,0.9,23.9c-0.6,7.5,11.6,14.4,18.1,11.5c5.3-2.3,4.4-16.6,4-22.3
			c-0.4-5.6-1.3-13.5-3.3-22.9c-2-9.3-11.3-15.2-20.6-13C293.4,768.3,291.8,768.6,290.1,769z M318.9,813"/>
		<path class="st1" d="M24.2,767.9c-9.3-2.2-18.6,3.6-20.6,13c-2,9.4-2.9,17.3-3.3,22.9c-0.4,5.7-1.3,20,4,22.3
			c6.6,2.9,18.7-3.9,18.1-11.5c-1.1-14.8,0.9-23.9,0.9-23.9c1.5-8,6.5-21.5,5.5-21.7C27.2,768.6,25.6,768.3,24.2,767.9z M0.1,813"/>
		<path class="st1" d="M158.7,780.8c-50.5,0-85.1-4.8-100.4-7c-22-3.2-19.2-2.8-34.2-5.9l-11.2,18.4c54.2,9.9,103,15.5,145.8,15.8h1
			c42.8-0.3,91.6-5.9,145.8-15.8l-9.2-18.7c-15,3-14.2,3-36.2,6.2c-15.3,2.2-49.9,7-100.4,7H158.7z"/>
	</g>
</g>
</svg>
