<?xml version="1.0" encoding="utf-8"?>
<!-- Generator: Adobe Illustrator 24.1.0, SVG Export Plug-In . SVG Version: 6.00 Build 0)  -->
<svg version="1.1" xmlns="http://www.w3.org/2000/svg" xmlns:xlink="http://www.w3.org/1999/xlink" x="0px" y="0px"
	 viewBox="0 0 270.7 168.8" style="enable-background:new 0 0 270.7 168.8;" xml:space="preserve">
<style type="text/css">
	.st0{fill:#EA3E00;}
	.st1{fill:#003A4C;}
	.st2{fill:#FFD2BC;}
</style>
<g id="Layer_2">
	<path class="st0" d="M11.2,11l4.7,39.4c0,0,86.9,2.2,119.4,87c0,0,43-92.3,123-87.1V8.4l-123,14.3L11.2,11z"/>
</g>
<g id="Layer_1">
	<g id="Layer_3">
	</g>
	<path class="st1" d="M130.9,154.6c0,0,1.7-87.3-119.7-100.8c0,0,9.5,105.5,118.5,102.4"/>
	<path class="st1" d="M262.9,53.9c-109-3.1-118.5,102.4-118.5,102.4C265.8,142.7,264.2,55.4,264.2,55.4"/>
	<path class="st2" d="M52.1,140.7c0,0,34.3,28,78.6,28.1h4.1l0,0h0.1l0,0h0.4l0,0l0,0l0,0h4.1c44.3,0.1,78.7-27.8,78.7-27.8
		c53-42.3,52.6-102.5,52.6-102.5s-54.9-4.1-99.9,35.6c0,0-26.9,24.9-35.4,54.4l-0.2,0.8l-0.2-0.8C126.5,99,99.7,74,99.7,74
		C54.9,34.1,0,38,0,38S-0.8,98.1,52.1,140.7z M148.3,151.8c0.9-35.7,32.9-65,32.9-65c29.6-30,69-28.5,69-28.5
		c-6.8,30.6-26.5,53.7-26.5,53.7C189.9,153.7,148.3,151.8,148.3,151.8L148.3,151.8z M20.3,57.7c0,0,39.4-1.2,68.9,28.9
		c0,0,31.8,29.4,32.6,65.1c0,0-41.6,1.8-75.1-40.1C46.6,111.6,27,88.3,20.3,57.7z"/>
	<path class="st2" d="M246.2,1.3c-0.9,0.2,3.4,11.7,4.7,18.4c0,0,1.7,7.7,0.7,20.3c-0.5,6.4,9.8,12.2,15.4,9.7
		c4.5-2,3.7-14.1,3.4-18.9c-0.3-4.8-1.1-11.5-2.8-19.5c-1.7-7.9-9.6-12.9-17.5-11C249,0.7,247.6,1,246.2,1.3z"/>
	<path class="st2" d="M20.5,0.4C12.6-1.5,4.7,3.5,3,11.4c-1.7,8-2.5,14.7-2.8,19.5c-0.3,4.9-1.1,17,3.4,18.9
		c5.6,2.4,15.9-3.3,15.4-9.7c-0.9-12.6,0.7-20.3,0.7-20.3C21,13,25.3,1.6,24.4,1.4C23.1,1,21.7,0.7,20.5,0.4z"/>
	<path class="st2" d="M134.7,11.4c-42.8,0-72.2-4.1-85.2-6c-18.7-2.7-16.3-2.4-29-5L11,16c46,8.4,87.4,13.1,123.7,13.4h0.8
		c36.3-0.3,77.7-5,123.7-13.4l-7.8-15.8c-12.7,2.6-12,2.6-30.7,5.2c-12.9,1.9-42.3,6-85.2,6H134.7z"/>
	<g id="text">
	</g>
</g>
</svg>
