<?xml version="1.0" encoding="utf-8"?>
<!-- Generator: Adobe Illustrator 24.1.0, SVG Export Plug-In . SVG Version: 6.00 Build 0)  -->
<svg version="1.1" xmlns="http://www.w3.org/2000/svg" xmlns:xlink="http://www.w3.org/1999/xlink" x="0px" y="0px"
	 viewBox="0 0 1920 2029" style="enable-background:new 0 0 1920 2029;" xml:space="preserve">
<style type="text/css">
	.st0{fill:#003A4C;}
	.st1{fill:#EA3E00;}
	.st2{fill:#FFD2BC;}
</style>
<g id="Layer_1">
	<g id="logo-bg_16_">
		<path class="st0" d="M1119.2,65.1l-52.1-50.4c-23,84.1,36.8,138.3,36.8,138.3l16.1-83.5l18.1,81.6c62.8-56.1,33-136.4,33-136.4
			C1146.8,23.4,1119.2,65.1,1119.2,65.1z"/>
		<path class="st0" d="M1178.2,165.7c-45.2-4.1-54.4,14.1-54.4,14.1c35.5,90.9,145.7,61,145.7,61
			C1262.7,199.7,1178.2,165.7,1178.2,165.7z"/>
		<path class="st0" d="M1111.4,176.9c-98.9-29.7-133.6,64.5-133.6,64.5c114.4,17.4,134.3-62.8,134.3-62.8"/>
	</g>
	<g id="logo-bg_14_">
		<path class="st0" d="M1439.1,65.1L1387,14.7c-23,84.1,36.8,138.3,36.8,138.3l16.1-83.5l18.1,81.6c62.8-56.1,33-136.4,33-136.4
			C1466.7,23.4,1439.1,65.1,1439.1,65.1z"/>
		<path class="st0" d="M1498.1,165.7c-45.2-4.1-54.4,14.1-54.4,14.1c35.5,90.9,145.7,61,145.7,61
			C1582.6,199.7,1498.1,165.7,1498.1,165.7z"/>
		<path class="st0" d="M1431.3,176.9c-98.9-29.7-133.6,64.5-133.6,64.5c114.4,17.4,134.3-62.8,134.3-62.8"/>
	</g>
	<g id="logo-bg_12_">
		<path class="st0" d="M1759,65.1l-52.1-50.4c-23,84.1,36.8,138.3,36.8,138.3l16.1-83.5l18.1,81.6c62.9-56.1,33-136.4,33-136.4
			C1786.7,23.4,1759,65.1,1759,65.1z"/>
		<path class="st0" d="M1818,165.7c-45.2-4.1-54.4,14.1-54.4,14.1c35.5,90.9,145.7,61,145.7,61C1902.5,199.7,1818,165.7,1818,165.7z
			"/>
		<path class="st0" d="M1751.2,176.9c-98.9-29.7-133.6,64.5-133.6,64.5c114.4,17.4,134.3-62.8,134.3-62.8"/>
	</g>
	<g id="logo-bg_5_">
		<path class="st0" d="M1171.1,492.5c0,0,29.8-80.3-33-136.4l-18.1,81.6l-16.1-83.5c0,0-59.8,54.2-36.8,138.3l52.1-50.4
			C1119.2,442.1,1146.8,483.8,1171.1,492.5z"/>
		<path class="st0" d="M1269.5,266.4c0,0-110.2-29.9-145.7,61c0,0,9.1,18.2,54.4,14.1C1178.2,341.5,1262.7,307.5,1269.5,266.4z"/>
		<path class="st0" d="M1112.2,328.6c0,0-19.9-80.2-134.3-62.8c0,0,34.6,94.2,133.6,64.5"/>
	</g>
	<g id="logo-bg_2_">
		<path class="st0" d="M1491,492.5c0,0,29.8-80.3-33-136.4l-18.1,81.6l-16.1-83.5c0,0-59.8,54.2-36.8,138.3l52.1-50.4
			C1439.1,442.1,1466.7,483.8,1491,492.5z"/>
		<path class="st0" d="M1589.4,266.4c0,0-110.2-29.9-145.7,61c0,0,9.1,18.2,54.4,14.1C1498.1,341.5,1582.6,307.5,1589.4,266.4z"/>
		<path class="st0" d="M1432.1,328.6c0,0-19.9-80.2-134.3-62.8c0,0,34.6,94.2,133.6,64.5"/>
	</g>
	<g id="logo-bg_1_">
		<path class="st0" d="M1810.9,492.5c0,0,29.8-80.3-33-136.4l-18.1,81.6l-16.1-83.5c0,0-59.8,54.2-36.8,138.3l52.1-50.4
			C1759,442.1,1786.7,483.8,1810.9,492.5z"/>
		<path class="st0" d="M1909.4,266.4c0,0-110.2-29.9-145.7,61c0,0,9.1,18.2,54.4,14.1C1818,341.5,1902.5,307.5,1909.4,266.4z"/>
		<path class="st0" d="M1752,328.6c0,0-19.9-80.2-134.3-62.8c0,0,34.6,94.2,133.6,64.5"/>
	</g>
	<g id="logo-bg_9_">
		<path class="st0" d="M1119.2,572.3l-52.1-50.4c-23,84.1,36.8,138.3,36.8,138.3l16.1-83.5l18.1,81.6c62.8-56.1,33-136.4,33-136.4
			C1146.8,530.5,1119.2,572.3,1119.2,572.3z"/>
		<path class="st0" d="M1178.2,672.8c-45.2-4.1-54.4,14.1-54.4,14.1c35.5,90.9,145.7,61,145.7,61
			C1262.7,706.8,1178.2,672.8,1178.2,672.8z"/>
		<path class="st0" d="M1111.4,684c-98.9-29.7-133.6,64.5-133.6,64.5c114.4,17.4,134.3-62.8,134.3-62.8"/>
	</g>
	<g id="logo-bg_8_">
		<path class="st0" d="M1439.1,572.3l-52.1-50.4c-23,84.1,36.8,138.3,36.8,138.3l16.1-83.5l18.1,81.6c62.8-56.1,33-136.4,33-136.4
			C1466.7,530.5,1439.1,572.3,1439.1,572.3z"/>
		<path class="st0" d="M1498.1,672.8c-45.2-4.1-54.4,14.1-54.4,14.1c35.5,90.9,145.7,61,145.7,61
			C1582.6,706.8,1498.1,672.8,1498.1,672.8z"/>
		<path class="st0" d="M1431.3,684c-98.9-29.7-133.6,64.5-133.6,64.5c114.4,17.4,134.3-62.8,134.3-62.8"/>
	</g>
	<g id="logo-bg_7_">
		<path class="st0" d="M1759,572.3l-52.1-50.4c-23,84.1,36.8,138.3,36.8,138.3l16.1-83.5l18.1,81.6c62.9-56.1,33-136.4,33-136.4
			C1786.7,530.5,1759,572.3,1759,572.3z"/>
		<path class="st0" d="M1818,672.8c-45.2-4.1-54.4,14.1-54.4,14.1c35.5,90.9,145.7,61,145.7,61C1902.5,706.8,1818,672.8,1818,672.8z
			"/>
		<path class="st0" d="M1751.2,684c-98.9-29.7-133.6,64.5-133.6,64.5c114.4,17.4,134.3-62.8,134.3-62.8"/>
	</g>
	<path class="st0" d="M1171.1,999.7c0,0,29.8-80.3-33-136.4l-18.1,81.6l-16.1-83.5c0,0-59.8,54.2-36.8,138.3l52.1-50.4
		C1119.2,949.2,1146.8,990.9,1171.1,999.7z"/>
	<path class="st0" d="M1269.5,773.6c0,0-110.2-29.9-145.7,61c0,0,9.1,18.2,54.4,14.1C1178.2,848.7,1262.7,814.7,1269.5,773.6z"/>
	<path class="st0" d="M1112.2,835.8c0,0-19.9-80.2-134.3-62.8c0,0,34.6,94.2,133.6,64.5"/>
	<path class="st0" d="M1491,999.7c0,0,29.8-80.3-33-136.4l-18.1,81.6l-16.1-83.5c0,0-59.8,54.2-36.8,138.3l52.1-50.4
		C1439.1,949.2,1466.7,990.9,1491,999.7z"/>
	<path class="st0" d="M1589.4,773.6c0,0-110.2-29.9-145.7,61c0,0,9.1,18.2,54.4,14.1C1498.1,848.7,1582.6,814.7,1589.4,773.6z"/>
	<path class="st0" d="M1432.1,835.8c0,0-19.9-80.2-134.3-62.8c0,0,34.6,94.2,133.6,64.5"/>
	<g id="logo-bg_24_">
		<path class="st0" d="M159.6,65.1l-52.1-50.4c-23,84.1,36.8,138.3,36.8,138.3l16.1-83.5l18.1,81.6c62.9-56.1,33-136.4,33-136.4
			C187.2,23.4,159.6,65.1,159.6,65.1z"/>
		<path class="st0" d="M218.6,165.7c-45.2-4.1-54.4,14.1-54.4,14.1c35.5,90.9,145.7,61,145.7,61
			C303.1,199.7,218.6,165.7,218.6,165.7z"/>
		<path class="st0" d="M151.8,176.9c-98.9-29.7-133.6,64.5-133.6,64.5c114.4,17.4,134.3-62.8,134.3-62.8"/>
	</g>
	<g id="logo-bg_23_">
		<path class="st0" d="M479.5,65.1l-52.1-50.4c-23,84.1,36.8,138.3,36.8,138.3l16.1-83.5l18.1,81.6c62.9-56.1,33-136.4,33-136.4
			C507.1,23.4,479.5,65.1,479.5,65.1z"/>
		<path class="st0" d="M538.5,165.7c-45.2-4.1-54.4,14.1-54.4,14.1c35.5,90.9,145.7,61,145.7,61C623,199.7,538.5,165.7,538.5,165.7z
			"/>
		<path class="st0" d="M471.7,176.9c-98.9-29.7-133.6,64.5-133.6,64.5c114.4,17.4,134.3-62.8,134.3-62.8"/>
	</g>
	<g id="logo-bg_22_">
		<path class="st0" d="M799.4,65.1l-52.1-50.4c-23,84.1,36.8,138.3,36.8,138.3l16.1-83.5l18.1,81.6c62.9-56.1,33-136.4,33-136.4
			C827,23.4,799.4,65.1,799.4,65.1z"/>
		<path class="st0" d="M858.4,165.7c-45.2-4.1-54.4,14.1-54.4,14.1c35.5,90.9,145.7,61,145.7,61
			C942.9,199.7,858.4,165.7,858.4,165.7z"/>
		<path class="st0" d="M791.6,176.9C692.7,147.2,658,241.4,658,241.4c114.4,17.4,134.3-62.8,134.3-62.8"/>
	</g>
	<g id="logo-bg_21_">
		<path class="st0" d="M211.5,492.5c0,0,29.8-80.3-33-136.4l-18.1,81.6l-16.1-83.5c0,0-59.8,54.2-36.8,138.3l52.1-50.4
			C159.6,442.1,187.2,483.8,211.5,492.5z"/>
		<path class="st0" d="M309.9,266.4c0,0-110.2-29.9-145.7,61c0,0,9.1,18.2,54.4,14.1C218.6,341.5,303.1,307.5,309.9,266.4z"/>
		<path class="st0" d="M152.6,328.6c0,0-19.9-80.2-134.3-62.8c0,0,34.6,94.2,133.6,64.5"/>
	</g>
	<g id="logo-bg_20_">
		<path class="st0" d="M531.4,492.5c0,0,29.8-80.3-33-136.4l-18.1,81.6l-16.1-83.5c0,0-59.8,54.2-36.8,138.3l52.1-50.4
			C479.5,442.1,507.1,483.8,531.4,492.5z"/>
		<path class="st0" d="M629.8,266.4c0,0-110.2-29.9-145.7,61c0,0,9.1,18.2,54.4,14.1C538.5,341.5,623,307.5,629.8,266.4z"/>
		<path class="st0" d="M472.5,328.6c0,0-19.9-80.2-134.3-62.8c0,0,34.6,94.2,133.6,64.5"/>
	</g>
	<g id="logo-bg_19_">
		<path class="st0" d="M851.3,492.5c0,0,29.8-80.3-33-136.4l-18.1,81.6l-16.1-83.5c0,0-59.8,54.2-36.8,138.3l52.1-50.4
			C799.4,442.1,827,483.8,851.3,492.5z"/>
		<path class="st0" d="M949.7,266.4c0,0-110.2-29.9-145.7,61c0,0,9.1,18.2,54.4,14.1C858.4,341.5,942.9,307.5,949.7,266.4z"/>
		<path class="st0" d="M792.4,328.6c0,0-19.9-80.2-134.3-62.8c0,0,34.6,94.2,133.6,64.5"/>
	</g>
	<g id="logo-bg_18_">
		<path class="st0" d="M159.6,572.3l-52.1-50.4c-23,84.1,36.8,138.3,36.8,138.3l16.1-83.5l18.1,81.6c62.9-56.1,33-136.4,33-136.4
			C187.2,530.5,159.6,572.3,159.6,572.3z"/>
		<path class="st0" d="M218.6,672.8c-45.2-4.1-54.4,14.1-54.4,14.1c35.5,90.9,145.7,61,145.7,61
			C303.1,706.8,218.6,672.8,218.6,672.8z"/>
		<path class="st0" d="M151.8,684c-98.9-29.7-133.6,64.5-133.6,64.5c114.4,17.4,134.3-62.8,134.3-62.8"/>
	</g>
	<g id="logo-bg_17_">
		<path class="st0" d="M479.5,572.3l-52.1-50.4c-23,84.1,36.8,138.3,36.8,138.3l16.1-83.5l18.1,81.6c62.9-56.1,33-136.4,33-136.4
			C507.1,530.5,479.5,572.3,479.5,572.3z"/>
		<path class="st0" d="M538.5,672.8c-45.2-4.1-54.4,14.1-54.4,14.1c35.5,90.9,145.7,61,145.7,61C623,706.8,538.5,672.8,538.5,672.8z
			"/>
		<path class="st0" d="M471.7,684c-98.9-29.7-133.6,64.5-133.6,64.5c114.4,17.4,134.3-62.8,134.3-62.8"/>
	</g>
	<g id="logo-bg_15_">
		<path class="st0" d="M799.4,572.3l-52.1-50.4c-23,84.1,36.8,138.3,36.8,138.3l16.1-83.5l18.1,81.6c62.9-56.1,33-136.4,33-136.4
			C827,530.5,799.4,572.3,799.4,572.3z"/>
		<path class="st0" d="M858.4,672.8c-45.2-4.1-54.4,14.1-54.4,14.1c35.5,90.9,145.7,61,145.7,61
			C942.9,706.8,858.4,672.8,858.4,672.8z"/>
		<path class="st0" d="M791.6,684C692.7,654.3,658,748.5,658,748.5c114.4,17.4,134.3-62.8,134.3-62.8"/>
	</g>
	<g id="logo-bg_13_">
		<path class="st0" d="M211.5,999.7c0,0,29.8-80.3-33-136.4l-18.1,81.6l-16.1-83.5c0,0-59.8,54.2-36.8,138.3l52.1-50.4
			C159.6,949.2,187.2,990.9,211.5,999.7z"/>
		<path class="st0" d="M309.9,773.6c0,0-110.2-29.9-145.7,61c0,0,9.1,18.2,54.4,14.1C218.6,848.7,303.1,814.7,309.9,773.6z"/>
		<path class="st0" d="M152.6,835.8c0,0-19.9-80.2-134.3-62.8c0,0,34.6,94.2,133.6,64.5"/>
	</g>
	<g id="logo-bg_11_">
		<path class="st0" d="M531.4,999.7c0,0,29.8-80.3-33-136.4l-18.1,81.6l-16.1-83.5c0,0-59.8,54.2-36.8,138.3l52.1-50.4
			C479.5,949.2,507.1,990.9,531.4,999.7z"/>
		<path class="st0" d="M629.8,773.6c0,0-110.2-29.9-145.7,61c0,0,9.1,18.2,54.4,14.1C538.5,848.7,623,814.7,629.8,773.6z"/>
		<path class="st0" d="M472.5,835.8c0,0-19.9-80.2-134.3-62.8c0,0,34.6,94.2,133.6,64.5"/>
	</g>
	<g id="logo-bg_10_">
		<path class="st0" d="M851.3,999.7c0,0,29.8-80.3-33-136.4l-18.1,81.6l-16.1-83.5c0,0-59.8,54.2-36.8,138.3l52.1-50.4
			C799.4,949.2,827,990.9,851.3,999.7z"/>
		<path class="st0" d="M949.7,773.6c0,0-110.2-29.9-145.7,61c0,0,9.1,18.2,54.4,14.1C858.4,848.7,942.9,814.7,949.7,773.6z"/>
		<path class="st0" d="M792.4,835.8c0,0-19.9-80.2-134.3-62.8c0,0,34.6,94.2,133.6,64.5"/>
	</g>
	<path class="st0" d="M1119.2,1079.5l-52.1-50.4c-23,84.1,36.8,138.3,36.8,138.3l16.1-83.5l18.1,81.6c62.8-56.1,33-136.4,33-136.4
		C1146.8,1037.8,1119.2,1079.5,1119.2,1079.5z"/>
	<path class="st0" d="M1178.2,1180.1c-45.2-4.1-54.4,14.1-54.4,14.1c35.5,90.9,145.7,61,145.7,61
		C1262.7,1214.1,1178.2,1180.1,1178.2,1180.1z"/>
	<path class="st0" d="M1111.4,1191.3c-98.9-29.7-133.6,64.5-133.6,64.5c114.4,17.4,134.3-62.8,134.3-62.8"/>
	<g id="logo-bg_36_">
		<path class="st0" d="M159.6,1079.5l-52.1-50.4c-23,84.1,36.8,138.3,36.8,138.3l16.1-83.5l18.1,81.6c62.9-56.1,33-136.4,33-136.4
			C187.2,1037.8,159.6,1079.5,159.6,1079.5z"/>
		<path class="st0" d="M218.6,1180.1c-45.2-4.1-54.4,14.1-54.4,14.1c35.5,90.9,145.7,61,145.7,61
			C303.1,1214.1,218.6,1180.1,218.6,1180.1z"/>
		<path class="st0" d="M151.8,1191.3c-98.9-29.7-133.6,64.5-133.6,64.5c114.4,17.4,134.3-62.8,134.3-62.8"/>
	</g>
	<g id="logo-bg_35_">
		<path class="st0" d="M479.5,1079.5l-52.1-50.4c-23,84.1,36.8,138.3,36.8,138.3l16.1-83.5l18.1,81.6c62.9-56.1,33-136.4,33-136.4
			C507.1,1037.8,479.5,1079.5,479.5,1079.5z"/>
		<path class="st0" d="M538.5,1180.1c-45.2-4.1-54.4,14.1-54.4,14.1c35.5,90.9,145.7,61,145.7,61
			C623,1214.1,538.5,1180.1,538.5,1180.1z"/>
		<path class="st0" d="M471.7,1191.3c-98.9-29.7-133.6,64.5-133.6,64.5c114.4,17.4,134.3-62.8,134.3-62.8"/>
	</g>
	<g id="logo-bg_34_">
		<path class="st0" d="M799.4,1079.5l-52.1-50.4c-23,84.1,36.8,138.3,36.8,138.3l16.1-83.5l18.1,81.6c62.9-56.1,33-136.4,33-136.4
			C827,1037.8,799.4,1079.5,799.4,1079.5z"/>
		<path class="st0" d="M858.4,1180.1c-45.2-4.1-54.4,14.1-54.4,14.1c35.5,90.9,145.7,61,145.7,61
			C942.9,1214.1,858.4,1180.1,858.4,1180.1z"/>
		<path class="st0" d="M791.6,1191.3c-98.9-29.7-133.6,64.5-133.6,64.5c114.4,17.4,134.3-62.8,134.3-62.8"/>
	</g>
	<path class="st0" d="M211.5,1506.9c0,0,29.8-80.3-33-136.4l-18.1,81.6l-16.1-83.5c0,0-59.8,54.2-36.8,138.3l52.1-50.4
		C159.6,1456.5,187.2,1498.2,211.5,1506.9z"/>
	<path class="st0" d="M309.9,1280.8c0,0-110.2-29.9-145.7,61c0,0,9.1,18.2,54.4,14.1C218.6,1355.9,303.1,1321.9,309.9,1280.8z"/>
	<path class="st0" d="M152.6,1343c0,0-19.9-80.2-134.3-62.8c0,0,34.6,94.2,133.6,64.5"/>
	<path class="st0" d="M531.4,1506.9c0,0,29.8-80.3-33-136.4l-18.1,81.6l-16.1-83.5c0,0-59.8,54.2-36.8,138.3l52.1-50.4
		C479.5,1456.5,507.1,1498.2,531.4,1506.9z"/>
	<path class="st0" d="M629.8,1280.8c0,0-110.2-29.9-145.7,61c0,0,9.1,18.2,54.4,14.1C538.5,1355.9,623,1321.9,629.8,1280.8z"/>
	<path class="st0" d="M472.5,1343c0,0-19.9-80.2-134.3-62.8c0,0,34.6,94.2,133.6,64.5"/>
	<path class="st0" d="M851.3,1506.9c0,0,29.8-80.3-33-136.4l-18.1,81.6l-16.1-83.5c0,0-59.8,54.2-36.8,138.3l52.1-50.4
		C799.4,1456.5,827,1498.2,851.3,1506.9z"/>
	<path class="st0" d="M949.7,1280.8c0,0-110.2-29.9-145.7,61c0,0,9.1,18.2,54.4,14.1C858.4,1355.9,942.9,1321.9,949.7,1280.8z"/>
	<path class="st0" d="M792.4,1343c0,0-19.9-80.2-134.3-62.8c0,0,34.6,94.2,133.6,64.5"/>
	<path class="st0" d="M159.6,1586.7l-52.1-50.4c-23,84.1,36.8,138.3,36.8,138.3l16.1-83.5l18.1,81.6c62.9-56.1,33-136.4,33-136.4
		C187.2,1544.9,159.6,1586.7,159.6,1586.7z"/>
	<path class="st0" d="M218.6,1687.2c-45.2-4.1-54.4,14.1-54.4,14.1c35.5,90.9,145.7,61,145.7,61
		C303.1,1721.2,218.6,1687.2,218.6,1687.2z"/>
	<path class="st0" d="M151.8,1698.4c-98.9-29.7-133.6,64.5-133.6,64.5c114.4,17.4,134.3-62.8,134.3-62.8"/>
	<path class="st0" d="M479.5,1586.7l-52.1-50.4c-23,84.1,36.8,138.3,36.8,138.3l16.1-83.5l18.1,81.6c62.9-56.1,33-136.4,33-136.4
		C507.1,1544.9,479.5,1586.7,479.5,1586.7z"/>
	<path class="st0" d="M538.5,1687.2c-45.2-4.1-54.4,14.1-54.4,14.1c35.5,90.9,145.7,61,145.7,61
		C623,1721.2,538.5,1687.2,538.5,1687.2z"/>
	<path class="st0" d="M471.7,1698.4c-98.9-29.7-133.6,64.5-133.6,64.5c114.4,17.4,134.3-62.8,134.3-62.8"/>
	<path class="st0" d="M211.5,2014.1c0,0,29.8-80.3-33-136.4l-18.1,81.6l-16.1-83.5c0,0-59.8,54.2-36.8,138.3l52.1-50.4
		C159.6,1963.6,187.2,2005.3,211.5,2014.1z"/>
	<path class="st0" d="M309.9,1788c0,0-110.2-29.9-145.7,61c0,0,9.1,18.2,54.4,14.1C218.6,1863.1,303.1,1829.1,309.9,1788z"/>
	<path class="st0" d="M152.6,1850.2c0,0-19.9-80.2-134.3-62.8c0,0,34.6,94.2,133.6,64.5"/>
</g>
<g id="Layer_3">
	<path class="st1" d="M1759.5,69.5c0,0-30,61,4,102C1763.5,171.5,1788.5,116.5,1759.5,69.5z"/>
	<path class="st1" d="M1439.5,69.5c0,0-30,61,4,102C1443.5,171.5,1468.5,116.5,1439.5,69.5z"/>
	<path class="st1" d="M1119.5,69.5c0,0-30,61,4,102C1123.5,171.5,1148.5,116.5,1119.5,69.5z"/>
	<path class="st1" d="M799.5,69.5c0,0-30,61,4,102C803.5,171.5,828.5,116.5,799.5,69.5z"/>
	<path class="st1" d="M479.5,69.5c0,0-30,61,4,102C483.5,171.5,508.5,116.5,479.5,69.5z"/>
	<path class="st1" d="M159.5,69.5c0,0-30,61,4,102C163.5,171.5,188.5,116.5,159.5,69.5z"/>
	<path class="st1" d="M1759.5,570.5c0,0-30,61,4,102C1763.5,672.5,1788.5,617.5,1759.5,570.5z"/>
	<path class="st1" d="M1439.5,570.5c0,0-30,61,4,102C1443.5,672.5,1468.5,617.5,1439.5,570.5z"/>
	<path class="st1" d="M1119.5,570.5c0,0-30,61,4,102C1123.5,672.5,1148.5,617.5,1119.5,570.5z"/>
	<path class="st1" d="M799.5,570.5c0,0-30,61,4,102C803.5,672.5,828.5,617.5,799.5,570.5z"/>
	<path class="st1" d="M479.5,570.5c0,0-30,61,4,102C483.5,672.5,508.5,617.5,479.5,570.5z"/>
	<path class="st1" d="M159.5,570.5c0,0-30,61,4,102C163.5,672.5,188.5,617.5,159.5,570.5z"/>
	<path class="st1" d="M1439.5,844.5c0,0-30,61,4,102C1443.5,946.5,1468.5,891.5,1439.5,844.5z"/>
	<path class="st1" d="M1119.5,844.5c0,0-30,61,4,102C1123.5,946.5,1148.5,891.5,1119.5,844.5z"/>
	<path class="st1" d="M799.5,844.5c0,0-30,61,4,102C803.5,946.5,828.5,891.5,799.5,844.5z"/>
	<path class="st1" d="M479.5,844.5c0,0-30,61,4,102C483.5,946.5,508.5,891.5,479.5,844.5z"/>
	<path class="st1" d="M159.5,844.5c0,0-30,61,4,102C163.5,946.5,188.5,891.5,159.5,844.5z"/>
	<path class="st1" d="M1119.5,1082.5c0,0-30,61,4,102C1123.5,1184.5,1148.5,1129.5,1119.5,1082.5z"/>
	<path class="st1" d="M799.5,1082.5c0,0-30,61,4,102C803.5,1184.5,828.5,1129.5,799.5,1082.5z"/>
	<path class="st1" d="M479.5,1082.5c0,0-30,61,4,102C483.5,1184.5,508.5,1129.5,479.5,1082.5z"/>
	<path class="st1" d="M159.5,1082.5c0,0-30,61,4,102C163.5,1184.5,188.5,1129.5,159.5,1082.5z"/>
	<path class="st1" d="M799.5,1351.5c0,0-30,61,4,102C803.5,1453.5,828.5,1398.5,799.5,1351.5z"/>
	<path class="st1" d="M479.5,1351.5c0,0-30,61,4,102C483.5,1453.5,508.5,1398.5,479.5,1351.5z"/>
	<path class="st1" d="M159.5,1351.5c0,0-30,61,4,102C163.5,1453.5,188.5,1398.5,159.5,1351.5z"/>
	<path class="st1" d="M479.5,1589.5c0,0-30,61,4,102C483.5,1691.5,508.5,1636.5,479.5,1589.5z"/>
	<path class="st1" d="M159.5,1589.5c0,0-30,61,4,102C163.5,1691.5,188.5,1636.5,159.5,1589.5z"/>
	<path class="st1" d="M159.5,1854.5c0,0-30,61,4,102C163.5,1956.5,188.5,1901.5,159.5,1854.5z"/>
</g>
<g id="Layer_2">
	<path class="st2" d="M1073.4,237.4c0,0,38.6-20.4,55.6-60.6l1.6-3.7l0,0v0l0,0l0.2-0.4l0,0l0-0.1l0,0l1.6-3.7
		c17-40.1,4.9-82.1,4.9-82.1C1119,22.6,1064.3,0,1064.3,0s-24.8,48.2-5.9,104.2c0,0,12.3,33.9,35.8,52.9l0.6,0.5l-0.8-0.1
		c-30-3.7-63,11.1-63,11.1c-53.3,25.4-70.8,76.7-70.8,76.7S1014.6,269,1073.4,237.4z M1112.9,70.7c25,46.6,7.3,83.6,7.3,83.6
		c-32-14.4-46.4-54.7-46.4-54.7c-15.9-38.3,0.5-73.5,0.5-73.5C1099.5,43.9,1112.9,70.7,1112.9,70.7L1112.9,70.7z M1044.9,231.2
		c0,0-28.6,9-58.9,3.3c0,0,13.9-36.3,52.5-51.5c0,0,38.9-17.7,71.6-4.7C1110.1,178.3,1095.8,216.7,1044.9,231.2L1044.9,231.2z"/>
	<path class="st2" d="M1280.1,245.4c0,0-17.5-51.3-70.8-76.7c0,0-32.9-14.7-63-11.1l-0.8,0.1l0.6-0.5c23.5-19,35.8-52.9,35.8-52.9
		c18.9-56-5.9-104.2-5.9-104.2s-54.7,22.6-72.9,86.9c0,0-12.1,41.9,4.9,82.1l1.6,3.7l0,0v0l0,0l0.2,0.4l0,0l0,0l0,0l1.6,3.7
		c17,40.1,55.6,60.6,55.6,60.6C1225.8,269.1,1280.1,245.4,1280.1,245.4z M1120.2,154.3c0,0-17.7-37,7.3-83.6
		c0,0,13.5-26.8,38.6-44.6c0,0,16.4,35.2,0.5,73.5C1166.6,99.7,1152.2,139.9,1120.2,154.3L1120.2,154.3z M1195.5,231.2
		c-50.9-14.5-65.1-52.9-65.1-52.9c32.7-13,71.5,4.7,71.5,4.7c38.6,15.2,52.5,51.5,52.5,51.5C1224.1,240.2,1195.5,231.2,1195.5,231.2
		z"/>
	<path class="st2" d="M1393.3,237.4c0,0,38.6-20.4,55.6-60.6l1.6-3.7l0,0v0l0,0l0.2-0.4l0,0l0-0.1l0,0l1.6-3.7
		c17-40.1,4.9-82.1,4.9-82.1C1438.9,22.6,1384.2,0,1384.2,0s-24.8,48.2-5.9,104.2c0,0,12.3,33.9,35.8,52.9l0.6,0.5l-0.8-0.1
		c-30-3.7-63,11.1-63,11.1c-53.3,25.4-70.8,76.7-70.8,76.7S1334.5,269,1393.3,237.4z M1432.8,70.7c25,46.6,7.3,83.6,7.3,83.6
		c-32-14.4-46.4-54.7-46.4-54.7c-15.9-38.3,0.5-73.5,0.5-73.5C1419.4,43.9,1432.8,70.7,1432.8,70.7L1432.8,70.7z M1364.8,231.2
		c0,0-28.6,9-58.9,3.3c0,0,13.9-36.3,52.5-51.5c0,0,38.9-17.7,71.6-4.7C1430,178.3,1415.7,216.7,1364.8,231.2L1364.8,231.2z"/>
	<path class="st2" d="M1600,245.4c0,0-17.5-51.3-70.8-76.7c0,0-32.9-14.7-63-11.1l-0.8,0.1l0.6-0.5c23.5-19,35.8-52.9,35.8-52.9
		c18.9-56-5.9-104.2-5.9-104.2s-54.7,22.6-72.9,86.9c0,0-12.1,41.9,4.9,82.1l1.6,3.7l0,0v0l0,0l0.2,0.4l0,0l0,0l0,0l1.6,3.7
		c17,40.1,55.6,60.6,55.6,60.6C1545.7,269.1,1600,245.4,1600,245.4z M1440.1,154.3c0,0-17.7-37,7.3-83.6c0,0,13.5-26.8,38.6-44.6
		c0,0,16.4,35.2,0.5,73.5C1486.5,99.7,1472.1,139.9,1440.1,154.3L1440.1,154.3z M1515.4,231.2c-50.9-14.5-65.1-52.9-65.1-52.9
		c32.7-13,71.5,4.7,71.5,4.7c38.6,15.2,52.5,51.5,52.5,51.5C1544,240.2,1515.4,231.2,1515.4,231.2z"/>
	<path class="st2" d="M1713.2,237.4c0,0,38.6-20.4,55.6-60.6l1.6-3.7l0,0v0l0,0l0.2-0.4l0,0l0-0.1l0,0l1.6-3.7
		c17-40.1,4.9-82.1,4.9-82.1C1758.8,22.6,1704.1,0,1704.1,0s-24.8,48.2-5.9,104.2c0,0,12.3,33.9,35.8,52.9l0.6,0.5l-0.8-0.1
		c-30-3.7-63,11.1-63,11.1c-53.3,25.4-70.8,76.7-70.8,76.7S1654.4,269,1713.2,237.4z M1752.7,70.7c25,46.6,7.3,83.6,7.3,83.6
		c-32-14.4-46.4-54.7-46.4-54.7c-15.9-38.3,0.5-73.5,0.5-73.5C1739.3,43.9,1752.7,70.7,1752.7,70.7L1752.7,70.7z M1684.7,231.2
		c0,0-28.6,9-58.9,3.3c0,0,13.9-36.3,52.5-51.5c0,0,38.9-17.7,71.6-4.7C1749.9,178.3,1735.6,216.7,1684.7,231.2L1684.7,231.2z"/>
	<path class="st2" d="M1919.9,245.4c0,0-17.5-51.3-70.8-76.7c0,0-32.9-14.7-63-11.1l-0.8,0.1l0.6-0.5c23.5-19,35.8-52.9,35.8-52.9
		c18.9-56-5.9-104.2-5.9-104.2s-54.7,22.6-72.9,86.9c0,0-12.1,41.9,4.9,82.1l1.6,3.7l0,0v0l0,0l0.2,0.4l0,0l0,0l0,0l1.6,3.7
		c17,40.1,55.6,60.6,55.6,60.6C1865.6,269.1,1919.9,245.4,1919.9,245.4z M1760,154.3c0,0-17.7-37,7.3-83.6c0,0,13.5-26.8,38.6-44.6
		c0,0,16.4,35.2,0.5,73.5C1806.4,99.7,1792,139.9,1760,154.3L1760,154.3z M1835.3,231.2c-50.9-14.5-65.1-52.9-65.1-52.9
		c32.7-13,71.5,4.7,71.5,4.7c38.6,15.2,52.5,51.5,52.5,51.5C1863.9,240.2,1835.3,231.2,1835.3,231.2z"/>
	<g id="logo_26_">
		<path class="st2" d="M113.8,237.4c0,0,38.6-20.4,55.6-60.6l1.6-3.7l0,0v0l0,0l0.2-0.4l0,0l0-0.1l0,0l1.6-3.7
			c17-40.1,4.9-82.1,4.9-82.1C159.4,22.6,104.7,0,104.7,0s-24.8,48.2-5.9,104.2c0,0,12.3,33.9,35.8,52.9l0.6,0.5l-0.8-0.1
			c-30-3.7-63,11.1-63,11.1C18.1,194,0.6,245.4,0.6,245.4S54.9,269,113.8,237.4z M153.3,70.7c25,46.6,7.3,83.6,7.3,83.6
			c-32-14.4-46.4-54.7-46.4-54.7c-15.9-38.3,0.5-73.5,0.5-73.5C139.8,43.9,153.3,70.7,153.3,70.7L153.3,70.7z M85.3,231.2
			c0,0-28.6,9-58.9,3.3c0,0,13.9-36.3,52.5-51.5c0,0,38.9-17.7,71.6-4.7C150.4,178.3,136.1,216.7,85.3,231.2L85.3,231.2z"/>
		<path class="st2" d="M320.5,245.4c0,0-17.5-51.3-70.8-76.7c0,0-32.9-14.7-63-11.1l-0.8,0.1l0.6-0.5c23.5-19,35.8-52.9,35.8-52.9
			c18.9-56-5.9-104.2-5.9-104.2s-54.7,22.6-72.9,86.9c0,0-12.1,41.9,4.9,82.1l1.6,3.7l0,0v0l0,0l0.2,0.4l0,0l0,0l0,0l1.6,3.7
			c17,40.1,55.6,60.6,55.6,60.6C266.2,269.1,320.5,245.4,320.5,245.4z M160.5,154.3c0,0-17.7-37,7.3-83.6c0,0,13.5-26.8,38.6-44.6
			c0,0,16.4,35.2,0.5,73.5C206.9,99.7,192.6,139.9,160.5,154.3L160.5,154.3z M235.9,231.2c-50.9-14.5-65.1-52.9-65.1-52.9
			c32.7-13,71.5,4.7,71.5,4.7c38.6,15.2,52.5,51.5,52.5,51.5C264.5,240.2,235.9,231.2,235.9,231.2z"/>
	</g>
	<g id="logo_25_">
		<path class="st2" d="M433.7,237.4c0,0,38.6-20.4,55.6-60.6l1.6-3.7l0,0v0l0,0l0.2-0.4l0,0l0-0.1l0,0l1.6-3.7
			c17-40.1,4.9-82.1,4.9-82.1C479.3,22.6,424.6,0,424.6,0s-24.8,48.2-5.9,104.2c0,0,12.3,33.9,35.8,52.9l0.6,0.5l-0.8-0.1
			c-30-3.7-63,11.1-63,11.1c-53.3,25.4-70.8,76.7-70.8,76.7S374.8,269,433.7,237.4z M473.2,70.7c25,46.6,7.3,83.6,7.3,83.6
			c-32-14.4-46.4-54.7-46.4-54.7c-15.9-38.3,0.5-73.5,0.5-73.5C459.7,43.9,473.2,70.7,473.2,70.7L473.2,70.7z M405.2,231.2
			c0,0-28.6,9-58.9,3.3c0,0,13.9-36.3,52.5-51.5c0,0,38.9-17.7,71.6-4.7C470.3,178.3,456,216.7,405.2,231.2L405.2,231.2z"/>
		<path class="st2" d="M640.4,245.4c0,0-17.5-51.3-70.8-76.7c0,0-32.9-14.7-63-11.1l-0.8,0.1l0.6-0.5c23.5-19,35.8-52.9,35.8-52.9
			c18.9-56-5.9-104.2-5.9-104.2s-54.7,22.6-72.9,86.9c0,0-12.1,41.9,4.9,82.1l1.6,3.7l0,0v0l0,0l0.2,0.4l0,0l0,0l0,0l1.6,3.7
			c17,40.1,55.6,60.6,55.6,60.6C586.1,269.1,640.4,245.4,640.4,245.4z M480.4,154.3c0,0-17.7-37,7.3-83.6c0,0,13.5-26.8,38.6-44.6
			c0,0,16.4,35.2,0.5,73.5C526.8,99.7,512.5,139.9,480.4,154.3L480.4,154.3z M555.8,231.2c-50.9-14.5-65.1-52.9-65.1-52.9
			c32.7-13,71.5,4.7,71.5,4.7c38.6,15.2,52.5,51.5,52.5,51.5C584.4,240.2,555.8,231.2,555.8,231.2z"/>
	</g>
	<g id="logo_24_">
		<path class="st2" d="M753.6,237.4c0,0,38.6-20.4,55.6-60.6l1.6-3.7l0,0v0l0,0l0.2-0.4l0,0l0-0.1l0,0l1.6-3.7
			c17-40.1,4.9-82.1,4.9-82.1C799.2,22.6,744.5,0,744.5,0s-24.8,48.2-5.9,104.2c0,0,12.3,33.9,35.8,52.9l0.6,0.5l-0.8-0.1
			c-30-3.7-63,11.1-63,11.1c-53.3,25.4-70.8,76.7-70.8,76.7S694.7,269,753.6,237.4z M793.1,70.7c25,46.6,7.3,83.6,7.3,83.6
			c-32-14.4-46.4-54.7-46.4-54.7c-15.9-38.3,0.5-73.5,0.5-73.5C779.6,43.9,793.1,70.7,793.1,70.7L793.1,70.7z M725.1,231.2
			c0,0-28.6,9-58.9,3.3c0,0,13.9-36.3,52.5-51.5c0,0,38.9-17.7,71.6-4.7C790.2,178.3,775.9,216.7,725.1,231.2L725.1,231.2z"/>
		<path class="st2" d="M960.3,245.4c0,0-17.5-51.3-70.8-76.7c0,0-32.9-14.7-63-11.1l-0.8,0.1l0.6-0.5c23.5-19,35.8-52.9,35.8-52.9
			c18.9-56-5.9-104.2-5.9-104.2s-54.7,22.6-72.9,86.9c0,0-12.1,41.9,4.9,82.1l1.6,3.7l0,0v0l0,0l0.2,0.4l0,0l0,0l0,0l1.6,3.7
			c17,40.1,55.6,60.6,55.6,60.6C906,269.1,960.3,245.4,960.3,245.4z M800.3,154.3c0,0-17.7-37,7.3-83.6c0,0,13.5-26.8,38.6-44.6
			c0,0,16.4,35.2,0.5,73.5C846.7,99.7,832.4,139.9,800.3,154.3L800.3,154.3z M875.7,231.2c-50.9-14.5-65.1-52.9-65.1-52.9
			c32.7-13,71.5,4.7,71.5,4.7c38.6,15.2,52.5,51.5,52.5,51.5C904.3,240.2,875.7,231.2,875.7,231.2z"/>
	</g>
	<path class="st2" d="M960.3,261.8c0,0,17.5,51.3,70.8,76.7c0,0,32.9,14.8,63,11.1l0.8-0.1l-0.6,0.5c-23.6,19-35.8,52.9-35.8,52.9
		c-18.9,56,5.9,104.2,5.9,104.2s54.8-22.6,72.9-86.8c0,0,12.1-41.9-4.9-82.1l-1.6-3.7l0,0l0-0.1l0,0l-0.2-0.4l0,0v0l0,0l-1.6-3.7
		c-17-40.2-55.6-60.6-55.6-60.6C1014.6,238.2,960.3,261.8,960.3,261.8z M1112.9,436.5c0,0-13.5,26.8-38.6,44.6
		c0,0-16.4-35.2-0.5-73.5c0,0,14.4-40.2,46.4-54.7C1120.2,353,1137.9,389.9,1112.9,436.5L1112.9,436.5z M1044.9,276
		c50.9,14.4,65.1,52.8,65.1,52.8c-32.7,13-71.6-4.7-71.6-4.7C999.9,309,986,272.8,986,272.8C1016.3,267.1,1044.9,276,1044.9,276
		L1044.9,276z"/>
	<path class="st2" d="M1167,269.8c0,0-38.6,20.5-55.6,60.6l-1.6,3.7l0,0l0,0l0,0l-0.2,0.4l0,0v0l0,0l-1.6,3.7
		c-17,40.1-4.9,82.1-4.9,82.1c18.2,64.3,72.9,86.9,72.9,86.9s24.7-48.2,5.9-104.2c0,0-12.3-33.9-35.8-52.9l-0.6-0.5l0.8,0.1
		c30.1,3.7,63-11.1,63-11.1c53.3-25.4,70.8-76.7,70.8-76.7S1225.8,238.1,1167,269.8z M1120.2,352.9c32,14.4,46.4,54.6,46.4,54.6
		c15.9,38.3-0.5,73.5-0.5,73.5c-25.1-17.8-38.6-44.6-38.6-44.6C1102.5,389.9,1120.2,352.9,1120.2,352.9L1120.2,352.9z M1254.4,272.7
		c0,0-13.9,36.3-52.5,51.5c0,0-38.9,17.7-71.5,4.7c0,0,14.3-38.4,65.1-52.9C1195.5,276,1224.1,267,1254.4,272.7z"/>
	<path class="st2" d="M1280.2,261.8c0,0,17.5,51.3,70.8,76.7c0,0,32.9,14.8,63,11.1l0.8-0.1l-0.6,0.5c-23.6,19-35.8,52.9-35.8,52.9
		c-18.9,56,5.9,104.2,5.9,104.2s54.8-22.6,72.9-86.8c0,0,12.1-41.9-4.9-82.1l-1.6-3.7l0,0l0-0.1l0,0l-0.2-0.4l0,0v0l0,0l-1.6-3.7
		c-17-40.2-55.6-60.6-55.6-60.6C1334.5,238.2,1280.2,261.8,1280.2,261.8z M1432.8,436.5c0,0-13.5,26.8-38.6,44.6
		c0,0-16.4-35.2-0.5-73.5c0,0,14.4-40.2,46.4-54.7C1440.1,353,1457.8,389.9,1432.8,436.5L1432.8,436.5z M1364.8,276
		c50.9,14.4,65.1,52.8,65.1,52.8c-32.7,13-71.6-4.7-71.6-4.7c-38.6-15.2-52.5-51.5-52.5-51.5C1336.2,267.1,1364.8,276,1364.8,276
		L1364.8,276z"/>
	<path class="st2" d="M1486.9,269.8c0,0-38.6,20.5-55.6,60.6l-1.6,3.7l0,0l0,0l0,0l-0.2,0.4l0,0v0l0,0l-1.6,3.7
		c-17,40.1-4.9,82.1-4.9,82.1c18.2,64.3,72.9,86.9,72.9,86.9s24.7-48.2,5.9-104.2c0,0-12.3-33.9-35.8-52.9l-0.6-0.5l0.8,0.1
		c30.1,3.7,63-11.1,63-11.1c53.3-25.4,70.8-76.7,70.8-76.7S1545.7,238.1,1486.9,269.8z M1440.1,352.9c32,14.4,46.4,54.6,46.4,54.6
		c15.9,38.3-0.5,73.5-0.5,73.5c-25.1-17.8-38.6-44.6-38.6-44.6C1422.4,389.9,1440.1,352.9,1440.1,352.9L1440.1,352.9z M1574.3,272.7
		c0,0-13.9,36.3-52.5,51.5c0,0-38.9,17.7-71.5,4.7c0,0,14.3-38.4,65.1-52.9C1515.4,276,1544,267,1574.3,272.7z"/>
	<path class="st2" d="M1600.1,261.8c0,0,17.5,51.3,70.8,76.7c0,0,32.9,14.8,63,11.1l0.8-0.1l-0.6,0.5c-23.6,19-35.8,52.9-35.8,52.9
		c-18.9,56,5.9,104.2,5.9,104.2s54.8-22.6,72.9-86.8c0,0,12.1-41.9-4.9-82.1l-1.6-3.7l0,0l0-0.1l0,0l-0.2-0.4l0,0v0l0,0l-1.6-3.7
		c-17-40.2-55.6-60.6-55.6-60.6C1654.4,238.2,1600.1,261.8,1600.1,261.8z M1752.7,436.5c0,0-13.5,26.8-38.6,44.6
		c0,0-16.4-35.2-0.5-73.5c0,0,14.4-40.2,46.4-54.7C1760,353,1777.7,389.9,1752.7,436.5L1752.7,436.5z M1684.7,276
		c50.9,14.4,65.1,52.8,65.1,52.8c-32.7,13-71.6-4.7-71.6-4.7c-38.6-15.2-52.5-51.5-52.5-51.5C1656.1,267.1,1684.7,276,1684.7,276
		L1684.7,276z"/>
	<path class="st2" d="M1806.8,269.8c0,0-38.6,20.5-55.6,60.6l-1.6,3.7l0,0l0,0l0,0l-0.2,0.4l0,0v0l0,0l-1.6,3.7
		c-17,40.1-4.9,82.1-4.9,82.1c18.2,64.3,72.9,86.9,72.9,86.9s24.7-48.2,5.9-104.2c0,0-12.3-33.9-35.8-52.9l-0.6-0.5l0.8,0.1
		c30.1,3.7,63-11.1,63-11.1c53.3-25.4,70.8-76.7,70.8-76.7S1865.6,238.1,1806.8,269.8z M1760,352.9c32,14.4,46.4,54.6,46.4,54.6
		c15.9,38.3-0.5,73.5-0.5,73.5c-25.1-17.8-38.6-44.6-38.6-44.6C1742.3,389.9,1760,352.9,1760,352.9L1760,352.9z M1894.2,272.7
		c0,0-13.9,36.3-52.5,51.5c0,0-38.9,17.7-71.5,4.7c0,0,14.3-38.4,65.1-52.9C1835.3,276,1863.9,267,1894.2,272.7z"/>
	<g id="logo_23_">
		<path class="st2" d="M0.6,261.8c0,0,17.5,51.3,70.8,76.7c0,0,32.9,14.8,63,11.1l0.8-0.1l-0.6,0.5C111,369,98.8,403,98.8,403
			c-18.9,56,5.9,104.2,5.9,104.2s54.8-22.6,72.9-86.8c0,0,12.1-41.9-4.9-82.1l-1.6-3.7l0,0l0-0.1l0,0l-0.2-0.4l0,0v0l0,0l-1.6-3.7
			c-17-40.2-55.6-60.6-55.6-60.6C54.9,238.2,0.6,261.8,0.6,261.8z M153.3,436.5c0,0-13.5,26.8-38.6,44.6c0,0-16.4-35.2-0.5-73.5
			c0,0,14.4-40.2,46.4-54.7C160.6,353,178.3,389.9,153.3,436.5L153.3,436.5z M85.3,276c50.9,14.4,65.1,52.8,65.1,52.8
			c-32.7,13-71.6-4.7-71.6-4.7c-38.6-15.2-52.5-51.5-52.5-51.5C56.6,267.1,85.3,276,85.3,276L85.3,276z"/>
		<path class="st2" d="M207.4,269.8c0,0-38.6,20.5-55.6,60.6l-1.6,3.7l0,0l0,0l0,0l-0.2,0.4l0,0v0l0,0l-1.6,3.7
			c-17,40.1-4.9,82.1-4.9,82.1c18.2,64.3,72.9,86.9,72.9,86.9s24.7-48.2,5.9-104.2c0,0-12.3-33.9-35.8-52.9l-0.6-0.5l0.8,0.1
			c30.1,3.7,63-11.1,63-11.1c53.3-25.4,70.8-76.7,70.8-76.7S266.2,238.1,207.4,269.8z M160.5,352.9c32,14.4,46.4,54.6,46.4,54.6
			c15.9,38.3-0.5,73.5-0.5,73.5c-25.1-17.8-38.6-44.6-38.6-44.6C142.9,389.9,160.5,352.9,160.5,352.9L160.5,352.9z M294.8,272.7
			c0,0-13.9,36.3-52.5,51.5c0,0-38.9,17.7-71.5,4.7c0,0,14.3-38.4,65.1-52.9C235.9,276,264.5,267,294.8,272.7z"/>
	</g>
	<g id="logo_22_">
		<path class="st2" d="M320.5,261.8c0,0,17.5,51.3,70.8,76.7c0,0,32.9,14.8,63,11.1l0.8-0.1l-0.6,0.5c-23.6,19-35.8,52.9-35.8,52.9
			c-18.9,56,5.9,104.2,5.9,104.2s54.8-22.6,72.9-86.8c0,0,12.1-41.9-4.9-82.1l-1.6-3.7l0,0l0-0.1l0,0l-0.2-0.4l0,0v0l0,0l-1.6-3.7
			c-17-40.2-55.6-60.6-55.6-60.6C374.8,238.2,320.5,261.8,320.5,261.8z M473.2,436.5c0,0-13.5,26.8-38.6,44.6
			c0,0-16.4-35.2-0.5-73.5c0,0,14.4-40.2,46.4-54.7C480.5,353,498.2,389.9,473.2,436.5L473.2,436.5z M405.2,276
			c50.9,14.4,65.1,52.8,65.1,52.8c-32.7,13-71.6-4.7-71.6-4.7c-38.6-15.2-52.5-51.5-52.5-51.5C376.5,267.1,405.2,276,405.2,276
			L405.2,276z"/>
		<path class="st2" d="M527.3,269.8c0,0-38.6,20.5-55.6,60.6l-1.6,3.7l0,0l0,0l0,0l-0.2,0.4l0,0v0l0,0l-1.6,3.7
			c-17,40.1-4.9,82.1-4.9,82.1c18.2,64.3,72.9,86.9,72.9,86.9s24.7-48.2,5.9-104.2c0,0-12.3-33.9-35.8-52.9l-0.6-0.5l0.8,0.1
			c30.1,3.7,63-11.1,63-11.1c53.3-25.4,70.8-76.7,70.8-76.7S586.1,238.1,527.3,269.8z M480.4,352.9c32,14.4,46.4,54.6,46.4,54.6
			c15.9,38.3-0.5,73.5-0.5,73.5c-25.1-17.8-38.6-44.6-38.6-44.6C462.8,389.9,480.4,352.9,480.4,352.9L480.4,352.9z M614.7,272.7
			c0,0-13.9,36.3-52.5,51.5c0,0-38.9,17.7-71.5,4.7c0,0,14.3-38.4,65.1-52.9C555.8,276,584.4,267,614.7,272.7z"/>
	</g>
	<g id="logo_21_">
		<path class="st2" d="M640.4,261.8c0,0,17.5,51.3,70.8,76.7c0,0,32.9,14.8,63,11.1l0.8-0.1l-0.6,0.5c-23.6,19-35.8,52.9-35.8,52.9
			c-18.9,56,5.9,104.2,5.9,104.2s54.8-22.6,72.9-86.8c0,0,12.1-41.9-4.9-82.1l-1.6-3.7l0,0l0-0.1l0,0l-0.2-0.4l0,0v0l0,0l-1.6-3.7
			c-17-40.2-55.6-60.6-55.6-60.6C694.7,238.2,640.4,261.8,640.4,261.8z M793.1,436.5c0,0-13.5,26.8-38.6,44.6
			c0,0-16.4-35.2-0.5-73.5c0,0,14.4-40.2,46.4-54.7C800.4,353,818.1,389.9,793.1,436.5L793.1,436.5z M725.1,276
			c50.9,14.4,65.1,52.8,65.1,52.8c-32.7,13-71.6-4.7-71.6-4.7c-38.6-15.2-52.5-51.5-52.5-51.5C696.5,267.1,725.1,276,725.1,276
			L725.1,276z"/>
		<path class="st2" d="M847.2,269.8c0,0-38.6,20.5-55.6,60.6L790,334l0,0l0,0l0,0l-0.2,0.4l0,0v0l0,0l-1.6,3.7
			c-17,40.1-4.9,82.1-4.9,82.1c18.2,64.3,72.9,86.9,72.9,86.9s24.7-48.2,5.9-104.2c0,0-12.3-33.9-35.8-52.9l-0.6-0.5l0.8,0.1
			c30.1,3.7,63-11.1,63-11.1c53.3-25.4,70.8-76.7,70.8-76.7S906,238.1,847.2,269.8z M800.3,352.9c32,14.4,46.4,54.6,46.4,54.6
			c15.9,38.3-0.5,73.5-0.5,73.5c-25.1-17.8-38.6-44.6-38.6-44.6C782.7,389.9,800.3,352.9,800.3,352.9L800.3,352.9z M934.6,272.7
			c0,0-13.9,36.3-52.5,51.5c0,0-38.9,17.7-71.5,4.7c0,0,14.3-38.4,65.1-52.9C875.7,276,904.3,267,934.6,272.7z"/>
	</g>
	<path class="st2" d="M1073.4,744.5c0,0,38.6-20.4,55.6-60.6l1.6-3.7l0,0v0l0,0l0.2-0.4l0,0l0-0.1l0,0l1.6-3.7
		c17-40.1,4.9-82.1,4.9-82.1c-18.2-64.3-72.9-86.8-72.9-86.8s-24.8,48.2-5.9,104.2c0,0,12.3,33.9,35.8,52.9l0.6,0.5l-0.8-0.1
		c-30-3.7-63,11.1-63,11.1c-53.3,25.4-70.8,76.7-70.8,76.7S1014.6,776.2,1073.4,744.5z M1112.9,577.8c25,46.6,7.3,83.6,7.3,83.6
		c-32-14.4-46.4-54.7-46.4-54.7c-15.9-38.3,0.5-73.5,0.5-73.5C1099.5,551,1112.9,577.8,1112.9,577.8L1112.9,577.8z M1044.9,738.3
		c0,0-28.6,9-58.9,3.3c0,0,13.9-36.3,52.5-51.5c0,0,38.9-17.7,71.6-4.7C1110.1,685.5,1095.8,723.9,1044.9,738.3L1044.9,738.3z"/>
	<path class="st2" d="M1280.1,752.6c0,0-17.5-51.3-70.8-76.7c0,0-32.9-14.7-63-11.1l-0.8,0.1l0.6-0.5c23.5-19,35.8-52.9,35.8-52.9
		c18.9-56-5.9-104.2-5.9-104.2s-54.7,22.6-72.9,86.9c0,0-12.1,41.9,4.9,82.1l1.6,3.7l0,0v0l0,0l0.2,0.4l0,0l0,0l0,0l1.6,3.7
		c17,40.1,55.6,60.6,55.6,60.6C1225.8,776.2,1280.1,752.6,1280.1,752.6z M1120.2,661.4c0,0-17.7-37,7.3-83.6
		c0,0,13.5-26.8,38.6-44.6c0,0,16.4,35.2,0.5,73.5C1166.6,606.8,1152.2,647,1120.2,661.4L1120.2,661.4z M1195.5,738.4
		c-50.9-14.5-65.1-52.9-65.1-52.9c32.7-13,71.5,4.7,71.5,4.7c38.6,15.2,52.5,51.5,52.5,51.5C1224.1,747.3,1195.5,738.4,1195.5,738.4
		z"/>
	<path class="st2" d="M1393.3,744.5c0,0,38.6-20.4,55.6-60.6l1.6-3.7l0,0v0l0,0l0.2-0.4l0,0l0-0.1l0,0l1.6-3.7
		c17-40.1,4.9-82.1,4.9-82.1c-18.2-64.3-72.9-86.8-72.9-86.8s-24.8,48.2-5.9,104.2c0,0,12.3,33.9,35.8,52.9l0.6,0.5l-0.8-0.1
		c-30-3.7-63,11.1-63,11.1c-53.3,25.4-70.8,76.7-70.8,76.7S1334.5,776.2,1393.3,744.5z M1432.8,577.8c25,46.6,7.3,83.6,7.3,83.6
		c-32-14.4-46.4-54.7-46.4-54.7c-15.9-38.3,0.5-73.5,0.5-73.5C1419.4,551,1432.8,577.8,1432.8,577.8L1432.8,577.8z M1364.8,738.3
		c0,0-28.6,9-58.9,3.3c0,0,13.9-36.3,52.5-51.5c0,0,38.9-17.7,71.6-4.7C1430,685.5,1415.7,723.9,1364.8,738.3L1364.8,738.3z"/>
	<path class="st2" d="M1600,752.6c0,0-17.5-51.3-70.8-76.7c0,0-32.9-14.7-63-11.1l-0.8,0.1l0.6-0.5c23.5-19,35.8-52.9,35.8-52.9
		c18.9-56-5.9-104.2-5.9-104.2s-54.7,22.6-72.9,86.9c0,0-12.1,41.9,4.9,82.1l1.6,3.7l0,0v0l0,0l0.2,0.4l0,0l0,0l0,0l1.6,3.7
		c17,40.1,55.6,60.6,55.6,60.6C1545.7,776.2,1600,752.6,1600,752.6z M1440.1,661.4c0,0-17.7-37,7.3-83.6c0,0,13.5-26.8,38.6-44.6
		c0,0,16.4,35.2,0.5,73.5C1486.5,606.8,1472.1,647,1440.1,661.4L1440.1,661.4z M1515.4,738.4c-50.9-14.5-65.1-52.9-65.1-52.9
		c32.7-13,71.5,4.7,71.5,4.7c38.6,15.2,52.5,51.5,52.5,51.5C1544,747.3,1515.4,738.4,1515.4,738.4z"/>
	<path class="st2" d="M1713.2,744.5c0,0,38.6-20.4,55.6-60.6l1.6-3.7l0,0v0l0,0l0.2-0.4l0,0l0-0.1l0,0l1.6-3.7
		c17-40.1,4.9-82.1,4.9-82.1c-18.2-64.3-72.9-86.8-72.9-86.8s-24.8,48.2-5.9,104.2c0,0,12.3,33.9,35.8,52.9l0.6,0.5l-0.8-0.1
		c-30-3.7-63,11.1-63,11.1c-53.3,25.4-70.8,76.7-70.8,76.7S1654.4,776.2,1713.2,744.5z M1752.7,577.8c25,46.6,7.3,83.6,7.3,83.6
		c-32-14.4-46.4-54.7-46.4-54.7c-15.9-38.3,0.5-73.5,0.5-73.5C1739.3,551,1752.7,577.8,1752.7,577.8L1752.7,577.8z M1684.7,738.3
		c0,0-28.6,9-58.9,3.3c0,0,13.9-36.3,52.5-51.5c0,0,38.9-17.7,71.6-4.7C1749.9,685.5,1735.6,723.9,1684.7,738.3L1684.7,738.3z"/>
	<path class="st2" d="M1919.9,752.6c0,0-17.5-51.3-70.8-76.7c0,0-32.9-14.7-63-11.1l-0.8,0.1l0.6-0.5c23.5-19,35.8-52.9,35.8-52.9
		c18.9-56-5.9-104.2-5.9-104.2s-54.7,22.6-72.9,86.9c0,0-12.1,41.9,4.9,82.1l1.6,3.7l0,0v0l0,0l0.2,0.4l0,0l0,0l0,0l1.6,3.7
		c17,40.1,55.6,60.6,55.6,60.6C1865.6,776.2,1919.9,752.6,1919.9,752.6z M1760,661.4c0,0-17.7-37,7.3-83.6c0,0,13.5-26.8,38.6-44.6
		c0,0,16.4,35.2,0.5,73.5C1806.4,606.8,1792,647,1760,661.4L1760,661.4z M1835.3,738.4c-50.9-14.5-65.1-52.9-65.1-52.9
		c32.7-13,71.5,4.7,71.5,4.7c38.6,15.2,52.5,51.5,52.5,51.5C1863.9,747.3,1835.3,738.4,1835.3,738.4z"/>
	<g id="logo_20_">
		<path class="st2" d="M113.8,744.5c0,0,38.6-20.4,55.6-60.6l1.6-3.7l0,0v0l0,0l0.2-0.4l0,0l0-0.1l0,0l1.6-3.7
			c17-40.1,4.9-82.1,4.9-82.1c-18.2-64.3-72.9-86.8-72.9-86.8s-24.8,48.2-5.9,104.2c0,0,12.3,33.9,35.8,52.9l0.6,0.5l-0.8-0.1
			c-30-3.7-63,11.1-63,11.1c-53.3,25.4-70.8,76.7-70.8,76.7S54.9,776.2,113.8,744.5z M153.3,577.8c25,46.6,7.3,83.6,7.3,83.6
			c-32-14.4-46.4-54.7-46.4-54.7c-15.9-38.3,0.5-73.5,0.5-73.5C139.8,551,153.3,577.8,153.3,577.8L153.3,577.8z M85.3,738.3
			c0,0-28.6,9-58.9,3.3c0,0,13.9-36.3,52.5-51.5c0,0,38.9-17.7,71.6-4.7C150.4,685.5,136.1,723.9,85.3,738.3L85.3,738.3z"/>
		<path class="st2" d="M320.5,752.6c0,0-17.5-51.3-70.8-76.7c0,0-32.9-14.7-63-11.1l-0.8,0.1l0.6-0.5c23.5-19,35.8-52.9,35.8-52.9
			c18.9-56-5.9-104.2-5.9-104.2s-54.7,22.6-72.9,86.9c0,0-12.1,41.9,4.9,82.1l1.6,3.7l0,0v0l0,0l0.2,0.4l0,0l0,0l0,0l1.6,3.7
			c17,40.1,55.6,60.6,55.6,60.6C266.2,776.2,320.5,752.6,320.5,752.6z M160.5,661.4c0,0-17.7-37,7.3-83.6c0,0,13.5-26.8,38.6-44.6
			c0,0,16.4,35.2,0.5,73.5C206.9,606.8,192.6,647,160.5,661.4L160.5,661.4z M235.9,738.4c-50.9-14.5-65.1-52.9-65.1-52.9
			c32.7-13,71.5,4.7,71.5,4.7c38.6,15.2,52.5,51.5,52.5,51.5C264.5,747.3,235.9,738.4,235.9,738.4z"/>
	</g>
	<g id="logo_19_">
		<path class="st2" d="M433.7,744.5c0,0,38.6-20.4,55.6-60.6l1.6-3.7l0,0v0l0,0l0.2-0.4l0,0l0-0.1l0,0l1.6-3.7
			c17-40.1,4.9-82.1,4.9-82.1c-18.2-64.3-72.9-86.8-72.9-86.8s-24.8,48.2-5.9,104.2c0,0,12.3,33.9,35.8,52.9l0.6,0.5l-0.8-0.1
			c-30-3.7-63,11.1-63,11.1c-53.3,25.4-70.8,76.7-70.8,76.7S374.8,776.2,433.7,744.5z M473.2,577.8c25,46.6,7.3,83.6,7.3,83.6
			c-32-14.4-46.4-54.7-46.4-54.7c-15.9-38.3,0.5-73.5,0.5-73.5C459.7,551,473.2,577.8,473.2,577.8L473.2,577.8z M405.2,738.3
			c0,0-28.6,9-58.9,3.3c0,0,13.9-36.3,52.5-51.5c0,0,38.9-17.7,71.6-4.7C470.3,685.5,456,723.9,405.2,738.3L405.2,738.3z"/>
		<path class="st2" d="M640.4,752.6c0,0-17.5-51.3-70.8-76.7c0,0-32.9-14.7-63-11.1l-0.8,0.1l0.6-0.5c23.5-19,35.8-52.9,35.8-52.9
			c18.9-56-5.9-104.2-5.9-104.2s-54.7,22.6-72.9,86.9c0,0-12.1,41.9,4.9,82.1l1.6,3.7l0,0v0l0,0l0.2,0.4l0,0l0,0l0,0l1.6,3.7
			c17,40.1,55.6,60.6,55.6,60.6C586.1,776.2,640.4,752.6,640.4,752.6z M480.4,661.4c0,0-17.7-37,7.3-83.6c0,0,13.5-26.8,38.6-44.6
			c0,0,16.4,35.2,0.5,73.5C526.8,606.8,512.5,647,480.4,661.4L480.4,661.4z M555.8,738.4c-50.9-14.5-65.1-52.9-65.1-52.9
			c32.7-13,71.5,4.7,71.5,4.7c38.6,15.2,52.5,51.5,52.5,51.5C584.4,747.3,555.8,738.4,555.8,738.4z"/>
	</g>
	<g id="logo_17_">
		<path class="st2" d="M753.6,744.5c0,0,38.6-20.4,55.6-60.6l1.6-3.7l0,0v0l0,0l0.2-0.4l0,0l0-0.1l0,0l1.6-3.7
			c17-40.1,4.9-82.1,4.9-82.1c-18.2-64.3-72.9-86.8-72.9-86.8s-24.8,48.2-5.9,104.2c0,0,12.3,33.9,35.8,52.9l0.6,0.5l-0.8-0.1
			c-30-3.7-63,11.1-63,11.1c-53.3,25.4-70.8,76.7-70.8,76.7S694.7,776.2,753.6,744.5z M793.1,577.8c25,46.6,7.3,83.6,7.3,83.6
			c-32-14.4-46.4-54.7-46.4-54.7c-15.9-38.3,0.5-73.5,0.5-73.5C779.6,551,793.1,577.8,793.1,577.8L793.1,577.8z M725.1,738.3
			c0,0-28.6,9-58.9,3.3c0,0,13.9-36.3,52.5-51.5c0,0,38.9-17.7,71.6-4.7C790.2,685.5,775.9,723.9,725.1,738.3L725.1,738.3z"/>
		<path class="st2" d="M960.3,752.6c0,0-17.5-51.3-70.8-76.7c0,0-32.9-14.7-63-11.1l-0.8,0.1l0.6-0.5c23.5-19,35.8-52.9,35.8-52.9
			c18.9-56-5.9-104.2-5.9-104.2s-54.7,22.6-72.9,86.9c0,0-12.1,41.9,4.9,82.1l1.6,3.7l0,0v0l0,0l0.2,0.4l0,0l0,0l0,0l1.6,3.7
			c17,40.1,55.6,60.6,55.6,60.6C906,776.2,960.3,752.6,960.3,752.6z M800.3,661.4c0,0-17.7-37,7.3-83.6c0,0,13.5-26.8,38.6-44.6
			c0,0,16.4,35.2,0.5,73.5C846.7,606.8,832.4,647,800.3,661.4L800.3,661.4z M875.7,738.4c-50.9-14.5-65.1-52.9-65.1-52.9
			c32.7-13,71.5,4.7,71.5,4.7c38.6,15.2,52.5,51.5,52.5,51.5C904.3,747.3,875.7,738.4,875.7,738.4z"/>
	</g>
	<g>
		<path class="st2" d="M960.3,769c0,0,17.5,51.3,70.8,76.7c0,0,32.9,14.8,63,11.1l0.8-0.1l-0.6,0.5c-23.6,19-35.8,52.9-35.8,52.9
			c-18.9,56,5.9,104.2,5.9,104.2s54.8-22.6,72.9-86.8c0,0,12.1-41.9-4.9-82.1l-1.6-3.7l0,0l0-0.1l0,0l-0.2-0.4l0,0v0l0,0l-1.6-3.7
			c-17-40.2-55.6-60.6-55.6-60.6C1014.6,745.3,960.3,769,960.3,769z M1112.9,943.7c0,0-13.5,26.8-38.6,44.6c0,0-16.4-35.2-0.5-73.5
			c0,0,14.4-40.2,46.4-54.7C1120.2,860.1,1137.9,897.1,1112.9,943.7L1112.9,943.7z M1044.9,783.2c50.9,14.4,65.1,52.8,65.1,52.8
			c-32.7,13-71.6-4.7-71.6-4.7c-38.6-15.2-52.5-51.5-52.5-51.5C1016.3,774.2,1044.9,783.2,1044.9,783.2L1044.9,783.2z"/>
		<path class="st2" d="M1167,776.9c0,0-38.6,20.5-55.6,60.6l-1.6,3.7l0,0l0,0l0,0l-0.2,0.4l0,0v0l0,0l-1.6,3.7
			c-17,40.1-4.9,82.1-4.9,82.1c18.2,64.3,72.9,86.9,72.9,86.9s24.7-48.2,5.9-104.2c0,0-12.3-33.9-35.8-52.9l-0.6-0.5l0.8,0.1
			c30.1,3.7,63-11.1,63-11.1c53.3-25.4,70.8-76.7,70.8-76.7S1225.8,745.2,1167,776.9z M1120.2,860c32,14.4,46.4,54.6,46.4,54.6
			c15.9,38.3-0.5,73.5-0.5,73.5c-25.1-17.8-38.6-44.6-38.6-44.6C1102.5,897,1120.2,860.1,1120.2,860L1120.2,860z M1254.4,779.8
			c0,0-13.9,36.3-52.5,51.5c0,0-38.9,17.7-71.5,4.7c0,0,14.3-38.4,65.1-52.9C1195.5,783.1,1224.1,774.1,1254.4,779.8z"/>
	</g>
	<g>
		<path class="st2" d="M1280.2,769c0,0,17.5,51.3,70.8,76.7c0,0,32.9,14.8,63,11.1l0.8-0.1l-0.6,0.5c-23.6,19-35.8,52.9-35.8,52.9
			c-18.9,56,5.9,104.2,5.9,104.2s54.8-22.6,72.9-86.8c0,0,12.1-41.9-4.9-82.1l-1.6-3.7l0,0l0-0.1l0,0l-0.2-0.4l0,0v0l0,0l-1.6-3.7
			c-17-40.2-55.6-60.6-55.6-60.6C1334.5,745.3,1280.2,769,1280.2,769z M1432.8,943.7c0,0-13.5,26.8-38.6,44.6
			c0,0-16.4-35.2-0.5-73.5c0,0,14.4-40.2,46.4-54.7C1440.1,860.1,1457.8,897.1,1432.8,943.7L1432.8,943.7z M1364.8,783.2
			c50.9,14.4,65.1,52.8,65.1,52.8c-32.7,13-71.6-4.7-71.6-4.7c-38.6-15.2-52.5-51.5-52.5-51.5
			C1336.2,774.2,1364.8,783.2,1364.8,783.2L1364.8,783.2z"/>
		<path class="st2" d="M1486.9,776.9c0,0-38.6,20.5-55.6,60.6l-1.6,3.7l0,0l0,0l0,0l-0.2,0.4l0,0v0l0,0l-1.6,3.7
			c-17,40.1-4.9,82.1-4.9,82.1c18.2,64.3,72.9,86.9,72.9,86.9s24.7-48.2,5.9-104.2c0,0-12.3-33.9-35.8-52.9l-0.6-0.5l0.8,0.1
			c30.1,3.7,63-11.1,63-11.1c53.3-25.4,70.8-76.7,70.8-76.7S1545.7,745.2,1486.9,776.9z M1440.1,860c32,14.4,46.4,54.6,46.4,54.6
			c15.9,38.3-0.5,73.5-0.5,73.5c-25.1-17.8-38.6-44.6-38.6-44.6C1422.4,897,1440.1,860.1,1440.1,860L1440.1,860z M1574.3,779.8
			c0,0-13.9,36.3-52.5,51.5c0,0-38.9,17.7-71.5,4.7c0,0,14.3-38.4,65.1-52.9C1515.4,783.1,1544,774.1,1574.3,779.8z"/>
	</g>
	<g id="logo_15_">
		<path class="st2" d="M0.6,769c0,0,17.5,51.3,70.8,76.7c0,0,32.9,14.8,63,11.1l0.8-0.1l-0.6,0.5c-23.6,19-35.8,52.9-35.8,52.9
			c-18.9,56,5.9,104.2,5.9,104.2s54.8-22.6,72.9-86.8c0,0,12.1-41.9-4.9-82.1l-1.6-3.7l0,0l0-0.1l0,0l-0.2-0.4l0,0v0l0,0l-1.6-3.7
			c-17-40.2-55.6-60.6-55.6-60.6C54.9,745.3,0.6,769,0.6,769z M153.3,943.7c0,0-13.5,26.8-38.6,44.6c0,0-16.4-35.2-0.5-73.5
			c0,0,14.4-40.2,46.4-54.7C160.6,860.1,178.3,897.1,153.3,943.7L153.3,943.7z M85.3,783.2c50.9,14.4,65.1,52.8,65.1,52.8
			c-32.7,13-71.6-4.7-71.6-4.7c-38.6-15.2-52.5-51.5-52.5-51.5C56.6,774.2,85.3,783.2,85.3,783.2L85.3,783.2z"/>
		<path class="st2" d="M207.4,776.9c0,0-38.6,20.5-55.6,60.6l-1.6,3.7l0,0l0,0l0,0l-0.2,0.4l0,0v0l0,0l-1.6,3.7
			c-17,40.1-4.9,82.1-4.9,82.1c18.2,64.3,72.9,86.9,72.9,86.9s24.7-48.2,5.9-104.2c0,0-12.3-33.9-35.8-52.9l-0.6-0.5l0.8,0.1
			c30.1,3.7,63-11.1,63-11.1c53.3-25.4,70.8-76.7,70.8-76.7S266.2,745.2,207.4,776.9z M160.5,860c32,14.4,46.4,54.6,46.4,54.6
			c15.9,38.3-0.5,73.5-0.5,73.5c-25.1-17.8-38.6-44.6-38.6-44.6C142.9,897,160.5,860.1,160.5,860L160.5,860z M294.8,779.8
			c0,0-13.9,36.3-52.5,51.5c0,0-38.9,17.7-71.5,4.7c0,0,14.3-38.4,65.1-52.9C235.9,783.1,264.5,774.1,294.8,779.8z"/>
	</g>
	<g id="logo_13_">
		<path class="st2" d="M320.5,769c0,0,17.5,51.3,70.8,76.7c0,0,32.9,14.8,63,11.1l0.8-0.1l-0.6,0.5c-23.6,19-35.8,52.9-35.8,52.9
			c-18.9,56,5.9,104.2,5.9,104.2s54.8-22.6,72.9-86.8c0,0,12.1-41.9-4.9-82.1l-1.6-3.7l0,0l0-0.1l0,0l-0.2-0.4l0,0v0l0,0l-1.6-3.7
			c-17-40.2-55.6-60.6-55.6-60.6C374.8,745.3,320.5,769,320.5,769z M473.2,943.7c0,0-13.5,26.8-38.6,44.6c0,0-16.4-35.2-0.5-73.5
			c0,0,14.4-40.2,46.4-54.7C480.5,860.1,498.2,897.1,473.2,943.7L473.2,943.7z M405.2,783.2c50.9,14.4,65.1,52.8,65.1,52.8
			c-32.7,13-71.6-4.7-71.6-4.7c-38.6-15.2-52.5-51.5-52.5-51.5C376.5,774.2,405.2,783.2,405.2,783.2L405.2,783.2z"/>
		<path class="st2" d="M527.3,776.9c0,0-38.6,20.5-55.6,60.6l-1.6,3.7l0,0l0,0l0,0l-0.2,0.4l0,0v0l0,0l-1.6,3.7
			c-17,40.1-4.9,82.1-4.9,82.1c18.2,64.3,72.9,86.9,72.9,86.9s24.7-48.2,5.9-104.2c0,0-12.3-33.9-35.8-52.9l-0.6-0.5l0.8,0.1
			c30.1,3.7,63-11.1,63-11.1c53.3-25.4,70.8-76.7,70.8-76.7S586.1,745.2,527.3,776.9z M480.4,860c32,14.4,46.4,54.6,46.4,54.6
			c15.9,38.3-0.5,73.5-0.5,73.5c-25.1-17.8-38.6-44.6-38.6-44.6C462.8,897,480.4,860.1,480.4,860L480.4,860z M614.7,779.8
			c0,0-13.9,36.3-52.5,51.5c0,0-38.9,17.7-71.5,4.7c0,0,14.3-38.4,65.1-52.9C555.8,783.1,584.4,774.1,614.7,779.8z"/>
	</g>
	<g id="logo_12_">
		<path class="st2" d="M640.4,769c0,0,17.5,51.3,70.8,76.7c0,0,32.9,14.8,63,11.1l0.8-0.1l-0.6,0.5c-23.6,19-35.8,52.9-35.8,52.9
			c-18.9,56,5.9,104.2,5.9,104.2s54.8-22.6,72.9-86.8c0,0,12.1-41.9-4.9-82.1l-1.6-3.7l0,0l0-0.1l0,0l-0.2-0.4l0,0v0l0,0l-1.6-3.7
			c-17-40.2-55.6-60.6-55.6-60.6C694.7,745.3,640.4,769,640.4,769z M793.1,943.7c0,0-13.5,26.8-38.6,44.6c0,0-16.4-35.2-0.5-73.5
			c0,0,14.4-40.2,46.4-54.7C800.4,860.1,818.1,897.1,793.1,943.7L793.1,943.7z M725.1,783.2c50.9,14.4,65.1,52.8,65.1,52.8
			c-32.7,13-71.6-4.7-71.6-4.7c-38.6-15.2-52.5-51.5-52.5-51.5C696.5,774.2,725.1,783.2,725.1,783.2L725.1,783.2z"/>
		<path class="st2" d="M847.2,776.9c0,0-38.6,20.5-55.6,60.6l-1.6,3.7l0,0l0,0l0,0l-0.2,0.4l0,0v0l0,0l-1.6,3.7
			c-17,40.1-4.9,82.1-4.9,82.1c18.2,64.3,72.9,86.9,72.9,86.9s24.7-48.2,5.9-104.2c0,0-12.3-33.9-35.8-52.9l-0.6-0.5l0.8,0.1
			c30.1,3.7,63-11.1,63-11.1c53.3-25.4,70.8-76.7,70.8-76.7S906,745.2,847.2,776.9z M800.3,860c32,14.4,46.4,54.6,46.4,54.6
			c15.9,38.3-0.5,73.5-0.5,73.5c-25.1-17.8-38.6-44.6-38.6-44.6C782.7,897,800.3,860.1,800.3,860L800.3,860z M934.6,779.8
			c0,0-13.9,36.3-52.5,51.5c0,0-38.9,17.7-71.5,4.7c0,0,14.3-38.4,65.1-52.9C875.7,783.1,904.3,774.1,934.6,779.8z"/>
	</g>
	<g>
		<path class="st2" d="M1073.4,1251.8c0,0,38.6-20.4,55.6-60.6l1.6-3.7l0,0v0l0,0l0.2-0.4l0,0l0-0.1l0,0l1.6-3.7
			c17-40.1,4.9-82.1,4.9-82.1c-18.2-64.3-72.9-86.8-72.9-86.8s-24.8,48.2-5.9,104.2c0,0,12.3,33.9,35.8,52.9l0.6,0.5l-0.8-0.1
			c-30-3.7-63,11.1-63,11.1c-53.3,25.4-70.8,76.7-70.8,76.7S1014.6,1283.4,1073.4,1251.8z M1112.9,1085.1c25,46.6,7.3,83.6,7.3,83.6
			c-32-14.4-46.4-54.7-46.4-54.7c-15.9-38.3,0.5-73.5,0.5-73.5C1099.5,1058.3,1112.9,1085.1,1112.9,1085.1L1112.9,1085.1z
			 M1044.9,1245.6c0,0-28.6,9-58.9,3.3c0,0,13.9-36.3,52.5-51.5c0,0,38.9-17.7,71.6-4.7C1110.1,1192.7,1095.8,1231.1,1044.9,1245.6
			L1044.9,1245.6z"/>
		<path class="st2" d="M1280.1,1259.8c0,0-17.5-51.3-70.8-76.7c0,0-32.9-14.7-63-11.1l-0.8,0.1l0.6-0.5c23.5-19,35.8-52.9,35.8-52.9
			c18.9-56-5.9-104.2-5.9-104.2s-54.7,22.6-72.9,86.9c0,0-12.1,41.9,4.9,82.1l1.6,3.7l0,0v0l0,0l0.2,0.4l0,0l0,0l0,0l1.6,3.7
			c17,40.1,55.6,60.6,55.6,60.6C1225.8,1283.5,1280.1,1259.8,1280.1,1259.8z M1120.2,1168.7c0,0-17.7-37,7.3-83.6
			c0,0,13.5-26.8,38.6-44.6c0,0,16.4,35.2,0.5,73.5C1166.6,1114.1,1152.2,1154.3,1120.2,1168.7L1120.2,1168.7z M1195.5,1245.6
			c-50.9-14.5-65.1-52.9-65.1-52.9c32.7-13,71.5,4.7,71.5,4.7c38.6,15.2,52.5,51.5,52.5,51.5
			C1224.1,1254.6,1195.5,1245.6,1195.5,1245.6z"/>
	</g>
	<path class="st2" d="M113.8,1251.8c0,0,38.6-20.4,55.6-60.6l1.6-3.7l0,0v0l0,0l0.2-0.4l0,0l0-0.1l0,0l1.6-3.7
		c17-40.1,4.9-82.1,4.9-82.1c-18.2-64.3-72.9-86.8-72.9-86.8s-24.8,48.2-5.9,104.2c0,0,12.3,33.9,35.8,52.9l0.6,0.5l-0.8-0.1
		c-30-3.7-63,11.1-63,11.1c-53.3,25.4-70.8,76.7-70.8,76.7S54.9,1283.4,113.8,1251.8z M153.3,1085.1c25,46.6,7.3,83.6,7.3,83.6
		c-32-14.4-46.4-54.7-46.4-54.7c-15.9-38.3,0.5-73.5,0.5-73.5C139.8,1058.3,153.3,1085.1,153.3,1085.1L153.3,1085.1z M85.3,1245.6
		c0,0-28.6,9-58.9,3.3c0,0,13.9-36.3,52.5-51.5c0,0,38.9-17.7,71.6-4.7C150.4,1192.7,136.1,1231.1,85.3,1245.6L85.3,1245.6z"/>
	<path class="st2" d="M320.5,1259.8c0,0-17.5-51.3-70.8-76.7c0,0-32.9-14.7-63-11.1l-0.8,0.1l0.6-0.5c23.5-19,35.8-52.9,35.8-52.9
		c18.9-56-5.9-104.2-5.9-104.2s-54.7,22.6-72.9,86.9c0,0-12.1,41.9,4.9,82.1l1.6,3.7l0,0v0l0,0l0.2,0.4l0,0l0,0l0,0l1.6,3.7
		c17,40.1,55.6,60.6,55.6,60.6C266.2,1283.5,320.5,1259.8,320.5,1259.8z M160.5,1168.7c0,0-17.7-37,7.3-83.6
		c0,0,13.5-26.8,38.6-44.6c0,0,16.4,35.2,0.5,73.5C206.9,1114.1,192.6,1154.3,160.5,1168.7L160.5,1168.7z M235.9,1245.6
		c-50.9-14.5-65.1-52.9-65.1-52.9c32.7-13,71.5,4.7,71.5,4.7c38.6,15.2,52.5,51.5,52.5,51.5C264.5,1254.6,235.9,1245.6,235.9,1245.6
		z"/>
	<path class="st2" d="M433.7,1251.8c0,0,38.6-20.4,55.6-60.6l1.6-3.7l0,0v0l0,0l0.2-0.4l0,0l0-0.1l0,0l1.6-3.7
		c17-40.1,4.9-82.1,4.9-82.1c-18.2-64.3-72.9-86.8-72.9-86.8s-24.8,48.2-5.9,104.2c0,0,12.3,33.9,35.8,52.9l0.6,0.5l-0.8-0.1
		c-30-3.7-63,11.1-63,11.1c-53.3,25.4-70.8,76.7-70.8,76.7S374.8,1283.4,433.7,1251.8z M473.2,1085.1c25,46.6,7.3,83.6,7.3,83.6
		c-32-14.4-46.4-54.7-46.4-54.7c-15.9-38.3,0.5-73.5,0.5-73.5C459.7,1058.3,473.2,1085.1,473.2,1085.1L473.2,1085.1z M405.2,1245.6
		c0,0-28.6,9-58.9,3.3c0,0,13.9-36.3,52.5-51.5c0,0,38.9-17.7,71.6-4.7C470.3,1192.7,456,1231.1,405.2,1245.6L405.2,1245.6z"/>
	<path class="st2" d="M640.4,1259.8c0,0-17.5-51.3-70.8-76.7c0,0-32.9-14.7-63-11.1l-0.8,0.1l0.6-0.5c23.5-19,35.8-52.9,35.8-52.9
		c18.9-56-5.9-104.2-5.9-104.2s-54.7,22.6-72.9,86.9c0,0-12.1,41.9,4.9,82.1l1.6,3.7l0,0v0l0,0l0.2,0.4l0,0l0,0l0,0l1.6,3.7
		c17,40.1,55.6,60.6,55.6,60.6C586.1,1283.5,640.4,1259.8,640.4,1259.8z M480.4,1168.7c0,0-17.7-37,7.3-83.6
		c0,0,13.5-26.8,38.6-44.6c0,0,16.4,35.2,0.5,73.5C526.8,1114.1,512.5,1154.3,480.4,1168.7L480.4,1168.7z M555.8,1245.6
		c-50.9-14.5-65.1-52.9-65.1-52.9c32.7-13,71.5,4.7,71.5,4.7c38.6,15.2,52.5,51.5,52.5,51.5C584.4,1254.6,555.8,1245.6,555.8,1245.6
		z"/>
	<path class="st2" d="M753.6,1251.8c0,0,38.6-20.4,55.6-60.6l1.6-3.7l0,0v0l0,0l0.2-0.4l0,0l0-0.1l0,0l1.6-3.7
		c17-40.1,4.9-82.1,4.9-82.1c-18.2-64.3-72.9-86.8-72.9-86.8s-24.8,48.2-5.9,104.2c0,0,12.3,33.9,35.8,52.9l0.6,0.5l-0.8-0.1
		c-30-3.7-63,11.1-63,11.1c-53.3,25.4-70.8,76.7-70.8,76.7S694.7,1283.4,753.6,1251.8z M793.1,1085.1c25,46.6,7.3,83.6,7.3,83.6
		c-32-14.4-46.4-54.7-46.4-54.7c-15.9-38.3,0.5-73.5,0.5-73.5C779.6,1058.3,793.1,1085.1,793.1,1085.1L793.1,1085.1z M725.1,1245.6
		c0,0-28.6,9-58.9,3.3c0,0,13.9-36.3,52.5-51.5c0,0,38.9-17.7,71.6-4.7C790.2,1192.7,775.9,1231.1,725.1,1245.6L725.1,1245.6z"/>
	<path class="st2" d="M960.3,1259.8c0,0-17.5-51.3-70.8-76.7c0,0-32.9-14.7-63-11.1l-0.8,0.1l0.6-0.5c23.5-19,35.8-52.9,35.8-52.9
		c18.9-56-5.9-104.2-5.9-104.2s-54.7,22.6-72.9,86.9c0,0-12.1,41.9,4.9,82.1l1.6,3.7l0,0v0l0,0l0.2,0.4l0,0l0,0l0,0l1.6,3.7
		c17,40.1,55.6,60.6,55.6,60.6C906,1283.5,960.3,1259.8,960.3,1259.8z M800.3,1168.7c0,0-17.7-37,7.3-83.6c0,0,13.5-26.8,38.6-44.6
		c0,0,16.4,35.2,0.5,73.5C846.7,1114.1,832.4,1154.3,800.3,1168.7L800.3,1168.7z M875.7,1245.6c-50.9-14.5-65.1-52.9-65.1-52.9
		c32.7-13,71.5,4.7,71.5,4.7c38.6,15.2,52.5,51.5,52.5,51.5C904.3,1254.6,875.7,1245.6,875.7,1245.6z"/>
	<g>
		<path class="st2" d="M0.6,1276.2c0,0,17.5,51.3,70.8,76.7c0,0,32.9,14.8,63,11.1l0.8-0.1l-0.6,0.5c-23.6,19-35.8,52.9-35.8,52.9
			c-18.9,56,5.9,104.2,5.9,104.2s54.8-22.6,72.9-86.8c0,0,12.1-41.9-4.9-82.1l-1.6-3.7l0,0l0-0.1l0,0l-0.2-0.4l0,0v0l0,0l-1.6-3.7
			c-17-40.2-55.6-60.6-55.6-60.6C54.9,1252.6,0.6,1276.2,0.6,1276.2z M153.3,1450.9c0,0-13.5,26.8-38.6,44.6c0,0-16.4-35.2-0.5-73.5
			c0,0,14.4-40.2,46.4-54.7C160.6,1367.4,178.3,1404.3,153.3,1450.9L153.3,1450.9z M85.3,1290.4c50.9,14.4,65.1,52.8,65.1,52.8
			c-32.7,13-71.6-4.7-71.6-4.7c-38.6-15.2-52.5-51.5-52.5-51.5C56.6,1281.5,85.3,1290.4,85.3,1290.4L85.3,1290.4z"/>
		<path class="st2" d="M207.4,1284.2c0,0-38.6,20.5-55.6,60.6l-1.6,3.7l0,0l0,0l0,0l-0.2,0.4l0,0v0l0,0l-1.6,3.7
			c-17,40.1-4.9,82.1-4.9,82.1c18.2,64.3,72.9,86.9,72.9,86.9s24.7-48.2,5.9-104.2c0,0-12.3-33.9-35.8-52.9l-0.6-0.5l0.8,0.1
			c30.1,3.7,63-11.1,63-11.1c53.3-25.4,70.8-76.7,70.8-76.7S266.2,1252.5,207.4,1284.2z M160.5,1367.3c32,14.4,46.4,54.6,46.4,54.6
			c15.9,38.3-0.5,73.5-0.5,73.5c-25.1-17.8-38.6-44.6-38.6-44.6C142.9,1404.3,160.5,1367.3,160.5,1367.3L160.5,1367.3z
			 M294.8,1287.1c0,0-13.9,36.3-52.5,51.5c0,0-38.9,17.7-71.5,4.7c0,0,14.3-38.4,65.1-52.9C235.9,1290.4,264.5,1281.4,294.8,1287.1z
			"/>
	</g>
	<g>
		<path class="st2" d="M320.5,1276.2c0,0,17.5,51.3,70.8,76.7c0,0,32.9,14.8,63,11.1l0.8-0.1l-0.6,0.5c-23.6,19-35.8,52.9-35.8,52.9
			c-18.9,56,5.9,104.2,5.9,104.2s54.8-22.6,72.9-86.8c0,0,12.1-41.9-4.9-82.1l-1.6-3.7l0,0l0-0.1l0,0l-0.2-0.4l0,0v0l0,0l-1.6-3.7
			c-17-40.2-55.6-60.6-55.6-60.6C374.8,1252.6,320.5,1276.2,320.5,1276.2z M473.2,1450.9c0,0-13.5,26.8-38.6,44.6
			c0,0-16.4-35.2-0.5-73.5c0,0,14.4-40.2,46.4-54.7C480.5,1367.4,498.2,1404.3,473.2,1450.9L473.2,1450.9z M405.2,1290.4
			c50.9,14.4,65.1,52.8,65.1,52.8c-32.7,13-71.6-4.7-71.6-4.7c-38.6-15.2-52.5-51.5-52.5-51.5
			C376.5,1281.5,405.2,1290.4,405.2,1290.4L405.2,1290.4z"/>
		<path class="st2" d="M527.3,1284.2c0,0-38.6,20.5-55.6,60.6l-1.6,3.7l0,0l0,0l0,0l-0.2,0.4l0,0v0l0,0l-1.6,3.7
			c-17,40.1-4.9,82.1-4.9,82.1c18.2,64.3,72.9,86.9,72.9,86.9s24.7-48.2,5.9-104.2c0,0-12.3-33.9-35.8-52.9l-0.6-0.5l0.8,0.1
			c30.1,3.7,63-11.1,63-11.1c53.3-25.4,70.8-76.7,70.8-76.7S586.1,1252.5,527.3,1284.2z M480.4,1367.3c32,14.4,46.4,54.6,46.4,54.6
			c15.9,38.3-0.5,73.5-0.5,73.5c-25.1-17.8-38.6-44.6-38.6-44.6C462.8,1404.3,480.4,1367.3,480.4,1367.3L480.4,1367.3z
			 M614.7,1287.1c0,0-13.9,36.3-52.5,51.5c0,0-38.9,17.7-71.5,4.7c0,0,14.3-38.4,65.1-52.9C555.8,1290.4,584.4,1281.4,614.7,1287.1z
			"/>
	</g>
	<g>
		<path class="st2" d="M640.4,1276.2c0,0,17.5,51.3,70.8,76.7c0,0,32.9,14.8,63,11.1l0.8-0.1l-0.6,0.5c-23.6,19-35.8,52.9-35.8,52.9
			c-18.9,56,5.9,104.2,5.9,104.2s54.8-22.6,72.9-86.8c0,0,12.1-41.9-4.9-82.1l-1.6-3.7l0,0l0-0.1l0,0l-0.2-0.4l0,0v0l0,0l-1.6-3.7
			c-17-40.2-55.6-60.6-55.6-60.6C694.7,1252.6,640.4,1276.2,640.4,1276.2z M793.1,1450.9c0,0-13.5,26.8-38.6,44.6
			c0,0-16.4-35.2-0.5-73.5c0,0,14.4-40.2,46.4-54.7C800.4,1367.4,818.1,1404.3,793.1,1450.9L793.1,1450.9z M725.1,1290.4
			c50.9,14.4,65.1,52.8,65.1,52.8c-32.7,13-71.6-4.7-71.6-4.7c-38.6-15.2-52.5-51.5-52.5-51.5
			C696.5,1281.5,725.1,1290.4,725.1,1290.4L725.1,1290.4z"/>
		<path class="st2" d="M847.2,1284.2c0,0-38.6,20.5-55.6,60.6l-1.6,3.7l0,0l0,0l0,0l-0.2,0.4l0,0v0l0,0l-1.6,3.7
			c-17,40.1-4.9,82.1-4.9,82.1c18.2,64.3,72.9,86.9,72.9,86.9s24.7-48.2,5.9-104.2c0,0-12.3-33.9-35.8-52.9l-0.6-0.5l0.8,0.1
			c30.1,3.7,63-11.1,63-11.1c53.3-25.4,70.8-76.7,70.8-76.7S906,1252.5,847.2,1284.2z M800.3,1367.3c32,14.4,46.4,54.6,46.4,54.6
			c15.9,38.3-0.5,73.5-0.5,73.5c-25.1-17.8-38.6-44.6-38.6-44.6C782.7,1404.3,800.3,1367.3,800.3,1367.3L800.3,1367.3z
			 M934.6,1287.1c0,0-13.9,36.3-52.5,51.5c0,0-38.9,17.7-71.5,4.7c0,0,14.3-38.4,65.1-52.9C875.7,1290.4,904.3,1281.4,934.6,1287.1z
			"/>
	</g>
	<g>
		<path class="st2" d="M113.8,1758.9c0,0,38.6-20.4,55.6-60.6l1.6-3.7l0,0v0l0,0l0.2-0.4l0,0l0-0.1l0,0l1.6-3.7
			c17-40.1,4.9-82.1,4.9-82.1c-18.2-64.3-72.9-86.8-72.9-86.8s-24.8,48.2-5.9,104.2c0,0,12.3,33.9,35.8,52.9l0.6,0.5l-0.8-0.1
			c-30-3.7-63,11.1-63,11.1c-53.3,25.4-70.8,76.7-70.8,76.7S54.9,1790.6,113.8,1758.9z M153.3,1592.2c25,46.6,7.3,83.6,7.3,83.6
			c-32-14.4-46.4-54.7-46.4-54.7c-15.9-38.3,0.5-73.5,0.5-73.5C139.8,1565.4,153.3,1592.2,153.3,1592.2L153.3,1592.2z M85.3,1752.7
			c0,0-28.6,9-58.9,3.3c0,0,13.9-36.3,52.5-51.5c0,0,38.9-17.7,71.6-4.7C150.4,1699.9,136.1,1738.3,85.3,1752.7L85.3,1752.7z"/>
		<path class="st2" d="M320.5,1767c0,0-17.5-51.3-70.8-76.7c0,0-32.9-14.7-63-11.1l-0.8,0.1l0.6-0.5c23.5-19,35.8-52.9,35.8-52.9
			c18.9-56-5.9-104.2-5.9-104.2s-54.7,22.6-72.9,86.9c0,0-12.1,41.9,4.9,82.1l1.6,3.7l0,0v0l0,0l0.2,0.4l0,0l0,0l0,0l1.6,3.7
			c17,40.1,55.6,60.6,55.6,60.6C266.2,1790.6,320.5,1767,320.5,1767z M160.5,1675.8c0,0-17.7-37,7.3-83.6c0,0,13.5-26.8,38.6-44.6
			c0,0,16.4,35.2,0.5,73.5C206.9,1621.2,192.6,1661.4,160.5,1675.8L160.5,1675.8z M235.9,1752.8c-50.9-14.5-65.1-52.9-65.1-52.9
			c32.7-13,71.5,4.7,71.5,4.7c38.6,15.2,52.5,51.5,52.5,51.5C264.5,1761.7,235.9,1752.8,235.9,1752.8z"/>
	</g>
	<g>
		<path class="st2" d="M433.7,1758.9c0,0,38.6-20.4,55.6-60.6l1.6-3.7l0,0v0l0,0l0.2-0.4l0,0l0-0.1l0,0l1.6-3.7
			c17-40.1,4.9-82.1,4.9-82.1c-18.2-64.3-72.9-86.8-72.9-86.8s-24.8,48.2-5.9,104.2c0,0,12.3,33.9,35.8,52.9l0.6,0.5l-0.8-0.1
			c-30-3.7-63,11.1-63,11.1c-53.3,25.4-70.8,76.7-70.8,76.7S374.8,1790.6,433.7,1758.9z M473.2,1592.2c25,46.6,7.3,83.6,7.3,83.6
			c-32-14.4-46.4-54.7-46.4-54.7c-15.9-38.3,0.5-73.5,0.5-73.5C459.7,1565.4,473.2,1592.2,473.2,1592.2L473.2,1592.2z M405.2,1752.7
			c0,0-28.6,9-58.9,3.3c0,0,13.9-36.3,52.5-51.5c0,0,38.9-17.7,71.6-4.7C470.3,1699.9,456,1738.3,405.2,1752.7L405.2,1752.7z"/>
		<path class="st2" d="M640.4,1767c0,0-17.5-51.3-70.8-76.7c0,0-32.9-14.7-63-11.1l-0.8,0.1l0.6-0.5c23.5-19,35.8-52.9,35.8-52.9
			c18.9-56-5.9-104.2-5.9-104.2s-54.7,22.6-72.9,86.9c0,0-12.1,41.9,4.9,82.1l1.6,3.7l0,0v0l0,0l0.2,0.4l0,0l0,0l0,0l1.6,3.7
			c17,40.1,55.6,60.6,55.6,60.6C586.1,1790.6,640.4,1767,640.4,1767z M480.4,1675.8c0,0-17.7-37,7.3-83.6c0,0,13.5-26.8,38.6-44.6
			c0,0,16.4,35.2,0.5,73.5C526.8,1621.2,512.5,1661.4,480.4,1675.8L480.4,1675.8z M555.8,1752.8c-50.9-14.5-65.1-52.9-65.1-52.9
			c32.7-13,71.5,4.7,71.5,4.7c38.6,15.2,52.5,51.5,52.5,51.5C584.4,1761.7,555.8,1752.8,555.8,1752.8z"/>
	</g>
	<g>
		<path class="st2" d="M0.6,1783.4c0,0,17.5,51.3,70.8,76.7c0,0,32.9,14.8,63,11.1l0.8-0.1l-0.6,0.5c-23.6,19-35.8,52.9-35.8,52.9
			c-18.9,56,5.9,104.2,5.9,104.2s54.8-22.6,72.9-86.8c0,0,12.1-41.9-4.9-82.1l-1.6-3.7l0,0l0-0.1l0,0l-0.2-0.4l0,0v0l0,0l-1.6-3.7
			c-17-40.2-55.6-60.6-55.6-60.6C54.9,1759.7,0.6,1783.4,0.6,1783.4z M153.3,1958.1c0,0-13.5,26.8-38.6,44.6c0,0-16.4-35.2-0.5-73.5
			c0,0,14.4-40.2,46.4-54.7C160.6,1874.5,178.3,1911.5,153.3,1958.1L153.3,1958.1z M85.3,1797.6c50.9,14.4,65.1,52.8,65.1,52.8
			c-32.7,13-71.6-4.7-71.6-4.7c-38.6-15.2-52.5-51.5-52.5-51.5C56.6,1788.6,85.3,1797.6,85.3,1797.6L85.3,1797.6z"/>
		<path class="st2" d="M207.4,1791.3c0,0-38.6,20.5-55.6,60.6l-1.6,3.7l0,0l0,0l0,0l-0.2,0.4l0,0v0l0,0l-1.6,3.7
			c-17,40.1-4.9,82.1-4.9,82.1c18.2,64.3,72.9,86.9,72.9,86.9s24.7-48.2,5.9-104.2c0,0-12.3-33.9-35.8-52.9l-0.6-0.5l0.8,0.1
			c30.1,3.7,63-11.1,63-11.1c53.3-25.4,70.8-76.7,70.8-76.7S266.2,1759.6,207.4,1791.3z M160.5,1874.4c32,14.4,46.4,54.6,46.4,54.6
			c15.9,38.3-0.5,73.5-0.5,73.5c-25.1-17.8-38.6-44.6-38.6-44.6C142.9,1911.4,160.5,1874.5,160.5,1874.4L160.5,1874.4z
			 M294.8,1794.2c0,0-13.9,36.3-52.5,51.5c0,0-38.9,17.7-71.5,4.7c0,0,14.3-38.4,65.1-52.9C235.9,1797.5,264.5,1788.5,294.8,1794.2z
			"/>
	</g>
</g>
</svg>
