<svg id="Layer_1" data-name="Layer 1" xmlns="http://www.w3.org/2000/svg" viewBox="0 0 1919.26 2028.74"><defs><style>.cls-1{fill:#ffd2bc;}.cls-2{fill:#003a4c;}</style></defs><g id="logo-bg"><path class="cls-1" d="M1119.24,65.12l-52.11-50.45C1044.08,98.76,1103.88,153,1103.88,153L1120,69.45l18.07,81.61c62.85-56.06,33.05-136.39,33.05-136.39C1146.85,23.39,1119.24,65.12,1119.24,65.12Z" transform="translate(-0.65 0)"/><path class="cls-1" d="M1178.18,165.66c-45.23-4.11-54.37,14.07-54.37,14.07,35.5,90.93,145.74,61,145.74,61C1262.7,199.66,1178.21,165.66,1178.18,165.66Z" transform="translate(-0.65 0)"/><path class="cls-1" d="M1111.44,176.86c-99-29.65-133.59,64.53-133.59,64.53,114.39,17.41,134.33-62.81,134.33-62.81" transform="translate(-0.65 0)"/></g><g id="logo"><path class="cls-2" d="M1073.38,237.37s38.57-20.44,55.6-60.6l1.57-3.69h0V173h0l.17-.39h0l0-.06h0l1.57-3.69c17-40.11,4.88-82,4.88-82C1119,22.57,1064.28,0,1064.28,0s-24.75,48.24-5.88,104.23c0,0,12.27,33.93,35.82,53l.64.52-.82-.12c-30-3.69-63,11.08-63,11.08-53.35,25.37-70.81,76.7-70.81,76.7S1014.57,269,1073.38,237.37Zm39.54-166.7c25,46.6,7.32,83.57,7.32,83.57-32-14.44-46.39-54.66-46.39-54.66-15.9-38.29.47-73.53.47-73.53,25.13,17.84,38.62,44.62,38.62,44.62Zm-68,160.5s-28.61,9-58.88,3.28c0,0,13.92-36.26,52.49-51.46,0,0,38.89-17.65,71.56-4.65,0,0-14.28,38.41-65.15,52.84Z" transform="translate(-0.65 0)"/><path class="cls-2" d="M1280.1,245.44s-17.46-51.35-70.78-76.72c0,0-32.91-14.75-63-11.09l-.81.12.63-.53c23.55-19,35.83-52.94,35.83-52.94,18.87-56-5.86-104.22-5.86-104.22s-54.74,22.56-72.91,86.86c0,0-12.14,41.93,4.86,82.06l1.57,3.69h0v0h0l.17.41h0l0,0h0l1.57,3.7c17,40.12,55.56,60.57,55.56,60.57C1225.8,269.1,1280.1,245.44,1280.1,245.44Zm-159.94-91.15s-17.68-37,7.34-83.55c0,0,13.47-26.78,38.61-44.61,0,0,16.36,35.23.45,73.52,0,0-14.37,40.22-46.4,54.65Zm75.33,76.94c-50.86-14.46-65.12-52.87-65.12-52.87,32.65-13,71.54,4.7,71.54,4.7,38.56,15.22,52.49,51.48,52.49,51.48C1224.1,240.21,1195.49,231.24,1195.49,231.23Z" transform="translate(-0.65 0)"/></g><g id="logo-bg-2" data-name="logo-bg"><path class="cls-1" d="M1439.14,65.12,1387,14.67C1364,98.76,1423.78,153,1423.78,153l16.14-83.5L1458,151.06c62.85-56.06,33-136.39,33-136.39C1466.75,23.39,1439.14,65.12,1439.14,65.12Z" transform="translate(-0.65 0)"/><path class="cls-1" d="M1498.08,165.66c-45.23-4.11-54.37,14.07-54.37,14.07,35.5,90.93,145.74,61,145.74,61C1582.6,199.66,1498.11,165.66,1498.08,165.66Z" transform="translate(-0.65 0)"/><path class="cls-1" d="M1431.34,176.86c-98.94-29.65-133.59,64.53-133.59,64.53,114.39,17.41,134.34-62.81,134.34-62.81" transform="translate(-0.65 0)"/></g><g id="logo-2" data-name="logo"><path class="cls-2" d="M1393.29,237.37s38.57-20.44,55.59-60.6l1.57-3.69h0V173h0l.17-.39h0l0-.06h0l1.56-3.69c17-40.11,4.88-82,4.88-82C1438.94,22.57,1384.18,0,1384.18,0s-24.75,48.24-5.87,104.23c0,0,12.26,33.93,35.82,53l.63.52-.82-.12c-30-3.69-63,11.08-63,11.08-53.35,25.37-70.8,76.7-70.8,76.7S1334.47,269,1393.29,237.37Zm39.53-166.7c25,46.6,7.32,83.57,7.32,83.57-32-14.44-46.39-54.66-46.39-54.66-15.89-38.29.47-73.53.47-73.53,25.13,17.84,38.62,44.62,38.62,44.62Zm-68,160.5s-28.61,9-58.89,3.28c0,0,13.92-36.26,52.49-51.46,0,0,38.9-17.65,71.56-4.65,0,0-14.28,38.41-65.14,52.84Z" transform="translate(-0.65 0)"/><path class="cls-2" d="M1600,245.44s-17.45-51.35-70.78-76.72c0,0-32.91-14.75-63-11.09l-.81.12.63-.53c23.55-19,35.83-52.94,35.83-52.94,18.87-56-5.86-104.22-5.86-104.22s-54.74,22.56-72.91,86.86c0,0-12.14,41.93,4.86,82.06l1.57,3.69h0v0h0l.17.41h0l0,0h0l1.57,3.7c17,40.12,55.56,60.57,55.56,60.57C1545.7,269.1,1600,245.44,1600,245.44Zm-159.94-91.15s-17.67-37,7.34-83.55c0,0,13.47-26.78,38.61-44.61,0,0,16.36,35.23.46,73.52,0,0-14.38,40.22-46.41,54.65Zm75.33,76.94c-50.86-14.46-65.12-52.87-65.12-52.87,32.65-13,71.54,4.7,71.54,4.7,38.56,15.22,52.49,51.48,52.49,51.48C1544,240.21,1515.39,231.24,1515.39,231.23Z" transform="translate(-0.65 0)"/></g><g id="logo-bg-3" data-name="logo-bg"><path class="cls-1" d="M1759,65.12l-52.11-50.45c-23,84.09,36.75,138.28,36.75,138.28l16.14-83.5,18.07,81.61c62.85-56.06,33-136.39,33-136.39C1786.65,23.39,1759,65.12,1759,65.12Z" transform="translate(-0.65 0)"/><path class="cls-1" d="M1818,165.66c-45.23-4.11-54.37,14.07-54.37,14.07,35.5,90.93,145.74,61,145.74,61C1902.5,199.66,1818,165.66,1818,165.66Z" transform="translate(-0.65 0)"/><path class="cls-1" d="M1751.24,176.86c-98.94-29.65-133.58,64.53-133.58,64.53C1732.05,258.8,1752,178.58,1752,178.58" transform="translate(-0.65 0)"/></g><g id="logo-3" data-name="logo"><path class="cls-2" d="M1713.19,237.37s38.57-20.44,55.59-60.6l1.57-3.69h0V173h0l.17-.39h0l0-.06h0l1.57-3.69c17-40.11,4.87-82,4.87-82C1758.84,22.57,1704.09,0,1704.09,0s-24.76,48.24-5.88,104.23c0,0,12.26,33.93,35.82,53l.63.52-.82-.12c-30-3.69-63,11.08-63,11.08-53.35,25.37-70.8,76.7-70.8,76.7S1654.37,269,1713.19,237.37Zm39.53-166.7c25,46.6,7.32,83.57,7.32,83.57-32-14.44-46.39-54.66-46.39-54.66-15.89-38.29.47-73.53.47-73.53,25.14,17.84,38.63,44.62,38.63,44.62Zm-68,160.5s-28.61,9-58.89,3.28c0,0,13.92-36.26,52.49-51.46,0,0,38.9-17.65,71.56-4.65,0,0-14.27,38.41-65.14,52.84Z" transform="translate(-0.65 0)"/><path class="cls-2" d="M1919.9,245.44s-17.45-51.35-70.78-76.72c0,0-32.91-14.75-63-11.09l-.81.12.63-.53c23.55-19,35.83-52.94,35.83-52.94C1840.69,48.31,1816,.06,1816,.06s-54.74,22.56-72.91,86.86c0,0-12.14,41.93,4.85,82.06l1.57,3.69h0v0h0l.17.41h0l0,0h0l1.57,3.7c17,40.12,55.57,60.57,55.57,60.57C1865.6,269.1,1919.9,245.44,1919.9,245.44ZM1760,154.29s-17.67-37,7.34-83.55c0,0,13.47-26.78,38.61-44.61,0,0,16.36,35.23.46,73.52,0,0-14.38,40.22-46.41,54.65Zm75.34,76.94c-50.87-14.46-65.13-52.87-65.13-52.87,32.65-13,71.54,4.7,71.54,4.7,38.57,15.22,52.49,51.48,52.49,51.48C1863.91,240.21,1835.3,231.24,1835.3,231.23Z" transform="translate(-0.65 0)"/></g><g id="logo-bg-4" data-name="logo-bg"><path class="cls-1" d="M1171.14,492.53s29.8-80.33-33.05-136.39L1120,437.75l-16.14-83.49s-59.8,54.18-36.75,138.27l52.11-50.45S1146.85,483.81,1171.14,492.53Z" transform="translate(-0.65 0)"/><path class="cls-1" d="M1269.55,266.44s-110.24-29.9-145.74,61c0,0,9.14,18.18,54.37,14.07C1178.21,341.55,1262.7,307.55,1269.55,266.44Z" transform="translate(-0.65 0)"/><path class="cls-1" d="M1112.18,328.63s-19.94-80.23-134.33-62.82c0,0,34.64,94.19,133.59,64.54" transform="translate(-0.65 0)"/></g><g id="logo-4" data-name="logo"><path class="cls-2" d="M960.27,261.84s17.46,51.34,70.81,76.71c0,0,32.91,14.76,63,11.07l.82-.12-.64.53c-23.55,19-35.82,52.94-35.82,52.94-18.87,56,5.88,104.23,5.88,104.23s54.76-22.56,72.91-86.84c0,0,12.13-41.93-4.88-82.05l-1.57-3.69h0l0-.05h0l-.17-.4h0v-.05h0l-1.57-3.68c-17-40.17-55.6-60.61-55.6-60.61C1014.57,238.19,960.27,261.84,960.27,261.84Zm152.67,174.69s-13.49,26.79-38.62,44.62c0,0-16.37-35.23-.47-73.52,0,0,14.36-40.22,46.39-54.66,0,0,17.68,37-7.32,83.56ZM1044.9,276c50.87,14.44,65.15,52.85,65.15,52.85-32.67,13-71.56-4.66-71.56-4.66C999.92,309,986,272.75,986,272.75c30.27-5.67,58.88,3.29,58.88,3.29Z" transform="translate(-0.65 0)"/><path class="cls-2" d="M1167,269.77s-38.57,20.46-55.56,60.58l-1.57,3.69h0l0,0h0l-.17.4h0v.05h0l-1.57,3.69c-17,40.12-4.86,82-4.86,82,18.17,64.3,72.91,86.86,72.91,86.86s24.73-48.25,5.86-104.22c0,0-12.28-33.92-35.83-52.94l-.63-.52.81.11c30.05,3.66,63-11.09,63-11.09,53.32-25.37,70.78-76.71,70.78-76.71S1225.8,238.1,1167,269.77Zm-46.84,83.13c32,14.43,46.4,54.65,46.4,54.65,15.91,38.29-.45,73.53-.45,73.53-25.14-17.83-38.61-44.61-38.61-44.61-25-46.59-7.34-83.56-7.34-83.56Zm134.24-80.24s-13.93,36.27-52.49,51.48c0,0-38.89,17.66-71.54,4.71,0,0,14.26-38.42,65.12-52.87C1195.49,276,1224.1,267,1254.4,272.66Z" transform="translate(-0.65 0)"/></g><g id="logo-bg-5" data-name="logo-bg"><path class="cls-1" d="M1491,492.53s29.8-80.33-33-136.39l-18.07,81.61-16.14-83.49S1364,408.44,1387,492.53l52.11-50.45S1466.75,483.81,1491,492.53Z" transform="translate(-0.65 0)"/><path class="cls-1" d="M1589.45,266.44s-110.24-29.9-145.74,61c0,0,9.14,18.18,54.37,14.07C1498.11,341.55,1582.6,307.55,1589.45,266.44Z" transform="translate(-0.65 0)"/><path class="cls-1" d="M1432.09,328.63s-19.95-80.23-134.34-62.82c0,0,34.65,94.19,133.59,64.54" transform="translate(-0.65 0)"/></g><g id="logo-5" data-name="logo"><path class="cls-2" d="M1280.18,261.84s17.45,51.34,70.8,76.71c0,0,32.91,14.76,63,11.07l.82-.12-.63.53c-23.56,19-35.82,52.94-35.82,52.94-18.88,56,5.87,104.23,5.87,104.23s54.76-22.56,72.91-86.84c0,0,12.13-41.93-4.88-82.05l-1.56-3.69h0l0-.05h0l-.17-.4h0v-.05h0l-1.57-3.68c-17-40.17-55.59-60.61-55.59-60.61C1334.47,238.19,1280.18,261.84,1280.18,261.84Zm152.66,174.69s-13.49,26.79-38.62,44.62c0,0-16.36-35.23-.47-73.52,0,0,14.36-40.22,46.39-54.66,0,0,17.68,37-7.32,83.56Zm-68-160.51c50.86,14.44,65.14,52.85,65.14,52.85-32.66,13-71.56-4.66-71.56-4.66-38.57-15.2-52.49-51.46-52.49-51.46,30.28-5.67,58.89,3.29,58.89,3.29Z" transform="translate(-0.65 0)"/><path class="cls-2" d="M1486.9,269.77s-38.57,20.46-55.56,60.58l-1.57,3.69h0l0,0h0l-.17.4h0v.05h0l-1.57,3.69c-17,40.12-4.86,82-4.86,82,18.17,64.3,72.91,86.86,72.91,86.86s24.73-48.25,5.86-104.22c0,0-12.28-33.92-35.83-52.94l-.63-.52.81.11c30,3.66,63-11.09,63-11.09,53.33-25.37,70.78-76.71,70.78-76.71S1545.7,238.1,1486.9,269.77Zm-46.84,83.13c32,14.43,46.41,54.65,46.41,54.65,15.9,38.29-.46,73.53-.46,73.53-25.14-17.83-38.61-44.61-38.61-44.61-25-46.59-7.34-83.56-7.34-83.56Zm134.24-80.24s-13.93,36.27-52.49,51.48c0,0-38.89,17.66-71.54,4.71,0,0,14.26-38.42,65.12-52.87C1515.39,276,1544,267,1574.3,272.66Z" transform="translate(-0.65 0)"/></g><g id="logo-bg-6" data-name="logo-bg"><path class="cls-1" d="M1810.94,492.53s29.8-80.33-33-136.39l-18.07,81.61-16.14-83.49s-59.8,54.18-36.75,138.27L1759,442.08S1786.65,483.81,1810.94,492.53Z" transform="translate(-0.65 0)"/><path class="cls-1" d="M1909.35,266.44s-110.24-29.9-145.74,61c0,0,9.14,18.18,54.37,14.07C1818,341.55,1902.5,307.55,1909.35,266.44Z" transform="translate(-0.65 0)"/><path class="cls-1" d="M1752,328.63s-19.94-80.23-134.33-62.82c0,0,34.64,94.19,133.58,64.54" transform="translate(-0.65 0)"/></g><g id="logo-6" data-name="logo"><path class="cls-2" d="M1600.08,261.84s17.45,51.34,70.8,76.71c0,0,32.91,14.76,63,11.07l.82-.12-.63.53c-23.56,19-35.82,52.94-35.82,52.94-18.88,56,5.88,104.23,5.88,104.23s54.75-22.56,72.9-86.84c0,0,12.13-41.93-4.87-82.05l-1.57-3.69h0l0-.05h0l-.17-.4h0v-.05h0l-1.57-3.68c-17-40.17-55.59-60.61-55.59-60.61C1654.37,238.19,1600.08,261.84,1600.08,261.84Zm152.67,174.69s-13.49,26.79-38.63,44.62c0,0-16.36-35.23-.47-73.52,0,0,14.36-40.22,46.39-54.66,0,0,17.68,37-7.32,83.56Zm-68-160.51c50.87,14.44,65.14,52.85,65.14,52.85-32.66,13-71.56-4.66-71.56-4.66-38.57-15.2-52.49-51.46-52.49-51.46,30.28-5.67,58.89,3.29,58.89,3.29Z" transform="translate(-0.65 0)"/><path class="cls-2" d="M1806.81,269.77s-38.57,20.46-55.57,60.58l-1.57,3.69h0l0,0h0l-.17.4h0v.05h0l-1.57,3.69c-17,40.12-4.85,82-4.85,82,18.17,64.3,72.91,86.86,72.91,86.86s24.73-48.25,5.85-104.22c0,0-12.28-33.92-35.83-52.94l-.63-.52.81.11c30,3.66,63-11.09,63-11.09,53.33-25.37,70.78-76.71,70.78-76.71S1865.6,238.1,1806.81,269.77ZM1760,352.9c32,14.43,46.41,54.65,46.41,54.65,15.9,38.29-.46,73.53-.46,73.53-25.14-17.83-38.61-44.61-38.61-44.61-25-46.59-7.34-83.56-7.34-83.56Zm134.24-80.24s-13.92,36.27-52.49,51.48c0,0-38.89,17.66-71.54,4.71,0,0,14.26-38.42,65.13-52.87C1835.3,276,1863.91,267,1894.2,272.66Z" transform="translate(-0.65 0)"/></g><g id="logo-bg-7" data-name="logo-bg"><path class="cls-1" d="M1119.24,572.26l-52.11-50.45c-23.05,84.09,36.75,138.27,36.75,138.27L1120,576.59l18.07,81.61c62.85-56.06,33.05-136.39,33.05-136.39C1146.85,530.53,1119.24,572.26,1119.24,572.26Z" transform="translate(-0.65 0)"/><path class="cls-1" d="M1178.18,672.79c-45.23-4.11-54.37,14.07-54.37,14.07,35.5,90.94,145.74,61,145.74,61C1262.7,706.79,1178.21,672.79,1178.18,672.79Z" transform="translate(-0.65 0)"/><path class="cls-1" d="M1111.44,684c-99-29.65-133.59,64.54-133.59,64.54,114.39,17.41,134.33-62.82,134.33-62.82" transform="translate(-0.65 0)"/></g><g id="logo-7" data-name="logo"><path class="cls-2" d="M1073.38,744.51S1112,724.07,1129,683.9l1.57-3.68h0v-.05h0l.17-.4h0l0,0h0l1.57-3.69c17-40.12,4.88-82,4.88-82-18.15-64.28-72.91-86.84-72.91-86.84s-24.75,48.24-5.88,104.23c0,0,12.27,33.92,35.82,52.94l.64.53-.82-.12c-30-3.69-63,11.08-63,11.08-53.35,25.36-70.81,76.7-70.81,76.7S1014.57,776.15,1073.38,744.51Zm39.54-166.7c25,46.6,7.32,83.57,7.32,83.57-32-14.45-46.39-54.67-46.39-54.67-15.9-38.28.47-73.52.47-73.52,25.13,17.84,38.62,44.62,38.62,44.62Zm-68,160.5s-28.61,9-58.88,3.28c0,0,13.92-36.26,52.49-51.46,0,0,38.89-17.65,71.56-4.66,0,0-14.28,38.42-65.15,52.85Z" transform="translate(-0.65 0)"/><path class="cls-2" d="M1280.1,752.57s-17.46-51.34-70.78-76.71c0,0-32.91-14.75-63-11.09l-.81.11.63-.52c23.55-19,35.83-52.94,35.83-52.94,18.87-56-5.86-104.22-5.86-104.22s-54.74,22.56-72.91,86.86c0,0-12.14,41.93,4.86,82.05l1.57,3.7h0v0h0l.17.41h0l0,0h0l1.57,3.69c17,40.13,55.56,60.58,55.56,60.58C1225.8,776.24,1280.1,752.57,1280.1,752.57Zm-159.94-91.14s-17.68-37,7.34-83.56c0,0,13.47-26.78,38.61-44.6,0,0,16.36,35.23.45,73.52,0,0-14.37,40.22-46.4,54.65Zm75.33,76.93c-50.86-14.45-65.12-52.87-65.12-52.87,32.65-13,71.54,4.71,71.54,4.71,38.56,15.21,52.49,51.48,52.49,51.48C1224.1,747.35,1195.49,738.38,1195.49,738.36Z" transform="translate(-0.65 0)"/></g><g id="logo-bg-8" data-name="logo-bg"><path class="cls-1" d="M1439.14,572.26,1387,521.81c-23,84.09,36.75,138.27,36.75,138.27l16.14-83.49L1458,658.2c62.85-56.06,33-136.39,33-136.39C1466.75,530.53,1439.14,572.26,1439.14,572.26Z" transform="translate(-0.65 0)"/><path class="cls-1" d="M1498.08,672.79c-45.23-4.11-54.37,14.07-54.37,14.07,35.5,90.94,145.74,61,145.74,61C1582.6,706.79,1498.11,672.79,1498.08,672.79Z" transform="translate(-0.65 0)"/><path class="cls-1" d="M1431.34,684c-98.94-29.65-133.59,64.54-133.59,64.54,114.39,17.41,134.34-62.82,134.34-62.82" transform="translate(-0.65 0)"/></g><g id="logo-8" data-name="logo"><path class="cls-2" d="M1393.29,744.51s38.57-20.44,55.59-60.61l1.57-3.68h0v-.05h0l.17-.4h0l0,0h0l1.56-3.69c17-40.12,4.88-82,4.88-82-18.15-64.28-72.91-86.84-72.91-86.84s-24.75,48.24-5.87,104.23c0,0,12.26,33.92,35.82,52.94l.63.53-.82-.12c-30-3.69-63,11.08-63,11.08-53.35,25.36-70.8,76.7-70.8,76.7S1334.47,776.15,1393.29,744.51Zm39.53-166.7c25,46.6,7.32,83.57,7.32,83.57-32-14.45-46.39-54.67-46.39-54.67-15.89-38.28.47-73.52.47-73.52,25.13,17.84,38.62,44.62,38.62,44.62Zm-68,160.5s-28.61,9-58.89,3.28c0,0,13.92-36.26,52.49-51.46,0,0,38.9-17.65,71.56-4.66,0,0-14.28,38.42-65.14,52.85Z" transform="translate(-0.65 0)"/><path class="cls-2" d="M1600,752.57s-17.45-51.34-70.78-76.71c0,0-32.91-14.75-63-11.09l-.81.11.63-.52c23.55-19,35.83-52.94,35.83-52.94,18.87-56-5.86-104.22-5.86-104.22s-54.74,22.56-72.91,86.86c0,0-12.14,41.93,4.86,82.05l1.57,3.7h0v0h0l.17.41h0l0,0h0l1.57,3.69c17,40.13,55.56,60.58,55.56,60.58C1545.7,776.24,1600,752.57,1600,752.57Zm-159.94-91.14s-17.67-37,7.34-83.56c0,0,13.47-26.78,38.61-44.6,0,0,16.36,35.23.46,73.52,0,0-14.38,40.22-46.41,54.65Zm75.33,76.93c-50.86-14.45-65.12-52.87-65.12-52.87,32.65-13,71.54,4.71,71.54,4.71,38.56,15.21,52.49,51.48,52.49,51.48C1544,747.35,1515.39,738.38,1515.39,738.36Z" transform="translate(-0.65 0)"/></g><g id="logo-bg-9" data-name="logo-bg"><path class="cls-1" d="M1759,572.26l-52.11-50.45c-23,84.09,36.75,138.27,36.75,138.27l16.14-83.49,18.07,81.61c62.85-56.06,33-136.39,33-136.39C1786.65,530.53,1759,572.26,1759,572.26Z" transform="translate(-0.65 0)"/><path class="cls-1" d="M1818,672.79c-45.23-4.11-54.37,14.07-54.37,14.07,35.5,90.94,145.74,61,145.74,61C1902.5,706.79,1818,672.79,1818,672.79Z" transform="translate(-0.65 0)"/><path class="cls-1" d="M1751.24,684c-98.94-29.65-133.58,64.54-133.58,64.54C1732.05,765.94,1752,685.71,1752,685.71" transform="translate(-0.65 0)"/></g><g id="logo-9" data-name="logo"><path class="cls-2" d="M1713.19,744.51s38.57-20.44,55.59-60.61l1.57-3.68h0v-.05h0l.17-.4h0l0,0h0l1.57-3.69c17-40.12,4.87-82,4.87-82-18.15-64.28-72.9-86.84-72.9-86.84s-24.76,48.24-5.88,104.23c0,0,12.26,33.92,35.82,52.94l.63.53-.82-.12c-30-3.69-63,11.08-63,11.08-53.35,25.36-70.8,76.7-70.8,76.7S1654.37,776.15,1713.19,744.51Zm39.53-166.7c25,46.6,7.32,83.57,7.32,83.57-32-14.45-46.39-54.67-46.39-54.67-15.89-38.28.47-73.52.47-73.52,25.14,17.84,38.63,44.62,38.63,44.62Zm-68,160.5s-28.61,9-58.89,3.28c0,0,13.92-36.26,52.49-51.46,0,0,38.9-17.65,71.56-4.66,0,0-14.27,38.42-65.14,52.85Z" transform="translate(-0.65 0)"/><path class="cls-2" d="M1919.9,752.57s-17.45-51.34-70.78-76.71c0,0-32.91-14.75-63-11.09l-.81.11.63-.52c23.55-19,35.83-52.94,35.83-52.94,18.88-56-5.85-104.22-5.85-104.22s-54.74,22.56-72.91,86.86c0,0-12.14,41.93,4.85,82.05l1.57,3.7h0v0h0l.17.41h0l0,0h0l1.57,3.69c17,40.13,55.57,60.58,55.57,60.58C1865.6,776.24,1919.9,752.57,1919.9,752.57ZM1760,661.43s-17.67-37,7.34-83.56c0,0,13.47-26.78,38.61-44.6,0,0,16.36,35.23.46,73.52,0,0-14.38,40.22-46.41,54.65Zm75.34,76.93c-50.87-14.45-65.13-52.87-65.13-52.87,32.65-13,71.54,4.71,71.54,4.71,38.57,15.21,52.49,51.48,52.49,51.48C1863.91,747.35,1835.3,738.38,1835.3,738.36Z" transform="translate(-0.65 0)"/></g><g id="logo-bg-10" data-name="logo-bg"><path class="cls-1" d="M1171.14,999.67s29.8-80.33-33.05-136.39L1120,944.89l-16.14-83.5s-59.8,54.19-36.75,138.28l52.11-50.45S1146.85,991,1171.14,999.67Z" transform="translate(-0.65 0)"/><path class="cls-1" d="M1269.55,773.57s-110.24-29.89-145.74,61c0,0,9.14,18.17,54.37,14.06C1178.21,848.68,1262.7,814.68,1269.55,773.57Z" transform="translate(-0.65 0)"/><path class="cls-1" d="M1112.18,835.77S1092.24,755.54,977.85,773c0,0,34.64,94.19,133.59,64.54" transform="translate(-0.65 0)"/></g><g id="logo-10" data-name="logo"><path class="cls-2" d="M960.27,769s17.46,51.34,70.81,76.7c0,0,32.91,14.77,63,11.08l.82-.12-.64.53c-23.55,19-35.82,52.94-35.82,52.94-18.87,56,5.88,104.23,5.88,104.23s54.76-22.57,72.91-86.84c0,0,12.13-41.93-4.88-82l-1.57-3.69h0l0-.06h0l-.17-.39h0v0h0l-1.57-3.69c-17-40.16-55.6-60.6-55.6-60.6C1014.57,745.33,960.27,769,960.27,769Zm152.67,174.69s-13.49,26.78-38.62,44.62c0,0-16.37-35.24-.47-73.52,0,0,14.36-40.23,46.39-54.67,0,0,17.68,37-7.32,83.57Zm-68-160.51c50.87,14.43,65.15,52.85,65.15,52.85-32.67,13-71.56-4.66-71.56-4.66C999.92,816.15,986,779.89,986,779.89c30.27-5.67,58.88,3.28,58.88,3.28Z" transform="translate(-0.65 0)"/><path class="cls-2" d="M1167,776.91s-38.57,20.45-55.56,60.58l-1.57,3.69h0l0,0h0l-.17.41h0v0h0l-1.57,3.69c-17,40.13-4.86,82.06-4.86,82.06,18.17,64.3,72.91,86.86,72.91,86.86S1200.88,966,1182,910.06c0,0-12.28-33.92-35.83-52.94l-.63-.52.81.11c30.05,3.66,63-11.09,63-11.09,53.32-25.37,70.78-76.71,70.78-76.71S1225.8,745.24,1167,776.91ZM1120.16,860c32,14.43,46.4,54.65,46.4,54.65,15.91,38.29-.45,73.52-.45,73.52-25.14-17.82-38.61-44.6-38.61-44.6-25-46.59-7.34-83.56-7.34-83.56ZM1254.4,779.8s-13.93,36.26-52.49,51.48c0,0-38.89,17.66-71.54,4.7,0,0,14.26-38.41,65.12-52.86C1195.49,783.1,1224.1,774.13,1254.4,779.8Z" transform="translate(-0.65 0)"/></g><g id="logo-bg-11" data-name="logo-bg"><path class="cls-1" d="M1491,999.67s29.8-80.33-33-136.39l-18.07,81.61-16.14-83.5S1364,915.58,1387,999.67l52.11-50.45S1466.75,991,1491,999.67Z" transform="translate(-0.65 0)"/><path class="cls-1" d="M1589.45,773.57s-110.24-29.89-145.74,61c0,0,9.14,18.17,54.37,14.06C1498.11,848.68,1582.6,814.68,1589.45,773.57Z" transform="translate(-0.65 0)"/><path class="cls-1" d="M1432.09,835.77s-19.95-80.23-134.34-62.82c0,0,34.65,94.19,133.59,64.54" transform="translate(-0.65 0)"/></g><g id="logo-11" data-name="logo"><path class="cls-2" d="M1280.18,769s17.45,51.34,70.8,76.7c0,0,32.91,14.77,63,11.08l.82-.12-.63.53c-23.56,19-35.82,52.94-35.82,52.94-18.88,56,5.87,104.23,5.87,104.23s54.76-22.57,72.91-86.84c0,0,12.13-41.93-4.88-82l-1.56-3.69h0l0-.06h0l-.17-.39h0v0h0l-1.57-3.69c-17-40.16-55.59-60.6-55.59-60.6C1334.47,745.33,1280.18,769,1280.18,769Zm152.66,174.69s-13.49,26.78-38.62,44.62c0,0-16.36-35.24-.47-73.52,0,0,14.36-40.23,46.39-54.67,0,0,17.68,37-7.32,83.57Zm-68-160.51C1415.67,797.59,1430,836,1430,836c-32.66,13-71.56-4.66-71.56-4.66-38.57-15.2-52.49-51.46-52.49-51.46,30.28-5.67,58.89,3.28,58.89,3.28Z" transform="translate(-0.65 0)"/><path class="cls-2" d="M1486.9,776.91s-38.57,20.45-55.56,60.58l-1.57,3.69h0l0,0h0l-.17.41h0v0h0l-1.57,3.69c-17,40.13-4.86,82.06-4.86,82.06,18.17,64.3,72.91,86.86,72.91,86.86s24.73-48.25,5.86-104.22c0,0-12.28-33.92-35.83-52.94l-.63-.52.81.11c30,3.66,63-11.09,63-11.09,53.33-25.37,70.78-76.71,70.78-76.71S1545.7,745.24,1486.9,776.91ZM1440.06,860c32,14.43,46.41,54.65,46.41,54.65,15.9,38.29-.46,73.52-.46,73.52-25.14-17.82-38.61-44.6-38.61-44.6-25-46.59-7.34-83.56-7.34-83.56ZM1574.3,779.8s-13.93,36.26-52.49,51.48c0,0-38.89,17.66-71.54,4.7,0,0,14.26-38.41,65.12-52.86C1515.39,783.1,1544,774.13,1574.3,779.8Z" transform="translate(-0.65 0)"/></g><g id="logo-bg-12" data-name="logo-bg"><path class="cls-1" d="M159.61,65.12,107.5,14.67C84.45,98.76,144.25,153,144.25,153l16.14-83.5,18.07,81.61c62.85-56.06,33-136.39,33-136.39C187.22,23.39,159.61,65.12,159.61,65.12Z" transform="translate(-0.65 0)"/><path class="cls-1" d="M218.55,165.66c-45.23-4.11-54.37,14.07-54.37,14.07,35.5,90.93,145.74,61,145.74,61C303.07,199.66,218.58,165.66,218.55,165.66Z" transform="translate(-0.65 0)"/><path class="cls-1" d="M151.81,176.86C52.87,147.21,18.22,241.39,18.22,241.39c114.39,17.41,134.34-62.81,134.34-62.81" transform="translate(-0.65 0)"/></g><g id="logo-12" data-name="logo"><path class="cls-2" d="M113.76,237.37s38.57-20.44,55.59-60.6l1.57-3.69h0V173h0l.17-.39h0l0-.06h0l1.56-3.69c17-40.11,4.88-82,4.88-82C159.41,22.57,104.65,0,104.65,0S79.9,48.24,98.78,104.23c0,0,12.26,33.93,35.82,53l.63.52-.82-.12c-30-3.69-63,11.08-63,11.08C18.1,194,.65,245.36.65,245.36S54.94,269,113.76,237.37Zm39.53-166.7c25,46.6,7.32,83.57,7.32,83.57-32-14.44-46.39-54.66-46.39-54.66-15.89-38.29.47-73.53.47-73.53,25.13,17.84,38.62,44.62,38.62,44.62Zm-68,160.5s-28.61,9-58.89,3.28c0,0,13.92-36.26,52.49-51.46,0,0,38.9-17.65,71.56-4.65,0,0-14.28,38.41-65.14,52.84Z" transform="translate(-0.65 0)"/><path class="cls-2" d="M320.47,245.44S303,194.09,249.69,168.72c0,0-32.91-14.75-63-11.09l-.81.12.63-.53c23.55-19,35.83-52.94,35.83-52.94C241.25,48.31,216.52.06,216.52.06s-54.74,22.56-72.9,86.86c0,0-12.15,41.93,4.85,82.06l1.57,3.69h0v0h0l.17.41h0l0,0h0l1.57,3.7c17,40.12,55.56,60.57,55.56,60.57C266.17,269.1,320.47,245.44,320.47,245.44ZM160.53,154.29s-17.67-37,7.34-83.55c0,0,13.47-26.78,38.61-44.61,0,0,16.36,35.23.46,73.52,0,0-14.38,40.22-46.41,54.65Zm75.33,76.94c-50.86-14.46-65.12-52.87-65.12-52.87,32.65-13,71.54,4.7,71.54,4.7,38.56,15.22,52.49,51.48,52.49,51.48C264.47,240.21,235.86,231.24,235.86,231.23Z" transform="translate(-0.65 0)"/></g><g id="logo-bg-13" data-name="logo-bg"><path class="cls-1" d="M479.51,65.12,427.4,14.67C404.35,98.76,464.15,153,464.15,153l16.14-83.5,18.07,81.61c62.85-56.06,33-136.39,33-136.39C507.12,23.39,479.51,65.12,479.51,65.12Z" transform="translate(-0.65 0)"/><path class="cls-1" d="M538.46,165.66c-45.24-4.11-54.38,14.07-54.38,14.07,35.5,90.93,145.74,61,145.74,61C623,199.66,538.48,165.66,538.46,165.66Z" transform="translate(-0.65 0)"/><path class="cls-1" d="M471.71,176.86c-98.94-29.65-133.58,64.53-133.58,64.53,114.39,17.41,134.33-62.81,134.33-62.81" transform="translate(-0.65 0)"/></g><g id="logo-13" data-name="logo"><path class="cls-2" d="M433.66,237.37s38.57-20.44,55.59-60.6l1.57-3.69h0V173h0l.17-.39h0l0-.06h0l1.57-3.69c17-40.11,4.87-82,4.87-82C479.31,22.57,424.56,0,424.56,0s-24.76,48.24-5.88,104.23c0,0,12.26,33.93,35.82,53l.63.52-.82-.12c-30.05-3.69-63,11.08-63,11.08-53.34,25.37-70.8,76.7-70.8,76.7S374.84,269,433.66,237.37Zm39.53-166.7c25,46.6,7.32,83.57,7.32,83.57-32-14.44-46.39-54.66-46.39-54.66-15.89-38.29.47-73.53.47-73.53,25.14,17.84,38.63,44.62,38.63,44.62Zm-68,160.5s-28.61,9-58.89,3.28c0,0,13.92-36.26,52.49-51.46,0,0,38.9-17.65,71.56-4.65,0,0-14.27,38.41-65.14,52.84Z" transform="translate(-0.65 0)"/><path class="cls-2" d="M640.37,245.44s-17.45-51.35-70.78-76.72c0,0-32.91-14.75-63-11.09l-.81.12.63-.53c23.55-19,35.83-52.94,35.83-52.94C561.16,48.31,536.43.06,536.43.06s-54.74,22.56-72.91,86.86c0,0-12.14,41.93,4.85,82.06l1.57,3.69h0v0h0l.18.41h0l0,0h0l1.57,3.7c17,40.12,55.57,60.57,55.57,60.57C586.07,269.1,640.37,245.44,640.37,245.44ZM480.43,154.29s-17.67-37,7.34-83.55c0,0,13.47-26.78,38.61-44.61,0,0,16.36,35.23.46,73.52,0,0-14.38,40.22-46.41,54.65Zm75.34,76.94c-50.87-14.46-65.13-52.87-65.13-52.87,32.65-13,71.54,4.7,71.54,4.7,38.57,15.22,52.49,51.48,52.49,51.48C584.38,240.21,555.77,231.24,555.77,231.23Z" transform="translate(-0.65 0)"/></g><g id="logo-bg-14" data-name="logo-bg"><path class="cls-1" d="M799.41,65.12,747.3,14.67C724.26,98.76,784.05,153,784.05,153l16.15-83.5,18.07,81.61c62.85-56.06,33-136.39,33-136.39C827,23.39,799.41,65.12,799.41,65.12Z" transform="translate(-0.65 0)"/><path class="cls-1" d="M858.36,165.66C813.13,161.55,804,179.73,804,179.73c35.5,90.93,145.74,61,145.74,61C942.87,199.66,858.38,165.66,858.36,165.66Z" transform="translate(-0.65 0)"/><path class="cls-1" d="M791.61,176.86C692.67,147.21,658,241.39,658,241.39c114.39,17.41,134.33-62.81,134.33-62.81" transform="translate(-0.65 0)"/></g><g id="logo-14" data-name="logo"><path class="cls-2" d="M753.56,237.37s38.57-20.44,55.59-60.6l1.57-3.69h0V173h0l.17-.39h0l0-.06h0l1.57-3.69c17-40.11,4.88-82,4.88-82C799.21,22.57,744.46,0,744.46,0s-24.75,48.24-5.88,104.23c0,0,12.27,33.93,35.82,53l.63.52-.82-.12c-30.05-3.69-63,11.08-63,11.08-53.34,25.37-70.8,76.7-70.8,76.7S694.75,269,753.56,237.37ZM793.1,70.67c25,46.6,7.32,83.57,7.32,83.57C768.38,139.8,754,99.58,754,99.58c-15.9-38.29.47-73.53.47-73.53,25.13,17.84,38.62,44.62,38.62,44.62Zm-68,160.5s-28.61,9-58.89,3.28c0,0,13.93-36.26,52.5-51.46,0,0,38.89-17.65,71.56-4.65,0,0-14.28,38.41-65.15,52.84Z" transform="translate(-0.65 0)"/><path class="cls-2" d="M960.27,245.44s-17.45-51.35-70.78-76.72c0,0-32.91-14.75-63-11.09l-.81.12.63-.53c23.55-19,35.83-52.94,35.83-52.94C881.06,48.31,856.33.06,856.33.06s-54.74,22.56-72.91,86.86c0,0-12.14,41.93,4.86,82.06l1.56,3.69h0v0h0l.18.41h0l0,0h0l1.57,3.7c17,40.12,55.57,60.57,55.57,60.57C906,269.1,960.27,245.44,960.27,245.44ZM800.33,154.29s-17.67-37,7.34-83.55c0,0,13.47-26.78,38.61-44.61,0,0,16.36,35.23.46,73.52,0,0-14.37,40.22-46.41,54.65Zm75.34,76.94c-50.87-14.46-65.13-52.87-65.13-52.87,32.65-13,71.54,4.7,71.54,4.7,38.57,15.22,52.5,51.48,52.5,51.48C904.28,240.21,875.67,231.24,875.67,231.23Z" transform="translate(-0.65 0)"/></g><g id="logo-bg-15" data-name="logo-bg"><path class="cls-1" d="M211.51,492.53s29.8-80.33-33-136.39l-18.07,81.61-16.14-83.49s-59.8,54.18-36.75,138.27l52.11-50.45S187.22,483.81,211.51,492.53Z" transform="translate(-0.65 0)"/><path class="cls-1" d="M309.92,266.44s-110.24-29.9-145.74,61c0,0,9.14,18.18,54.37,14.07C218.58,341.55,303.07,307.55,309.92,266.44Z" transform="translate(-0.65 0)"/><path class="cls-1" d="M152.56,328.63S132.61,248.4,18.22,265.81c0,0,34.65,94.19,133.59,64.54" transform="translate(-0.65 0)"/></g><g id="logo-15" data-name="logo"><path class="cls-2" d="M.65,261.84s17.45,51.34,70.8,76.71c0,0,32.91,14.76,63,11.07l.82-.12-.63.53C111,369.05,98.78,403,98.78,403c-18.88,56,5.87,104.23,5.87,104.23s54.76-22.56,72.91-86.84c0,0,12.13-41.93-4.88-82.05l-1.56-3.69h0l0-.05h0l-.17-.4h0v-.05h0l-1.57-3.68c-17-40.17-55.59-60.61-55.59-60.61C54.94,238.19.65,261.84.65,261.84ZM153.31,436.53s-13.49,26.79-38.62,44.62c0,0-16.36-35.23-.47-73.52,0,0,14.36-40.22,46.39-54.66,0,0,17.68,37-7.32,83.56ZM85.28,276c50.86,14.44,65.14,52.85,65.14,52.85-32.66,13-71.56-4.66-71.56-4.66C40.29,309,26.37,272.75,26.37,272.75,56.65,267.08,85.26,276,85.26,276Z" transform="translate(-0.65 0)"/><path class="cls-2" d="M207.37,269.77s-38.56,20.46-55.56,60.58L150.24,334h0l0,0h0l-.17.4h0v.05h0l-1.57,3.69c-17,40.12-4.85,82-4.85,82,18.16,64.3,72.9,86.86,72.9,86.86s24.73-48.25,5.86-104.22c0,0-12.28-33.92-35.83-52.94l-.63-.52.81.11c30.05,3.66,63-11.09,63-11.09,53.33-25.37,70.78-76.71,70.78-76.71S266.17,238.1,207.37,269.77ZM160.53,352.9c32,14.43,46.41,54.65,46.41,54.65,15.9,38.29-.46,73.53-.46,73.53-25.14-17.83-38.61-44.61-38.61-44.61-25-46.59-7.34-83.56-7.34-83.56Zm134.24-80.24s-13.93,36.27-52.49,51.48c0,0-38.89,17.66-71.54,4.71,0,0,14.26-38.42,65.12-52.87C235.86,276,264.47,267,294.77,272.66Z" transform="translate(-0.65 0)"/></g><g id="logo-bg-16" data-name="logo-bg"><path class="cls-1" d="M531.41,492.53s29.8-80.33-33-136.39l-18.07,81.61-16.14-83.49s-59.8,54.18-36.75,138.27l52.11-50.45S507.12,483.81,531.41,492.53Z" transform="translate(-0.65 0)"/><path class="cls-1" d="M629.82,266.44s-110.24-29.9-145.74,61c0,0,9.14,18.18,54.38,14.07C538.48,341.55,623,307.55,629.82,266.44Z" transform="translate(-0.65 0)"/><path class="cls-1" d="M472.46,328.63s-19.94-80.23-134.33-62.82c0,0,34.64,94.19,133.58,64.54" transform="translate(-0.65 0)"/></g><g id="logo-16" data-name="logo"><path class="cls-2" d="M320.55,261.84s17.46,51.34,70.8,76.71c0,0,32.91,14.76,63,11.07l.82-.12-.63.53c-23.56,19-35.82,52.94-35.82,52.94-18.88,56,5.88,104.23,5.88,104.23s54.75-22.56,72.9-86.84c0,0,12.13-41.93-4.87-82.05L491,334.62h0l0-.05h0l-.17-.4h0v-.05h0l-1.57-3.68c-17-40.17-55.59-60.61-55.59-60.61C374.84,238.19,320.55,261.84,320.55,261.84ZM473.22,436.53s-13.49,26.79-38.63,44.62c0,0-16.36-35.23-.47-73.52,0,0,14.36-40.22,46.39-54.66,0,0,17.68,37-7.32,83.56ZM405.18,276c50.87,14.44,65.14,52.85,65.14,52.85-32.66,13-71.56-4.66-71.56-4.66-38.57-15.2-52.49-51.46-52.49-51.46,30.28-5.67,58.89,3.29,58.89,3.29Z" transform="translate(-0.65 0)"/><path class="cls-2" d="M527.28,269.77s-38.57,20.46-55.57,60.58L470.14,334h0l0,0h0l-.18.4h0v.05h0l-1.57,3.69c-17,40.12-4.85,82-4.85,82,18.17,64.3,72.91,86.86,72.91,86.86s24.73-48.25,5.85-104.22c0,0-12.28-33.92-35.83-52.94l-.63-.52.81.11c30,3.66,63-11.09,63-11.09,53.33-25.37,70.78-76.71,70.78-76.71S586.07,238.1,527.28,269.77ZM480.43,352.9c32,14.43,46.41,54.65,46.41,54.65,15.9,38.29-.46,73.53-.46,73.53-25.14-17.83-38.61-44.61-38.61-44.61-25-46.59-7.34-83.56-7.34-83.56Zm134.24-80.24s-13.92,36.27-52.49,51.48c0,0-38.89,17.66-71.54,4.71,0,0,14.26-38.42,65.13-52.87C555.77,276,584.38,267,614.67,272.66Z" transform="translate(-0.65 0)"/></g><g id="logo-bg-17" data-name="logo-bg"><path class="cls-1" d="M851.31,492.53s29.81-80.33-33-136.39L800.2,437.75l-16.15-83.49s-59.79,54.18-36.75,138.27l52.11-50.45S827,483.81,851.31,492.53Z" transform="translate(-0.65 0)"/><path class="cls-1" d="M949.72,266.44s-110.24-29.9-145.74,61c0,0,9.15,18.18,54.38,14.07C858.38,341.55,942.87,307.55,949.72,266.44Z" transform="translate(-0.65 0)"/><path class="cls-1" d="M792.36,328.63S772.42,248.4,658,265.81c0,0,34.64,94.19,133.58,64.54" transform="translate(-0.65 0)"/></g><g id="logo-17" data-name="logo"><path class="cls-2" d="M640.45,261.84s17.46,51.34,70.8,76.71c0,0,32.91,14.76,63,11.07l.82-.12-.63.53c-23.55,19-35.82,52.94-35.82,52.94-18.87,56,5.88,104.23,5.88,104.23s54.75-22.56,72.91-86.84c0,0,12.13-41.93-4.88-82.05l-1.57-3.69h0l0-.05h0l-.17-.4h0v-.05h0l-1.57-3.68c-17-40.17-55.59-60.61-55.59-60.61C694.75,238.19,640.45,261.84,640.45,261.84ZM793.12,436.53s-13.49,26.79-38.62,44.62c0,0-16.37-35.23-.47-73.52,0,0,14.35-40.22,46.39-54.66,0,0,17.67,37-7.32,83.56ZM725.08,276c50.87,14.44,65.15,52.85,65.15,52.85-32.67,13-71.56-4.66-71.56-4.66-38.57-15.2-52.5-51.46-52.5-51.46,30.28-5.67,58.89,3.29,58.89,3.29Z" transform="translate(-0.65 0)"/><path class="cls-2" d="M847.18,269.77s-38.57,20.46-55.57,60.58L790,334h0l0,0h0l-.18.4h0v.05h0l-1.56,3.69c-17,40.12-4.86,82-4.86,82,18.17,64.3,72.91,86.86,72.91,86.86s24.73-48.25,5.85-104.22c0,0-12.28-33.92-35.83-52.94l-.63-.52.81.11c30.05,3.66,63-11.09,63-11.09,53.33-25.37,70.78-76.71,70.78-76.71S906,238.1,847.18,269.77ZM800.33,352.9c32,14.43,46.41,54.65,46.41,54.65,15.9,38.29-.46,73.53-.46,73.53-25.14-17.83-38.61-44.61-38.61-44.61-25-46.59-7.34-83.56-7.34-83.56Zm134.25-80.24s-13.93,36.27-52.5,51.48c0,0-38.89,17.66-71.54,4.71,0,0,14.26-38.42,65.13-52.87C875.67,276,904.28,267,934.58,272.66Z" transform="translate(-0.65 0)"/></g><g id="logo-bg-18" data-name="logo-bg"><path class="cls-1" d="M159.61,572.26,107.5,521.81c-23,84.09,36.75,138.27,36.75,138.27l16.14-83.49,18.07,81.61c62.85-56.06,33-136.39,33-136.39C187.22,530.53,159.61,572.26,159.61,572.26Z" transform="translate(-0.65 0)"/><path class="cls-1" d="M218.55,672.79c-45.23-4.11-54.37,14.07-54.37,14.07,35.5,90.94,145.74,61,145.74,61C303.07,706.79,218.58,672.79,218.55,672.79Z" transform="translate(-0.65 0)"/><path class="cls-1" d="M151.81,684C52.87,654.34,18.22,748.53,18.22,748.53c114.39,17.41,134.34-62.82,134.34-62.82" transform="translate(-0.65 0)"/></g><g id="logo-18" data-name="logo"><path class="cls-2" d="M113.76,744.51s38.57-20.44,55.59-60.61l1.57-3.68h0v-.05h0l.17-.4h0l0,0h0l1.56-3.69c17-40.12,4.88-82,4.88-82-18.15-64.28-72.91-86.84-72.91-86.84S79.9,555.38,98.78,611.37c0,0,12.26,33.92,35.82,52.94l.63.53-.82-.12c-30-3.69-63,11.08-63,11.08C18.1,701.16.65,752.5.65,752.5S54.94,776.15,113.76,744.51Zm39.53-166.7c25,46.6,7.32,83.57,7.32,83.57-32-14.45-46.39-54.67-46.39-54.67-15.89-38.28.47-73.52.47-73.52,25.13,17.84,38.62,44.62,38.62,44.62Zm-68,160.5s-28.61,9-58.89,3.28c0,0,13.92-36.26,52.49-51.46,0,0,38.9-17.65,71.56-4.66,0,0-14.28,38.42-65.14,52.85Z" transform="translate(-0.65 0)"/><path class="cls-2" d="M320.47,752.57S303,701.23,249.69,675.86c0,0-32.91-14.75-63-11.09l-.81.11.63-.52c23.55-19,35.83-52.94,35.83-52.94,18.87-56-5.86-104.22-5.86-104.22s-54.74,22.56-72.9,86.86c0,0-12.15,41.93,4.85,82.05l1.57,3.7h0v0h0l.17.41h0l0,0h0l1.57,3.69c17,40.13,55.56,60.58,55.56,60.58C266.17,776.24,320.47,752.57,320.47,752.57ZM160.53,661.43s-17.67-37,7.34-83.56c0,0,13.47-26.78,38.61-44.6,0,0,16.36,35.23.46,73.52,0,0-14.38,40.22-46.41,54.65Zm75.33,76.93c-50.86-14.45-65.12-52.87-65.12-52.87,32.65-13,71.54,4.71,71.54,4.71,38.56,15.21,52.49,51.48,52.49,51.48C264.47,747.35,235.86,738.38,235.86,738.36Z" transform="translate(-0.65 0)"/></g><g id="logo-bg-19" data-name="logo-bg"><path class="cls-1" d="M479.51,572.26,427.4,521.81c-23,84.09,36.75,138.27,36.75,138.27l16.14-83.49,18.07,81.61c62.85-56.06,33-136.39,33-136.39C507.12,530.53,479.51,572.26,479.51,572.26Z" transform="translate(-0.65 0)"/><path class="cls-1" d="M538.46,672.79c-45.24-4.11-54.38,14.07-54.38,14.07,35.5,90.94,145.74,61,145.74,61C623,706.79,538.48,672.79,538.46,672.79Z" transform="translate(-0.65 0)"/><path class="cls-1" d="M471.71,684c-98.94-29.65-133.58,64.54-133.58,64.54,114.39,17.41,134.33-62.82,134.33-62.82" transform="translate(-0.65 0)"/></g><g id="logo-19" data-name="logo"><path class="cls-2" d="M433.66,744.51s38.57-20.44,55.59-60.61l1.57-3.68h0v-.05h0l.17-.4h0l0,0h0l1.57-3.69c17-40.12,4.87-82,4.87-82-18.15-64.28-72.9-86.84-72.9-86.84s-24.76,48.24-5.88,104.23c0,0,12.26,33.92,35.82,52.94l.63.53-.82-.12c-30.05-3.69-63,11.08-63,11.08-53.34,25.36-70.8,76.7-70.8,76.7S374.84,776.15,433.66,744.51Zm39.53-166.7c25,46.6,7.32,83.57,7.32,83.57-32-14.45-46.39-54.67-46.39-54.67-15.89-38.28.47-73.52.47-73.52,25.14,17.84,38.63,44.62,38.63,44.62Zm-68,160.5s-28.61,9-58.89,3.28c0,0,13.92-36.26,52.49-51.46,0,0,38.9-17.65,71.56-4.66,0,0-14.27,38.42-65.14,52.85Z" transform="translate(-0.65 0)"/><path class="cls-2" d="M640.37,752.57s-17.45-51.34-70.78-76.71c0,0-32.91-14.75-63-11.09l-.81.11.63-.52c23.55-19,35.83-52.94,35.83-52.94,18.88-56-5.85-104.22-5.85-104.22s-54.74,22.56-72.91,86.86c0,0-12.14,41.93,4.85,82.05l1.57,3.7h0v0h0l.18.41h0l0,0h0l1.57,3.69c17,40.13,55.57,60.58,55.57,60.58C586.07,776.24,640.37,752.57,640.37,752.57ZM480.43,661.43s-17.67-37,7.34-83.56c0,0,13.47-26.78,38.61-44.6,0,0,16.36,35.23.46,73.52,0,0-14.38,40.22-46.41,54.65Zm75.34,76.93c-50.87-14.45-65.13-52.87-65.13-52.87,32.65-13,71.54,4.71,71.54,4.71,38.57,15.21,52.49,51.48,52.49,51.48C584.38,747.35,555.77,738.38,555.77,738.36Z" transform="translate(-0.65 0)"/></g><g id="logo-bg-20" data-name="logo-bg"><path class="cls-1" d="M799.41,572.26,747.3,521.81c-23,84.09,36.75,138.27,36.75,138.27l16.15-83.49,18.07,81.61c62.85-56.06,33-136.39,33-136.39C827,530.53,799.41,572.26,799.41,572.26Z" transform="translate(-0.65 0)"/><path class="cls-1" d="M858.36,672.79C813.13,668.68,804,686.86,804,686.86c35.5,90.94,145.74,61,145.74,61C942.87,706.79,858.38,672.79,858.36,672.79Z" transform="translate(-0.65 0)"/><path class="cls-1" d="M791.61,684C692.67,654.34,658,748.53,658,748.53c114.39,17.41,134.33-62.82,134.33-62.82" transform="translate(-0.65 0)"/></g><g id="logo-20" data-name="logo"><path class="cls-2" d="M753.56,744.51s38.57-20.44,55.59-60.61l1.57-3.68h0v-.05h0l.17-.4h0l0,0h0l1.57-3.69c17-40.12,4.88-82,4.88-82-18.16-64.28-72.91-86.84-72.91-86.84s-24.75,48.24-5.88,104.23c0,0,12.27,33.92,35.82,52.94l.63.53-.82-.12c-30.05-3.69-63,11.08-63,11.08-53.34,25.36-70.8,76.7-70.8,76.7S694.75,776.15,753.56,744.51Zm39.54-166.7c25,46.6,7.32,83.57,7.32,83.57-32-14.45-46.39-54.67-46.39-54.67-15.9-38.28.47-73.52.47-73.52,25.13,17.84,38.62,44.62,38.62,44.62Zm-68,160.5s-28.61,9-58.89,3.28c0,0,13.93-36.26,52.5-51.46,0,0,38.89-17.65,71.56-4.66,0,0-14.28,38.42-65.15,52.85Z" transform="translate(-0.65 0)"/><path class="cls-2" d="M960.27,752.57s-17.45-51.34-70.78-76.71c0,0-32.91-14.75-63-11.09l-.81.11.63-.52c23.55-19,35.83-52.94,35.83-52.94,18.88-56-5.85-104.22-5.85-104.22s-54.74,22.56-72.91,86.86c0,0-12.14,41.93,4.86,82.05l1.56,3.7h0v0h0l.18.41h0l0,0h0l1.57,3.69c17,40.13,55.57,60.58,55.57,60.58C906,776.24,960.27,752.57,960.27,752.57ZM800.33,661.43s-17.67-37,7.34-83.56c0,0,13.47-26.78,38.61-44.6,0,0,16.36,35.23.46,73.52,0,0-14.37,40.22-46.41,54.65Zm75.34,76.93c-50.87-14.45-65.13-52.87-65.13-52.87,32.65-13,71.54,4.71,71.54,4.71,38.57,15.21,52.5,51.48,52.5,51.48C904.28,747.35,875.67,738.38,875.67,738.36Z" transform="translate(-0.65 0)"/></g><g id="logo-bg-21" data-name="logo-bg"><path class="cls-1" d="M211.51,999.67s29.8-80.33-33-136.39l-18.07,81.61-16.14-83.5s-59.8,54.19-36.75,138.28l52.11-50.45S187.22,991,211.51,999.67Z" transform="translate(-0.65 0)"/><path class="cls-1" d="M309.92,773.57s-110.24-29.89-145.74,61c0,0,9.14,18.17,54.37,14.06C218.58,848.68,303.07,814.68,309.92,773.57Z" transform="translate(-0.65 0)"/><path class="cls-1" d="M152.56,835.77S132.61,755.54,18.22,773c0,0,34.65,94.19,133.59,64.54" transform="translate(-0.65 0)"/></g><g id="logo-21" data-name="logo"><path class="cls-2" d="M.65,769s17.45,51.34,70.8,76.7c0,0,32.91,14.77,63,11.08l.82-.12-.63.53c-23.56,19-35.82,52.94-35.82,52.94-18.88,56,5.87,104.23,5.87,104.23s54.76-22.57,72.91-86.84c0,0,12.13-41.93-4.88-82l-1.56-3.69h0l0-.06h0l-.17-.39h0v0h0l-1.57-3.69c-17-40.16-55.59-60.6-55.59-60.6C54.94,745.33.65,769,.65,769ZM153.31,943.67s-13.49,26.78-38.62,44.62c0,0-16.36-35.24-.47-73.52,0,0,14.36-40.23,46.39-54.67,0,0,17.68,37-7.32,83.57Zm-68-160.51C136.14,797.59,150.42,836,150.42,836c-32.66,13-71.56-4.66-71.56-4.66-38.57-15.2-52.49-51.46-52.49-51.46,30.28-5.67,58.89,3.28,58.89,3.28Z" transform="translate(-0.65 0)"/><path class="cls-2" d="M207.37,776.91s-38.56,20.45-55.56,60.58l-1.57,3.69h0l0,0h0l-.17.41h0v0h0l-1.57,3.69c-17,40.13-4.85,82.06-4.85,82.06,18.16,64.3,72.9,86.86,72.9,86.86s24.73-48.25,5.86-104.22c0,0-12.28-33.92-35.83-52.94l-.63-.52.81.11c30.05,3.66,63-11.09,63-11.09,53.33-25.37,70.78-76.71,70.78-76.71S266.17,745.24,207.37,776.91ZM160.53,860c32,14.43,46.41,54.65,46.41,54.65,15.9,38.29-.46,73.52-.46,73.52-25.14-17.82-38.61-44.6-38.61-44.6-25-46.59-7.34-83.56-7.34-83.56ZM294.77,779.8s-13.93,36.26-52.49,51.48c0,0-38.89,17.66-71.54,4.7,0,0,14.26-38.41,65.12-52.86C235.86,783.1,264.47,774.13,294.77,779.8Z" transform="translate(-0.65 0)"/></g><g id="logo-bg-22" data-name="logo-bg"><path class="cls-1" d="M531.41,999.67s29.8-80.33-33-136.39l-18.07,81.61-16.14-83.5s-59.8,54.19-36.75,138.28l52.11-50.45S507.12,991,531.41,999.67Z" transform="translate(-0.65 0)"/><path class="cls-1" d="M629.82,773.57s-110.24-29.89-145.74,61c0,0,9.14,18.17,54.38,14.06C538.48,848.68,623,814.68,629.82,773.57Z" transform="translate(-0.65 0)"/><path class="cls-1" d="M472.46,835.77S452.52,755.54,338.13,773c0,0,34.64,94.19,133.58,64.54" transform="translate(-0.65 0)"/></g><g id="logo-22" data-name="logo"><path class="cls-2" d="M320.55,769s17.46,51.34,70.8,76.7c0,0,32.91,14.77,63,11.08l.82-.12-.63.53c-23.56,19-35.82,52.94-35.82,52.94-18.88,56,5.88,104.23,5.88,104.23s54.75-22.57,72.9-86.84c0,0,12.13-41.93-4.87-82L491,841.76h0l0-.06h0l-.17-.39h0v0h0l-1.57-3.69c-17-40.16-55.59-60.6-55.59-60.6C374.84,745.33,320.55,769,320.55,769ZM473.22,943.67s-13.49,26.78-38.63,44.62c0,0-16.36-35.24-.47-73.52,0,0,14.36-40.23,46.39-54.67,0,0,17.68,37-7.32,83.57Zm-68-160.51C456.05,797.59,470.32,836,470.32,836c-32.66,13-71.56-4.66-71.56-4.66-38.57-15.2-52.49-51.46-52.49-51.46,30.28-5.67,58.89,3.28,58.89,3.28Z" transform="translate(-0.65 0)"/><path class="cls-2" d="M527.28,776.91s-38.57,20.45-55.57,60.58l-1.57,3.69h0l0,0h0l-.18.41h0v0h0l-1.57,3.69c-17,40.13-4.85,82.06-4.85,82.06,18.17,64.3,72.91,86.86,72.91,86.86s24.73-48.25,5.85-104.22c0,0-12.28-33.92-35.83-52.94l-.63-.52.81.11c30,3.66,63-11.09,63-11.09,53.33-25.37,70.78-76.71,70.78-76.71S586.07,745.24,527.28,776.91ZM480.43,860c32,14.43,46.41,54.65,46.41,54.65,15.9,38.29-.46,73.52-.46,73.52-25.14-17.82-38.61-44.6-38.61-44.6-25-46.59-7.34-83.56-7.34-83.56ZM614.67,779.8s-13.92,36.26-52.49,51.48c0,0-38.89,17.66-71.54,4.7,0,0,14.26-38.41,65.13-52.86C555.77,783.1,584.38,774.13,614.67,779.8Z" transform="translate(-0.65 0)"/></g><g id="logo-bg-23" data-name="logo-bg"><path class="cls-1" d="M851.31,999.67s29.81-80.33-33-136.39L800.2,944.89l-16.15-83.5s-59.79,54.19-36.75,138.28l52.11-50.45S827,991,851.31,999.67Z" transform="translate(-0.65 0)"/><path class="cls-1" d="M949.72,773.57s-110.24-29.89-145.74,61c0,0,9.15,18.17,54.38,14.06C858.38,848.68,942.87,814.68,949.72,773.57Z" transform="translate(-0.65 0)"/><path class="cls-1" d="M792.36,835.77S772.42,755.54,658,773c0,0,34.64,94.19,133.58,64.54" transform="translate(-0.65 0)"/></g><g id="logo-23" data-name="logo"><path class="cls-2" d="M640.45,769s17.46,51.34,70.8,76.7c0,0,32.91,14.77,63,11.08l.82-.12-.63.53c-23.55,19-35.82,52.94-35.82,52.94-18.87,56,5.88,104.23,5.88,104.23s54.75-22.57,72.91-86.84c0,0,12.13-41.93-4.88-82l-1.57-3.69h0l0-.06h0l-.17-.39h0v0h0l-1.57-3.69c-17-40.16-55.59-60.6-55.59-60.6C694.75,745.33,640.45,769,640.45,769ZM793.12,943.67s-13.49,26.78-38.62,44.62c0,0-16.37-35.24-.47-73.52,0,0,14.35-40.23,46.39-54.67,0,0,17.67,37-7.32,83.57Zm-68-160.51C776,797.59,790.23,836,790.23,836c-32.67,13-71.56-4.66-71.56-4.66-38.57-15.2-52.5-51.46-52.5-51.46,30.28-5.67,58.89,3.28,58.89,3.28Z" transform="translate(-0.65 0)"/><path class="cls-2" d="M847.18,776.91s-38.57,20.45-55.57,60.58L790,841.18h0l0,0h0l-.18.41h0v0h0l-1.56,3.69c-17,40.13-4.86,82.06-4.86,82.06,18.17,64.3,72.91,86.86,72.91,86.86s24.73-48.25,5.85-104.22c0,0-12.28-33.92-35.83-52.94l-.63-.52.81.11c30.05,3.66,63-11.09,63-11.09,53.33-25.37,70.78-76.71,70.78-76.71S906,745.24,847.18,776.91ZM800.33,860c32,14.43,46.41,54.65,46.41,54.65,15.9,38.29-.46,73.52-.46,73.52-25.14-17.82-38.61-44.6-38.61-44.6-25-46.59-7.34-83.56-7.34-83.56ZM934.58,779.8s-13.93,36.26-52.5,51.48c0,0-38.89,17.66-71.54,4.7,0,0,14.26-38.41,65.13-52.86C875.67,783.1,904.28,774.13,934.58,779.8Z" transform="translate(-0.65 0)"/></g><g id="logo-bg-24" data-name="logo-bg"><path class="cls-1" d="M1119.24,1079.52l-52.11-50.45c-23.05,84.09,36.75,138.28,36.75,138.28l16.14-83.5,18.07,81.61c62.85-56.06,33.05-136.39,33.05-136.39C1146.85,1037.79,1119.24,1079.52,1119.24,1079.52Z" transform="translate(-0.65 0)"/><path class="cls-1" d="M1178.18,1180.06c-45.23-4.11-54.37,14.07-54.37,14.07,35.5,90.93,145.74,61,145.74,61C1262.7,1214.06,1178.21,1180.06,1178.18,1180.06Z" transform="translate(-0.65 0)"/><path class="cls-1" d="M1111.44,1191.26c-99-29.65-133.59,64.53-133.59,64.53,114.39,17.42,134.33-62.81,134.33-62.81" transform="translate(-0.65 0)"/></g><g id="logo-24" data-name="logo"><path class="cls-2" d="M1073.38,1251.77s38.57-20.44,55.6-60.6l1.57-3.69h0v0h0l.17-.39h0l0-.06h0l1.57-3.69c17-40.11,4.88-82,4.88-82-18.15-64.27-72.91-86.84-72.91-86.84s-24.75,48.24-5.88,104.23c0,0,12.27,33.93,35.82,52.95l.64.52-.82-.12c-30-3.69-63,11.08-63,11.08-53.35,25.37-70.81,76.7-70.81,76.7S1014.57,1283.42,1073.38,1251.77Zm39.54-166.7c25,46.6,7.32,83.57,7.32,83.57-32-14.44-46.39-54.66-46.39-54.66-15.9-38.29.47-73.53.47-73.53,25.13,17.84,38.62,44.62,38.62,44.62Zm-68,160.5s-28.61,9-58.88,3.28c0,0,13.92-36.26,52.49-51.46,0,0,38.89-17.65,71.56-4.65,0,0-14.28,38.41-65.15,52.84Z" transform="translate(-0.65 0)"/><path class="cls-2" d="M1280.1,1259.84s-17.46-51.35-70.78-76.72c0,0-32.91-14.75-63-11.09l-.81.12.63-.53c23.55-19,35.83-52.94,35.83-52.94,18.87-56-5.86-104.22-5.86-104.22s-54.74,22.56-72.91,86.86c0,0-12.14,41.93,4.86,82.06l1.57,3.69h0v0h0l.17.41h0l0,0h0l1.57,3.7c17,40.12,55.56,60.57,55.56,60.57C1225.8,1283.5,1280.1,1259.84,1280.1,1259.84Zm-159.94-91.15s-17.68-37,7.34-83.55c0,0,13.47-26.78,38.61-44.61,0,0,16.36,35.23.45,73.52,0,0-14.37,40.22-46.4,54.65Zm75.33,76.94c-50.86-14.46-65.12-52.87-65.12-52.87,32.65-13,71.54,4.7,71.54,4.7,38.56,15.22,52.49,51.48,52.49,51.48C1224.1,1254.61,1195.49,1245.64,1195.49,1245.63Z" transform="translate(-0.65 0)"/></g><g id="logo-bg-25" data-name="logo-bg"><path class="cls-1" d="M159.61,1079.52l-52.11-50.45c-23,84.09,36.75,138.28,36.75,138.28l16.14-83.5,18.07,81.61c62.85-56.06,33-136.39,33-136.39C187.22,1037.79,159.61,1079.52,159.61,1079.52Z" transform="translate(-0.65 0)"/><path class="cls-1" d="M218.55,1180.06c-45.23-4.11-54.37,14.07-54.37,14.07,35.5,90.93,145.74,61,145.74,61C303.07,1214.06,218.58,1180.06,218.55,1180.06Z" transform="translate(-0.65 0)"/><path class="cls-1" d="M151.81,1191.26c-98.94-29.65-133.59,64.53-133.59,64.53C132.61,1273.21,152.56,1193,152.56,1193" transform="translate(-0.65 0)"/></g><g id="logo-25" data-name="logo"><path class="cls-2" d="M113.76,1251.77s38.57-20.44,55.59-60.6l1.57-3.69h0v0h0l.17-.39h0l0-.06h0l1.56-3.69c17-40.11,4.88-82,4.88-82-18.15-64.27-72.91-86.84-72.91-86.84s-24.75,48.24-5.87,104.23c0,0,12.26,33.93,35.82,52.95l.63.52-.82-.12c-30-3.69-63,11.08-63,11.08-53.35,25.37-70.8,76.7-70.8,76.7S54.94,1283.42,113.76,1251.77Zm39.53-166.7c25,46.6,7.32,83.57,7.32,83.57-32-14.44-46.39-54.66-46.39-54.66-15.89-38.29.47-73.53.47-73.53,25.13,17.84,38.62,44.62,38.62,44.62Zm-68,160.5s-28.61,9-58.89,3.28c0,0,13.92-36.26,52.49-51.46,0,0,38.9-17.65,71.56-4.65,0,0-14.28,38.41-65.14,52.84Z" transform="translate(-0.65 0)"/><path class="cls-2" d="M320.47,1259.84s-17.45-51.35-70.78-76.72c0,0-32.91-14.75-63-11.09l-.81.12.63-.53c23.55-19,35.83-52.94,35.83-52.94,18.87-56-5.86-104.22-5.86-104.22s-54.74,22.56-72.9,86.86c0,0-12.15,41.93,4.85,82.06l1.57,3.69h0v0h0l.17.41h0l0,0h0l1.57,3.7c17,40.12,55.56,60.57,55.56,60.57C266.17,1283.5,320.47,1259.84,320.47,1259.84Zm-159.94-91.15s-17.67-37,7.34-83.55c0,0,13.47-26.78,38.61-44.61,0,0,16.36,35.23.46,73.52,0,0-14.38,40.22-46.41,54.65Zm75.33,76.94c-50.86-14.46-65.12-52.87-65.12-52.87,32.65-13,71.54,4.7,71.54,4.7,38.56,15.22,52.49,51.48,52.49,51.48C264.47,1254.61,235.86,1245.64,235.86,1245.63Z" transform="translate(-0.65 0)"/></g><g id="logo-bg-26" data-name="logo-bg"><path class="cls-1" d="M479.51,1079.52l-52.11-50.45c-23,84.09,36.75,138.28,36.75,138.28l16.14-83.5,18.07,81.61c62.85-56.06,33-136.39,33-136.39C507.12,1037.79,479.51,1079.52,479.51,1079.52Z" transform="translate(-0.65 0)"/><path class="cls-1" d="M538.46,1180.06c-45.24-4.11-54.38,14.07-54.38,14.07,35.5,90.93,145.74,61,145.74,61C623,1214.06,538.48,1180.06,538.46,1180.06Z" transform="translate(-0.65 0)"/><path class="cls-1" d="M471.71,1191.26c-98.94-29.65-133.58,64.53-133.58,64.53C452.52,1273.21,472.46,1193,472.46,1193" transform="translate(-0.65 0)"/></g><g id="logo-26" data-name="logo"><path class="cls-2" d="M433.66,1251.77s38.57-20.44,55.59-60.6l1.57-3.69h0v0h0l.17-.39h0l0-.06h0l1.57-3.69c17-40.11,4.87-82,4.87-82-18.15-64.27-72.9-86.84-72.9-86.84s-24.76,48.24-5.88,104.23c0,0,12.26,33.93,35.82,52.95l.63.52-.82-.12c-30.05-3.69-63,11.08-63,11.08-53.34,25.37-70.8,76.7-70.8,76.7S374.84,1283.42,433.66,1251.77Zm39.53-166.7c25,46.6,7.32,83.57,7.32,83.57-32-14.44-46.39-54.66-46.39-54.66-15.89-38.29.47-73.53.47-73.53,25.14,17.84,38.63,44.62,38.63,44.62Zm-68,160.5s-28.61,9-58.89,3.28c0,0,13.92-36.26,52.49-51.46,0,0,38.9-17.65,71.56-4.65,0,0-14.27,38.41-65.14,52.84Z" transform="translate(-0.65 0)"/><path class="cls-2" d="M640.37,1259.84s-17.45-51.35-70.78-76.72c0,0-32.91-14.75-63-11.09l-.81.12.63-.53c23.55-19,35.83-52.94,35.83-52.94,18.88-56-5.85-104.22-5.85-104.22s-54.74,22.56-72.91,86.86c0,0-12.14,41.93,4.85,82.06l1.57,3.69h0v0h0l.18.41h0l0,0h0l1.57,3.7c17,40.12,55.57,60.57,55.57,60.57C586.07,1283.5,640.37,1259.84,640.37,1259.84Zm-159.94-91.15s-17.67-37,7.34-83.55c0,0,13.47-26.78,38.61-44.61,0,0,16.36,35.23.46,73.52,0,0-14.38,40.22-46.41,54.65Zm75.34,76.94c-50.87-14.46-65.13-52.87-65.13-52.87,32.65-13,71.54,4.7,71.54,4.7,38.57,15.22,52.49,51.48,52.49,51.48C584.38,1254.61,555.77,1245.64,555.77,1245.63Z" transform="translate(-0.65 0)"/></g><g id="logo-bg-27" data-name="logo-bg"><path class="cls-1" d="M799.41,1079.52l-52.11-50.45c-23,84.09,36.75,138.28,36.75,138.28l16.15-83.5,18.07,81.61c62.85-56.06,33-136.39,33-136.39C827,1037.79,799.41,1079.52,799.41,1079.52Z" transform="translate(-0.65 0)"/><path class="cls-1" d="M858.36,1180.06C813.13,1176,804,1194.13,804,1194.13c35.5,90.93,145.74,61,145.74,61C942.87,1214.06,858.38,1180.06,858.36,1180.06Z" transform="translate(-0.65 0)"/><path class="cls-1" d="M791.61,1191.26C692.67,1161.61,658,1255.79,658,1255.79,772.42,1273.21,792.36,1193,792.36,1193" transform="translate(-0.65 0)"/></g><g id="logo-27" data-name="logo"><path class="cls-2" d="M753.56,1251.77s38.57-20.44,55.59-60.6l1.57-3.69h0v0h0l.17-.39h0l0-.06h0l1.57-3.69c17-40.11,4.88-82,4.88-82-18.16-64.27-72.91-86.84-72.91-86.84s-24.75,48.24-5.88,104.23c0,0,12.27,33.93,35.82,52.95l.63.52-.82-.12c-30.05-3.69-63,11.08-63,11.08-53.34,25.37-70.8,76.7-70.8,76.7S694.75,1283.42,753.56,1251.77Zm39.54-166.7c25,46.6,7.32,83.57,7.32,83.57C768.38,1154.2,754,1114,754,1114c-15.9-38.29.47-73.53.47-73.53,25.13,17.84,38.62,44.62,38.62,44.62Zm-68,160.5s-28.61,9-58.89,3.28c0,0,13.93-36.26,52.5-51.46,0,0,38.89-17.65,71.56-4.65,0,0-14.28,38.41-65.15,52.84Z" transform="translate(-0.65 0)"/><path class="cls-2" d="M960.27,1259.84s-17.45-51.35-70.78-76.72c0,0-32.91-14.75-63-11.09l-.81.12.63-.53c23.55-19,35.83-52.94,35.83-52.94,18.88-56-5.85-104.22-5.85-104.22s-54.74,22.56-72.91,86.86c0,0-12.14,41.93,4.86,82.06l1.56,3.69h0v0h0l.18.41h0l0,0h0l1.57,3.7c17,40.12,55.57,60.57,55.57,60.57C906,1283.5,960.27,1259.84,960.27,1259.84Zm-159.94-91.15s-17.67-37,7.34-83.55c0,0,13.47-26.78,38.61-44.61,0,0,16.36,35.23.46,73.52,0,0-14.37,40.22-46.41,54.65Zm75.34,76.94c-50.87-14.46-65.13-52.87-65.13-52.87,32.65-13,71.54,4.7,71.54,4.7,38.57,15.22,52.5,51.48,52.5,51.48C904.28,1254.61,875.67,1245.64,875.67,1245.63Z" transform="translate(-0.65 0)"/></g><g id="logo-bg-28" data-name="logo-bg"><path class="cls-1" d="M211.51,1506.93s29.8-80.33-33-136.39l-18.07,81.61-16.14-83.49s-59.8,54.18-36.75,138.27l52.11-50.45S187.22,1498.21,211.51,1506.93Z" transform="translate(-0.65 0)"/><path class="cls-1" d="M309.92,1280.84s-110.24-29.9-145.74,61c0,0,9.14,18.18,54.37,14.07C218.58,1356,303.07,1322,309.92,1280.84Z" transform="translate(-0.65 0)"/><path class="cls-1" d="M152.56,1343s-19.95-80.23-134.34-62.82c0,0,34.65,94.19,133.59,64.54" transform="translate(-0.65 0)"/></g><g id="logo-28" data-name="logo"><path class="cls-2" d="M.65,1276.24s17.45,51.34,70.8,76.71c0,0,32.91,14.76,63,11.07l.82-.12-.63.53c-23.56,19-35.82,52.94-35.82,52.94-18.88,56,5.87,104.23,5.87,104.23s54.76-22.56,72.91-86.84c0,0,12.13-41.93-4.88-82l-1.56-3.69h0l0,0h0l-.17-.4h0v0h0l-1.57-3.68c-17-40.17-55.59-60.61-55.59-60.61C54.94,1252.59.65,1276.24.65,1276.24Zm152.66,174.69s-13.49,26.79-38.62,44.62c0,0-16.36-35.23-.47-73.52,0,0,14.36-40.22,46.39-54.66,0,0,17.68,37-7.32,83.56Zm-68-160.51c50.86,14.44,65.14,52.85,65.14,52.85-32.66,13-71.56-4.66-71.56-4.66-38.57-15.2-52.49-51.46-52.49-51.46,30.28-5.67,58.89,3.29,58.89,3.29Z" transform="translate(-0.65 0)"/><path class="cls-2" d="M207.37,1284.17s-38.56,20.46-55.56,60.58l-1.57,3.69h0l0,0h0l-.17.4h0v0h0l-1.57,3.69c-17,40.12-4.85,82-4.85,82,18.16,64.3,72.9,86.86,72.9,86.86s24.73-48.25,5.86-104.22c0,0-12.28-33.92-35.83-52.94l-.63-.52.81.11c30.05,3.66,63-11.09,63-11.09,53.33-25.37,70.78-76.71,70.78-76.71S266.17,1252.5,207.37,1284.17Zm-46.84,83.13c32,14.43,46.41,54.65,46.41,54.65,15.9,38.29-.46,73.53-.46,73.53-25.14-17.83-38.61-44.61-38.61-44.61-25-46.59-7.34-83.56-7.34-83.56Zm134.24-80.24s-13.93,36.27-52.49,51.48c0,0-38.89,17.66-71.54,4.71,0,0,14.26-38.42,65.12-52.87C235.86,1290.36,264.47,1281.4,294.77,1287.06Z" transform="translate(-0.65 0)"/></g><g id="logo-bg-29" data-name="logo-bg"><path class="cls-1" d="M531.41,1506.93s29.8-80.33-33-136.39l-18.07,81.61-16.14-83.49s-59.8,54.18-36.75,138.27l52.11-50.45S507.12,1498.21,531.41,1506.93Z" transform="translate(-0.65 0)"/><path class="cls-1" d="M629.82,1280.84s-110.24-29.9-145.74,61c0,0,9.14,18.18,54.38,14.07C538.48,1356,623,1322,629.82,1280.84Z" transform="translate(-0.65 0)"/><path class="cls-1" d="M472.46,1343s-19.94-80.23-134.33-62.82c0,0,34.64,94.19,133.58,64.54" transform="translate(-0.65 0)"/></g><g id="logo-29" data-name="logo"><path class="cls-2" d="M320.55,1276.24s17.46,51.34,70.8,76.71c0,0,32.91,14.76,63,11.07l.82-.12-.63.53c-23.56,19-35.82,52.94-35.82,52.94-18.88,56,5.88,104.23,5.88,104.23s54.75-22.56,72.9-86.84c0,0,12.13-41.93-4.87-82L491,1349h0l0,0h0l-.17-.4h0v0h0l-1.57-3.68c-17-40.17-55.59-60.61-55.59-60.61C374.84,1252.59,320.55,1276.24,320.55,1276.24Zm152.67,174.69s-13.49,26.79-38.63,44.62c0,0-16.36-35.23-.47-73.52,0,0,14.36-40.22,46.39-54.66,0,0,17.68,37-7.32,83.56Zm-68-160.51c50.87,14.44,65.14,52.85,65.14,52.85-32.66,13-71.56-4.66-71.56-4.66-38.57-15.2-52.49-51.46-52.49-51.46,30.28-5.67,58.89,3.29,58.89,3.29Z" transform="translate(-0.65 0)"/><path class="cls-2" d="M527.28,1284.17s-38.57,20.46-55.57,60.58l-1.57,3.69h0l0,0h0l-.18.4h0v0h0l-1.57,3.69c-17,40.12-4.85,82-4.85,82,18.17,64.3,72.91,86.86,72.91,86.86s24.73-48.25,5.85-104.22c0,0-12.28-33.92-35.83-52.94l-.63-.52.81.11c30,3.66,63-11.09,63-11.09,53.33-25.37,70.78-76.71,70.78-76.71S586.07,1252.5,527.28,1284.17Zm-46.85,83.13c32,14.43,46.41,54.65,46.41,54.65,15.9,38.29-.46,73.53-.46,73.53-25.14-17.83-38.61-44.61-38.61-44.61-25-46.59-7.34-83.56-7.34-83.56Zm134.24-80.24s-13.92,36.27-52.49,51.48c0,0-38.89,17.66-71.54,4.71,0,0,14.26-38.42,65.13-52.87C555.77,1290.36,584.38,1281.4,614.67,1287.06Z" transform="translate(-0.65 0)"/></g><g id="logo-bg-30" data-name="logo-bg"><path class="cls-1" d="M851.31,1506.93s29.81-80.33-33-136.39l-18.07,81.61-16.15-83.49s-59.79,54.18-36.75,138.27l52.11-50.45S827,1498.21,851.31,1506.93Z" transform="translate(-0.65 0)"/><path class="cls-1" d="M949.72,1280.84s-110.24-29.9-145.74,61c0,0,9.15,18.18,54.38,14.07C858.38,1356,942.87,1322,949.72,1280.84Z" transform="translate(-0.65 0)"/><path class="cls-1" d="M792.36,1343S772.42,1262.8,658,1280.21c0,0,34.64,94.19,133.58,64.54" transform="translate(-0.65 0)"/></g><g id="logo-30" data-name="logo"><path class="cls-2" d="M640.45,1276.24s17.46,51.34,70.8,76.71c0,0,32.91,14.76,63,11.07l.82-.12-.63.53c-23.55,19-35.82,52.94-35.82,52.94-18.87,56,5.88,104.23,5.88,104.23s54.75-22.56,72.91-86.84c0,0,12.13-41.93-4.88-82l-1.57-3.69h0l0,0h0l-.17-.4h0v0h0l-1.57-3.68c-17-40.17-55.59-60.61-55.59-60.61C694.75,1252.59,640.45,1276.24,640.45,1276.24Zm152.67,174.69s-13.49,26.79-38.62,44.62c0,0-16.37-35.23-.47-73.52,0,0,14.35-40.22,46.39-54.66,0,0,17.67,37-7.32,83.56Zm-68-160.51c50.87,14.44,65.15,52.85,65.15,52.85-32.67,13-71.56-4.66-71.56-4.66-38.57-15.2-52.5-51.46-52.5-51.46,30.28-5.67,58.89,3.29,58.89,3.29Z" transform="translate(-0.65 0)"/><path class="cls-2" d="M847.18,1284.17s-38.57,20.46-55.57,60.58l-1.57,3.69h0l0,0h0l-.18.4h0v0h0l-1.56,3.69c-17,40.12-4.86,82-4.86,82,18.17,64.3,72.91,86.86,72.91,86.86s24.73-48.25,5.85-104.22c0,0-12.28-33.92-35.83-52.94l-.63-.52.81.11c30.05,3.66,63-11.09,63-11.09,53.33-25.37,70.78-76.71,70.78-76.71S906,1252.5,847.18,1284.17Zm-46.85,83.13c32,14.43,46.41,54.65,46.41,54.65,15.9,38.29-.46,73.53-.46,73.53-25.14-17.83-38.61-44.61-38.61-44.61-25-46.59-7.34-83.56-7.34-83.56Zm134.25-80.24s-13.93,36.27-52.5,51.48c0,0-38.89,17.66-71.54,4.71,0,0,14.26-38.42,65.13-52.87C875.67,1290.36,904.28,1281.4,934.58,1287.06Z" transform="translate(-0.65 0)"/></g><g id="logo-bg-31" data-name="logo-bg"><path class="cls-1" d="M159.61,1586.66l-52.11-50.45c-23,84.09,36.75,138.27,36.75,138.27L160.39,1591l18.07,81.61c62.85-56.06,33-136.39,33-136.39C187.22,1544.93,159.61,1586.66,159.61,1586.66Z" transform="translate(-0.65 0)"/><path class="cls-1" d="M218.55,1687.19c-45.23-4.1-54.37,14.07-54.37,14.07,35.5,90.94,145.74,61,145.74,61C303.07,1721.19,218.58,1687.19,218.55,1687.19Z" transform="translate(-0.65 0)"/><path class="cls-1" d="M151.81,1698.39c-98.94-29.65-133.59,64.54-133.59,64.54,114.39,17.41,134.34-62.82,134.34-62.82" transform="translate(-0.65 0)"/></g><g id="logo-31" data-name="logo"><path class="cls-2" d="M113.76,1758.91s38.57-20.44,55.59-60.61l1.57-3.68h0v0h0l.17-.4h0l0-.05h0l1.56-3.69c17-40.12,4.88-82,4.88-82-18.15-64.27-72.91-86.84-72.91-86.84s-24.75,48.24-5.87,104.23c0,0,12.26,33.92,35.82,52.94l.63.53-.82-.12c-30-3.69-63,11.08-63,11.08C18.1,1715.56.65,1766.9.65,1766.9S54.94,1790.55,113.76,1758.91Zm39.53-166.7c25,46.6,7.32,83.57,7.32,83.57-32-14.44-46.39-54.67-46.39-54.67-15.89-38.28.47-73.52.47-73.52,25.13,17.84,38.62,44.62,38.62,44.62Zm-68,160.5s-28.61,9-58.89,3.28c0,0,13.92-36.26,52.49-51.46,0,0,38.9-17.65,71.56-4.66,0,0-14.28,38.42-65.14,52.85Z" transform="translate(-0.65 0)"/><path class="cls-2" d="M320.47,1767s-17.45-51.34-70.78-76.71c0,0-32.91-14.75-63-11.09l-.81.11.63-.52c23.55-19,35.83-52.94,35.83-52.94,18.87-56-5.86-104.22-5.86-104.22s-54.74,22.56-72.9,86.86c0,0-12.15,41.93,4.85,82l1.57,3.7h0v0h0l.17.41h0l0,0h0l1.57,3.69c17,40.13,55.56,60.58,55.56,60.58C266.17,1790.64,320.47,1767,320.47,1767Zm-159.94-91.14s-17.67-37,7.34-83.56c0,0,13.47-26.78,38.61-44.6,0,0,16.36,35.23.46,73.52,0,0-14.38,40.22-46.41,54.65Zm75.33,76.93c-50.86-14.45-65.12-52.87-65.12-52.87,32.65-13,71.54,4.71,71.54,4.71,38.56,15.21,52.49,51.48,52.49,51.48C264.47,1761.75,235.86,1752.78,235.86,1752.76Z" transform="translate(-0.65 0)"/></g><g id="logo-bg-32" data-name="logo-bg"><path class="cls-1" d="M479.51,1586.66l-52.11-50.45c-23,84.09,36.75,138.27,36.75,138.27L480.29,1591l18.07,81.61c62.85-56.06,33-136.39,33-136.39C507.12,1544.93,479.51,1586.66,479.51,1586.66Z" transform="translate(-0.65 0)"/><path class="cls-1" d="M538.46,1687.19c-45.24-4.1-54.38,14.07-54.38,14.07,35.5,90.94,145.74,61,145.74,61C623,1721.19,538.48,1687.19,538.46,1687.19Z" transform="translate(-0.65 0)"/><path class="cls-1" d="M471.71,1698.39c-98.94-29.65-133.58,64.54-133.58,64.54,114.39,17.41,134.33-62.82,134.33-62.82" transform="translate(-0.65 0)"/></g><g id="logo-32" data-name="logo"><path class="cls-2" d="M433.66,1758.91s38.57-20.44,55.59-60.61l1.57-3.68h0v0h0l.17-.4h0l0-.05h0l1.57-3.69c17-40.12,4.87-82,4.87-82-18.15-64.27-72.9-86.84-72.9-86.84s-24.76,48.24-5.88,104.23c0,0,12.26,33.92,35.82,52.94l.63.53-.82-.12c-30.05-3.69-63,11.08-63,11.08-53.34,25.36-70.8,76.7-70.8,76.7S374.84,1790.55,433.66,1758.91Zm39.53-166.7c25,46.6,7.32,83.57,7.32,83.57-32-14.44-46.39-54.67-46.39-54.67-15.89-38.28.47-73.52.47-73.52,25.14,17.84,38.63,44.62,38.63,44.62Zm-68,160.5s-28.61,9-58.89,3.28c0,0,13.92-36.26,52.49-51.46,0,0,38.9-17.65,71.56-4.66,0,0-14.27,38.42-65.14,52.85Z" transform="translate(-0.65 0)"/><path class="cls-2" d="M640.37,1767s-17.45-51.34-70.78-76.71c0,0-32.91-14.75-63-11.09l-.81.11.63-.52c23.55-19,35.83-52.94,35.83-52.94,18.88-56-5.85-104.22-5.85-104.22s-54.74,22.56-72.91,86.86c0,0-12.14,41.93,4.85,82l1.57,3.7h0v0h0l.18.41h0l0,0h0l1.57,3.69c17,40.13,55.57,60.58,55.57,60.58C586.07,1790.64,640.37,1767,640.37,1767Zm-159.94-91.14s-17.67-37,7.34-83.56c0,0,13.47-26.78,38.61-44.6,0,0,16.36,35.23.46,73.52,0,0-14.38,40.22-46.41,54.65Zm75.34,76.93c-50.87-14.45-65.13-52.87-65.13-52.87,32.65-13,71.54,4.71,71.54,4.71,38.57,15.21,52.49,51.48,52.49,51.48C584.38,1761.75,555.77,1752.78,555.77,1752.76Z" transform="translate(-0.65 0)"/></g><g id="logo-bg-33" data-name="logo-bg"><path class="cls-1" d="M211.51,2014.07s29.8-80.33-33-136.39l-18.07,81.61-16.14-83.49S84.45,1930,107.5,2014.07l52.11-50.45S187.22,2005.35,211.51,2014.07Z" transform="translate(-0.65 0)"/><path class="cls-1" d="M309.92,1788s-110.24-29.89-145.74,61c0,0,9.14,18.17,54.37,14.06C218.58,1863.08,303.07,1829.08,309.92,1788Z" transform="translate(-0.65 0)"/><path class="cls-1" d="M152.56,1850.17s-19.95-80.23-134.34-62.82c0,0,34.65,94.19,133.59,64.54" transform="translate(-0.65 0)"/></g><g id="logo-33" data-name="logo"><path class="cls-2" d="M.65,1783.38s17.45,51.34,70.8,76.7c0,0,32.91,14.77,63,11.08l.82-.12-.63.53c-23.56,19-35.82,52.94-35.82,52.94-18.88,56,5.87,104.23,5.87,104.23s54.76-22.57,72.91-86.84c0,0,12.13-41.93-4.88-82.05l-1.56-3.69h0l0-.05h0l-.17-.4h0v0h0l-1.57-3.69c-17-40.16-55.59-60.6-55.59-60.6C54.94,1759.73.65,1783.38.65,1783.38Zm152.66,174.69s-13.49,26.78-38.62,44.62c0,0-16.36-35.24-.47-73.52,0,0,14.36-40.23,46.39-54.67,0,0,17.68,37-7.32,83.57Zm-68-160.51c50.86,14.43,65.14,52.85,65.14,52.85-32.66,13-71.56-4.66-71.56-4.66-38.57-15.2-52.49-51.46-52.49-51.46,30.28-5.67,58.89,3.28,58.89,3.28Z" transform="translate(-0.65 0)"/><path class="cls-2" d="M207.37,1791.31s-38.56,20.45-55.56,60.58l-1.57,3.69h0l0,0h0l-.17.41h0v0h0l-1.57,3.69c-17,40.13-4.85,82.06-4.85,82.06,18.16,64.3,72.9,86.86,72.9,86.86s24.73-48.25,5.86-104.22c0,0-12.28-33.92-35.83-52.94l-.63-.52.81.11c30.05,3.66,63-11.09,63-11.09,53.33-25.37,70.78-76.71,70.78-76.71S266.17,1759.64,207.37,1791.31Zm-46.84,83.13c32,14.43,46.41,54.65,46.41,54.65,15.9,38.29-.46,73.52-.46,73.52-25.14-17.82-38.61-44.6-38.61-44.6-25-46.59-7.34-83.56-7.34-83.56Zm134.24-80.24s-13.93,36.27-52.49,51.48c0,0-38.89,17.66-71.54,4.71,0,0,14.26-38.42,65.12-52.87C235.86,1797.5,264.47,1788.53,294.77,1794.2Z" transform="translate(-0.65 0)"/></g></svg>