<?xml version="1.0" encoding="utf-8"?>
<!-- Generator: Adobe Illustrator 24.1.3, SVG Export Plug-In . SVG Version: 6.00 Build 0)  -->
<svg version="1.1" xmlns="http://www.w3.org/2000/svg" xmlns:xlink="http://www.w3.org/1999/xlink" x="0px" y="0px"
	 viewBox="0 0 1920 2029" style="enable-background:new 0 0 1920 2029;" xml:space="preserve">
<style type="text/css">
	.st0{fill:#FFD2BC;}
	.st1{fill:#003A4C;}
</style>
<g id="Layer_1">
	<g id="logo-bg_16_">
		<path class="st0" d="M1119.236,65.12l-52.111-50.448c-23.047,84.088,36.75,138.274,36.75,138.274l16.144-83.497l18.07,81.615
			c62.85-56.064,33.048-136.392,33.048-136.392C1146.847,23.393,1119.236,65.12,1119.236,65.12z"/>
		<path class="st0" d="M1178.181,165.656c-45.23-4.109-54.375,14.07-54.375,14.07c35.5,90.937,145.74,61.041,145.74,61.041
			C1262.697,199.656,1178.207,165.656,1178.181,165.656z"/>
		<path class="st0" d="M1111.436,176.856c-98.941-29.65-133.584,64.534-133.584,64.534
			c114.391,17.416,134.332-62.813,134.332-62.813"/>
	</g>
	<g id="logo-bg_14_">
		<path class="st0" d="M1439.138,65.12l-52.111-50.448c-23.047,84.088,36.75,138.274,36.75,138.274l16.144-83.497l18.07,81.615
			C1520.842,95,1491.04,14.672,1491.04,14.672C1466.749,23.393,1439.138,65.12,1439.138,65.12z"/>
		<path class="st0" d="M1498.083,165.656c-45.231-4.109-54.375,14.07-54.375,14.07c35.5,90.937,145.74,61.041,145.74,61.041
			C1582.599,199.656,1498.109,165.656,1498.083,165.656z"/>
		<path class="st0" d="M1431.338,176.856c-98.941-29.65-133.584,64.534-133.584,64.534
			c114.391,17.416,134.332-62.813,134.332-62.813"/>
	</g>
	<g id="logo-bg_12_">
		<path class="st0" d="M1759.04,65.12l-52.111-50.448c-23.047,84.088,36.75,138.274,36.75,138.274l16.144-83.497l18.07,81.615
			c62.85-56.064,33.048-136.392,33.048-136.392C1786.651,23.393,1759.04,65.12,1759.04,65.12z"/>
		<path class="st0" d="M1817.985,165.656c-45.23-4.109-54.375,14.07-54.375,14.07c35.5,90.937,145.74,61.041,145.74,61.041
			C1902.501,199.656,1818.011,165.656,1817.985,165.656z"/>
		<path class="st0" d="M1751.24,176.856c-98.941-29.65-133.584,64.534-133.584,64.534c114.391,17.416,134.332-62.813,134.332-62.813
			"/>
	</g>
	<g id="logo-bg_5_">
		<path class="st0" d="M1171.138,492.531c0,0,29.802-80.328-33.048-136.392l-18.07,81.615l-16.144-83.497
			c0,0-59.797,54.187-36.75,138.274l52.111-50.448C1119.236,442.083,1146.847,483.81,1171.138,492.531z"/>
		<path class="st0" d="M1269.546,266.436c0,0-110.24-29.896-145.74,61.041c0,0,9.144,18.179,54.375,14.069
			C1178.207,341.547,1262.697,307.547,1269.546,266.436z"/>
		<path class="st0" d="M1112.183,328.627c0,0-19.941-80.229-134.332-62.813c0,0,34.643,94.184,133.584,64.534"/>
	</g>
	<g id="logo-bg_2_">
		<path class="st0" d="M1491.04,492.531c0,0,29.802-80.328-33.048-136.392l-18.07,81.615l-16.144-83.497
			c0,0-59.797,54.187-36.75,138.274l52.111-50.448C1439.138,442.083,1466.749,483.81,1491.04,492.531z"/>
		<path class="st0" d="M1589.448,266.436c0,0-110.24-29.896-145.74,61.041c0,0,9.144,18.179,54.375,14.069
			C1498.109,341.547,1582.599,307.547,1589.448,266.436z"/>
		<path class="st0" d="M1432.085,328.627c0,0-19.941-80.229-134.332-62.813c0,0,34.643,94.184,133.584,64.534"/>
	</g>
	<g id="logo-bg_9_">
		<path class="st0" d="M1119.236,572.258l-52.111-50.448c-23.047,84.088,36.75,138.274,36.75,138.274l16.144-83.497l18.07,81.615
			c62.85-56.064,33.048-136.392,33.048-136.392C1146.847,530.531,1119.236,572.258,1119.236,572.258z"/>
		<path class="st0" d="M1178.181,672.794c-45.23-4.109-54.375,14.07-54.375,14.07c35.5,90.937,145.74,61.041,145.74,61.041
			C1262.697,706.794,1178.207,672.794,1178.181,672.794z"/>
		<path class="st0" d="M1111.436,683.993c-98.941-29.65-133.584,64.534-133.584,64.534
			c114.391,17.416,134.332-62.813,134.332-62.813"/>
	</g>
	<path class="st0" d="M1171.138,999.669c0,0,29.802-80.328-33.048-136.392l-18.07,81.615l-16.144-83.497
		c0,0-59.797,54.187-36.75,138.274l52.111-50.448C1119.236,949.221,1146.847,990.948,1171.138,999.669z"/>
	<path class="st0" d="M1269.546,773.574c0,0-110.24-29.896-145.74,61.041c0,0,9.144,18.179,54.375,14.07
		C1178.207,848.685,1262.697,814.685,1269.546,773.574z"/>
	<path class="st0" d="M1112.183,835.765c0,0-19.941-80.229-134.332-62.813c0,0,34.643,94.184,133.584,64.534"/>
	<g id="logo-bg_24_">
		<path class="st0" d="M159.609,65.12l-52.111-50.448c-23.047,84.088,36.75,138.274,36.75,138.274l16.144-83.497l18.07,81.615
			C241.312,95,211.51,14.672,211.51,14.672C187.22,23.393,159.609,65.12,159.609,65.12z"/>
		<path class="st0" d="M218.553,165.656c-45.23-4.109-54.375,14.07-54.375,14.07c35.501,90.937,145.74,61.041,145.74,61.041
			C303.069,199.656,218.579,165.656,218.553,165.656z"/>
		<path class="st0" d="M151.808,176.856c-98.941-29.65-133.584,64.534-133.584,64.534c114.391,17.416,134.332-62.813,134.332-62.813
			"/>
	</g>
	<g id="logo-bg_23_">
		<path class="st0" d="M479.511,65.12L427.4,14.672c-23.047,84.088,36.75,138.274,36.75,138.274l16.144-83.497l18.07,81.615
			C561.214,95,531.412,14.672,531.412,14.672C507.122,23.393,479.511,65.12,479.511,65.12z"/>
		<path class="st0" d="M538.455,165.656c-45.23-4.109-54.375,14.07-54.375,14.07c35.5,90.937,145.74,61.041,145.74,61.041
			C622.971,199.656,538.481,165.656,538.455,165.656z"/>
		<path class="st0" d="M471.71,176.856c-98.941-29.65-133.584,64.534-133.584,64.534c114.391,17.416,134.332-62.813,134.332-62.813"
			/>
	</g>
	<g id="logo-bg_22_">
		<path class="st0" d="M799.413,65.12l-52.111-50.448c-23.047,84.088,36.75,138.274,36.75,138.274l16.144-83.497l18.07,81.615
			C881.116,95,851.314,14.672,851.314,14.672C827.024,23.393,799.413,65.12,799.413,65.12z"/>
		<path class="st0" d="M858.357,165.656c-45.23-4.109-54.375,14.07-54.375,14.07c35.501,90.937,145.74,61.041,145.74,61.041
			C942.873,199.656,858.383,165.656,858.357,165.656z"/>
		<path class="st0" d="M791.612,176.856c-98.941-29.65-133.584,64.534-133.584,64.534c114.391,17.416,134.332-62.813,134.332-62.813
			"/>
	</g>
	<g id="logo-bg_21_">
		<path class="st0" d="M211.51,492.531c0,0,29.802-80.328-33.048-136.392l-18.07,81.615l-16.144-83.497
			c0,0-59.797,54.187-36.75,138.274l52.111-50.448C159.609,442.083,187.22,483.81,211.51,492.531z"/>
		<path class="st0" d="M309.919,266.436c0,0-110.24-29.896-145.74,61.041c0,0,9.144,18.179,54.375,14.069
			C218.579,341.547,303.069,307.547,309.919,266.436z"/>
		<path class="st0" d="M152.556,328.627c0,0-19.941-80.229-134.332-62.813c0,0,34.643,94.184,133.584,64.534"/>
	</g>
	<g id="logo-bg_20_">
		<path class="st0" d="M531.412,492.531c0,0,29.802-80.328-33.048-136.392l-18.07,81.615l-16.144-83.497
			c0,0-59.797,54.187-36.75,138.274l52.111-50.448C479.511,442.083,507.122,483.81,531.412,492.531z"/>
		<path class="st0" d="M629.821,266.436c0,0-110.24-29.896-145.74,61.041c0,0,9.144,18.179,54.375,14.069
			C538.481,341.547,622.971,307.547,629.821,266.436z"/>
		<path class="st0" d="M472.458,328.627c0,0-19.941-80.229-134.332-62.813c0,0,34.643,94.184,133.584,64.534"/>
	</g>
	<g id="logo-bg_19_">
		<path class="st0" d="M851.314,492.531c0,0,29.802-80.328-33.048-136.392l-18.07,81.615l-16.144-83.497
			c0,0-59.797,54.187-36.75,138.274l52.111-50.448C799.413,442.083,827.024,483.81,851.314,492.531z"/>
		<path class="st0" d="M949.723,266.436c0,0-110.24-29.896-145.74,61.041c0,0,9.144,18.179,54.375,14.069
			C858.383,341.547,942.873,307.547,949.723,266.436z"/>
		<path class="st0" d="M792.36,328.627c0,0-19.941-80.229-134.332-62.813c0,0,34.643,94.184,133.584,64.534"/>
	</g>
	<g id="logo-bg_18_">
		<path class="st0" d="M159.609,572.258l-52.111-50.448c-23.047,84.088,36.75,138.274,36.75,138.274l16.144-83.497l18.07,81.615
			c62.85-56.064,33.048-136.392,33.048-136.392C187.22,530.531,159.609,572.258,159.609,572.258z"/>
		<path class="st0" d="M218.553,672.794c-45.23-4.109-54.375,14.07-54.375,14.07c35.501,90.937,145.74,61.041,145.74,61.041
			C303.069,706.794,218.579,672.794,218.553,672.794z"/>
		<path class="st0" d="M151.808,683.993c-98.941-29.65-133.584,64.534-133.584,64.534c114.391,17.416,134.332-62.813,134.332-62.813
			"/>
	</g>
	<g id="logo-bg_17_">
		<path class="st0" d="M479.511,572.258L427.4,521.81c-23.047,84.088,36.75,138.274,36.75,138.274l16.144-83.497l18.07,81.615
			c62.85-56.064,33.048-136.392,33.048-136.392C507.122,530.531,479.511,572.258,479.511,572.258z"/>
		<path class="st0" d="M538.455,672.794c-45.23-4.109-54.375,14.07-54.375,14.07c35.5,90.937,145.74,61.041,145.74,61.041
			C622.971,706.794,538.481,672.794,538.455,672.794z"/>
		<path class="st0" d="M471.71,683.993c-98.941-29.65-133.584,64.534-133.584,64.534c114.391,17.416,134.332-62.813,134.332-62.813"
			/>
	</g>
	<g id="logo-bg_15_">
		<path class="st0" d="M799.413,572.258l-52.111-50.448c-23.047,84.088,36.75,138.274,36.75,138.274l16.144-83.497l18.07,81.615
			c62.85-56.064,33.048-136.392,33.048-136.392C827.024,530.531,799.413,572.258,799.413,572.258z"/>
		<path class="st0" d="M858.357,672.794c-45.23-4.109-54.375,14.07-54.375,14.07c35.501,90.937,145.74,61.041,145.74,61.041
			C942.873,706.794,858.383,672.794,858.357,672.794z"/>
		<path class="st0" d="M791.612,683.993c-98.941-29.65-133.584,64.534-133.584,64.534c114.391,17.416,134.332-62.813,134.332-62.813
			"/>
	</g>
	<g id="logo-bg_13_">
		<path class="st0" d="M211.51,999.669c0,0,29.802-80.328-33.048-136.392l-18.07,81.615l-16.144-83.497
			c0,0-59.797,54.187-36.75,138.274l52.111-50.448C159.609,949.221,187.22,990.948,211.51,999.669z"/>
		<path class="st0" d="M309.919,773.574c0,0-110.24-29.896-145.74,61.041c0,0,9.144,18.179,54.375,14.07
			C218.579,848.685,303.069,814.685,309.919,773.574z"/>
		<path class="st0" d="M152.556,835.765c0,0-19.941-80.229-134.332-62.813c0,0,34.643,94.184,133.584,64.534"/>
	</g>
	<g id="logo-bg_11_">
		<path class="st0" d="M531.412,999.669c0,0,29.802-80.328-33.048-136.392l-18.07,81.615l-16.144-83.497
			c0,0-59.797,54.187-36.75,138.274l52.111-50.448C479.511,949.221,507.122,990.948,531.412,999.669z"/>
		<path class="st0" d="M629.821,773.574c0,0-110.24-29.896-145.74,61.041c0,0,9.144,18.179,54.375,14.07
			C538.481,848.685,622.971,814.685,629.821,773.574z"/>
		<path class="st0" d="M472.458,835.765c0,0-19.941-80.229-134.332-62.813c0,0,34.643,94.184,133.584,64.534"/>
	</g>
	<g id="logo-bg_10_">
		<path class="st0" d="M851.314,999.669c0,0,29.802-80.328-33.048-136.392l-18.07,81.615l-16.144-83.497
			c0,0-59.797,54.187-36.75,138.274l52.111-50.448C799.413,949.221,827.024,990.948,851.314,999.669z"/>
		<path class="st0" d="M949.723,773.574c0,0-110.24-29.896-145.74,61.041c0,0,9.144,18.179,54.375,14.07
			C858.383,848.685,942.873,814.685,949.723,773.574z"/>
		<path class="st0" d="M792.36,835.765c0,0-19.941-80.229-134.332-62.813c0,0,34.643,94.184,133.584,64.534"/>
	</g>
	<g id="logo-bg_36_">
		<path class="st0" d="M159.609,1079.521l-52.111-50.448c-23.047,84.088,36.75,138.274,36.75,138.274l16.144-83.497l18.07,81.615
			c62.85-56.064,33.048-136.392,33.048-136.392C187.22,1037.793,159.609,1079.521,159.609,1079.521z"/>
		<path class="st0" d="M218.553,1180.057c-45.23-4.109-54.375,14.07-54.375,14.07c35.501,90.937,145.74,61.041,145.74,61.041
			C303.069,1214.057,218.579,1180.057,218.553,1180.057z"/>
		<path class="st0" d="M151.808,1191.256c-98.941-29.65-133.584,64.534-133.584,64.534
			c114.391,17.416,134.332-62.813,134.332-62.813"/>
	</g>
	<g id="logo-bg_35_">
		<path class="st0" d="M479.511,1079.521l-52.111-50.448c-23.047,84.088,36.75,138.274,36.75,138.274l16.144-83.497l18.07,81.615
			c62.85-56.064,33.048-136.392,33.048-136.392C507.122,1037.793,479.511,1079.521,479.511,1079.521z"/>
		<path class="st0" d="M538.455,1180.057c-45.23-4.109-54.375,14.07-54.375,14.07c35.5,90.937,145.74,61.041,145.74,61.041
			C622.971,1214.057,538.481,1180.057,538.455,1180.057z"/>
		<path class="st0" d="M471.71,1191.256c-98.941-29.65-133.584,64.534-133.584,64.534c114.391,17.416,134.332-62.813,134.332-62.813
			"/>
	</g>
	<g id="logo-bg_34_">
		<path class="st0" d="M799.413,1079.521l-52.111-50.448c-23.047,84.088,36.75,138.274,36.75,138.274l16.144-83.497l18.07,81.615
			c62.85-56.064,33.048-136.392,33.048-136.392C827.024,1037.793,799.413,1079.521,799.413,1079.521z"/>
		<path class="st0" d="M858.357,1180.057c-45.23-4.109-54.375,14.07-54.375,14.07c35.501,90.937,145.74,61.041,145.74,61.041
			C942.873,1214.057,858.383,1180.057,858.357,1180.057z"/>
		<path class="st0" d="M791.612,1191.256c-98.941-29.65-133.584,64.534-133.584,64.534
			c114.391,17.416,134.332-62.813,134.332-62.813"/>
	</g>
	<path class="st0" d="M211.51,1506.931c0,0,29.802-80.328-33.048-136.392l-18.07,81.615l-16.144-83.497
		c0,0-59.797,54.187-36.75,138.274l52.111-50.448C159.609,1456.483,187.22,1498.211,211.51,1506.931z"/>
	<path class="st0" d="M309.919,1280.837c0,0-110.24-29.896-145.74,61.041c0,0,9.144,18.179,54.375,14.069
		C218.579,1355.947,303.069,1321.947,309.919,1280.837z"/>
	<path class="st0" d="M152.556,1343.028c0,0-19.941-80.229-134.332-62.813c0,0,34.643,94.184,133.584,64.534"/>
	<path class="st0" d="M531.412,1506.931c0,0,29.802-80.328-33.048-136.392l-18.07,81.615l-16.144-83.497
		c0,0-59.797,54.187-36.75,138.274l52.111-50.448C479.511,1456.483,507.122,1498.211,531.412,1506.931z"/>
	<path class="st0" d="M629.821,1280.837c0,0-110.24-29.896-145.74,61.041c0,0,9.144,18.179,54.375,14.069
		C538.481,1355.947,622.971,1321.947,629.821,1280.837z"/>
	<path class="st0" d="M472.458,1343.028c0,0-19.941-80.229-134.332-62.813c0,0,34.643,94.184,133.584,64.534"/>
	<path class="st0" d="M159.609,1586.659l-52.111-50.448c-23.047,84.088,36.75,138.274,36.75,138.274l16.144-83.497l18.07,81.615
		c62.85-56.064,33.048-136.392,33.048-136.392C187.22,1544.931,159.609,1586.659,159.609,1586.659z"/>
	<path class="st0" d="M218.553,1687.195c-45.23-4.109-54.375,14.07-54.375,14.07c35.501,90.937,145.74,61.041,145.74,61.041
		C303.069,1721.195,218.579,1687.195,218.553,1687.195z"/>
	<path class="st0" d="M151.808,1698.394c-98.941-29.65-133.584,64.534-133.584,64.534c114.391,17.416,134.332-62.813,134.332-62.813
		"/>
	<path class="st0" d="M211.51,2014.069c0,0,29.802-80.328-33.048-136.392l-18.07,81.615l-16.144-83.497
		c0,0-59.797,54.187-36.75,138.274l52.111-50.448C159.609,1963.621,187.22,2005.348,211.51,2014.069z"/>
	<path class="st0" d="M309.919,1787.974c0,0-110.24-29.896-145.74,61.041c0,0,9.144,18.179,54.375,14.07
		C218.579,1863.085,303.069,1829.085,309.919,1787.974z"/>
	<path class="st0" d="M152.556,1850.166c0,0-19.941-80.229-134.332-62.813c0,0,34.643,94.183,133.584,64.533"/>
</g>
<g id="Layer_2">
	<path class="st1" d="M1073.384,237.368c0,0,38.57-20.438,55.593-60.602l1.568-3.686l0,0v-0.047l0,0l0.173-0.397l0,0l0.026-0.052
		l0,0l1.568-3.691c17.008-40.117,4.878-82.054,4.878-82.054c-18.153-64.272-72.909-86.838-72.909-86.838
		s-24.751,48.242-5.877,104.232c0,0,12.266,33.922,35.819,52.942l0.633,0.523l-0.821-0.115c-30.047-3.691-62.96,11.074-62.96,11.074
		c-53.345,25.368-70.802,76.705-70.802,76.705S1014.57,269.016,1073.384,237.368z M1112.92,70.673
		c24.997,46.595,7.32,83.565,7.32,83.565c-32.034-14.441-46.391-54.662-46.391-54.662c-15.894-38.287,0.471-73.521,0.471-73.521
		c25.133,17.834,38.622,44.619,38.622,44.619L1112.92,70.673z M1044.884,231.168c0,0-28.61,8.956-58.887,3.283
		c0,0,13.923-36.259,52.493-51.457c0,0,38.894-17.656,71.561-4.658c0,0-14.279,38.413-65.145,52.848L1044.884,231.168z"/>
	<path class="st1" d="M1280.097,245.436c0,0-17.452-51.342-70.781-76.716c0,0-32.907-14.749-62.96-11.089l-0.81,0.115l0.633-0.523
		c23.548-19.021,35.83-52.942,35.83-52.942c18.874-55.97-5.856-104.217-5.856-104.217s-54.741,22.555-72.909,86.859
		c0,0-12.14,41.926,4.857,82.054l1.568,3.691l0,0v0.047l0,0l0.173,0.403l0,0l0.026,0.047l0,0l1.568,3.691
		c16.997,40.122,55.567,60.576,55.567,60.576C1225.801,269.099,1280.097,245.436,1280.097,245.436z M1120.156,154.29
		c0,0-17.672-36.97,7.341-83.554c0,0,13.468-26.78,38.611-44.608c0,0,16.36,35.234,0.455,73.526c0,0-14.373,40.216-46.407,54.647
		V154.29z M1195.492,231.225c-50.867-14.451-65.124-52.869-65.124-52.869c32.651-12.951,71.54,4.706,71.54,4.706
		c38.564,15.214,52.493,51.478,52.493,51.478C1224.101,240.207,1195.492,231.241,1195.492,231.225z"/>
	<path class="st1" d="M1393.286,237.368c0,0,38.569-20.438,55.593-60.602l1.568-3.686l0,0v-0.047l0,0l0.173-0.397l0,0l0.026-0.052
		l0,0l1.568-3.691c17.008-40.117,4.878-82.054,4.878-82.054c-18.153-64.272-72.909-86.838-72.909-86.838
		s-24.751,48.242-5.877,104.232c0,0,12.266,33.922,35.819,52.942l0.633,0.523l-0.821-0.115c-30.047-3.691-62.96,11.074-62.96,11.074
		c-53.345,25.368-70.802,76.705-70.802,76.705S1334.472,269.016,1393.286,237.368z M1432.822,70.673
		c24.997,46.595,7.32,83.565,7.32,83.565c-32.034-14.441-46.391-54.662-46.391-54.662c-15.894-38.287,0.471-73.521,0.471-73.521
		c25.133,17.834,38.622,44.619,38.622,44.619L1432.822,70.673z M1364.786,231.168c0,0-28.61,8.956-58.887,3.283
		c0,0,13.923-36.259,52.493-51.457c0,0,38.894-17.656,71.56-4.658c0,0-14.279,38.413-65.145,52.848L1364.786,231.168z"/>
	<path class="st1" d="M1599.999,245.436c0,0-17.452-51.342-70.781-76.716c0,0-32.907-14.749-62.96-11.089l-0.81,0.115l0.633-0.523
		c23.548-19.021,35.83-52.942,35.83-52.942c18.874-55.97-5.856-104.217-5.856-104.217s-54.741,22.555-72.909,86.859
		c0,0-12.14,41.926,4.857,82.054l1.569,3.691l0,0v0.047l0,0l0.172,0.403l0,0l0.026,0.047l0,0l1.568,3.691
		c16.997,40.122,55.567,60.576,55.567,60.576C1545.703,269.099,1599.999,245.436,1599.999,245.436z M1440.058,154.29
		c0,0-17.672-36.97,7.341-83.554c0,0,13.468-26.78,38.611-44.608c0,0,16.359,35.234,0.455,73.526c0,0-14.373,40.216-46.407,54.647
		V154.29z M1515.394,231.225c-50.867-14.451-65.124-52.869-65.124-52.869c32.651-12.951,71.54,4.706,71.54,4.706
		c38.564,15.214,52.493,51.478,52.493,51.478C1544.003,240.207,1515.394,231.241,1515.394,231.225z"/>
	<path class="st1" d="M1713.188,237.368c0,0,38.57-20.438,55.593-60.602l1.569-3.686l0,0v-0.047l0,0l0.172-0.397l0,0l0.026-0.052
		l0,0l1.568-3.691c17.008-40.117,4.878-82.054,4.878-82.054c-18.153-64.272-72.909-86.838-72.909-86.838
		s-24.751,48.242-5.877,104.232c0,0,12.266,33.922,35.819,52.942l0.633,0.523l-0.821-0.115c-30.047-3.691-62.96,11.074-62.96,11.074
		c-53.345,25.368-70.802,76.705-70.802,76.705S1654.374,269.016,1713.188,237.368z M1752.724,70.673
		c24.997,46.595,7.32,83.565,7.32,83.565c-32.034-14.441-46.391-54.662-46.391-54.662c-15.894-38.287,0.47-73.521,0.47-73.521
		c25.133,17.834,38.622,44.619,38.622,44.619L1752.724,70.673z M1684.688,231.168c0,0-28.61,8.956-58.887,3.283
		c0,0,13.923-36.259,52.493-51.457c0,0,38.894-17.656,71.56-4.658c0,0-14.279,38.413-65.145,52.848L1684.688,231.168z"/>
	<path class="st1" d="M1919.901,245.436c0,0-17.452-51.342-70.781-76.716c0,0-32.907-14.749-62.96-11.089l-0.81,0.115l0.633-0.523
		c23.549-19.021,35.83-52.942,35.83-52.942c18.874-55.97-5.856-104.217-5.856-104.217s-54.741,22.555-72.909,86.859
		c0,0-12.14,41.926,4.857,82.054l1.568,3.691l0,0v0.047l0,0l0.172,0.403l0,0l0.026,0.047l0,0l1.568,3.691
		c16.997,40.122,55.567,60.576,55.567,60.576C1865.605,269.099,1919.901,245.436,1919.901,245.436z M1759.96,154.29
		c0,0-17.672-36.97,7.341-83.554c0,0,13.468-26.78,38.611-44.608c0,0,16.359,35.234,0.455,73.526c0,0-14.373,40.216-46.407,54.647
		V154.29z M1835.296,231.225c-50.867-14.451-65.124-52.869-65.124-52.869c32.651-12.951,71.54,4.706,71.54,4.706
		c38.564,15.214,52.493,51.478,52.493,51.478C1863.905,240.207,1835.296,231.241,1835.296,231.225z"/>
	<g id="logo_24_">
		<path class="st1" d="M113.756,237.368c0,0,38.57-20.438,55.593-60.602l1.569-3.686l0,0v-0.047l0,0l0.173-0.397l0,0l0.026-0.052
			l0,0l1.568-3.691c17.008-40.117,4.878-82.054,4.878-82.054C159.41,22.567,104.653,0.001,104.653,0.001
			s-24.751,48.242-5.877,104.232c0,0,12.266,33.922,35.819,52.942l0.633,0.523l-0.821-0.115
			c-30.047-3.691-62.96,11.074-62.96,11.074c-53.345,25.368-70.802,76.705-70.802,76.705S54.942,269.016,113.756,237.368z
			 M153.293,70.673c24.997,46.595,7.32,83.565,7.32,83.565c-32.034-14.441-46.391-54.662-46.391-54.662
			c-15.894-38.287,0.471-73.521,0.471-73.521c25.133,17.834,38.622,44.619,38.622,44.619L153.293,70.673z M85.256,231.168
			c0,0-28.61,8.956-58.887,3.283c0,0,13.923-36.259,52.493-51.457c0,0,38.894-17.656,71.56-4.658c0,0-14.279,38.413-65.145,52.848
			L85.256,231.168z"/>
		<path class="st1" d="M320.469,245.436c0,0-17.452-51.342-70.781-76.716c0,0-32.907-14.749-62.96-11.089l-0.81,0.115l0.633-0.523
			c23.549-19.021,35.83-52.942,35.83-52.942c18.874-55.97-5.856-104.217-5.856-104.217s-54.741,22.555-72.909,86.859
			c0,0-12.14,41.926,4.857,82.054l1.568,3.691l0,0v0.047l0,0l0.173,0.403l0,0l0.026,0.047l0,0l1.569,3.691
			c16.997,40.122,55.567,60.576,55.567,60.576C266.173,269.099,320.469,245.436,320.469,245.436z M160.529,154.29
			c0,0-17.672-36.97,7.341-83.554c0,0,13.468-26.78,38.611-44.608c0,0,16.36,35.234,0.455,73.526c0,0-14.373,40.216-46.407,54.647
			V154.29z M235.864,231.225c-50.867-14.451-65.124-52.869-65.124-52.869c32.651-12.951,71.54,4.706,71.54,4.706
			c38.564,15.214,52.493,51.478,52.493,51.478C264.474,240.207,235.864,231.241,235.864,231.225z"/>
	</g>
	<g id="logo_23_">
		<path class="st1" d="M433.658,237.368c0,0,38.57-20.438,55.593-60.602l1.569-3.686l0,0v-0.047l0,0l0.173-0.397l0,0l0.026-0.052
			l0,0l1.569-3.691c17.008-40.117,4.878-82.054,4.878-82.054c-18.153-64.272-72.909-86.838-72.909-86.838
			s-24.751,48.242-5.877,104.232c0,0,12.266,33.922,35.819,52.942l0.633,0.523l-0.821-0.115
			c-30.047-3.691-62.96,11.074-62.96,11.074c-53.345,25.368-70.802,76.705-70.802,76.705S374.844,269.016,433.658,237.368z
			 M473.195,70.673c24.997,46.595,7.32,83.565,7.32,83.565c-32.034-14.441-46.391-54.662-46.391-54.662
			c-15.894-38.287,0.471-73.521,0.471-73.521c25.133,17.834,38.622,44.619,38.622,44.619L473.195,70.673z M405.158,231.168
			c0,0-28.61,8.956-58.887,3.283c0,0,13.923-36.259,52.493-51.457c0,0,38.894-17.656,71.56-4.658c0,0-14.279,38.413-65.145,52.848
			L405.158,231.168z"/>
		<path class="st1" d="M640.371,245.436c0,0-17.452-51.342-70.781-76.716c0,0-32.907-14.749-62.96-11.089l-0.81,0.115l0.633-0.523
			c23.548-19.021,35.83-52.942,35.83-52.942c18.874-55.97-5.856-104.217-5.856-104.217s-54.741,22.555-72.909,86.859
			c0,0-12.14,41.926,4.857,82.054l1.569,3.691l0,0v0.047l0,0l0.173,0.403l0,0l0.026,0.047l0,0l1.569,3.691
			c16.997,40.122,55.567,60.576,55.567,60.576C586.075,269.099,640.371,245.436,640.371,245.436z M480.431,154.29
			c0,0-17.672-36.97,7.341-83.554c0,0,13.468-26.78,38.611-44.608c0,0,16.359,35.234,0.455,73.526c0,0-14.373,40.216-46.407,54.647
			V154.29z M555.766,231.225c-50.867-14.451-65.124-52.869-65.124-52.869c32.651-12.951,71.54,4.706,71.54,4.706
			c38.564,15.214,52.493,51.478,52.493,51.478C584.376,240.207,555.766,231.241,555.766,231.225z"/>
	</g>
	<g id="logo_22_">
		<path class="st1" d="M753.56,237.368c0,0,38.57-20.438,55.593-60.602l1.568-3.686l0,0v-0.047l0,0l0.173-0.397l0,0l0.026-0.052l0,0
			l1.568-3.691c17.008-40.117,4.878-82.054,4.878-82.054c-18.153-64.272-72.909-86.838-72.909-86.838s-24.751,48.242-5.877,104.232
			c0,0,12.266,33.922,35.819,52.942l0.633,0.523l-0.821-0.115c-30.047-3.691-62.96,11.074-62.96,11.074
			c-53.345,25.368-70.802,76.705-70.802,76.705S694.746,269.016,753.56,237.368z M793.097,70.673
			c24.997,46.595,7.32,83.565,7.32,83.565c-32.034-14.441-46.391-54.662-46.391-54.662c-15.894-38.287,0.471-73.521,0.471-73.521
			c25.133,17.834,38.622,44.619,38.622,44.619L793.097,70.673z M725.06,231.168c0,0-28.61,8.956-58.887,3.283
			c0,0,13.923-36.259,52.493-51.457c0,0,38.894-17.656,71.56-4.658c0,0-14.279,38.413-65.145,52.848L725.06,231.168z"/>
		<path class="st1" d="M960.273,245.436c0,0-17.452-51.342-70.781-76.716c0,0-32.907-14.749-62.96-11.089l-0.81,0.115l0.633-0.523
			c23.549-19.021,35.83-52.942,35.83-52.942c18.874-55.97-5.856-104.217-5.856-104.217s-54.741,22.555-72.909,86.859
			c0,0-12.14,41.926,4.857,82.054l1.568,3.691l0,0v0.047l0,0l0.173,0.403l0,0l0.026,0.047l0,0l1.569,3.691
			c16.997,40.122,55.567,60.576,55.567,60.576C905.977,269.099,960.273,245.436,960.273,245.436z M800.333,154.29
			c0,0-17.672-36.97,7.341-83.554c0,0,13.468-26.78,38.611-44.608c0,0,16.36,35.234,0.455,73.526c0,0-14.373,40.216-46.407,54.647
			V154.29z M875.668,231.225c-50.867-14.451-65.124-52.869-65.124-52.869c32.651-12.951,71.54,4.706,71.54,4.706
			c38.564,15.214,52.493,51.478,52.493,51.478C904.278,240.207,875.668,231.241,875.668,231.225z"/>
	</g>
	<path class="st1" d="M960.273,261.84c0,0,17.457,51.337,70.802,76.705c0,0,32.912,14.765,62.96,11.074l0.821-0.115l-0.633,0.523
		c-23.554,19.021-35.819,52.942-35.819,52.942c-18.874,55.99,5.877,104.232,5.877,104.232s54.757-22.566,72.909-86.838
		c0,0,12.13-41.937-4.878-82.054l-1.568-3.691l0,0l-0.026-0.052l0,0l-0.173-0.397l0,0v-0.047l0,0l-1.568-3.686
		c-17.024-40.164-55.593-60.602-55.593-60.602C1014.57,238.187,960.273,261.84,960.273,261.84z M1112.941,436.53
		c0,0-13.489,26.785-38.622,44.619c0,0-16.365-35.234-0.471-73.521c0,0,14.357-40.222,46.391-54.662c0,0,17.677,36.97-7.32,83.565
		L1112.941,436.53z M1044.905,276.02c50.867,14.435,65.145,52.848,65.145,52.848c-32.667,12.998-71.561-4.658-71.561-4.658
		c-38.57-15.199-52.493-51.457-52.493-51.457c30.277-5.673,58.887,3.283,58.887,3.283L1044.905,276.02z"/>
	<path class="st1" d="M1167.002,269.772c0,0-38.57,20.453-55.567,60.576l-1.568,3.691l0,0l-0.026,0.047l0,0l-0.173,0.403l0,0v0.047
		l0,0l-1.568,3.691c-16.997,40.128-4.857,82.054-4.857,82.054c18.169,64.304,72.909,86.859,72.909,86.859
		s24.73-48.247,5.856-104.217c0,0-12.281-33.922-35.83-52.942l-0.633-0.523l0.81,0.115c30.053,3.66,62.96-11.089,62.96-11.089
		c53.329-25.373,70.781-76.716,70.781-76.716S1225.801,238.104,1167.002,269.772z M1120.156,352.903
		c32.034,14.43,46.407,54.647,46.407,54.647c15.905,38.292-0.455,73.526-0.455,73.526c-25.143-17.829-38.611-44.608-38.611-44.608
		c-25.012-46.585-7.341-83.554-7.341-83.554V352.903z M1254.4,272.663c0,0-13.928,36.264-52.493,51.478
		c0,0-38.889,17.656-71.54,4.706c0,0,14.258-38.418,65.124-52.869C1195.492,275.962,1224.101,266.996,1254.4,272.663z"/>
	<path class="st1" d="M1280.175,261.84c0,0,17.457,51.337,70.802,76.705c0,0,32.912,14.765,62.96,11.074l0.821-0.115l-0.633,0.523
		c-23.554,19.021-35.819,52.942-35.819,52.942c-18.874,55.99,5.877,104.232,5.877,104.232s54.757-22.566,72.909-86.838
		c0,0,12.13-41.937-4.878-82.054l-1.568-3.691l0,0l-0.026-0.052l0,0l-0.173-0.397l0,0v-0.047l0,0l-1.568-3.686
		c-17.024-40.164-55.593-60.602-55.593-60.602C1334.472,238.187,1280.175,261.84,1280.175,261.84z M1432.843,436.53
		c0,0-13.489,26.785-38.622,44.619c0,0-16.365-35.234-0.471-73.521c0,0,14.357-40.222,46.391-54.662c0,0,17.677,36.97-7.32,83.565
		L1432.843,436.53z M1364.807,276.02c50.867,14.435,65.145,52.848,65.145,52.848c-32.667,12.998-71.56-4.658-71.56-4.658
		c-38.57-15.199-52.493-51.457-52.493-51.457c30.277-5.673,58.887,3.283,58.887,3.283L1364.807,276.02z"/>
	<path class="st1" d="M1486.905,269.772c0,0-38.57,20.453-55.567,60.576l-1.568,3.691l0,0l-0.026,0.047l0,0l-0.172,0.403l0,0v0.047
		l0,0l-1.569,3.691c-16.997,40.128-4.857,82.054-4.857,82.054c18.168,64.304,72.909,86.859,72.909,86.859
		s24.73-48.247,5.856-104.217c0,0-12.281-33.922-35.83-52.942l-0.633-0.523l0.81,0.115c30.053,3.66,62.96-11.089,62.96-11.089
		c53.329-25.373,70.781-76.716,70.781-76.716S1545.703,238.104,1486.905,269.772z M1440.058,352.903
		c32.034,14.43,46.407,54.647,46.407,54.647c15.905,38.292-0.455,73.526-0.455,73.526c-25.143-17.829-38.611-44.608-38.611-44.608
		c-25.012-46.585-7.341-83.554-7.341-83.554V352.903z M1574.302,272.663c0,0-13.928,36.264-52.493,51.478
		c0,0-38.888,17.656-71.54,4.706c0,0,14.258-38.418,65.124-52.869C1515.394,275.962,1544.003,266.996,1574.302,272.663z"/>
	<g id="logo_21_">
		<path class="st1" d="M0.646,261.84c0,0,17.457,51.337,70.802,76.705c0,0,32.912,14.765,62.96,11.074l0.821-0.115l-0.633,0.523
			c-23.554,19.021-35.819,52.942-35.819,52.942c-18.874,55.99,5.877,104.232,5.877,104.232s54.757-22.566,72.909-86.838
			c0,0,12.13-41.937-4.878-82.054l-1.568-3.691l0,0l-0.026-0.052l0,0l-0.173-0.397l0,0v-0.047l0,0l-1.569-3.686
			c-17.024-40.164-55.593-60.602-55.593-60.602C54.942,238.187,0.646,261.84,0.646,261.84z M153.314,436.53
			c0,0-13.489,26.785-38.622,44.619c0,0-16.365-35.234-0.471-73.521c0,0,14.357-40.222,46.391-54.662c0,0,17.677,36.97-7.32,83.565
			L153.314,436.53z M85.277,276.02c50.867,14.435,65.145,52.848,65.145,52.848c-32.667,12.998-71.56-4.658-71.56-4.658
			c-38.57-15.199-52.493-51.457-52.493-51.457c30.277-5.673,58.887,3.283,58.887,3.283L85.277,276.02z"/>
		<path class="st1" d="M207.375,269.772c0,0-38.57,20.453-55.567,60.576l-1.569,3.691l0,0l-0.026,0.047l0,0l-0.173,0.403l0,0v0.047
			l0,0l-1.568,3.691c-16.997,40.128-4.857,82.054-4.857,82.054c18.169,64.304,72.909,86.859,72.909,86.859
			s24.73-48.247,5.856-104.217c0,0-12.281-33.922-35.83-52.942l-0.633-0.523l0.81,0.115c30.053,3.66,62.96-11.089,62.96-11.089
			c53.329-25.373,70.781-76.716,70.781-76.716S266.173,238.104,207.375,269.772z M160.529,352.903
			c32.034,14.43,46.407,54.647,46.407,54.647c15.905,38.292-0.455,73.526-0.455,73.526c-25.143-17.829-38.611-44.608-38.611-44.608
			c-25.012-46.585-7.341-83.554-7.341-83.554V352.903z M294.772,272.663c0,0-13.928,36.264-52.493,51.478
			c0,0-38.889,17.656-71.54,4.706c0,0,14.258-38.418,65.124-52.869C235.864,275.962,264.474,266.996,294.772,272.663z"/>
	</g>
	<g id="logo_20_">
		<path class="st1" d="M320.548,261.84c0,0,17.457,51.337,70.802,76.705c0,0,32.912,14.765,62.96,11.074l0.821-0.115l-0.633,0.523
			c-23.554,19.021-35.819,52.942-35.819,52.942c-18.874,55.99,5.877,104.232,5.877,104.232s54.757-22.566,72.909-86.838
			c0,0,12.13-41.937-4.878-82.054l-1.569-3.691l0,0l-0.026-0.052l0,0l-0.173-0.397l0,0v-0.047l0,0l-1.569-3.686
			c-17.024-40.164-55.593-60.602-55.593-60.602C374.844,238.187,320.548,261.84,320.548,261.84z M473.216,436.53
			c0,0-13.489,26.785-38.622,44.619c0,0-16.365-35.234-0.471-73.521c0,0,14.357-40.222,46.391-54.662c0,0,17.677,36.97-7.32,83.565
			L473.216,436.53z M405.179,276.02c50.867,14.435,65.145,52.848,65.145,52.848c-32.667,12.998-71.56-4.658-71.56-4.658
			c-38.57-15.199-52.493-51.457-52.493-51.457c30.277-5.673,58.887,3.283,58.887,3.283L405.179,276.02z"/>
		<path class="st1" d="M527.277,269.772c0,0-38.57,20.453-55.567,60.576l-1.569,3.691l0,0l-0.026,0.047l0,0l-0.173,0.403l0,0v0.047
			l0,0l-1.569,3.691c-16.997,40.128-4.857,82.054-4.857,82.054c18.169,64.304,72.909,86.859,72.909,86.859
			s24.73-48.247,5.856-104.217c0,0-12.281-33.922-35.83-52.942l-0.633-0.523l0.81,0.115c30.053,3.66,62.96-11.089,62.96-11.089
			c53.329-25.373,70.781-76.716,70.781-76.716S586.075,238.104,527.277,269.772z M480.431,352.903
			c32.034,14.43,46.407,54.647,46.407,54.647c15.905,38.292-0.455,73.526-0.455,73.526c-25.143-17.829-38.611-44.608-38.611-44.608
			c-25.012-46.585-7.341-83.554-7.341-83.554V352.903z M614.674,272.663c0,0-13.928,36.264-52.493,51.478
			c0,0-38.888,17.656-71.54,4.706c0,0,14.258-38.418,65.124-52.869C555.766,275.962,584.376,266.996,614.674,272.663z"/>
	</g>
	<g id="logo_19_">
		<path class="st1" d="M640.45,261.84c0,0,17.457,51.337,70.802,76.705c0,0,32.913,14.765,62.96,11.074l0.821-0.115l-0.633,0.523
			c-23.554,19.021-35.819,52.942-35.819,52.942c-18.874,55.99,5.877,104.232,5.877,104.232s54.757-22.566,72.909-86.838
			c0,0,12.13-41.937-4.878-82.054l-1.568-3.691l0,0l-0.026-0.052l0,0l-0.173-0.397l0,0v-0.047l0,0l-1.568-3.686
			c-17.024-40.164-55.593-60.602-55.593-60.602C694.746,238.187,640.45,261.84,640.45,261.84z M793.118,436.53
			c0,0-13.489,26.785-38.622,44.619c0,0-16.365-35.234-0.471-73.521c0,0,14.357-40.222,46.391-54.662c0,0,17.677,36.97-7.32,83.565
			L793.118,436.53z M725.081,276.02c50.867,14.435,65.145,52.848,65.145,52.848c-32.667,12.998-71.56-4.658-71.56-4.658
			c-38.57-15.199-52.493-51.457-52.493-51.457c30.277-5.673,58.887,3.283,58.887,3.283L725.081,276.02z"/>
		<path class="st1" d="M847.179,269.772c0,0-38.57,20.453-55.567,60.576l-1.569,3.691l0,0l-0.026,0.047l0,0l-0.173,0.403l0,0v0.047
			l0,0l-1.568,3.691c-16.997,40.128-4.857,82.054-4.857,82.054c18.169,64.304,72.909,86.859,72.909,86.859
			s24.73-48.247,5.856-104.217c0,0-12.281-33.922-35.83-52.942l-0.633-0.523l0.81,0.115c30.053,3.66,62.96-11.089,62.96-11.089
			c53.329-25.373,70.781-76.716,70.781-76.716S905.977,238.104,847.179,269.772z M800.333,352.903
			c32.034,14.43,46.407,54.647,46.407,54.647c15.905,38.292-0.455,73.526-0.455,73.526c-25.143-17.829-38.611-44.608-38.611-44.608
			c-25.012-46.585-7.341-83.554-7.341-83.554V352.903z M934.576,272.663c0,0-13.928,36.264-52.493,51.478
			c0,0-38.888,17.656-71.54,4.706c0,0,14.258-38.418,65.124-52.869C875.668,275.962,904.278,266.996,934.576,272.663z"/>
	</g>
	<path class="st1" d="M1073.384,744.506c0,0,38.57-20.438,55.593-60.602l1.568-3.686l0,0v-0.047l0,0l0.173-0.397l0,0l0.026-0.052
		l0,0l1.568-3.691c17.008-40.117,4.878-82.054,4.878-82.054c-18.153-64.272-72.909-86.838-72.909-86.838
		s-24.751,48.242-5.877,104.232c0,0,12.266,33.922,35.819,52.942l0.633,0.523l-0.821-0.115c-30.047-3.691-62.96,11.074-62.96,11.074
		c-53.345,25.368-70.802,76.705-70.802,76.705S1014.57,776.154,1073.384,744.506z M1112.92,577.811
		c24.997,46.595,7.32,83.565,7.32,83.565c-32.034-14.441-46.391-54.662-46.391-54.662c-15.894-38.287,0.471-73.521,0.471-73.521
		c25.133,17.834,38.622,44.619,38.622,44.619H1112.92z M1044.884,738.306c0,0-28.61,8.956-58.887,3.283
		c0,0,13.923-36.259,52.493-51.457c0,0,38.894-17.656,71.561-4.658c0,0-14.279,38.413-65.145,52.848L1044.884,738.306z"/>
	<path class="st1" d="M1280.097,752.574c0,0-17.452-51.342-70.781-76.716c0,0-32.907-14.749-62.96-11.089l-0.81,0.115l0.633-0.523
		c23.548-19.021,35.83-52.942,35.83-52.942c18.874-55.969-5.856-104.217-5.856-104.217s-54.741,22.555-72.909,86.859
		c0,0-12.14,41.926,4.857,82.054l1.568,3.691l0,0v0.047l0,0l0.173,0.403l0,0l0.026,0.047l0,0l1.568,3.691
		c16.997,40.122,55.567,60.576,55.567,60.576C1225.801,776.237,1280.097,752.574,1280.097,752.574z M1120.156,661.428
		c0,0-17.672-36.97,7.341-83.554c0,0,13.468-26.78,38.611-44.608c0,0,16.36,35.234,0.455,73.526c0,0-14.373,40.216-46.407,54.647
		V661.428z M1195.492,738.363c-50.867-14.451-65.124-52.869-65.124-52.869c32.651-12.951,71.54,4.706,71.54,4.706
		c38.564,15.214,52.493,51.478,52.493,51.478C1224.101,747.345,1195.492,738.379,1195.492,738.363z"/>
	<g id="logo_18_">
		<path class="st1" d="M113.756,744.506c0,0,38.57-20.438,55.593-60.602l1.569-3.686l0,0v-0.047l0,0l0.173-0.397l0,0l0.026-0.052
			l0,0l1.568-3.691c17.008-40.117,4.878-82.054,4.878-82.054c-18.153-64.272-72.909-86.838-72.909-86.838
			s-24.751,48.242-5.877,104.232c0,0,12.266,33.922,35.819,52.942l0.633,0.523l-0.821-0.115
			c-30.047-3.691-62.96,11.074-62.96,11.074c-53.345,25.368-70.802,76.705-70.802,76.705S54.942,776.154,113.756,744.506z
			 M153.293,577.811c24.997,46.595,7.32,83.565,7.32,83.565c-32.034-14.441-46.391-54.662-46.391-54.662
			c-15.894-38.287,0.471-73.521,0.471-73.521c25.133,17.834,38.622,44.619,38.622,44.619H153.293z M85.256,738.306
			c0,0-28.61,8.956-58.887,3.283c0,0,13.923-36.259,52.493-51.457c0,0,38.894-17.656,71.56-4.658c0,0-14.279,38.413-65.145,52.848
			L85.256,738.306z"/>
		<path class="st1" d="M320.469,752.574c0,0-17.452-51.342-70.781-76.716c0,0-32.907-14.749-62.96-11.089l-0.81,0.115l0.633-0.523
			c23.549-19.021,35.83-52.942,35.83-52.942c18.874-55.969-5.856-104.217-5.856-104.217s-54.741,22.555-72.909,86.859
			c0,0-12.14,41.926,4.857,82.054l1.568,3.691l0,0v0.047l0,0l0.173,0.403l0,0l0.026,0.047l0,0l1.569,3.691
			c16.997,40.122,55.567,60.576,55.567,60.576C266.173,776.237,320.469,752.574,320.469,752.574z M160.529,661.428
			c0,0-17.672-36.97,7.341-83.554c0,0,13.468-26.78,38.611-44.608c0,0,16.36,35.234,0.455,73.526c0,0-14.373,40.216-46.407,54.647
			V661.428z M235.864,738.363c-50.867-14.451-65.124-52.869-65.124-52.869c32.651-12.951,71.54,4.706,71.54,4.706
			c38.564,15.214,52.493,51.478,52.493,51.478C264.474,747.345,235.864,738.379,235.864,738.363z"/>
	</g>
	<g id="logo_17_">
		<path class="st1" d="M433.658,744.506c0,0,38.57-20.438,55.593-60.602l1.569-3.686l0,0v-0.047l0,0l0.173-0.397l0,0l0.026-0.052
			l0,0l1.569-3.691c17.008-40.117,4.878-82.054,4.878-82.054c-18.153-64.272-72.909-86.838-72.909-86.838
			s-24.751,48.242-5.877,104.232c0,0,12.266,33.922,35.819,52.942l0.633,0.523l-0.821-0.115
			c-30.047-3.691-62.96,11.074-62.96,11.074c-53.345,25.368-70.802,76.705-70.802,76.705S374.844,776.154,433.658,744.506z
			 M473.195,577.811c24.997,46.595,7.32,83.565,7.32,83.565c-32.034-14.441-46.391-54.662-46.391-54.662
			c-15.894-38.287,0.471-73.521,0.471-73.521c25.133,17.834,38.622,44.619,38.622,44.619H473.195z M405.158,738.306
			c0,0-28.61,8.956-58.887,3.283c0,0,13.923-36.259,52.493-51.457c0,0,38.894-17.656,71.56-4.658c0,0-14.279,38.413-65.145,52.848
			L405.158,738.306z"/>
		<path class="st1" d="M640.371,752.574c0,0-17.452-51.342-70.781-76.716c0,0-32.907-14.749-62.96-11.089l-0.81,0.115l0.633-0.523
			c23.548-19.021,35.83-52.942,35.83-52.942c18.874-55.969-5.856-104.217-5.856-104.217s-54.741,22.555-72.909,86.859
			c0,0-12.14,41.926,4.857,82.054l1.569,3.691l0,0v0.047l0,0l0.173,0.403l0,0l0.026,0.047l0,0l1.569,3.691
			c16.997,40.122,55.567,60.576,55.567,60.576C586.075,776.237,640.371,752.574,640.371,752.574z M480.431,661.428
			c0,0-17.672-36.97,7.341-83.554c0,0,13.468-26.78,38.611-44.608c0,0,16.359,35.234,0.455,73.526c0,0-14.373,40.216-46.407,54.647
			V661.428z M555.766,738.363c-50.867-14.451-65.124-52.869-65.124-52.869c32.651-12.951,71.54,4.706,71.54,4.706
			c38.564,15.214,52.493,51.478,52.493,51.478C584.376,747.345,555.766,738.379,555.766,738.363z"/>
	</g>
	<g id="logo_16_">
		<path class="st1" d="M753.56,744.506c0,0,38.57-20.438,55.593-60.602l1.568-3.686l0,0v-0.047l0,0l0.173-0.397l0,0l0.026-0.052l0,0
			l1.568-3.691c17.008-40.117,4.878-82.054,4.878-82.054c-18.153-64.272-72.909-86.838-72.909-86.838s-24.751,48.242-5.877,104.232
			c0,0,12.266,33.922,35.819,52.942l0.633,0.523l-0.821-0.115c-30.047-3.691-62.96,11.074-62.96,11.074
			c-53.345,25.368-70.802,76.705-70.802,76.705S694.746,776.154,753.56,744.506z M793.097,577.811
			c24.997,46.595,7.32,83.565,7.32,83.565c-32.034-14.441-46.391-54.662-46.391-54.662c-15.894-38.287,0.471-73.521,0.471-73.521
			c25.133,17.834,38.622,44.619,38.622,44.619H793.097z M725.06,738.306c0,0-28.61,8.956-58.887,3.283
			c0,0,13.923-36.259,52.493-51.457c0,0,38.894-17.656,71.56-4.658c0,0-14.279,38.413-65.145,52.848L725.06,738.306z"/>
		<path class="st1" d="M960.273,752.574c0,0-17.452-51.342-70.781-76.716c0,0-32.907-14.749-62.96-11.089l-0.81,0.115l0.633-0.523
			c23.549-19.021,35.83-52.942,35.83-52.942c18.874-55.969-5.856-104.217-5.856-104.217s-54.741,22.555-72.909,86.859
			c0,0-12.14,41.926,4.857,82.054l1.568,3.691l0,0v0.047l0,0l0.173,0.403l0,0l0.026,0.047l0,0l1.569,3.691
			c16.997,40.122,55.567,60.576,55.567,60.576C905.977,776.237,960.273,752.574,960.273,752.574z M800.333,661.428
			c0,0-17.672-36.97,7.341-83.554c0,0,13.468-26.78,38.611-44.608c0,0,16.36,35.234,0.455,73.526c0,0-14.373,40.216-46.407,54.647
			V661.428z M875.668,738.363c-50.867-14.451-65.124-52.869-65.124-52.869c32.651-12.951,71.54,4.706,71.54,4.706
			c38.564,15.214,52.493,51.478,52.493,51.478C904.278,747.345,875.668,738.379,875.668,738.363z"/>
	</g>
	<g>
		<path class="st1" d="M960.273,768.978c0,0,17.457,51.337,70.802,76.705c0,0,32.912,14.765,62.96,11.074l0.821-0.115l-0.633,0.523
			c-23.554,19.021-35.819,52.942-35.819,52.942c-18.874,55.99,5.877,104.232,5.877,104.232s54.757-22.566,72.909-86.838
			c0,0,12.13-41.937-4.878-82.054l-1.568-3.691l0,0l-0.026-0.052l0,0l-0.173-0.397l0,0v-0.047l0,0l-1.568-3.686
			c-17.024-40.164-55.593-60.602-55.593-60.602C1014.57,745.325,960.273,768.978,960.273,768.978z M1112.941,943.668
			c0,0-13.489,26.785-38.622,44.619c0,0-16.365-35.234-0.471-73.521c0,0,14.357-40.222,46.391-54.662c0,0,17.677,36.97-7.32,83.565
			H1112.941z M1044.905,783.158c50.867,14.435,65.145,52.848,65.145,52.848c-32.667,12.998-71.561-4.658-71.561-4.658
			c-38.57-15.199-52.493-51.457-52.493-51.457c30.277-5.673,58.887,3.283,58.887,3.283L1044.905,783.158z"/>
		<path class="st1" d="M1167.002,776.91c0,0-38.57,20.453-55.567,60.576l-1.568,3.691l0,0l-0.026,0.047l0,0l-0.173,0.403l0,0v0.047
			l0,0l-1.568,3.691c-16.997,40.128-4.857,82.054-4.857,82.054c18.169,64.304,72.909,86.859,72.909,86.859
			s24.73-48.247,5.856-104.217c0,0-12.281-33.922-35.83-52.942l-0.633-0.523l0.81,0.115c30.053,3.66,62.96-11.089,62.96-11.089
			c53.329-25.373,70.781-76.716,70.781-76.716S1225.801,745.242,1167.002,776.91z M1120.156,860.041
			c32.034,14.43,46.407,54.647,46.407,54.647c15.905,38.292-0.455,73.526-0.455,73.526c-25.143-17.829-38.611-44.608-38.611-44.608
			c-25.012-46.585-7.341-83.554-7.341-83.554V860.041z M1254.4,779.801c0,0-13.928,36.264-52.493,51.478
			c0,0-38.889,17.656-71.54,4.706c0,0,14.258-38.418,65.124-52.869C1195.492,783.1,1224.101,774.134,1254.4,779.801z"/>
	</g>
	<g id="logo_15_">
		<path class="st1" d="M0.646,768.978c0,0,17.457,51.337,70.802,76.705c0,0,32.912,14.765,62.96,11.074l0.821-0.115l-0.633,0.523
			c-23.554,19.021-35.819,52.942-35.819,52.942c-18.874,55.99,5.877,104.232,5.877,104.232s54.757-22.566,72.909-86.838
			c0,0,12.13-41.937-4.878-82.054l-1.568-3.691l0,0l-0.026-0.052l0,0l-0.173-0.397l0,0v-0.047l0,0l-1.569-3.686
			c-17.024-40.164-55.593-60.602-55.593-60.602C54.942,745.325,0.646,768.978,0.646,768.978z M153.314,943.668
			c0,0-13.489,26.785-38.622,44.619c0,0-16.365-35.234-0.471-73.521c0,0,14.357-40.222,46.391-54.662c0,0,17.677,36.97-7.32,83.565
			H153.314z M85.277,783.158c50.867,14.435,65.145,52.848,65.145,52.848c-32.667,12.998-71.56-4.658-71.56-4.658
			c-38.57-15.199-52.493-51.457-52.493-51.457c30.277-5.673,58.887,3.283,58.887,3.283L85.277,783.158z"/>
		<path class="st1" d="M207.375,776.91c0,0-38.57,20.453-55.567,60.576l-1.569,3.691l0,0l-0.026,0.047l0,0l-0.173,0.403l0,0v0.047
			l0,0l-1.568,3.691c-16.997,40.128-4.857,82.054-4.857,82.054c18.169,64.304,72.909,86.859,72.909,86.859
			s24.73-48.247,5.856-104.217c0,0-12.281-33.922-35.83-52.942l-0.633-0.523l0.81,0.115c30.053,3.66,62.96-11.089,62.96-11.089
			c53.329-25.373,70.781-76.716,70.781-76.716S266.173,745.242,207.375,776.91z M160.529,860.041
			c32.034,14.43,46.407,54.647,46.407,54.647c15.905,38.292-0.455,73.526-0.455,73.526c-25.143-17.829-38.611-44.608-38.611-44.608
			c-25.012-46.585-7.341-83.554-7.341-83.554V860.041z M294.772,779.801c0,0-13.928,36.264-52.493,51.478
			c0,0-38.889,17.656-71.54,4.706c0,0,14.258-38.418,65.124-52.869C235.864,783.1,264.474,774.134,294.772,779.801z"/>
	</g>
	<g id="logo_13_">
		<path class="st1" d="M320.548,768.978c0,0,17.457,51.337,70.802,76.705c0,0,32.912,14.765,62.96,11.074l0.821-0.115l-0.633,0.523
			c-23.554,19.021-35.819,52.942-35.819,52.942c-18.874,55.99,5.877,104.232,5.877,104.232s54.757-22.566,72.909-86.838
			c0,0,12.13-41.937-4.878-82.054l-1.569-3.691l0,0l-0.026-0.052l0,0l-0.173-0.397l0,0v-0.047l0,0l-1.569-3.686
			c-17.024-40.164-55.593-60.602-55.593-60.602C374.844,745.325,320.548,768.978,320.548,768.978z M473.216,943.668
			c0,0-13.489,26.785-38.622,44.619c0,0-16.365-35.234-0.471-73.521c0,0,14.357-40.222,46.391-54.662c0,0,17.677,36.97-7.32,83.565
			H473.216z M405.179,783.158c50.867,14.435,65.145,52.848,65.145,52.848c-32.667,12.998-71.56-4.658-71.56-4.658
			c-38.57-15.199-52.493-51.457-52.493-51.457c30.277-5.673,58.887,3.283,58.887,3.283L405.179,783.158z"/>
		<path class="st1" d="M527.277,776.91c0,0-38.57,20.453-55.567,60.576l-1.569,3.691l0,0l-0.026,0.047l0,0l-0.173,0.403l0,0v0.047
			l0,0l-1.569,3.691c-16.997,40.128-4.857,82.054-4.857,82.054c18.169,64.304,72.909,86.859,72.909,86.859
			s24.73-48.247,5.856-104.217c0,0-12.281-33.922-35.83-52.942l-0.633-0.523l0.81,0.115c30.053,3.66,62.96-11.089,62.96-11.089
			c53.329-25.373,70.781-76.716,70.781-76.716S586.075,745.242,527.277,776.91z M480.431,860.041
			c32.034,14.43,46.407,54.647,46.407,54.647c15.905,38.292-0.455,73.526-0.455,73.526c-25.143-17.829-38.611-44.608-38.611-44.608
			c-25.012-46.585-7.341-83.554-7.341-83.554V860.041z M614.674,779.801c0,0-13.928,36.264-52.493,51.478
			c0,0-38.888,17.656-71.54,4.706c0,0,14.258-38.418,65.124-52.869C555.766,783.1,584.376,774.134,614.674,779.801z"/>
	</g>
	<g id="logo_12_">
		<path class="st1" d="M640.45,768.978c0,0,17.457,51.337,70.802,76.705c0,0,32.913,14.765,62.96,11.074l0.821-0.115l-0.633,0.523
			c-23.554,19.021-35.819,52.942-35.819,52.942c-18.874,55.99,5.877,104.232,5.877,104.232s54.757-22.566,72.909-86.838
			c0,0,12.13-41.937-4.878-82.054l-1.568-3.691l0,0l-0.026-0.052l0,0l-0.173-0.397l0,0v-0.047l0,0l-1.568-3.686
			c-17.024-40.164-55.593-60.602-55.593-60.602C694.746,745.325,640.45,768.978,640.45,768.978z M793.118,943.668
			c0,0-13.489,26.785-38.622,44.619c0,0-16.365-35.234-0.471-73.521c0,0,14.357-40.222,46.391-54.662c0,0,17.677,36.97-7.32,83.565
			H793.118z M725.081,783.158c50.867,14.435,65.145,52.848,65.145,52.848c-32.667,12.998-71.56-4.658-71.56-4.658
			c-38.57-15.199-52.493-51.457-52.493-51.457c30.277-5.673,58.887,3.283,58.887,3.283L725.081,783.158z"/>
		<path class="st1" d="M847.179,776.91c0,0-38.57,20.453-55.567,60.576l-1.569,3.691l0,0l-0.026,0.047l0,0l-0.173,0.403l0,0v0.047
			l0,0l-1.568,3.691c-16.997,40.128-4.857,82.054-4.857,82.054c18.169,64.304,72.909,86.859,72.909,86.859
			s24.73-48.247,5.856-104.217c0,0-12.281-33.922-35.83-52.942l-0.633-0.523l0.81,0.115c30.053,3.66,62.96-11.089,62.96-11.089
			c53.329-25.373,70.781-76.716,70.781-76.716S905.977,745.242,847.179,776.91z M800.333,860.041
			c32.034,14.43,46.407,54.647,46.407,54.647c15.905,38.292-0.455,73.526-0.455,73.526c-25.143-17.829-38.611-44.608-38.611-44.608
			c-25.012-46.585-7.341-83.554-7.341-83.554V860.041z M934.576,779.801c0,0-13.928,36.264-52.493,51.478
			c0,0-38.888,17.656-71.54,4.706c0,0,14.258-38.418,65.124-52.869C875.668,783.1,904.278,774.134,934.576,779.801z"/>
	</g>
	<path class="st1" d="M113.756,1251.769c0,0,38.57-20.438,55.593-60.602l1.569-3.686l0,0v-0.047l0,0l0.173-0.397l0,0l0.026-0.052
		l0,0l1.568-3.691c17.008-40.117,4.878-82.054,4.878-82.054c-18.153-64.272-72.909-86.838-72.909-86.838
		s-24.751,48.242-5.877,104.232c0,0,12.266,33.922,35.819,52.942l0.633,0.523l-0.821-0.115c-30.047-3.691-62.96,11.074-62.96,11.074
		c-53.345,25.368-70.802,76.705-70.802,76.705S54.942,1283.416,113.756,1251.769z M153.293,1085.073
		c24.997,46.595,7.32,83.565,7.32,83.565c-32.034-14.441-46.391-54.662-46.391-54.662c-15.894-38.287,0.471-73.521,0.471-73.521
		c25.133,17.834,38.622,44.619,38.622,44.619H153.293z M85.256,1245.568c0,0-28.61,8.956-58.887,3.283
		c0,0,13.923-36.259,52.493-51.457c0,0,38.894-17.656,71.56-4.658c0,0-14.279,38.413-65.145,52.848L85.256,1245.568z"/>
	<path class="st1" d="M320.469,1259.836c0,0-17.452-51.343-70.781-76.716c0,0-32.907-14.749-62.96-11.089l-0.81,0.115l0.633-0.523
		c23.549-19.021,35.83-52.942,35.83-52.942c18.874-55.969-5.856-104.217-5.856-104.217s-54.741,22.555-72.909,86.859
		c0,0-12.14,41.926,4.857,82.054l1.568,3.691l0,0v0.047l0,0l0.173,0.403l0,0l0.026,0.047l0,0l1.569,3.691
		c16.997,40.122,55.567,60.576,55.567,60.576C266.173,1283.5,320.469,1259.836,320.469,1259.836z M160.529,1168.69
		c0,0-17.672-36.97,7.341-83.554c0,0,13.468-26.78,38.611-44.608c0,0,16.36,35.234,0.455,73.526c0,0-14.373,40.216-46.407,54.647
		V1168.69z M235.864,1245.625c-50.867-14.451-65.124-52.869-65.124-52.869c32.651-12.951,71.54,4.706,71.54,4.706
		c38.564,15.214,52.493,51.478,52.493,51.478C264.474,1254.608,235.864,1245.641,235.864,1245.625z"/>
	<path class="st1" d="M433.658,1251.769c0,0,38.57-20.438,55.593-60.602l1.569-3.686l0,0v-0.047l0,0l0.173-0.397l0,0l0.026-0.052
		l0,0l1.569-3.691c17.008-40.117,4.878-82.054,4.878-82.054c-18.153-64.272-72.909-86.838-72.909-86.838
		s-24.751,48.242-5.877,104.232c0,0,12.266,33.922,35.819,52.942l0.633,0.523l-0.821-0.115c-30.047-3.691-62.96,11.074-62.96,11.074
		c-53.345,25.368-70.802,76.705-70.802,76.705S374.844,1283.416,433.658,1251.769z M473.195,1085.073
		c24.997,46.595,7.32,83.565,7.32,83.565c-32.034-14.441-46.391-54.662-46.391-54.662c-15.894-38.287,0.471-73.521,0.471-73.521
		c25.133,17.834,38.622,44.619,38.622,44.619H473.195z M405.158,1245.568c0,0-28.61,8.956-58.887,3.283
		c0,0,13.923-36.259,52.493-51.457c0,0,38.894-17.656,71.56-4.658c0,0-14.279,38.413-65.145,52.848L405.158,1245.568z"/>
	<path class="st1" d="M640.371,1259.836c0,0-17.452-51.343-70.781-76.716c0,0-32.907-14.749-62.96-11.089l-0.81,0.115l0.633-0.523
		c23.548-19.021,35.83-52.942,35.83-52.942c18.874-55.969-5.856-104.217-5.856-104.217s-54.741,22.555-72.909,86.859
		c0,0-12.14,41.926,4.857,82.054l1.569,3.691l0,0v0.047l0,0l0.173,0.403l0,0l0.026,0.047l0,0l1.569,3.691
		c16.997,40.122,55.567,60.576,55.567,60.576C586.075,1283.5,640.371,1259.836,640.371,1259.836z M480.431,1168.69
		c0,0-17.672-36.97,7.341-83.554c0,0,13.468-26.78,38.611-44.608c0,0,16.359,35.234,0.455,73.526c0,0-14.373,40.216-46.407,54.647
		V1168.69z M555.766,1245.625c-50.867-14.451-65.124-52.869-65.124-52.869c32.651-12.951,71.54,4.706,71.54,4.706
		c38.564,15.214,52.493,51.478,52.493,51.478C584.376,1254.608,555.766,1245.641,555.766,1245.625z"/>
	<path class="st1" d="M753.56,1251.769c0,0,38.57-20.438,55.593-60.602l1.568-3.686l0,0v-0.047l0,0l0.173-0.397l0,0l0.026-0.052l0,0
		l1.568-3.691c17.008-40.117,4.878-82.054,4.878-82.054c-18.153-64.272-72.909-86.838-72.909-86.838s-24.751,48.242-5.877,104.232
		c0,0,12.266,33.922,35.819,52.942l0.633,0.523l-0.821-0.115c-30.047-3.691-62.96,11.074-62.96,11.074
		c-53.345,25.368-70.802,76.705-70.802,76.705S694.746,1283.416,753.56,1251.769z M793.097,1085.073
		c24.997,46.595,7.32,83.565,7.32,83.565c-32.034-14.441-46.391-54.662-46.391-54.662c-15.894-38.287,0.471-73.521,0.471-73.521
		c25.133,17.834,38.622,44.619,38.622,44.619H793.097z M725.06,1245.568c0,0-28.61,8.956-58.887,3.283
		c0,0,13.923-36.259,52.493-51.457c0,0,38.894-17.656,71.56-4.658c0,0-14.279,38.413-65.145,52.848L725.06,1245.568z"/>
	<path class="st1" d="M960.273,1259.836c0,0-17.452-51.343-70.781-76.716c0,0-32.907-14.749-62.96-11.089l-0.81,0.115l0.633-0.523
		c23.549-19.021,35.83-52.942,35.83-52.942c18.874-55.969-5.856-104.217-5.856-104.217s-54.741,22.555-72.909,86.859
		c0,0-12.14,41.926,4.857,82.054l1.568,3.691l0,0v0.047l0,0l0.173,0.403l0,0l0.026,0.047l0,0l1.569,3.691
		c16.997,40.122,55.567,60.576,55.567,60.576C905.977,1283.5,960.273,1259.836,960.273,1259.836z M800.333,1168.69
		c0,0-17.672-36.97,7.341-83.554c0,0,13.468-26.78,38.611-44.608c0,0,16.36,35.234,0.455,73.526c0,0-14.373,40.216-46.407,54.647
		V1168.69z M875.668,1245.625c-50.867-14.451-65.124-52.869-65.124-52.869c32.651-12.951,71.54,4.706,71.54,4.706
		c38.564,15.214,52.493,51.478,52.493,51.478C904.278,1254.608,875.668,1245.641,875.668,1245.625z"/>
	<g>
		<path class="st1" d="M0.646,1276.241c0,0,17.457,51.337,70.802,76.705c0,0,32.912,14.765,62.96,11.074l0.821-0.115l-0.633,0.523
			c-23.554,19.021-35.819,52.942-35.819,52.942c-18.874,55.99,5.877,104.232,5.877,104.232s54.757-22.566,72.909-86.838
			c0,0,12.13-41.937-4.878-82.054l-1.568-3.691l0,0l-0.026-0.052l0,0l-0.173-0.397l0,0v-0.047l0,0l-1.569-3.686
			c-17.024-40.164-55.593-60.602-55.593-60.602C54.942,1252.588,0.646,1276.241,0.646,1276.241z M153.314,1450.931
			c0,0-13.489,26.785-38.622,44.619c0,0-16.365-35.234-0.471-73.521c0,0,14.357-40.222,46.391-54.662c0,0,17.677,36.97-7.32,83.565
			H153.314z M85.277,1290.42c50.867,14.436,65.145,52.848,65.145,52.848c-32.667,12.998-71.56-4.658-71.56-4.658
			c-38.57-15.199-52.493-51.458-52.493-51.458c30.277-5.673,58.887,3.283,58.887,3.283L85.277,1290.42z"/>
		<path class="st1" d="M207.375,1284.172c0,0-38.57,20.453-55.567,60.576l-1.569,3.691l0,0l-0.026,0.047l0,0l-0.173,0.403l0,0v0.047
			l0,0l-1.568,3.691c-16.997,40.128-4.857,82.054-4.857,82.054c18.169,64.304,72.909,86.859,72.909,86.859
			s24.73-48.247,5.856-104.217c0,0-12.281-33.922-35.83-52.942l-0.633-0.523l0.81,0.115c30.053,3.66,62.96-11.089,62.96-11.089
			c53.329-25.373,70.781-76.716,70.781-76.716S266.173,1252.504,207.375,1284.172z M160.529,1367.303
			c32.034,14.43,46.407,54.647,46.407,54.647c15.905,38.292-0.455,73.526-0.455,73.526c-25.143-17.829-38.611-44.608-38.611-44.608
			c-25.012-46.585-7.341-83.554-7.341-83.554V1367.303z M294.772,1287.063c0,0-13.928,36.264-52.493,51.478
			c0,0-38.889,17.656-71.54,4.705c0,0,14.258-38.418,65.124-52.869C235.864,1290.363,264.474,1281.396,294.772,1287.063z"/>
	</g>
	<g>
		<path class="st1" d="M320.548,1276.241c0,0,17.457,51.337,70.802,76.705c0,0,32.912,14.765,62.96,11.074l0.821-0.115l-0.633,0.523
			c-23.554,19.021-35.819,52.942-35.819,52.942c-18.874,55.99,5.877,104.232,5.877,104.232s54.757-22.566,72.909-86.838
			c0,0,12.13-41.937-4.878-82.054l-1.569-3.691l0,0l-0.026-0.052l0,0l-0.173-0.397l0,0v-0.047l0,0l-1.569-3.686
			c-17.024-40.164-55.593-60.602-55.593-60.602C374.844,1252.588,320.548,1276.241,320.548,1276.241z M473.216,1450.931
			c0,0-13.489,26.785-38.622,44.619c0,0-16.365-35.234-0.471-73.521c0,0,14.357-40.222,46.391-54.662c0,0,17.677,36.97-7.32,83.565
			H473.216z M405.179,1290.42c50.867,14.436,65.145,52.848,65.145,52.848c-32.667,12.998-71.56-4.658-71.56-4.658
			c-38.57-15.199-52.493-51.458-52.493-51.458c30.277-5.673,58.887,3.283,58.887,3.283L405.179,1290.42z"/>
		<path class="st1" d="M527.277,1284.172c0,0-38.57,20.453-55.567,60.576l-1.569,3.691l0,0l-0.026,0.047l0,0l-0.173,0.403l0,0v0.047
			l0,0l-1.569,3.691c-16.997,40.128-4.857,82.054-4.857,82.054c18.169,64.304,72.909,86.859,72.909,86.859
			s24.73-48.247,5.856-104.217c0,0-12.281-33.922-35.83-52.942l-0.633-0.523l0.81,0.115c30.053,3.66,62.96-11.089,62.96-11.089
			c53.329-25.373,70.781-76.716,70.781-76.716S586.075,1252.504,527.277,1284.172z M480.431,1367.303
			c32.034,14.43,46.407,54.647,46.407,54.647c15.905,38.292-0.455,73.526-0.455,73.526c-25.143-17.829-38.611-44.608-38.611-44.608
			c-25.012-46.585-7.341-83.554-7.341-83.554V1367.303z M614.674,1287.063c0,0-13.928,36.264-52.493,51.478
			c0,0-38.888,17.656-71.54,4.705c0,0,14.258-38.418,65.124-52.869C555.766,1290.363,584.376,1281.396,614.674,1287.063z"/>
	</g>
	<g>
		<path class="st1" d="M113.756,1758.907c0,0,38.57-20.438,55.593-60.602l1.569-3.686l0,0v-0.047l0,0l0.173-0.397l0,0l0.026-0.052
			l0,0l1.568-3.691c17.008-40.117,4.878-82.054,4.878-82.054c-18.153-64.272-72.909-86.838-72.909-86.838
			s-24.751,48.242-5.877,104.232c0,0,12.266,33.922,35.819,52.942l0.633,0.523l-0.821-0.115
			c-30.047-3.691-62.96,11.074-62.96,11.074c-53.345,25.368-70.802,76.705-70.802,76.705S54.942,1790.554,113.756,1758.907z
			 M153.293,1592.211c24.997,46.595,7.32,83.565,7.32,83.565c-32.034-14.441-46.391-54.662-46.391-54.662
			c-15.894-38.287,0.471-73.521,0.471-73.521c25.133,17.834,38.622,44.619,38.622,44.619H153.293z M85.256,1752.706
			c0,0-28.61,8.956-58.887,3.283c0,0,13.923-36.259,52.493-51.457c0,0,38.894-17.656,71.56-4.658c0,0-14.279,38.413-65.145,52.848
			L85.256,1752.706z"/>
		<path class="st1" d="M320.469,1766.974c0,0-17.452-51.342-70.781-76.716c0,0-32.907-14.749-62.96-11.089l-0.81,0.115l0.633-0.523
			c23.549-19.021,35.83-52.942,35.83-52.942c18.874-55.969-5.856-104.217-5.856-104.217s-54.741,22.555-72.909,86.859
			c0,0-12.14,41.926,4.857,82.054l1.568,3.691l0,0v0.047l0,0l0.173,0.403l0,0l0.026,0.047l0,0l1.569,3.691
			c16.997,40.122,55.567,60.576,55.567,60.576C266.173,1790.638,320.469,1766.974,320.469,1766.974z M160.529,1675.828
			c0,0-17.672-36.97,7.341-83.554c0,0,13.468-26.78,38.611-44.608c0,0,16.36,35.234,0.455,73.526c0,0-14.373,40.216-46.407,54.647
			V1675.828z M235.864,1752.763c-50.867-14.451-65.124-52.869-65.124-52.869c32.651-12.951,71.54,4.706,71.54,4.706
			c38.564,15.214,52.493,51.478,52.493,51.478C264.474,1761.746,235.864,1752.779,235.864,1752.763z"/>
	</g>
	<g>
		<path class="st1" d="M0.646,1783.379c0,0,17.457,51.337,70.802,76.705c0,0,32.912,14.765,62.96,11.074l0.821-0.115l-0.633,0.523
			c-23.554,19.021-35.819,52.942-35.819,52.942c-18.874,55.99,5.877,104.232,5.877,104.232s54.757-22.566,72.909-86.838
			c0,0,12.13-41.937-4.878-82.054l-1.568-3.691l0,0l-0.026-0.052l0,0l-0.173-0.397l0,0v-0.047l0,0l-1.569-3.686
			c-17.024-40.164-55.593-60.602-55.593-60.602C54.942,1759.726,0.646,1783.379,0.646,1783.379z M153.314,1958.068
			c0,0-13.489,26.785-38.622,44.619c0,0-16.365-35.234-0.471-73.521c0,0,14.357-40.222,46.391-54.662c0,0,17.677,36.97-7.32,83.565
			H153.314z M85.277,1797.558c50.867,14.435,65.145,52.848,65.145,52.848c-32.667,12.998-71.56-4.658-71.56-4.658
			c-38.57-15.199-52.493-51.457-52.493-51.457c30.277-5.673,58.887,3.283,58.887,3.283L85.277,1797.558z"/>
		<path class="st1" d="M207.375,1791.31c0,0-38.57,20.453-55.567,60.576l-1.569,3.691l0,0l-0.026,0.047l0,0l-0.173,0.403l0,0v0.047
			l0,0l-1.568,3.691c-16.997,40.128-4.857,82.054-4.857,82.054c18.169,64.303,72.909,86.859,72.909,86.859
			s24.73-48.247,5.856-104.217c0,0-12.281-33.922-35.83-52.942l-0.633-0.523l0.81,0.115c30.053,3.66,62.96-11.089,62.96-11.089
			c53.329-25.373,70.781-76.716,70.781-76.716S266.173,1759.642,207.375,1791.31z M160.529,1874.441
			c32.034,14.43,46.407,54.647,46.407,54.647c15.905,38.292-0.455,73.526-0.455,73.526c-25.143-17.829-38.611-44.608-38.611-44.608
			c-25.012-46.585-7.341-83.554-7.341-83.554V1874.441z M294.772,1794.201c0,0-13.928,36.264-52.493,51.478
			c0,0-38.889,17.656-71.54,4.706c0,0,14.258-38.418,65.124-52.869C235.864,1797.5,264.474,1788.534,294.772,1794.201z"/>
	</g>
</g>
</svg>
