<?xml version="1.0" encoding="utf-8"?>
<!-- Generator: Adobe Illustrator 24.1.3, SVG Export Plug-In . SVG Version: 6.00 Build 0)  -->
<svg version="1.1" xmlns="http://www.w3.org/2000/svg" xmlns:xlink="http://www.w3.org/1999/xlink" x="0px" y="0px"
	 viewBox="0 0 1920 2029" style="enable-background:new 0 0 1920 2029;" xml:space="preserve">
<style type="text/css">
	.st0{fill:#FFD2BC;}
	.st1{fill:#003A4C;}
</style>
<g id="Layer_1">
	<g id="logo-bg_16_">
		<path class="st0" d="M801.31,65.12l52.111-50.448c23.047,84.088-36.75,138.274-36.75,138.274l-16.144-83.497l-18.07,81.615
			C719.607,95,749.409,14.672,749.409,14.672C773.7,23.393,801.31,65.12,801.31,65.12z"/>
		<path class="st0" d="M742.366,165.656c45.23-4.109,54.375,14.07,54.375,14.07c-35.5,90.937-145.74,61.041-145.74,61.041
			C657.85,199.656,742.34,165.656,742.366,165.656z"/>
		<path class="st0" d="M809.111,176.856c98.941-29.65,133.584,64.534,133.584,64.534c-114.391,17.416-134.332-62.813-134.332-62.813
			"/>
	</g>
	<g id="logo-bg_14_">
		<path class="st0" d="M481.408,65.12l52.111-50.448c23.047,84.088-36.75,138.274-36.75,138.274l-16.144-83.497l-18.07,81.615
			C399.705,95,429.507,14.672,429.507,14.672C453.798,23.393,481.408,65.12,481.408,65.12z"/>
		<path class="st0" d="M422.464,165.656c45.23-4.109,54.375,14.07,54.375,14.07c-35.5,90.937-145.74,61.041-145.74,61.041
			C337.948,199.656,422.438,165.656,422.464,165.656z"/>
		<path class="st0" d="M489.209,176.856c98.941-29.65,133.584,64.534,133.584,64.534c-114.391,17.416-134.332-62.813-134.332-62.813
			"/>
	</g>
	<g id="logo-bg_12_">
		<path class="st0" d="M161.506,65.12l52.111-50.448c23.047,84.088-36.75,138.274-36.75,138.274l-16.144-83.497l-18.07,81.615
			C79.803,95,109.605,14.672,109.605,14.672C133.896,23.393,161.506,65.12,161.506,65.12z"/>
		<path class="st0" d="M102.562,165.656c45.23-4.109,54.375,14.07,54.375,14.07c-35.501,90.937-145.74,61.041-145.74,61.041
			C18.046,199.656,102.536,165.656,102.562,165.656z"/>
		<path class="st0" d="M169.307,176.856c98.941-29.65,133.584,64.534,133.584,64.534C188.5,258.805,168.56,178.576,168.56,178.576"
			/>
	</g>
	<g id="logo-bg_5_">
		<path class="st0" d="M749.409,492.531c0,0-29.802-80.328,33.048-136.392l18.07,81.615l16.144-83.497
			c0,0,59.797,54.187,36.75,138.274l-52.111-50.448C801.31,442.083,773.7,483.81,749.409,492.531z"/>
		<path class="st0" d="M651.001,266.436c0,0,110.24-29.896,145.74,61.041c0,0-9.144,18.179-54.375,14.069
			C742.34,341.547,657.85,307.547,651.001,266.436z"/>
		<path class="st0" d="M808.364,328.627c0,0,19.941-80.229,134.332-62.813c0,0-34.643,94.184-133.584,64.534"/>
	</g>
	<g id="logo-bg_2_">
		<path class="st0" d="M429.507,492.531c0,0-29.802-80.328,33.048-136.392l18.07,81.615l16.144-83.497
			c0,0,59.797,54.187,36.75,138.274l-52.111-50.448C481.408,442.083,453.798,483.81,429.507,492.531z"/>
		<path class="st0" d="M331.099,266.436c0,0,110.24-29.896,145.74,61.041c0,0-9.144,18.179-54.375,14.069
			C422.438,341.547,337.948,307.547,331.099,266.436z"/>
		<path class="st0" d="M488.462,328.627c0,0,19.941-80.229,134.332-62.813c0,0-34.643,94.184-133.584,64.534"/>
	</g>
	<g id="logo-bg_9_">
		<path class="st0" d="M801.31,572.258l52.111-50.448c23.047,84.088-36.75,138.274-36.75,138.274l-16.144-83.497l-18.07,81.615
			c-62.85-56.064-33.048-136.392-33.048-136.392C773.7,530.531,801.31,572.258,801.31,572.258z"/>
		<path class="st0" d="M742.366,672.794c45.23-4.109,54.375,14.07,54.375,14.07c-35.5,90.937-145.74,61.041-145.74,61.041
			C657.85,706.794,742.34,672.794,742.366,672.794z"/>
		<path class="st0" d="M809.111,683.993c98.941-29.65,133.584,64.534,133.584,64.534c-114.391,17.416-134.332-62.813-134.332-62.813
			"/>
	</g>
	<path class="st0" d="M749.409,999.669c0,0-29.802-80.328,33.048-136.392l18.07,81.615l16.144-83.497
		c0,0,59.797,54.187,36.75,138.274l-52.111-50.448C801.31,949.221,773.7,990.948,749.409,999.669z"/>
	<path class="st0" d="M651.001,773.574c0,0,110.24-29.896,145.74,61.041c0,0-9.144,18.179-54.375,14.07
		C742.34,848.685,657.85,814.685,651.001,773.574z"/>
	<path class="st0" d="M808.364,835.765c0,0,19.941-80.229,134.332-62.813c0,0-34.643,94.184-133.584,64.534"/>
	<g id="logo-bg_24_">
		<path class="st0" d="M1760.938,65.12l52.111-50.448c23.047,84.088-36.75,138.274-36.75,138.274l-16.144-83.497l-18.07,81.615
			c-62.85-56.064-33.048-136.392-33.048-136.392C1733.327,23.393,1760.938,65.12,1760.938,65.12z"/>
		<path class="st0" d="M1701.994,165.656c45.23-4.109,54.375,14.07,54.375,14.07c-35.5,90.937-145.74,61.041-145.74,61.041
			C1617.477,199.656,1701.968,165.656,1701.994,165.656z"/>
		<path class="st0" d="M1768.739,176.856c98.941-29.65,133.584,64.534,133.584,64.534
			c-114.391,17.416-134.332-62.813-134.332-62.813"/>
	</g>
	<g id="logo-bg_23_">
		<path class="st0" d="M1441.036,65.12l52.111-50.448c23.047,84.088-36.75,138.274-36.75,138.274l-16.144-83.497l-18.07,81.615
			c-62.85-56.064-33.048-136.392-33.048-136.392C1413.425,23.393,1441.036,65.12,1441.036,65.12z"/>
		<path class="st0" d="M1382.092,165.656c45.23-4.109,54.375,14.07,54.375,14.07c-35.5,90.937-145.74,61.041-145.74,61.041
			C1297.575,199.656,1382.066,165.656,1382.092,165.656z"/>
		<path class="st0" d="M1448.837,176.856c98.941-29.65,133.584,64.534,133.584,64.534
			c-114.391,17.416-134.332-62.813-134.332-62.813"/>
	</g>
	<g id="logo-bg_22_">
		<path class="st0" d="M1121.134,65.12l52.111-50.448c23.047,84.088-36.75,138.274-36.75,138.274l-16.144-83.497l-18.07,81.615
			c-62.85-56.064-33.048-136.392-33.048-136.392C1093.523,23.393,1121.134,65.12,1121.134,65.12z"/>
		<path class="st0" d="M1062.19,165.656c45.23-4.109,54.375,14.07,54.375,14.07c-35.5,90.937-145.74,61.041-145.74,61.041
			C977.673,199.656,1062.164,165.656,1062.19,165.656z"/>
		<path class="st0" d="M1128.935,176.856c98.941-29.65,133.584,64.534,133.584,64.534
			c-114.391,17.416-134.332-62.813-134.332-62.813"/>
	</g>
	<g id="logo-bg_21_">
		<path class="st0" d="M1709.036,492.531c0,0-29.802-80.328,33.048-136.392l18.07,81.615l16.144-83.497
			c0,0,59.797,54.187,36.75,138.274l-52.111-50.448C1760.938,442.083,1733.327,483.81,1709.036,492.531z"/>
		<path class="st0" d="M1610.628,266.436c0,0,110.24-29.896,145.74,61.041c0,0-9.144,18.179-54.375,14.069
			C1701.968,341.547,1617.477,307.547,1610.628,266.436z"/>
		<path class="st0" d="M1767.991,328.627c0,0,19.941-80.229,134.332-62.813c0,0-34.643,94.184-133.584,64.534"/>
	</g>
	<g id="logo-bg_20_">
		<path class="st0" d="M1389.134,492.531c0,0-29.802-80.328,33.048-136.392l18.07,81.615l16.144-83.497
			c0,0,59.797,54.187,36.75,138.274l-52.111-50.448C1441.036,442.083,1413.425,483.81,1389.134,492.531z"/>
		<path class="st0" d="M1290.726,266.436c0,0,110.24-29.896,145.74,61.041c0,0-9.144,18.179-54.375,14.069
			C1382.066,341.547,1297.575,307.547,1290.726,266.436z"/>
		<path class="st0" d="M1448.089,328.627c0,0,19.941-80.229,134.332-62.813c0,0-34.643,94.184-133.584,64.534"/>
	</g>
	<g id="logo-bg_19_">
		<path class="st0" d="M1069.232,492.531c0,0-29.802-80.328,33.048-136.392l18.07,81.615l16.144-83.497
			c0,0,59.797,54.187,36.75,138.274l-52.111-50.448C1121.134,442.083,1093.523,483.81,1069.232,492.531z"/>
		<path class="st0" d="M970.824,266.436c0,0,110.24-29.896,145.74,61.041c0,0-9.144,18.179-54.375,14.069
			C1062.164,341.547,977.673,307.547,970.824,266.436z"/>
		<path class="st0" d="M1128.187,328.627c0,0,19.941-80.229,134.332-62.813c0,0-34.643,94.184-133.584,64.534"/>
	</g>
	<g id="logo-bg_18_">
		<path class="st0" d="M1760.938,572.258l52.111-50.448c23.047,84.088-36.75,138.274-36.75,138.274l-16.144-83.497l-18.07,81.615
			c-62.85-56.064-33.048-136.392-33.048-136.392C1733.327,530.531,1760.938,572.258,1760.938,572.258z"/>
		<path class="st0" d="M1701.994,672.794c45.23-4.109,54.375,14.07,54.375,14.07c-35.5,90.937-145.74,61.041-145.74,61.041
			C1617.477,706.794,1701.968,672.794,1701.994,672.794z"/>
		<path class="st0" d="M1768.739,683.993c98.941-29.65,133.584,64.534,133.584,64.534
			c-114.391,17.416-134.332-62.813-134.332-62.813"/>
	</g>
	<g id="logo-bg_17_">
		<path class="st0" d="M1441.036,572.258l52.111-50.448c23.047,84.088-36.75,138.274-36.75,138.274l-16.144-83.497l-18.07,81.615
			c-62.85-56.064-33.048-136.392-33.048-136.392C1413.425,530.531,1441.036,572.258,1441.036,572.258z"/>
		<path class="st0" d="M1382.092,672.794c45.23-4.109,54.375,14.07,54.375,14.07c-35.5,90.937-145.74,61.041-145.74,61.041
			C1297.575,706.794,1382.066,672.794,1382.092,672.794z"/>
		<path class="st0" d="M1448.837,683.993c98.941-29.65,133.584,64.534,133.584,64.534
			c-114.391,17.416-134.332-62.813-134.332-62.813"/>
	</g>
	<g id="logo-bg_15_">
		<path class="st0" d="M1121.134,572.258l52.111-50.448c23.047,84.088-36.75,138.274-36.75,138.274l-16.144-83.497l-18.07,81.615
			c-62.85-56.064-33.048-136.392-33.048-136.392C1093.523,530.531,1121.134,572.258,1121.134,572.258z"/>
		<path class="st0" d="M1062.19,672.794c45.23-4.109,54.375,14.07,54.375,14.07c-35.5,90.937-145.74,61.041-145.74,61.041
			C977.673,706.794,1062.164,672.794,1062.19,672.794z"/>
		<path class="st0" d="M1128.935,683.993c98.941-29.65,133.584,64.534,133.584,64.534
			c-114.391,17.416-134.332-62.813-134.332-62.813"/>
	</g>
	<g id="logo-bg_13_">
		<path class="st0" d="M1709.036,999.669c0,0-29.802-80.328,33.048-136.392l18.07,81.615l16.144-83.497
			c0,0,59.797,54.187,36.75,138.274l-52.111-50.448C1760.938,949.221,1733.327,990.948,1709.036,999.669z"/>
		<path class="st0" d="M1610.628,773.574c0,0,110.24-29.896,145.74,61.041c0,0-9.144,18.179-54.375,14.07
			C1701.968,848.685,1617.477,814.685,1610.628,773.574z"/>
		<path class="st0" d="M1767.991,835.765c0,0,19.941-80.229,134.332-62.813c0,0-34.643,94.184-133.584,64.534"/>
	</g>
	<g id="logo-bg_11_">
		<path class="st0" d="M1389.134,999.669c0,0-29.802-80.328,33.048-136.392l18.07,81.615l16.144-83.497
			c0,0,59.797,54.187,36.75,138.274l-52.111-50.448C1441.036,949.221,1413.425,990.948,1389.134,999.669z"/>
		<path class="st0" d="M1290.726,773.574c0,0,110.24-29.896,145.74,61.041c0,0-9.144,18.179-54.375,14.07
			C1382.066,848.685,1297.575,814.685,1290.726,773.574z"/>
		<path class="st0" d="M1448.089,835.765c0,0,19.941-80.229,134.332-62.813c0,0-34.643,94.184-133.584,64.534"/>
	</g>
	<g id="logo-bg_10_">
		<path class="st0" d="M1069.232,999.669c0,0-29.802-80.328,33.048-136.392l18.07,81.615l16.144-83.497
			c0,0,59.797,54.187,36.75,138.274l-52.111-50.448C1121.134,949.221,1093.523,990.948,1069.232,999.669z"/>
		<path class="st0" d="M970.824,773.574c0,0,110.24-29.896,145.74,61.041c0,0-9.144,18.179-54.375,14.07
			C1062.164,848.685,977.673,814.685,970.824,773.574z"/>
		<path class="st0" d="M1128.187,835.765c0,0,19.941-80.229,134.332-62.813c0,0-34.643,94.184-133.584,64.534"/>
	</g>
	<g id="logo-bg_36_">
		<path class="st0" d="M1760.938,1079.521l52.111-50.448c23.047,84.088-36.75,138.274-36.75,138.274l-16.144-83.497l-18.07,81.615
			c-62.85-56.064-33.048-136.392-33.048-136.392C1733.327,1037.793,1760.938,1079.521,1760.938,1079.521z"/>
		<path class="st0" d="M1701.994,1180.057c45.23-4.109,54.375,14.07,54.375,14.07c-35.5,90.937-145.74,61.041-145.74,61.041
			C1617.477,1214.057,1701.968,1180.057,1701.994,1180.057z"/>
		<path class="st0" d="M1768.739,1191.256c98.941-29.65,133.584,64.534,133.584,64.534
			c-114.391,17.416-134.332-62.813-134.332-62.813"/>
	</g>
	<g id="logo-bg_35_">
		<path class="st0" d="M1441.036,1079.521l52.111-50.448c23.047,84.088-36.75,138.274-36.75,138.274l-16.144-83.497l-18.07,81.615
			c-62.85-56.064-33.048-136.392-33.048-136.392C1413.425,1037.793,1441.036,1079.521,1441.036,1079.521z"/>
		<path class="st0" d="M1382.092,1180.057c45.23-4.109,54.375,14.07,54.375,14.07c-35.5,90.937-145.74,61.041-145.74,61.041
			C1297.575,1214.057,1382.066,1180.057,1382.092,1180.057z"/>
		<path class="st0" d="M1448.837,1191.256c98.941-29.65,133.584,64.534,133.584,64.534
			c-114.391,17.416-134.332-62.813-134.332-62.813"/>
	</g>
	<g id="logo-bg_34_">
		<path class="st0" d="M1121.134,1079.521l52.111-50.448c23.047,84.088-36.75,138.274-36.75,138.274l-16.144-83.497l-18.07,81.615
			c-62.85-56.064-33.048-136.392-33.048-136.392C1093.523,1037.793,1121.134,1079.521,1121.134,1079.521z"/>
		<path class="st0" d="M1062.19,1180.057c45.23-4.109,54.375,14.07,54.375,14.07c-35.5,90.937-145.74,61.041-145.74,61.041
			C977.673,1214.057,1062.164,1180.057,1062.19,1180.057z"/>
		<path class="st0" d="M1128.935,1191.256c98.941-29.65,133.584,64.534,133.584,64.534
			c-114.391,17.416-134.332-62.813-134.332-62.813"/>
	</g>
	<path class="st0" d="M1709.036,1506.931c0,0-29.802-80.328,33.048-136.392l18.07,81.615l16.144-83.497
		c0,0,59.797,54.187,36.75,138.274l-52.111-50.448C1760.938,1456.483,1733.327,1498.211,1709.036,1506.931z"/>
	<path class="st0" d="M1610.628,1280.837c0,0,110.24-29.896,145.74,61.041c0,0-9.144,18.179-54.375,14.069
		C1701.968,1355.947,1617.477,1321.947,1610.628,1280.837z"/>
	<path class="st0" d="M1767.991,1343.028c0,0,19.941-80.229,134.332-62.813c0,0-34.643,94.184-133.584,64.534"/>
	<path class="st0" d="M1389.134,1506.931c0,0-29.802-80.328,33.048-136.392l18.07,81.615l16.144-83.497
		c0,0,59.797,54.187,36.75,138.274l-52.111-50.448C1441.036,1456.483,1413.425,1498.211,1389.134,1506.931z"/>
	<path class="st0" d="M1290.726,1280.837c0,0,110.24-29.896,145.74,61.041c0,0-9.144,18.179-54.375,14.069
		C1382.066,1355.947,1297.575,1321.947,1290.726,1280.837z"/>
	<path class="st0" d="M1448.089,1343.028c0,0,19.941-80.229,134.332-62.813c0,0-34.643,94.184-133.584,64.534"/>
	<path class="st0" d="M1760.938,1586.659l52.111-50.448c23.047,84.088-36.75,138.274-36.75,138.274l-16.144-83.497l-18.07,81.615
		c-62.85-56.064-33.048-136.392-33.048-136.392C1733.327,1544.931,1760.938,1586.659,1760.938,1586.659z"/>
	<path class="st0" d="M1701.994,1687.195c45.23-4.109,54.375,14.07,54.375,14.07c-35.5,90.937-145.74,61.041-145.74,61.041
		C1617.477,1721.195,1701.968,1687.195,1701.994,1687.195z"/>
	<path class="st0" d="M1768.739,1698.394c98.941-29.65,133.584,64.534,133.584,64.534
		c-114.391,17.416-134.332-62.813-134.332-62.813"/>
	<path class="st0" d="M1709.036,2014.069c0,0-29.802-80.328,33.048-136.392l18.07,81.615l16.144-83.497
		c0,0,59.797,54.187,36.75,138.274l-52.111-50.448C1760.938,1963.621,1733.327,2005.348,1709.036,2014.069z"/>
	<path class="st0" d="M1610.628,1787.974c0,0,110.24-29.896,145.74,61.041c0,0-9.144,18.179-54.375,14.07
		C1701.968,1863.085,1617.477,1829.085,1610.628,1787.974z"/>
	<path class="st0" d="M1767.991,1850.166c0,0,19.941-80.229,134.332-62.813c0,0-34.643,94.183-133.584,64.533"/>
</g>
<g id="Layer_2">
	<path class="st1" d="M960.273,245.363c0,0-17.457-51.337-70.802-76.705c0,0-32.912-14.765-62.96-11.074l-0.821,0.115l0.633-0.523
		c23.554-19.021,35.819-52.942,35.819-52.942c18.874-55.99-5.877-104.232-5.877-104.232s-54.757,22.566-72.909,86.838
		c0,0-12.13,41.937,4.878,82.054l1.569,3.691l0,0l0.026,0.052l0,0l0.172,0.397l0,0v0.047l0,0l1.569,3.686
		c17.023,40.164,55.593,60.602,55.593,60.602C905.977,269.016,960.273,245.363,960.273,245.363z M807.605,70.673
		c0,0,13.489-26.785,38.622-44.619c0,0,16.365,35.234,0.471,73.521c0,0-14.357,40.222-46.391,54.662c0,0-17.677-36.97,7.32-83.565
		L807.605,70.673z M875.642,231.183c-50.867-14.435-65.145-52.848-65.145-52.848c32.667-12.998,71.56,4.658,71.56,4.658
		c38.57,15.199,52.493,51.457,52.493,51.457c-30.277,5.673-58.887-3.283-58.887-3.283L875.642,231.183z"/>
	<path class="st1" d="M753.544,237.431c0,0,38.57-20.453,55.567-60.576l1.568-3.691l0,0l0.026-0.047l0,0l0.173-0.403l0,0v-0.047l0,0
		l1.569-3.691c16.997-40.128,4.857-82.054,4.857-82.054c-18.169-64.304-72.909-86.859-72.909-86.859s-24.73,48.247-5.856,104.217
		c0,0,12.281,33.922,35.83,52.942l0.633,0.523l-0.81-0.115c-30.053-3.66-62.96,11.089-62.96,11.089
		c-53.329,25.373-70.781,76.716-70.781,76.716S694.746,269.099,753.544,237.431z M800.39,154.3
		c-32.034-14.43-46.407-54.647-46.407-54.647c-15.905-38.292,0.455-73.526,0.455-73.526c25.143,17.829,38.611,44.608,38.611,44.608
		c25.012,46.585,7.341,83.554,7.341,83.554V154.3z M666.147,234.54c0,0,13.928-36.264,52.493-51.478c0,0,38.888-17.656,71.54-4.706
		c0,0-14.258,38.418-65.124,52.869C725.055,231.241,696.445,240.207,666.147,234.54z"/>
	<path class="st1" d="M640.371,245.363c0,0-17.457-51.337-70.802-76.705c0,0-32.913-14.765-62.96-11.074l-0.821,0.115l0.633-0.523
		c23.554-19.021,35.819-52.942,35.819-52.942c18.874-55.99-5.877-104.232-5.877-104.232s-54.757,22.566-72.909,86.838
		c0,0-12.13,41.937,4.878,82.054l1.569,3.691l0,0l0.026,0.052l0,0l0.173,0.397l0,0v0.047l0,0l1.569,3.686
		c17.024,40.164,55.593,60.602,55.593,60.602C586.075,269.016,640.371,245.363,640.371,245.363z M487.703,70.673
		c0,0,13.489-26.785,38.622-44.619c0,0,16.365,35.234,0.471,73.521c0,0-14.357,40.222-46.391,54.662c0,0-17.677-36.97,7.32-83.565
		L487.703,70.673z M555.74,231.183c-50.867-14.435-65.145-52.848-65.145-52.848c32.667-12.998,71.56,4.658,71.56,4.658
		c38.57,15.199,52.493,51.457,52.493,51.457c-30.277,5.673-58.887-3.283-58.887-3.283L555.74,231.183z"/>
	<path class="st1" d="M433.642,237.431c0,0,38.57-20.453,55.567-60.576l1.568-3.691l0,0l0.026-0.047l0,0l0.173-0.403l0,0v-0.047l0,0
		l1.569-3.691c16.997-40.128,4.857-82.054,4.857-82.054c-18.169-64.304-72.909-86.859-72.909-86.859s-24.73,48.247-5.856,104.217
		c0,0,12.281,33.922,35.83,52.942l0.633,0.523l-0.81-0.115c-30.053-3.66-62.96,11.089-62.96,11.089
		c-53.329,25.373-70.781,76.716-70.781,76.716S374.844,269.099,433.642,237.431z M480.488,154.3
		c-32.034-14.43-46.407-54.647-46.407-54.647c-15.905-38.292,0.455-73.526,0.455-73.526c25.143,17.829,38.611,44.608,38.611,44.608
		c25.012,46.585,7.341,83.554,7.341,83.554V154.3z M346.245,234.54c0,0,13.928-36.264,52.493-51.478c0,0,38.888-17.656,71.54-4.706
		c0,0-14.258,38.418-65.124,52.869C405.153,231.241,376.543,240.207,346.245,234.54z"/>
	<path class="st1" d="M320.469,245.363c0,0-17.457-51.337-70.802-76.705c0,0-32.912-14.765-62.96-11.074l-0.821,0.115l0.633-0.523
		c23.554-19.021,35.819-52.942,35.819-52.942c18.874-55.99-5.877-104.232-5.877-104.232s-54.757,22.566-72.909,86.838
		c0,0-12.13,41.937,4.878,82.054l1.569,3.691l0,0l0.026,0.052l0,0l0.173,0.397l0,0v0.047l0,0l1.568,3.686
		c17.024,40.164,55.593,60.602,55.593,60.602C266.173,269.016,320.469,245.363,320.469,245.363z M167.801,70.673
		c0,0,13.489-26.785,38.622-44.619c0,0,16.365,35.234,0.471,73.521c0,0-14.357,40.222-46.391,54.662c0,0-17.677-36.97,7.32-83.565
		L167.801,70.673z M235.838,231.183c-50.867-14.435-65.145-52.848-65.145-52.848c32.667-12.998,71.56,4.658,71.56,4.658
		c38.57,15.199,52.493,51.457,52.493,51.457c-30.277,5.673-58.887-3.283-58.887-3.283L235.838,231.183z"/>
	<path class="st1" d="M113.74,237.431c0,0,38.57-20.453,55.567-60.576l1.569-3.691l0,0l0.026-0.047l0,0l0.173-0.403l0,0v-0.047l0,0
		l1.569-3.691c16.997-40.128,4.857-82.054,4.857-82.054c-18.169-64.304-72.909-86.859-72.909-86.859s-24.73,48.247-5.856,104.217
		c0,0,12.281,33.922,35.83,52.942l0.633,0.523l-0.81-0.115c-30.053-3.66-62.96,11.089-62.96,11.089
		c-53.329,25.373-70.781,76.716-70.781,76.716S54.942,269.099,113.74,237.431z M160.586,154.3
		c-32.034-14.43-46.407-54.647-46.407-54.647c-15.905-38.292,0.455-73.526,0.455-73.526c25.143,17.829,38.611,44.608,38.611,44.608
		c25.012,46.585,7.341,83.554,7.341,83.554V154.3z M26.343,234.54c0,0,13.928-36.264,52.493-51.478c0,0,38.888-17.656,71.54-4.706
		c0,0-14.258,38.418-65.124,52.869C85.251,231.241,56.641,240.207,26.343,234.54z"/>
	<g id="logo_14_">
		<path class="st1" d="M1919.901,245.363c0,0-17.458-51.337-70.802-76.705c0,0-32.912-14.765-62.96-11.074l-0.821,0.115l0.633-0.523
			c23.554-19.021,35.819-52.942,35.819-52.942c18.874-55.99-5.877-104.232-5.877-104.232s-54.757,22.566-72.909,86.838
			c0,0-12.13,41.937,4.878,82.054l1.568,3.691l0,0l0.026,0.052l0,0l0.172,0.397l0,0v0.047l0,0l1.569,3.686
			c17.023,40.164,55.593,60.602,55.593,60.602C1865.604,269.016,1919.901,245.363,1919.901,245.363z M1767.233,70.673
			c0,0,13.489-26.785,38.622-44.619c0,0,16.365,35.234,0.47,73.521c0,0-14.357,40.222-46.391,54.662c0,0-17.677-36.97,7.32-83.565
			L1767.233,70.673z M1835.27,231.183c-50.867-14.435-65.145-52.848-65.145-52.848c32.667-12.998,71.56,4.658,71.56,4.658
			c38.57,15.199,52.493,51.457,52.493,51.457c-30.277,5.673-58.887-3.283-58.887-3.283L1835.27,231.183z"/>
		<path class="st1" d="M1713.172,237.431c0,0,38.57-20.453,55.567-60.576l1.568-3.691l0,0l0.026-0.047l0,0l0.172-0.403l0,0v-0.047
			l0,0l1.568-3.691c16.997-40.128,4.857-82.054,4.857-82.054c-18.168-64.304-72.909-86.859-72.909-86.859
			s-24.73,48.247-5.856,104.217c0,0,12.281,33.922,35.83,52.942l0.633,0.523l-0.81-0.115c-30.053-3.66-62.96,11.089-62.96,11.089
			c-53.329,25.373-70.781,76.716-70.781,76.716S1654.374,269.099,1713.172,237.431z M1760.018,154.3
			c-32.034-14.43-46.407-54.647-46.407-54.647c-15.905-38.292,0.455-73.526,0.455-73.526c25.143,17.829,38.611,44.608,38.611,44.608
			c25.012,46.585,7.341,83.554,7.341,83.554V154.3z M1625.775,234.54c0,0,13.928-36.264,52.493-51.478
			c0,0,38.888-17.656,71.54-4.706c0,0-14.258,38.418-65.124,52.869C1684.683,231.241,1656.073,240.207,1625.775,234.54z"/>
	</g>
	<g id="logo_11_">
		<path class="st1" d="M1599.999,245.363c0,0-17.458-51.337-70.802-76.705c0,0-32.912-14.765-62.96-11.074l-0.821,0.115l0.633-0.523
			c23.554-19.021,35.819-52.942,35.819-52.942c18.874-55.99-5.877-104.232-5.877-104.232s-54.756,22.566-72.909,86.838
			c0,0-12.13,41.937,4.878,82.054l1.569,3.691l0,0l0.026,0.052l0,0l0.172,0.397l0,0v0.047l0,0l1.568,3.686
			c17.024,40.164,55.593,60.602,55.593,60.602C1545.703,269.016,1599.999,245.363,1599.999,245.363z M1447.331,70.673
			c0,0,13.489-26.785,38.622-44.619c0,0,16.365,35.234,0.471,73.521c0,0-14.357,40.222-46.391,54.662c0,0-17.677-36.97,7.32-83.565
			L1447.331,70.673z M1515.368,231.183c-50.867-14.435-65.145-52.848-65.145-52.848c32.667-12.998,71.56,4.658,71.56,4.658
			c38.57,15.199,52.493,51.457,52.493,51.457c-30.277,5.673-58.887-3.283-58.887-3.283L1515.368,231.183z"/>
		<path class="st1" d="M1393.27,237.431c0,0,38.57-20.453,55.567-60.576l1.569-3.691l0,0l0.026-0.047l0,0l0.172-0.403l0,0v-0.047
			l0,0l1.568-3.691c16.997-40.128,4.857-82.054,4.857-82.054c-18.169-64.304-72.909-86.859-72.909-86.859
			s-24.73,48.247-5.856,104.217c0,0,12.281,33.922,35.83,52.942l0.633,0.523l-0.81-0.115c-30.052-3.66-62.96,11.089-62.96,11.089
			c-53.329,25.373-70.781,76.716-70.781,76.716S1334.472,269.099,1393.27,237.431z M1440.116,154.3
			c-32.034-14.43-46.407-54.647-46.407-54.647c-15.905-38.292,0.455-73.526,0.455-73.526c25.143,17.829,38.611,44.608,38.611,44.608
			c25.013,46.585,7.341,83.554,7.341,83.554V154.3z M1305.873,234.54c0,0,13.928-36.264,52.493-51.478
			c0,0,38.889-17.656,71.54-4.706c0,0-14.258,38.418-65.124,52.869C1364.781,231.241,1336.171,240.207,1305.873,234.54z"/>
	</g>
	<g id="logo_10_">
		<path class="st1" d="M1280.097,245.363c0,0-17.458-51.337-70.802-76.705c0,0-32.912-14.765-62.96-11.074l-0.821,0.115l0.633-0.523
			c23.554-19.021,35.819-52.942,35.819-52.942c18.874-55.99-5.877-104.232-5.877-104.232s-54.757,22.566-72.909,86.838
			c0,0-12.13,41.937,4.878,82.054l1.568,3.691l0,0l0.026,0.052l0,0l0.172,0.397l0,0v0.047l0,0l1.568,3.686
			c17.024,40.164,55.593,60.602,55.593,60.602C1225.801,269.016,1280.097,245.363,1280.097,245.363z M1127.429,70.673
			c0,0,13.489-26.785,38.622-44.619c0,0,16.365,35.234,0.471,73.521c0,0-14.357,40.222-46.391,54.662c0,0-17.677-36.97,7.32-83.565
			L1127.429,70.673z M1195.466,231.183c-50.867-14.435-65.145-52.848-65.145-52.848c32.667-12.998,71.561,4.658,71.561,4.658
			c38.57,15.199,52.493,51.457,52.493,51.457c-30.277,5.673-58.887-3.283-58.887-3.283L1195.466,231.183z"/>
		<path class="st1" d="M1073.368,237.431c0,0,38.57-20.453,55.567-60.576l1.568-3.691l0,0l0.026-0.047l0,0l0.173-0.403l0,0v-0.047
			l0,0l1.568-3.691c16.997-40.128,4.857-82.054,4.857-82.054c-18.169-64.304-72.909-86.859-72.909-86.859
			s-24.73,48.247-5.856,104.217c0,0,12.281,33.922,35.83,52.942l0.633,0.523l-0.81-0.115c-30.053-3.66-62.96,11.089-62.96,11.089
			c-53.329,25.373-70.781,76.716-70.781,76.716S1014.57,269.099,1073.368,237.431z M1120.214,154.3
			c-32.034-14.43-46.407-54.647-46.407-54.647c-15.905-38.292,0.455-73.526,0.455-73.526c25.143,17.829,38.611,44.608,38.611,44.608
			c25.012,46.585,7.341,83.554,7.341,83.554V154.3z M985.971,234.54c0,0,13.928-36.264,52.493-51.478c0,0,38.889-17.656,71.54-4.706
			c0,0-14.258,38.418-65.124,52.869C1044.879,231.241,1016.269,240.207,985.971,234.54z"/>
	</g>
	<path class="st1" d="M847.163,269.835c0,0-38.57,20.438-55.593,60.602l-1.569,3.686l0,0v0.047l0,0l-0.172,0.397l0,0l-0.026,0.052
		l0,0l-1.569,3.691c-17.008,40.117-4.878,82.054-4.878,82.054c18.153,64.272,72.909,86.838,72.909,86.838
		s24.751-48.242,5.877-104.232c0,0-12.266-33.922-35.819-52.942l-0.633-0.523l0.821,0.115c30.047,3.691,62.96-11.074,62.96-11.074
		c53.345-25.368,70.802-76.705,70.802-76.705S905.977,238.187,847.163,269.835z M807.626,436.53
		c-24.997-46.595-7.32-83.565-7.32-83.565c32.034,14.441,46.391,54.662,46.391,54.662c15.894,38.287-0.471,73.521-0.471,73.521
		c-25.133-17.834-38.622-44.619-38.622-44.619L807.626,436.53z M875.663,276.035c0,0,28.61-8.956,58.887-3.283
		c0,0-13.923,36.259-52.493,51.457c0,0-38.894,17.656-71.56,4.658c0,0,14.279-38.413,65.145-52.848L875.663,276.035z"/>
	<path class="st1" d="M640.45,261.767c0,0,17.452,51.342,70.781,76.716c0,0,32.907,14.749,62.96,11.089l0.81-0.115l-0.633,0.523
		c-23.548,19.021-35.83,52.942-35.83,52.942c-18.874,55.97,5.856,104.217,5.856,104.217s54.741-22.555,72.909-86.859
		c0,0,12.14-41.926-4.857-82.054l-1.569-3.691l0,0v-0.047l0,0l-0.173-0.403l0,0l-0.026-0.047l0,0l-1.568-3.691
		c-16.997-40.122-55.567-60.576-55.567-60.576C694.746,238.104,640.45,261.767,640.45,261.767z M800.39,352.913
		c0,0,17.672,36.97-7.341,83.554c0,0-13.468,26.78-38.611,44.608c0,0-16.359-35.234-0.455-73.526c0,0,14.373-40.216,46.407-54.647
		V352.913z M725.055,275.978c50.867,14.451,65.124,52.869,65.124,52.869c-32.651,12.951-71.54-4.706-71.54-4.706
		c-38.564-15.215-52.493-51.478-52.493-51.478C696.445,266.996,725.055,275.962,725.055,275.978z"/>
	<path class="st1" d="M527.261,269.835c0,0-38.57,20.438-55.593,60.602l-1.569,3.686l0,0v0.047l0,0l-0.173,0.397l0,0l-0.026,0.052
		l0,0l-1.569,3.691c-17.008,40.117-4.878,82.054-4.878,82.054c18.153,64.272,72.909,86.838,72.909,86.838
		s24.751-48.242,5.877-104.232c0,0-12.266-33.922-35.819-52.942l-0.633-0.523l0.821,0.115c30.047,3.691,62.96-11.074,62.96-11.074
		c53.345-25.368,70.802-76.705,70.802-76.705S586.075,238.187,527.261,269.835z M487.724,436.53
		c-24.997-46.595-7.32-83.565-7.32-83.565c32.034,14.441,46.391,54.662,46.391,54.662c15.894,38.287-0.471,73.521-0.471,73.521
		c-25.133-17.834-38.622-44.619-38.622-44.619L487.724,436.53z M555.761,276.035c0,0,28.61-8.956,58.887-3.283
		c0,0-13.923,36.259-52.493,51.457c0,0-38.894,17.656-71.56,4.658c0,0,14.279-38.413,65.145-52.848L555.761,276.035z"/>
	<path class="st1" d="M320.548,261.767c0,0,17.452,51.342,70.781,76.716c0,0,32.907,14.749,62.96,11.089l0.81-0.115l-0.633,0.523
		c-23.549,19.021-35.83,52.942-35.83,52.942c-18.874,55.97,5.856,104.217,5.856,104.217s54.741-22.555,72.909-86.859
		c0,0,12.14-41.926-4.857-82.054l-1.569-3.691l0,0v-0.047l0,0l-0.173-0.403l0,0l-0.026-0.047l0,0l-1.568-3.691
		c-16.997-40.122-55.567-60.576-55.567-60.576C374.844,238.104,320.548,261.767,320.548,261.767z M480.488,352.913
		c0,0,17.672,36.97-7.341,83.554c0,0-13.468,26.78-38.611,44.608c0,0-16.36-35.234-0.455-73.526c0,0,14.373-40.216,46.407-54.647
		V352.913z M405.153,275.978c50.867,14.451,65.124,52.869,65.124,52.869c-32.651,12.951-71.54-4.706-71.54-4.706
		c-38.564-15.215-52.493-51.478-52.493-51.478C376.543,266.996,405.153,275.962,405.153,275.978z"/>
	<g id="logo_9_">
		<path class="st1" d="M1806.791,269.835c0,0-38.57,20.438-55.593,60.602l-1.569,3.686l0,0v0.047l0,0l-0.172,0.397l0,0l-0.026,0.052
			l0,0l-1.568,3.691c-17.008,40.117-4.878,82.054-4.878,82.054c18.153,64.272,72.909,86.838,72.909,86.838
			s24.751-48.242,5.877-104.232c0,0-12.266-33.922-35.819-52.942l-0.633-0.523l0.821,0.115c30.047,3.691,62.96-11.074,62.96-11.074
			c53.345-25.368,70.802-76.705,70.802-76.705S1865.604,238.187,1806.791,269.835z M1767.254,436.53
			c-24.997-46.595-7.32-83.565-7.32-83.565c32.034,14.441,46.391,54.662,46.391,54.662c15.894,38.287-0.47,73.521-0.47,73.521
			c-25.133-17.834-38.622-44.619-38.622-44.619L1767.254,436.53z M1835.291,276.035c0,0,28.61-8.956,58.887-3.283
			c0,0-13.923,36.259-52.493,51.457c0,0-38.894,17.656-71.56,4.658c0,0,14.279-38.413,65.145-52.848L1835.291,276.035z"/>
		<path class="st1" d="M1600.077,261.767c0,0,17.452,51.342,70.781,76.716c0,0,32.907,14.749,62.96,11.089l0.81-0.115l-0.633,0.523
			c-23.549,19.021-35.83,52.942-35.83,52.942c-18.874,55.97,5.856,104.217,5.856,104.217s54.741-22.555,72.909-86.859
			c0,0,12.14-41.926-4.857-82.054l-1.568-3.691l0,0v-0.047l0,0l-0.172-0.403l0,0l-0.026-0.047l0,0l-1.568-3.691
			c-16.997-40.122-55.567-60.576-55.567-60.576C1654.374,238.104,1600.077,261.767,1600.077,261.767z M1760.018,352.913
			c0,0,17.672,36.97-7.341,83.554c0,0-13.468,26.78-38.611,44.608c0,0-16.359-35.234-0.455-73.526c0,0,14.373-40.216,46.407-54.647
			V352.913z M1684.683,275.978c50.867,14.451,65.124,52.869,65.124,52.869c-32.651,12.951-71.54-4.706-71.54-4.706
			c-38.564-15.215-52.493-51.478-52.493-51.478C1656.073,266.996,1684.683,275.962,1684.683,275.978z"/>
	</g>
	<g id="logo_8_">
		<path class="st1" d="M1486.889,269.835c0,0-38.57,20.438-55.593,60.602l-1.568,3.686l0,0v0.047l0,0l-0.172,0.397l0,0l-0.026,0.052
			l0,0l-1.569,3.691c-17.008,40.117-4.878,82.054-4.878,82.054c18.153,64.272,72.909,86.838,72.909,86.838
			s24.751-48.242,5.877-104.232c0,0-12.266-33.922-35.819-52.942l-0.633-0.523l0.821,0.115c30.047,3.691,62.96-11.074,62.96-11.074
			c53.345-25.368,70.802-76.705,70.802-76.705S1545.703,238.187,1486.889,269.835z M1447.352,436.53
			c-24.997-46.595-7.32-83.565-7.32-83.565c32.034,14.441,46.391,54.662,46.391,54.662c15.894,38.287-0.471,73.521-0.471,73.521
			c-25.133-17.834-38.622-44.619-38.622-44.619L1447.352,436.53z M1515.389,276.035c0,0,28.61-8.956,58.887-3.283
			c0,0-13.923,36.259-52.493,51.457c0,0-38.894,17.656-71.56,4.658c0,0,14.279-38.413,65.145-52.848L1515.389,276.035z"/>
		<path class="st1" d="M1280.175,261.767c0,0,17.452,51.342,70.781,76.716c0,0,32.907,14.749,62.96,11.089l0.81-0.115l-0.633,0.523
			c-23.549,19.021-35.83,52.942-35.83,52.942c-18.874,55.97,5.856,104.217,5.856,104.217s54.741-22.555,72.909-86.859
			c0,0,12.14-41.926-4.857-82.054l-1.568-3.691l0,0v-0.047l0,0l-0.172-0.403l0,0l-0.026-0.047l0,0l-1.569-3.691
			c-16.997-40.122-55.567-60.576-55.567-60.576C1334.472,238.104,1280.175,261.767,1280.175,261.767z M1440.116,352.913
			c0,0,17.672,36.97-7.341,83.554c0,0-13.468,26.78-38.611,44.608c0,0-16.359-35.234-0.455-73.526c0,0,14.373-40.216,46.407-54.647
			V352.913z M1364.781,275.978c50.867,14.451,65.124,52.869,65.124,52.869c-32.651,12.951-71.54-4.706-71.54-4.706
			c-38.564-15.215-52.493-51.478-52.493-51.478C1336.171,266.996,1364.781,275.962,1364.781,275.978z"/>
	</g>
	<g id="logo_7_">
		<path class="st1" d="M1166.987,269.835c0,0-38.57,20.438-55.593,60.602l-1.568,3.686l0,0v0.047l0,0l-0.172,0.397l0,0l-0.026,0.052
			l0,0l-1.568,3.691c-17.008,40.117-4.878,82.054-4.878,82.054c18.153,64.272,72.909,86.838,72.909,86.838
			s24.751-48.242,5.877-104.232c0,0-12.266-33.922-35.819-52.942l-0.633-0.523l0.821,0.115c30.047,3.691,62.96-11.074,62.96-11.074
			c53.345-25.368,70.802-76.705,70.802-76.705S1225.801,238.187,1166.987,269.835z M1127.45,436.53
			c-24.997-46.595-7.32-83.565-7.32-83.565c32.034,14.441,46.391,54.662,46.391,54.662c15.894,38.287-0.471,73.521-0.471,73.521
			c-25.133-17.834-38.622-44.619-38.622-44.619L1127.45,436.53z M1195.487,276.035c0,0,28.609-8.956,58.887-3.283
			c0,0-13.923,36.259-52.493,51.457c0,0-38.894,17.656-71.561,4.658c0,0,14.279-38.413,65.145-52.848L1195.487,276.035z"/>
		<path class="st1" d="M960.273,261.767c0,0,17.452,51.342,70.781,76.716c0,0,32.907,14.749,62.96,11.089l0.81-0.115l-0.633,0.523
			c-23.548,19.021-35.83,52.942-35.83,52.942c-18.874,55.97,5.856,104.217,5.856,104.217s54.741-22.555,72.909-86.859
			c0,0,12.14-41.926-4.857-82.054l-1.568-3.691l0,0v-0.047l0,0l-0.173-0.403l0,0l-0.026-0.047l0,0l-1.568-3.691
			c-16.997-40.122-55.567-60.576-55.567-60.576C1014.57,238.104,960.273,261.767,960.273,261.767z M1120.214,352.913
			c0,0,17.672,36.97-7.341,83.554c0,0-13.468,26.78-38.611,44.608c0,0-16.36-35.234-0.455-73.526c0,0,14.373-40.216,46.407-54.647
			V352.913z M1044.879,275.978c50.867,14.451,65.124,52.869,65.124,52.869c-32.651,12.951-71.54-4.706-71.54-4.706
			c-38.564-15.215-52.493-51.478-52.493-51.478C1016.269,266.996,1044.879,275.962,1044.879,275.978z"/>
	</g>
	<path class="st1" d="M960.273,752.501c0,0-17.457-51.337-70.802-76.705c0,0-32.912-14.765-62.96-11.074l-0.821,0.115l0.633-0.523
		c23.554-19.021,35.819-52.942,35.819-52.942c18.874-55.99-5.877-104.232-5.877-104.232s-54.757,22.566-72.909,86.838
		c0,0-12.13,41.937,4.878,82.054l1.569,3.691l0,0l0.026,0.052l0,0l0.172,0.397l0,0v0.047l0,0l1.569,3.686
		c17.023,40.164,55.593,60.602,55.593,60.602C905.977,776.154,960.273,752.501,960.273,752.501z M807.605,577.811
		c0,0,13.489-26.785,38.622-44.619c0,0,16.365,35.234,0.471,73.521c0,0-14.357,40.222-46.391,54.662c0,0-17.677-36.97,7.32-83.565
		H807.605z M875.642,738.321c-50.867-14.435-65.145-52.848-65.145-52.848c32.667-12.998,71.56,4.658,71.56,4.658
		c38.57,15.199,52.493,51.457,52.493,51.457c-30.277,5.673-58.887-3.283-58.887-3.283L875.642,738.321z"/>
	<path class="st1" d="M753.544,744.569c0,0,38.57-20.453,55.567-60.576l1.568-3.691l0,0l0.026-0.047l0,0l0.173-0.403l0,0v-0.047l0,0
		l1.569-3.691c16.997-40.128,4.857-82.054,4.857-82.054c-18.169-64.304-72.909-86.859-72.909-86.859s-24.73,48.247-5.856,104.217
		c0,0,12.281,33.922,35.83,52.942l0.633,0.523l-0.81-0.115c-30.053-3.66-62.96,11.089-62.96,11.089
		c-53.329,25.373-70.781,76.716-70.781,76.716S694.746,776.237,753.544,744.569z M800.39,661.438
		c-32.034-14.43-46.407-54.647-46.407-54.647c-15.905-38.292,0.455-73.526,0.455-73.526c25.143,17.829,38.611,44.608,38.611,44.608
		c25.012,46.585,7.341,83.554,7.341,83.554V661.438z M666.147,741.678c0,0,13.928-36.264,52.493-51.478
		c0,0,38.888-17.656,71.54-4.706c0,0-14.258,38.418-65.124,52.869C725.055,738.379,696.445,747.345,666.147,741.678z"/>
	<g id="logo_6_">
		<path class="st1" d="M1919.901,752.501c0,0-17.458-51.337-70.802-76.705c0,0-32.912-14.765-62.96-11.074l-0.821,0.115l0.633-0.523
			c23.554-19.021,35.819-52.942,35.819-52.942c18.874-55.99-5.877-104.232-5.877-104.232s-54.757,22.566-72.909,86.838
			c0,0-12.13,41.937,4.878,82.054l1.568,3.691l0,0l0.026,0.052l0,0l0.172,0.397l0,0v0.047l0,0l1.569,3.686
			c17.023,40.164,55.593,60.602,55.593,60.602C1865.604,776.154,1919.901,752.501,1919.901,752.501z M1767.233,577.811
			c0,0,13.489-26.785,38.622-44.619c0,0,16.365,35.234,0.47,73.521c0,0-14.357,40.222-46.391,54.662c0,0-17.677-36.97,7.32-83.565
			H1767.233z M1835.27,738.321c-50.867-14.435-65.145-52.848-65.145-52.848c32.667-12.998,71.56,4.658,71.56,4.658
			c38.57,15.199,52.493,51.457,52.493,51.457c-30.277,5.673-58.887-3.283-58.887-3.283L1835.27,738.321z"/>
		<path class="st1" d="M1713.172,744.569c0,0,38.57-20.453,55.567-60.576l1.568-3.691l0,0l0.026-0.047l0,0l0.172-0.403l0,0v-0.047
			l0,0l1.568-3.691c16.997-40.128,4.857-82.054,4.857-82.054c-18.168-64.304-72.909-86.859-72.909-86.859
			s-24.73,48.247-5.856,104.217c0,0,12.281,33.922,35.83,52.942l0.633,0.523l-0.81-0.115c-30.053-3.66-62.96,11.089-62.96,11.089
			c-53.329,25.373-70.781,76.716-70.781,76.716S1654.374,776.237,1713.172,744.569z M1760.018,661.438
			c-32.034-14.43-46.407-54.647-46.407-54.647c-15.905-38.292,0.455-73.526,0.455-73.526c25.143,17.829,38.611,44.608,38.611,44.608
			c25.012,46.585,7.341,83.554,7.341,83.554V661.438z M1625.775,741.678c0,0,13.928-36.264,52.493-51.478
			c0,0,38.888-17.656,71.54-4.706c0,0-14.258,38.418-65.124,52.869C1684.683,738.379,1656.073,747.345,1625.775,741.678z"/>
	</g>
	<g id="logo_5_">
		<path class="st1" d="M1599.999,752.501c0,0-17.458-51.337-70.802-76.705c0,0-32.912-14.765-62.96-11.074l-0.821,0.115l0.633-0.523
			c23.554-19.021,35.819-52.942,35.819-52.942c18.874-55.99-5.877-104.232-5.877-104.232s-54.756,22.566-72.909,86.838
			c0,0-12.13,41.937,4.878,82.054l1.569,3.691l0,0l0.026,0.052l0,0l0.172,0.397l0,0v0.047l0,0l1.568,3.686
			c17.024,40.164,55.593,60.602,55.593,60.602C1545.703,776.154,1599.999,752.501,1599.999,752.501z M1447.331,577.811
			c0,0,13.489-26.785,38.622-44.619c0,0,16.365,35.234,0.471,73.521c0,0-14.357,40.222-46.391,54.662c0,0-17.677-36.97,7.32-83.565
			H1447.331z M1515.368,738.321c-50.867-14.435-65.145-52.848-65.145-52.848c32.667-12.998,71.56,4.658,71.56,4.658
			c38.57,15.199,52.493,51.457,52.493,51.457c-30.277,5.673-58.887-3.283-58.887-3.283L1515.368,738.321z"/>
		<path class="st1" d="M1393.27,744.569c0,0,38.57-20.453,55.567-60.576l1.569-3.691l0,0l0.026-0.047l0,0l0.172-0.403l0,0v-0.047
			l0,0l1.568-3.691c16.997-40.128,4.857-82.054,4.857-82.054c-18.169-64.304-72.909-86.859-72.909-86.859
			s-24.73,48.247-5.856,104.217c0,0,12.281,33.922,35.83,52.942l0.633,0.523l-0.81-0.115c-30.052-3.66-62.96,11.089-62.96,11.089
			c-53.329,25.373-70.781,76.716-70.781,76.716S1334.472,776.237,1393.27,744.569z M1440.116,661.438
			c-32.034-14.43-46.407-54.647-46.407-54.647c-15.905-38.292,0.455-73.526,0.455-73.526c25.143,17.829,38.611,44.608,38.611,44.608
			c25.013,46.585,7.341,83.554,7.341,83.554V661.438z M1305.873,741.678c0,0,13.928-36.264,52.493-51.478
			c0,0,38.889-17.656,71.54-4.706c0,0-14.258,38.418-65.124,52.869C1364.781,738.379,1336.171,747.345,1305.873,741.678z"/>
	</g>
	<g id="logo_4_">
		<path class="st1" d="M1280.097,752.501c0,0-17.458-51.337-70.802-76.705c0,0-32.912-14.765-62.96-11.074l-0.821,0.115l0.633-0.523
			c23.554-19.021,35.819-52.942,35.819-52.942c18.874-55.99-5.877-104.232-5.877-104.232s-54.757,22.566-72.909,86.838
			c0,0-12.13,41.937,4.878,82.054l1.568,3.691l0,0l0.026,0.052l0,0l0.172,0.397l0,0v0.047l0,0l1.568,3.686
			c17.024,40.164,55.593,60.602,55.593,60.602C1225.801,776.154,1280.097,752.501,1280.097,752.501z M1127.429,577.811
			c0,0,13.489-26.785,38.622-44.619c0,0,16.365,35.234,0.471,73.521c0,0-14.357,40.222-46.391,54.662c0,0-17.677-36.97,7.32-83.565
			H1127.429z M1195.466,738.321c-50.867-14.435-65.145-52.848-65.145-52.848c32.667-12.998,71.561,4.658,71.561,4.658
			c38.57,15.199,52.493,51.457,52.493,51.457c-30.277,5.673-58.887-3.283-58.887-3.283L1195.466,738.321z"/>
		<path class="st1" d="M1073.368,744.569c0,0,38.57-20.453,55.567-60.576l1.568-3.691l0,0l0.026-0.047l0,0l0.173-0.403l0,0v-0.047
			l0,0l1.568-3.691c16.997-40.128,4.857-82.054,4.857-82.054c-18.169-64.304-72.909-86.859-72.909-86.859
			s-24.73,48.247-5.856,104.217c0,0,12.281,33.922,35.83,52.942l0.633,0.523l-0.81-0.115c-30.053-3.66-62.96,11.089-62.96,11.089
			c-53.329,25.373-70.781,76.716-70.781,76.716S1014.57,776.237,1073.368,744.569z M1120.214,661.438
			c-32.034-14.43-46.407-54.647-46.407-54.647c-15.905-38.292,0.455-73.526,0.455-73.526c25.143,17.829,38.611,44.608,38.611,44.608
			c25.012,46.585,7.341,83.554,7.341,83.554V661.438z M985.971,741.678c0,0,13.928-36.264,52.493-51.478
			c0,0,38.889-17.656,71.54-4.706c0,0-14.258,38.418-65.124,52.869C1044.879,738.379,1016.269,747.345,985.971,741.678z"/>
	</g>
	<g>
		<path class="st1" d="M847.163,776.973c0,0-38.57,20.438-55.593,60.602l-1.569,3.686l0,0v0.047l0,0l-0.172,0.397l0,0l-0.026,0.052
			l0,0l-1.569,3.691c-17.008,40.117-4.878,82.054-4.878,82.054c18.153,64.272,72.909,86.838,72.909,86.838
			s24.751-48.242,5.877-104.232c0,0-12.266-33.922-35.819-52.942l-0.633-0.523l0.821,0.115c30.047,3.691,62.96-11.074,62.96-11.074
			c53.345-25.368,70.802-76.705,70.802-76.705S905.977,745.325,847.163,776.973z M807.626,943.668
			c-24.997-46.595-7.32-83.565-7.32-83.565c32.034,14.441,46.391,54.662,46.391,54.662c15.894,38.287-0.471,73.521-0.471,73.521
			c-25.133-17.834-38.622-44.619-38.622-44.619H807.626z M875.663,783.173c0,0,28.61-8.956,58.887-3.283
			c0,0-13.923,36.259-52.493,51.457c0,0-38.894,17.656-71.56,4.658c0,0,14.279-38.413,65.145-52.848L875.663,783.173z"/>
		<path class="st1" d="M640.45,768.905c0,0,17.452,51.342,70.781,76.716c0,0,32.907,14.749,62.96,11.089l0.81-0.115l-0.633,0.523
			c-23.548,19.021-35.83,52.942-35.83,52.942c-18.874,55.969,5.856,104.217,5.856,104.217s54.741-22.555,72.909-86.859
			c0,0,12.14-41.926-4.857-82.054l-1.569-3.691l0,0v-0.047l0,0l-0.173-0.403l0,0l-0.026-0.047l0,0l-1.568-3.691
			c-16.997-40.122-55.567-60.576-55.567-60.576C694.746,745.242,640.45,768.905,640.45,768.905z M800.39,860.051
			c0,0,17.672,36.97-7.341,83.554c0,0-13.468,26.78-38.611,44.608c0,0-16.359-35.234-0.455-73.526c0,0,14.373-40.216,46.407-54.647
			V860.051z M725.055,783.116c50.867,14.451,65.124,52.869,65.124,52.869c-32.651,12.951-71.54-4.706-71.54-4.706
			c-38.564-15.214-52.493-51.478-52.493-51.478C696.445,774.134,725.055,783.1,725.055,783.116z"/>
	</g>
	<g id="logo_3_">
		<path class="st1" d="M1806.791,776.973c0,0-38.57,20.438-55.593,60.602l-1.569,3.686l0,0v0.047l0,0l-0.172,0.397l0,0l-0.026,0.052
			l0,0l-1.568,3.691c-17.008,40.117-4.878,82.054-4.878,82.054c18.153,64.272,72.909,86.838,72.909,86.838
			s24.751-48.242,5.877-104.232c0,0-12.266-33.922-35.819-52.942l-0.633-0.523l0.821,0.115c30.047,3.691,62.96-11.074,62.96-11.074
			c53.345-25.368,70.802-76.705,70.802-76.705S1865.604,745.325,1806.791,776.973z M1767.254,943.668
			c-24.997-46.595-7.32-83.565-7.32-83.565c32.034,14.441,46.391,54.662,46.391,54.662c15.894,38.287-0.47,73.521-0.47,73.521
			c-25.133-17.834-38.622-44.619-38.622-44.619H1767.254z M1835.291,783.173c0,0,28.61-8.956,58.887-3.283
			c0,0-13.923,36.259-52.493,51.457c0,0-38.894,17.656-71.56,4.658c0,0,14.279-38.413,65.145-52.848L1835.291,783.173z"/>
		<path class="st1" d="M1600.077,768.905c0,0,17.452,51.342,70.781,76.716c0,0,32.907,14.749,62.96,11.089l0.81-0.115l-0.633,0.523
			c-23.549,19.021-35.83,52.942-35.83,52.942c-18.874,55.969,5.856,104.217,5.856,104.217s54.741-22.555,72.909-86.859
			c0,0,12.14-41.926-4.857-82.054l-1.568-3.691l0,0v-0.047l0,0l-0.172-0.403l0,0l-0.026-0.047l0,0l-1.568-3.691
			c-16.997-40.122-55.567-60.576-55.567-60.576C1654.374,745.242,1600.077,768.905,1600.077,768.905z M1760.018,860.051
			c0,0,17.672,36.97-7.341,83.554c0,0-13.468,26.78-38.611,44.608c0,0-16.359-35.234-0.455-73.526c0,0,14.373-40.216,46.407-54.647
			V860.051z M1684.683,783.116c50.867,14.451,65.124,52.869,65.124,52.869c-32.651,12.951-71.54-4.706-71.54-4.706
			c-38.564-15.214-52.493-51.478-52.493-51.478C1656.073,774.134,1684.683,783.1,1684.683,783.116z"/>
	</g>
	<g id="logo_2_">
		<path class="st1" d="M1486.889,776.973c0,0-38.57,20.438-55.593,60.602l-1.568,3.686l0,0v0.047l0,0l-0.172,0.397l0,0l-0.026,0.052
			l0,0l-1.569,3.691c-17.008,40.117-4.878,82.054-4.878,82.054c18.153,64.272,72.909,86.838,72.909,86.838
			s24.751-48.242,5.877-104.232c0,0-12.266-33.922-35.819-52.942l-0.633-0.523l0.821,0.115c30.047,3.691,62.96-11.074,62.96-11.074
			c53.345-25.368,70.802-76.705,70.802-76.705S1545.703,745.325,1486.889,776.973z M1447.352,943.668
			c-24.997-46.595-7.32-83.565-7.32-83.565c32.034,14.441,46.391,54.662,46.391,54.662c15.894,38.287-0.471,73.521-0.471,73.521
			c-25.133-17.834-38.622-44.619-38.622-44.619H1447.352z M1515.389,783.173c0,0,28.61-8.956,58.887-3.283
			c0,0-13.923,36.259-52.493,51.457c0,0-38.894,17.656-71.56,4.658c0,0,14.279-38.413,65.145-52.848L1515.389,783.173z"/>
		<path class="st1" d="M1280.175,768.905c0,0,17.452,51.342,70.781,76.716c0,0,32.907,14.749,62.96,11.089l0.81-0.115l-0.633,0.523
			c-23.549,19.021-35.83,52.942-35.83,52.942c-18.874,55.969,5.856,104.217,5.856,104.217s54.741-22.555,72.909-86.859
			c0,0,12.14-41.926-4.857-82.054l-1.568-3.691l0,0v-0.047l0,0l-0.172-0.403l0,0l-0.026-0.047l0,0l-1.569-3.691
			c-16.997-40.122-55.567-60.576-55.567-60.576C1334.472,745.242,1280.175,768.905,1280.175,768.905z M1440.116,860.051
			c0,0,17.672,36.97-7.341,83.554c0,0-13.468,26.78-38.611,44.608c0,0-16.359-35.234-0.455-73.526c0,0,14.373-40.216,46.407-54.647
			V860.051z M1364.781,783.116c50.867,14.451,65.124,52.869,65.124,52.869c-32.651,12.951-71.54-4.706-71.54-4.706
			c-38.564-15.214-52.493-51.478-52.493-51.478C1336.171,774.134,1364.781,783.1,1364.781,783.116z"/>
	</g>
	<g id="logo_1_">
		<path class="st1" d="M1166.987,776.973c0,0-38.57,20.438-55.593,60.602l-1.568,3.686l0,0v0.047l0,0l-0.172,0.397l0,0l-0.026,0.052
			l0,0l-1.568,3.691c-17.008,40.117-4.878,82.054-4.878,82.054c18.153,64.272,72.909,86.838,72.909,86.838
			s24.751-48.242,5.877-104.232c0,0-12.266-33.922-35.819-52.942l-0.633-0.523l0.821,0.115c30.047,3.691,62.96-11.074,62.96-11.074
			c53.345-25.368,70.802-76.705,70.802-76.705S1225.801,745.325,1166.987,776.973z M1127.45,943.668
			c-24.997-46.595-7.32-83.565-7.32-83.565c32.034,14.441,46.391,54.662,46.391,54.662c15.894,38.287-0.471,73.521-0.471,73.521
			c-25.133-17.834-38.622-44.619-38.622-44.619H1127.45z M1195.487,783.173c0,0,28.609-8.956,58.887-3.283
			c0,0-13.923,36.259-52.493,51.457c0,0-38.894,17.656-71.561,4.658c0,0,14.279-38.413,65.145-52.848L1195.487,783.173z"/>
		<path class="st1" d="M960.273,768.905c0,0,17.452,51.342,70.781,76.716c0,0,32.907,14.749,62.96,11.089l0.81-0.115l-0.633,0.523
			c-23.548,19.021-35.83,52.942-35.83,52.942c-18.874,55.969,5.856,104.217,5.856,104.217s54.741-22.555,72.909-86.859
			c0,0,12.14-41.926-4.857-82.054l-1.568-3.691l0,0v-0.047l0,0l-0.173-0.403l0,0l-0.026-0.047l0,0l-1.568-3.691
			c-16.997-40.122-55.567-60.576-55.567-60.576C1014.57,745.242,960.273,768.905,960.273,768.905z M1120.214,860.051
			c0,0,17.672,36.97-7.341,83.554c0,0-13.468,26.78-38.611,44.608c0,0-16.36-35.234-0.455-73.526c0,0,14.373-40.216,46.407-54.647
			V860.051z M1044.879,783.116c50.867,14.451,65.124,52.869,65.124,52.869c-32.651,12.951-71.54-4.706-71.54-4.706
			c-38.564-15.214-52.493-51.478-52.493-51.478C1016.269,774.134,1044.879,783.1,1044.879,783.116z"/>
	</g>
	<path class="st1" d="M1919.901,1259.763c0,0-17.458-51.337-70.802-76.705c0,0-32.912-14.765-62.96-11.074l-0.821,0.115l0.633-0.523
		c23.554-19.021,35.819-52.942,35.819-52.942c18.874-55.99-5.877-104.232-5.877-104.232s-54.757,22.566-72.909,86.838
		c0,0-12.13,41.937,4.878,82.054l1.568,3.691l0,0l0.026,0.052l0,0l0.172,0.397l0,0v0.047l0,0l1.569,3.686
		c17.023,40.164,55.593,60.602,55.593,60.602C1865.604,1283.416,1919.901,1259.763,1919.901,1259.763z M1767.233,1085.073
		c0,0,13.489-26.785,38.622-44.619c0,0,16.365,35.234,0.47,73.521c0,0-14.357,40.222-46.391,54.662c0,0-17.677-36.97,7.32-83.565
		H1767.233z M1835.27,1245.584c-50.867-14.435-65.145-52.848-65.145-52.848c32.667-12.998,71.56,4.658,71.56,4.658
		c38.57,15.199,52.493,51.457,52.493,51.457c-30.277,5.673-58.887-3.283-58.887-3.283L1835.27,1245.584z"/>
	<path class="st1" d="M1713.172,1251.832c0,0,38.57-20.453,55.567-60.576l1.568-3.691l0,0l0.026-0.047l0,0l0.172-0.403l0,0v-0.047
		l0,0l1.568-3.691c16.997-40.128,4.857-82.054,4.857-82.054c-18.168-64.303-72.909-86.859-72.909-86.859
		s-24.73,48.247-5.856,104.217c0,0,12.281,33.922,35.83,52.942l0.633,0.523l-0.81-0.115c-30.053-3.66-62.96,11.089-62.96,11.089
		c-53.329,25.373-70.781,76.716-70.781,76.716S1654.374,1283.5,1713.172,1251.832z M1760.018,1168.701
		c-32.034-14.43-46.407-54.647-46.407-54.647c-15.905-38.292,0.455-73.526,0.455-73.526c25.143,17.829,38.611,44.608,38.611,44.608
		c25.012,46.585,7.341,83.554,7.341,83.554V1168.701z M1625.775,1248.94c0,0,13.928-36.264,52.493-51.478
		c0,0,38.888-17.656,71.54-4.706c0,0-14.258,38.418-65.124,52.869C1684.683,1245.641,1656.073,1254.608,1625.775,1248.94z"/>
	<path class="st1" d="M1599.999,1259.763c0,0-17.458-51.337-70.802-76.705c0,0-32.912-14.765-62.96-11.074l-0.821,0.115l0.633-0.523
		c23.554-19.021,35.819-52.942,35.819-52.942c18.874-55.99-5.877-104.232-5.877-104.232s-54.756,22.566-72.909,86.838
		c0,0-12.13,41.937,4.878,82.054l1.569,3.691l0,0l0.026,0.052l0,0l0.172,0.397l0,0v0.047l0,0l1.568,3.686
		c17.024,40.164,55.593,60.602,55.593,60.602C1545.703,1283.416,1599.999,1259.763,1599.999,1259.763z M1447.331,1085.073
		c0,0,13.489-26.785,38.622-44.619c0,0,16.365,35.234,0.471,73.521c0,0-14.357,40.222-46.391,54.662c0,0-17.677-36.97,7.32-83.565
		H1447.331z M1515.368,1245.584c-50.867-14.435-65.145-52.848-65.145-52.848c32.667-12.998,71.56,4.658,71.56,4.658
		c38.57,15.199,52.493,51.457,52.493,51.457c-30.277,5.673-58.887-3.283-58.887-3.283L1515.368,1245.584z"/>
	<path class="st1" d="M1393.27,1251.832c0,0,38.57-20.453,55.567-60.576l1.569-3.691l0,0l0.026-0.047l0,0l0.172-0.403l0,0v-0.047
		l0,0l1.568-3.691c16.997-40.128,4.857-82.054,4.857-82.054c-18.169-64.303-72.909-86.859-72.909-86.859
		s-24.73,48.247-5.856,104.217c0,0,12.281,33.922,35.83,52.942l0.633,0.523l-0.81-0.115c-30.052-3.66-62.96,11.089-62.96,11.089
		c-53.329,25.373-70.781,76.716-70.781,76.716S1334.472,1283.5,1393.27,1251.832z M1440.116,1168.701
		c-32.034-14.43-46.407-54.647-46.407-54.647c-15.905-38.292,0.455-73.526,0.455-73.526c25.143,17.829,38.611,44.608,38.611,44.608
		c25.013,46.585,7.341,83.554,7.341,83.554V1168.701z M1305.873,1248.94c0,0,13.928-36.264,52.493-51.478
		c0,0,38.889-17.656,71.54-4.706c0,0-14.258,38.418-65.124,52.869C1364.781,1245.641,1336.171,1254.608,1305.873,1248.94z"/>
	<path class="st1" d="M1280.097,1259.763c0,0-17.458-51.337-70.802-76.705c0,0-32.912-14.765-62.96-11.074l-0.821,0.115l0.633-0.523
		c23.554-19.021,35.819-52.942,35.819-52.942c18.874-55.99-5.877-104.232-5.877-104.232s-54.757,22.566-72.909,86.838
		c0,0-12.13,41.937,4.878,82.054l1.568,3.691l0,0l0.026,0.052l0,0l0.172,0.397l0,0v0.047l0,0l1.568,3.686
		c17.024,40.164,55.593,60.602,55.593,60.602C1225.801,1283.416,1280.097,1259.763,1280.097,1259.763z M1127.429,1085.073
		c0,0,13.489-26.785,38.622-44.619c0,0,16.365,35.234,0.471,73.521c0,0-14.357,40.222-46.391,54.662c0,0-17.677-36.97,7.32-83.565
		H1127.429z M1195.466,1245.584c-50.867-14.435-65.145-52.848-65.145-52.848c32.667-12.998,71.561,4.658,71.561,4.658
		c38.57,15.199,52.493,51.457,52.493,51.457c-30.277,5.673-58.887-3.283-58.887-3.283L1195.466,1245.584z"/>
	<path class="st1" d="M1073.368,1251.832c0,0,38.57-20.453,55.567-60.576l1.568-3.691l0,0l0.026-0.047l0,0l0.173-0.403l0,0v-0.047
		l0,0l1.568-3.691c16.997-40.128,4.857-82.054,4.857-82.054c-18.169-64.303-72.909-86.859-72.909-86.859
		s-24.73,48.247-5.856,104.217c0,0,12.281,33.922,35.83,52.942l0.633,0.523l-0.81-0.115c-30.053-3.66-62.96,11.089-62.96,11.089
		c-53.329,25.373-70.781,76.716-70.781,76.716S1014.57,1283.5,1073.368,1251.832z M1120.214,1168.701
		c-32.034-14.43-46.407-54.647-46.407-54.647c-15.905-38.292,0.455-73.526,0.455-73.526c25.143,17.829,38.611,44.608,38.611,44.608
		c25.012,46.585,7.341,83.554,7.341,83.554V1168.701z M985.971,1248.94c0,0,13.928-36.264,52.493-51.478
		c0,0,38.889-17.656,71.54-4.706c0,0-14.258,38.418-65.124,52.869C1044.879,1245.641,1016.269,1254.608,985.971,1248.94z"/>
	<g>
		<path class="st1" d="M1806.791,1284.235c0,0-38.57,20.438-55.593,60.602l-1.569,3.686l0,0v0.047l0,0l-0.172,0.397l0,0
			l-0.026,0.052l0,0l-1.568,3.691c-17.008,40.117-4.878,82.054-4.878,82.054c18.153,64.272,72.909,86.838,72.909,86.838
			s24.751-48.242,5.877-104.232c0,0-12.266-33.922-35.819-52.942l-0.633-0.523l0.821,0.115c30.047,3.691,62.96-11.074,62.96-11.074
			c53.345-25.368,70.802-76.705,70.802-76.705S1865.604,1252.588,1806.791,1284.235z M1767.254,1450.931
			c-24.997-46.595-7.32-83.565-7.32-83.565c32.034,14.441,46.391,54.662,46.391,54.662c15.894,38.287-0.47,73.521-0.47,73.521
			c-25.133-17.834-38.622-44.619-38.622-44.619H1767.254z M1835.291,1290.436c0,0,28.61-8.956,58.887-3.283
			c0,0-13.923,36.259-52.493,51.458c0,0-38.894,17.656-71.56,4.658c0,0,14.279-38.413,65.145-52.848L1835.291,1290.436z"/>
		<path class="st1" d="M1600.077,1276.168c0,0,17.452,51.342,70.781,76.716c0,0,32.907,14.749,62.96,11.089l0.81-0.115l-0.633,0.523
			c-23.549,19.021-35.83,52.942-35.83,52.942c-18.874,55.97,5.856,104.217,5.856,104.217s54.741-22.555,72.909-86.859
			c0,0,12.14-41.926-4.857-82.054l-1.568-3.691l0,0v-0.047l0,0l-0.172-0.403l0,0l-0.026-0.047l0,0l-1.568-3.691
			c-16.997-40.122-55.567-60.576-55.567-60.576C1654.374,1252.504,1600.077,1276.168,1600.077,1276.168z M1760.018,1367.313
			c0,0,17.672,36.97-7.341,83.554c0,0-13.468,26.78-38.611,44.608c0,0-16.359-35.234-0.455-73.526c0,0,14.373-40.216,46.407-54.647
			V1367.313z M1684.683,1290.378c50.867,14.451,65.124,52.869,65.124,52.869c-32.651,12.951-71.54-4.705-71.54-4.705
			c-38.564-15.214-52.493-51.478-52.493-51.478C1656.073,1281.396,1684.683,1290.363,1684.683,1290.378z"/>
	</g>
	<g>
		<path class="st1" d="M1486.889,1284.235c0,0-38.57,20.438-55.593,60.602l-1.568,3.686l0,0v0.047l0,0l-0.172,0.397l0,0
			l-0.026,0.052l0,0l-1.569,3.691c-17.008,40.117-4.878,82.054-4.878,82.054c18.153,64.272,72.909,86.838,72.909,86.838
			s24.751-48.242,5.877-104.232c0,0-12.266-33.922-35.819-52.942l-0.633-0.523l0.821,0.115c30.047,3.691,62.96-11.074,62.96-11.074
			c53.345-25.368,70.802-76.705,70.802-76.705S1545.703,1252.588,1486.889,1284.235z M1447.352,1450.931
			c-24.997-46.595-7.32-83.565-7.32-83.565c32.034,14.441,46.391,54.662,46.391,54.662c15.894,38.287-0.471,73.521-0.471,73.521
			c-25.133-17.834-38.622-44.619-38.622-44.619H1447.352z M1515.389,1290.436c0,0,28.61-8.956,58.887-3.283
			c0,0-13.923,36.259-52.493,51.458c0,0-38.894,17.656-71.56,4.658c0,0,14.279-38.413,65.145-52.848L1515.389,1290.436z"/>
		<path class="st1" d="M1280.175,1276.168c0,0,17.452,51.342,70.781,76.716c0,0,32.907,14.749,62.96,11.089l0.81-0.115l-0.633,0.523
			c-23.549,19.021-35.83,52.942-35.83,52.942c-18.874,55.97,5.856,104.217,5.856,104.217s54.741-22.555,72.909-86.859
			c0,0,12.14-41.926-4.857-82.054l-1.568-3.691l0,0v-0.047l0,0l-0.172-0.403l0,0l-0.026-0.047l0,0l-1.569-3.691
			c-16.997-40.122-55.567-60.576-55.567-60.576C1334.472,1252.504,1280.175,1276.168,1280.175,1276.168z M1440.116,1367.313
			c0,0,17.672,36.97-7.341,83.554c0,0-13.468,26.78-38.611,44.608c0,0-16.359-35.234-0.455-73.526c0,0,14.373-40.216,46.407-54.647
			V1367.313z M1364.781,1290.378c50.867,14.451,65.124,52.869,65.124,52.869c-32.651,12.951-71.54-4.705-71.54-4.705
			c-38.564-15.214-52.493-51.478-52.493-51.478C1336.171,1281.396,1364.781,1290.363,1364.781,1290.378z"/>
	</g>
	<g>
		<path class="st1" d="M1919.901,1766.901c0,0-17.458-51.337-70.802-76.705c0,0-32.912-14.765-62.96-11.074l-0.821,0.115
			l0.633-0.523c23.554-19.021,35.819-52.942,35.819-52.942c18.874-55.99-5.877-104.232-5.877-104.232s-54.757,22.566-72.909,86.838
			c0,0-12.13,41.937,4.878,82.054l1.568,3.691l0,0l0.026,0.052l0,0l0.172,0.397l0,0v0.047l0,0l1.569,3.686
			c17.023,40.164,55.593,60.602,55.593,60.602C1865.604,1790.554,1919.901,1766.901,1919.901,1766.901z M1767.233,1592.211
			c0,0,13.489-26.785,38.622-44.619c0,0,16.365,35.234,0.47,73.521c0,0-14.357,40.222-46.391,54.662c0,0-17.677-36.97,7.32-83.565
			H1767.233z M1835.27,1752.722c-50.867-14.435-65.145-52.848-65.145-52.848c32.667-12.998,71.56,4.658,71.56,4.658
			c38.57,15.199,52.493,51.457,52.493,51.457c-30.277,5.673-58.887-3.283-58.887-3.283L1835.27,1752.722z"/>
		<path class="st1" d="M1713.172,1758.969c0,0,38.57-20.453,55.567-60.576l1.568-3.691l0,0l0.026-0.047l0,0l0.172-0.403l0,0v-0.047
			l0,0l1.568-3.691c16.997-40.128,4.857-82.054,4.857-82.054c-18.168-64.303-72.909-86.859-72.909-86.859
			s-24.73,48.247-5.856,104.217c0,0,12.281,33.922,35.83,52.942l0.633,0.523l-0.81-0.115c-30.053-3.66-62.96,11.089-62.96,11.089
			c-53.329,25.373-70.781,76.716-70.781,76.716S1654.374,1790.638,1713.172,1758.969z M1760.018,1675.839
			c-32.034-14.43-46.407-54.647-46.407-54.647c-15.905-38.292,0.455-73.526,0.455-73.526c25.143,17.829,38.611,44.608,38.611,44.608
			c25.012,46.585,7.341,83.554,7.341,83.554V1675.839z M1625.775,1756.078c0,0,13.928-36.264,52.493-51.478
			c0,0,38.888-17.656,71.54-4.706c0,0-14.258,38.418-65.124,52.869C1684.683,1752.779,1656.073,1761.746,1625.775,1756.078z"/>
	</g>
	<g>
		<path class="st1" d="M1806.791,1791.373c0,0-38.57,20.438-55.593,60.602l-1.569,3.686l0,0v0.047l0,0l-0.172,0.397l0,0
			l-0.026,0.052l0,0l-1.568,3.691c-17.008,40.117-4.878,82.054-4.878,82.054c18.153,64.272,72.909,86.838,72.909,86.838
			s24.751-48.242,5.877-104.232c0,0-12.266-33.922-35.819-52.942l-0.633-0.523l0.821,0.115c30.047,3.691,62.96-11.074,62.96-11.074
			c53.345-25.368,70.802-76.705,70.802-76.705S1865.604,1759.726,1806.791,1791.373z M1767.254,1958.068
			c-24.997-46.595-7.32-83.565-7.32-83.565c32.034,14.441,46.391,54.662,46.391,54.662c15.894,38.287-0.47,73.521-0.47,73.521
			c-25.133-17.834-38.622-44.619-38.622-44.619H1767.254z M1835.291,1797.574c0,0,28.61-8.956,58.887-3.283
			c0,0-13.923,36.259-52.493,51.457c0,0-38.894,17.656-71.56,4.658c0,0,14.279-38.413,65.145-52.848L1835.291,1797.574z"/>
		<path class="st1" d="M1600.077,1783.306c0,0,17.452,51.342,70.781,76.716c0,0,32.907,14.749,62.96,11.089l0.81-0.115l-0.633,0.523
			c-23.549,19.021-35.83,52.942-35.83,52.942c-18.874,55.969,5.856,104.217,5.856,104.217s54.741-22.555,72.909-86.859
			c0,0,12.14-41.926-4.857-82.054l-1.568-3.691l0,0v-0.047l0,0l-0.172-0.403l0,0l-0.026-0.047l0,0l-1.568-3.691
			c-16.997-40.122-55.567-60.576-55.567-60.576C1654.374,1759.642,1600.077,1783.306,1600.077,1783.306z M1760.018,1874.451
			c0,0,17.672,36.97-7.341,83.554c0,0-13.468,26.78-38.611,44.608c0,0-16.359-35.234-0.455-73.526c0,0,14.373-40.216,46.407-54.647
			V1874.451z M1684.683,1797.516c50.867,14.451,65.124,52.869,65.124,52.869c-32.651,12.951-71.54-4.706-71.54-4.706
			c-38.564-15.214-52.493-51.478-52.493-51.478C1656.073,1788.534,1684.683,1797.5,1684.683,1797.516z"/>
	</g>
</g>
</svg>
