<?xml version="1.0" encoding="utf-8"?>
<!-- Generator: Adobe Illustrator 24.1.3, SVG Export Plug-In . SVG Version: 6.00 Build 0)  -->
<svg version="1.1" id="Layer_1" xmlns="http://www.w3.org/2000/svg" xmlns:xlink="http://www.w3.org/1999/xlink" x="0px" y="0px"
	 viewBox="0 0 1920 2029" style="enable-background:new 0 0 1920 2029;" xml:space="preserve">
<style type="text/css">
	.st0{fill:#003A4C;}
	.st1{fill:#FFD2BC;}
</style>
<g id="Layer_1_1_">
	<g id="logo-bg_16_">
		<path class="st0" d="M1171.141,14.672c0,0,29.802,80.328-33.048,136.392l-18.07-81.615l-16.144,83.497
			c0,0-59.797-54.186-36.75-138.274l52.111,50.448C1119.24,65.12,1146.85,23.393,1171.141,14.672z"/>
		<path class="st0" d="M1269.549,240.767c0,0-110.24,29.896-145.74-61.041c0,0,9.145-18.179,54.375-14.07
			C1178.21,165.656,1262.7,199.656,1269.549,240.767z"/>
		<path class="st0" d="M1112.187,178.577c0,0-19.941,80.229-134.332,62.813c0,0,34.643-94.184,133.584-64.534"/>
	</g>
	<g id="logo-bg_14_">
		<path class="st0" d="M1491.043,14.672c0,0,29.802,80.328-33.048,136.392l-18.07-81.615l-16.144,83.497
			c0,0-59.797-54.186-36.75-138.274l52.111,50.448C1439.142,65.12,1466.752,23.393,1491.043,14.672z"/>
		<path class="st0" d="M1589.451,240.767c0,0-110.24,29.896-145.74-61.041c0,0,9.145-18.179,54.375-14.07
			C1498.112,165.656,1582.602,199.656,1589.451,240.767z"/>
		<path class="st0" d="M1432.089,178.577c0,0-19.941,80.229-134.332,62.813c0,0,34.643-94.184,133.584-64.534"/>
	</g>
	<g id="logo-bg_12_">
		<path class="st0" d="M1810.945,14.672c0,0,29.802,80.328-33.048,136.392l-18.07-81.615l-16.144,83.497
			c0,0-59.797-54.186-36.75-138.274l52.111,50.448C1759.044,65.12,1786.654,23.393,1810.945,14.672z"/>
		<path class="st0" d="M1909.353,240.767c0,0-110.239,29.896-145.74-61.041c0,0,9.145-18.179,54.375-14.07
			C1818.014,165.656,1902.504,199.656,1909.353,240.767z"/>
		<path class="st0" d="M1751.99,178.576c0,0-19.94,80.229-134.331,62.814c0,0,34.643-94.184,133.584-64.534"/>
	</g>
	<g id="logo-bg_5_">
		<path class="st0" d="M1119.24,442.083l-52.111,50.448c-23.047-84.087,36.75-138.274,36.75-138.274l16.144,83.497l18.07-81.615
			c62.85,56.064,33.048,136.392,33.048,136.392C1146.85,483.81,1119.24,442.083,1119.24,442.083z"/>
		<path class="st0" d="M1178.184,341.546c-45.231,4.11-54.375-14.069-54.375-14.069c35.5-90.937,145.74-61.041,145.74-61.041
			C1262.7,307.547,1178.21,341.547,1178.184,341.546z"/>
		<path class="st0" d="M1111.438,330.348c-98.941,29.65-133.584-64.534-133.584-64.534
			c114.391-17.416,134.332,62.813,134.332,62.813"/>
	</g>
	<g id="logo-bg_2_">
		<path class="st0" d="M1439.142,442.083l-52.111,50.448c-23.047-84.087,36.75-138.274,36.75-138.274l16.144,83.497l18.07-81.615
			c62.85,56.064,33.048,136.392,33.048,136.392C1466.752,483.81,1439.142,442.083,1439.142,442.083z"/>
		<path class="st0" d="M1498.086,341.546c-45.231,4.11-54.375-14.069-54.375-14.069c35.5-90.937,145.74-61.041,145.74-61.041
			C1582.602,307.547,1498.112,341.547,1498.086,341.546z"/>
		<path class="st0" d="M1431.34,330.348c-98.941,29.65-133.584-64.534-133.584-64.534c114.391-17.416,134.332,62.813,134.332,62.813
			"/>
	</g>
	<g id="logo-bg_9_">
		<path class="st0" d="M1171.141,521.81c0,0,29.802,80.328-33.048,136.392l-18.07-81.615l-16.144,83.497
			c0,0-59.797-54.186-36.75-138.274l52.111,50.448C1119.24,572.258,1146.85,530.531,1171.141,521.81z"/>
		<path class="st0" d="M1269.549,747.905c0,0-110.24,29.896-145.74-61.041c0,0,9.145-18.179,54.375-14.07
			C1178.21,672.794,1262.7,706.794,1269.549,747.905z"/>
		<path class="st0" d="M1112.187,685.714c0,0-19.941,80.229-134.332,62.813c0,0,34.643-94.184,133.584-64.534"/>
	</g>
	<path class="st0" d="M1119.24,949.221l-52.111,50.448c-23.047-84.087,36.75-138.274,36.75-138.274l16.144,83.497l18.07-81.615
		c62.85,56.064,33.048,136.392,33.048,136.392C1146.85,990.948,1119.24,949.221,1119.24,949.221z"/>
	<path class="st0" d="M1178.184,848.685c-45.231,4.109-54.375-14.07-54.375-14.07c35.5-90.937,145.74-61.041,145.74-61.041
		C1262.7,814.685,1178.21,848.685,1178.184,848.685z"/>
	<path class="st0" d="M1111.438,837.486c-98.941,29.65-133.584-64.534-133.584-64.534c114.391-17.416,134.332,62.813,134.332,62.813
		"/>
	<g id="logo-bg_24_">
		<path class="st0" d="M211.513,14.672c0,0,29.802,80.328-33.048,136.392l-18.07-81.615l-16.144,83.497
			c0,0-59.797-54.186-36.75-138.274l52.111,50.448C159.612,65.12,187.223,23.393,211.513,14.672z"/>
		<path class="st0" d="M309.921,240.767c0,0-110.24,29.896-145.74-61.041c0,0,9.145-18.179,54.375-14.07
			C218.582,165.656,303.073,199.656,309.921,240.767z"/>
		<path class="st0" d="M152.559,178.577c0,0-19.941,80.229-134.332,62.813c0,0,34.643-94.184,133.584-64.534"/>
	</g>
	<g id="logo-bg_23_">
		<path class="st0" d="M531.415,14.672c0,0,29.802,80.328-33.048,136.392l-18.07-81.615l-16.144,83.497
			c0,0-59.797-54.186-36.75-138.274l52.111,50.448C479.514,65.12,507.125,23.393,531.415,14.672z"/>
		<path class="st0" d="M629.823,240.767c0,0-110.24,29.896-145.74-61.041c0,0,9.145-18.179,54.375-14.07
			C538.484,165.656,622.975,199.656,629.823,240.767z"/>
		<path class="st0" d="M472.461,178.577c0,0-19.941,80.229-134.332,62.813c0,0,34.643-94.184,133.584-64.534"/>
	</g>
	<g id="logo-bg_22_">
		<path class="st0" d="M851.317,14.672c0,0,29.802,80.328-33.048,136.392l-18.07-81.615l-16.144,83.497
			c0,0-59.797-54.186-36.75-138.274l52.111,50.448C799.416,65.12,827.027,23.393,851.317,14.672z"/>
		<path class="st0" d="M949.725,240.767c0,0-110.24,29.896-145.74-61.041c0,0,9.145-18.179,54.375-14.07
			C858.386,165.656,942.877,199.656,949.725,240.767z"/>
		<path class="st0" d="M792.363,178.577c0,0-19.941,80.229-134.332,62.813c0,0,34.643-94.184,133.584-64.534"/>
	</g>
	<g id="logo-bg_21_">
		<path class="st0" d="M159.613,442.083l-52.111,50.448c-23.047-84.087,36.75-138.274,36.75-138.274l16.144,83.497l18.07-81.615
			c62.85,56.064,33.048,136.392,33.048,136.392C187.223,483.81,159.612,442.083,159.613,442.083z"/>
		<path class="st0" d="M218.557,341.546c-45.231,4.11-54.375-14.069-54.375-14.069c35.5-90.937,145.74-61.041,145.74-61.041
			C303.073,307.547,218.582,341.547,218.557,341.546z"/>
		<path class="st0" d="M151.811,330.348c-98.941,29.65-133.584-64.534-133.584-64.534c114.391-17.416,134.332,62.813,134.332,62.813
			"/>
	</g>
	<g id="logo-bg_20_">
		<path class="st0" d="M479.515,442.083l-52.111,50.448c-23.047-84.087,36.75-138.274,36.75-138.274l16.144,83.497l18.07-81.615
			c62.85,56.064,33.048,136.392,33.048,136.392C507.125,483.81,479.514,442.083,479.515,442.083z"/>
		<path class="st0" d="M538.459,341.546c-45.231,4.11-54.375-14.069-54.375-14.069c35.5-90.937,145.74-61.041,145.74-61.041
			C622.975,307.547,538.484,341.547,538.459,341.546z"/>
		<path class="st0" d="M471.713,330.348c-98.941,29.65-133.584-64.534-133.584-64.534c114.391-17.416,134.332,62.813,134.332,62.813
			"/>
	</g>
	<g id="logo-bg_19_">
		<path class="st0" d="M799.417,442.083l-52.111,50.448c-23.047-84.087,36.75-138.274,36.75-138.274l16.144,83.497l18.07-81.615
			c62.85,56.064,33.048,136.392,33.048,136.392C827.027,483.81,799.416,442.083,799.417,442.083z"/>
		<path class="st0" d="M858.361,341.546c-45.231,4.11-54.375-14.069-54.375-14.069c35.5-90.937,145.74-61.041,145.74-61.041
			C942.877,307.547,858.386,341.547,858.361,341.546z"/>
		<path class="st0" d="M791.615,330.348c-98.941,29.65-133.584-64.534-133.584-64.534c114.391-17.416,134.332,62.813,134.332,62.813
			"/>
	</g>
	<g id="logo-bg_18_">
		<path class="st0" d="M211.513,521.81c0,0,29.802,80.328-33.048,136.392l-18.07-81.615l-16.144,83.497
			c0,0-59.797-54.186-36.75-138.274l52.111,50.448C159.612,572.258,187.223,530.531,211.513,521.81z"/>
		<path class="st0" d="M309.921,747.905c0,0-110.24,29.896-145.74-61.041c0,0,9.145-18.179,54.375-14.07
			C218.582,672.794,303.073,706.794,309.921,747.905z"/>
		<path class="st0" d="M152.559,685.714c0,0-19.941,80.229-134.332,62.813c0,0,34.643-94.184,133.584-64.534"/>
	</g>
	<g id="logo-bg_17_">
		<path class="st0" d="M531.415,521.81c0,0,29.802,80.328-33.048,136.392l-18.07-81.615l-16.144,83.497
			c0,0-59.797-54.186-36.75-138.274l52.111,50.448C479.514,572.258,507.125,530.531,531.415,521.81z"/>
		<path class="st0" d="M629.823,747.905c0,0-110.24,29.896-145.74-61.041c0,0,9.145-18.179,54.375-14.07
			C538.484,672.794,622.975,706.794,629.823,747.905z"/>
		<path class="st0" d="M472.461,685.714c0,0-19.941,80.229-134.332,62.813c0,0,34.643-94.184,133.584-64.534"/>
	</g>
	<g id="logo-bg_15_">
		<path class="st0" d="M851.317,521.81c0,0,29.802,80.328-33.048,136.392l-18.07-81.615l-16.144,83.497
			c0,0-59.797-54.186-36.75-138.274l52.111,50.448C799.416,572.258,827.027,530.531,851.317,521.81z"/>
		<path class="st0" d="M949.725,747.905c0,0-110.24,29.896-145.74-61.041c0,0,9.145-18.179,54.375-14.07
			C858.386,672.794,942.877,706.794,949.725,747.905z"/>
		<path class="st0" d="M792.363,685.714c0,0-19.941,80.229-134.332,62.813c0,0,34.643-94.184,133.584-64.534"/>
	</g>
	<g id="logo-bg_13_">
		<path class="st0" d="M159.613,949.221l-52.111,50.448c-23.047-84.087,36.75-138.274,36.75-138.274l16.144,83.497l18.07-81.615
			c62.85,56.064,33.048,136.392,33.048,136.392C187.223,990.948,159.612,949.221,159.613,949.221z"/>
		<path class="st0" d="M218.557,848.685c-45.231,4.109-54.375-14.07-54.375-14.07c35.5-90.937,145.74-61.041,145.74-61.041
			C303.073,814.685,218.582,848.685,218.557,848.685z"/>
		<path class="st0" d="M151.811,837.486c-98.941,29.65-133.584-64.534-133.584-64.534c114.391-17.416,134.332,62.813,134.332,62.813
			"/>
	</g>
	<g id="logo-bg_11_">
		<path class="st0" d="M479.515,949.221l-52.111,50.448c-23.047-84.087,36.75-138.274,36.75-138.274l16.144,83.497l18.07-81.615
			c62.85,56.064,33.048,136.392,33.048,136.392C507.125,990.948,479.514,949.221,479.515,949.221z"/>
		<path class="st0" d="M538.459,848.685c-45.231,4.109-54.375-14.07-54.375-14.07c35.5-90.937,145.74-61.041,145.74-61.041
			C622.975,814.685,538.484,848.685,538.459,848.685z"/>
		<path class="st0" d="M471.713,837.486c-98.941,29.65-133.584-64.534-133.584-64.534c114.391-17.416,134.332,62.813,134.332,62.813
			"/>
	</g>
	<g id="logo-bg_10_">
		<path class="st0" d="M799.417,949.221l-52.111,50.448c-23.047-84.087,36.75-138.274,36.75-138.274l16.144,83.497l18.07-81.615
			c62.85,56.064,33.048,136.392,33.048,136.392C827.027,990.948,799.416,949.221,799.417,949.221z"/>
		<path class="st0" d="M858.361,848.685c-45.231,4.109-54.375-14.07-54.375-14.07c35.5-90.937,145.74-61.041,145.74-61.041
			C942.877,814.685,858.386,848.685,858.361,848.685z"/>
		<path class="st0" d="M791.615,837.486c-98.941,29.65-133.584-64.534-133.584-64.534c114.391-17.416,134.332,62.813,134.332,62.813
			"/>
	</g>
	<g id="logo-bg_36_">
		<path class="st0" d="M211.513,1029.073c0,0,29.802,80.328-33.048,136.392l-18.07-81.615l-16.144,83.497
			c0,0-59.797-54.186-36.75-138.274l52.111,50.448C159.612,1079.521,187.223,1037.793,211.513,1029.073z"/>
		<path class="st0" d="M309.921,1255.168c0,0-110.24,29.896-145.74-61.041c0,0,9.145-18.179,54.375-14.07
			C218.582,1180.057,303.073,1214.057,309.921,1255.168z"/>
		<path class="st0" d="M152.559,1192.977c0,0-19.941,80.229-134.332,62.813c0,0,34.643-94.184,133.584-64.534"/>
	</g>
	<g id="logo-bg_35_">
		<path class="st0" d="M531.415,1029.073c0,0,29.802,80.328-33.048,136.392l-18.07-81.615l-16.144,83.497
			c0,0-59.797-54.186-36.75-138.274l52.111,50.448C479.514,1079.521,507.125,1037.793,531.415,1029.073z"/>
		<path class="st0" d="M629.823,1255.168c0,0-110.24,29.896-145.74-61.041c0,0,9.145-18.179,54.375-14.07
			C538.484,1180.057,622.975,1214.057,629.823,1255.168z"/>
		<path class="st0" d="M472.461,1192.977c0,0-19.941,80.229-134.332,62.813c0,0,34.643-94.184,133.584-64.534"/>
	</g>
	<g id="logo-bg_34_">
		<path class="st0" d="M851.317,1029.073c0,0,29.802,80.328-33.048,136.392l-18.07-81.615l-16.144,83.497
			c0,0-59.797-54.186-36.75-138.274l52.111,50.448C799.416,1079.521,827.027,1037.793,851.317,1029.073z"/>
		<path class="st0" d="M949.725,1255.168c0,0-110.24,29.896-145.74-61.041c0,0,9.145-18.179,54.375-14.07
			C858.386,1180.057,942.877,1214.057,949.725,1255.168z"/>
		<path class="st0" d="M792.363,1192.977c0,0-19.941,80.229-134.332,62.813c0,0,34.643-94.184,133.584-64.534"/>
	</g>
	<path class="st0" d="M159.613,1456.483l-52.111,50.448c-23.047-84.087,36.75-138.274,36.75-138.274l16.144,83.497l18.07-81.615
		c62.85,56.064,33.048,136.392,33.048,136.392C187.223,1498.211,159.612,1456.483,159.613,1456.483z"/>
	<path class="st0" d="M218.557,1355.947c-45.231,4.11-54.375-14.069-54.375-14.069c35.5-90.937,145.74-61.041,145.74-61.041
		C303.073,1321.947,218.582,1355.947,218.557,1355.947z"/>
	<path class="st0" d="M151.811,1344.749c-98.941,29.65-133.584-64.534-133.584-64.534c114.391-17.416,134.332,62.813,134.332,62.813
		"/>
	<path class="st0" d="M479.515,1456.483l-52.111,50.448c-23.047-84.087,36.75-138.274,36.75-138.274l16.144,83.497l18.07-81.615
		c62.85,56.064,33.048,136.392,33.048,136.392C507.125,1498.211,479.514,1456.483,479.515,1456.483z"/>
	<path class="st0" d="M538.459,1355.947c-45.231,4.11-54.375-14.069-54.375-14.069c35.5-90.937,145.74-61.041,145.74-61.041
		C622.975,1321.947,538.484,1355.947,538.459,1355.947z"/>
	<path class="st0" d="M471.713,1344.749c-98.941,29.65-133.584-64.534-133.584-64.534c114.391-17.416,134.332,62.813,134.332,62.813
		"/>
	<path class="st0" d="M211.513,1536.211c0,0,29.802,80.328-33.048,136.392l-18.07-81.615l-16.144,83.497
		c0,0-59.797-54.186-36.75-138.274l52.111,50.448C159.612,1586.659,187.223,1544.931,211.513,1536.211z"/>
	<path class="st0" d="M309.921,1762.306c0,0-110.24,29.896-145.74-61.041c0,0,9.145-18.179,54.375-14.07
		C218.582,1687.195,303.073,1721.195,309.921,1762.306z"/>
	<path class="st0" d="M152.559,1700.115c0,0-19.941,80.229-134.332,62.813c0,0,34.643-94.184,133.584-64.534"/>
	<path class="st0" d="M159.613,1963.621l-52.111,50.448c-23.047-84.087,36.75-138.274,36.75-138.274l16.144,83.497l18.07-81.615
		c62.85,56.064,33.048,136.392,33.048,136.392C187.223,2005.348,159.612,1963.621,159.613,1963.621z"/>
	<path class="st0" d="M218.557,1863.085c-45.231,4.109-54.375-14.07-54.375-14.07c35.5-90.937,145.74-61.041,145.74-61.041
		C303.073,1829.085,218.582,1863.085,218.557,1863.085z"/>
	<path class="st0" d="M151.811,1851.886c-98.941,29.65-133.584-64.533-133.584-64.533c114.391-17.416,134.332,62.813,134.332,62.813
		"/>
</g>
<g id="Layer_2_1_">
	<path class="st1" d="M1073.387,237.369c0,0,38.57-20.438,55.593-60.602l1.569-3.686l0,0v-0.047l0,0l0.172-0.397l0,0l0.026-0.052
		l0,0l1.569-3.691c17.008-40.117,4.878-82.054,4.878-82.054c-18.152-64.272-72.909-86.838-72.909-86.838
		s-24.751,48.242-5.877,104.232c0,0,12.265,33.921,35.819,52.942l0.633,0.523l-0.821-0.115c-30.048-3.691-62.96,11.074-62.96,11.074
		c-53.345,25.368-70.802,76.705-70.802,76.705S1014.573,269.016,1073.387,237.369z M1112.923,70.672
		c24.997,46.595,7.32,83.565,7.32,83.565c-32.034-14.44-46.391-54.662-46.391-54.662c-15.894-38.287,0.471-73.521,0.471-73.521
		c25.133,17.834,38.622,44.619,38.622,44.619L1112.923,70.672z M1044.887,231.167c0,0-28.61,8.956-58.887,3.283
		c0,0,13.923-36.258,52.493-51.457c0,0,38.893-17.656,71.56-4.658c0,0-14.278,38.413-65.145,52.848L1044.887,231.167z"/>
	<path class="st1" d="M1280.099,245.435c0,0-17.452-51.343-70.781-76.716c0,0-32.907-14.749-62.96-11.089l-0.81,0.115l0.633-0.523
		c23.549-19.02,35.83-52.942,35.83-52.942c18.874-55.97-5.856-104.217-5.856-104.217s-54.74,22.555-72.909,86.859
		c0,0-12.14,41.926,4.857,82.054l1.569,3.691l0,0v0.047l0,0l0.173,0.403l0,0l0.026,0.047l0,0l1.568,3.691
		c16.997,40.123,55.567,60.576,55.567,60.576C1225.804,269.099,1280.099,245.435,1280.099,245.435z M1120.16,154.3v-0.011
		c0,0-17.671-36.969,7.341-83.554c0,0,13.468-26.779,38.611-44.608c0,0,16.36,35.234,0.455,73.526
		C1166.567,99.653,1152.194,139.87,1120.16,154.3L1120.16,154.3z M1195.494,231.225c-50.866-14.451-65.124-52.869-65.124-52.869
		c32.652-12.95,71.54,4.706,71.54,4.706c38.565,15.214,52.493,51.478,52.493,51.478
		C1224.105,240.207,1195.495,231.241,1195.494,231.225z"/>
	<path class="st1" d="M1393.288,237.369c0,0,38.569-20.438,55.593-60.602l1.569-3.686l0,0v-0.047l0,0l0.173-0.397l0,0l0.026-0.052
		l0,0l1.569-3.691c17.008-40.117,4.878-82.054,4.878-82.054c-18.152-64.272-72.909-86.838-72.909-86.838
		s-24.751,48.242-5.877,104.232c0,0,12.265,33.921,35.819,52.942l0.633,0.523l-0.821-0.115c-30.047-3.691-62.96,11.074-62.96,11.074
		c-53.345,25.368-70.802,76.705-70.802,76.705S1334.475,269.016,1393.288,237.369z M1432.825,70.672
		c24.997,46.595,7.32,83.565,7.32,83.565c-32.034-14.44-46.391-54.662-46.391-54.662c-15.894-38.287,0.471-73.521,0.471-73.521
		c25.133,17.834,38.622,44.619,38.622,44.619L1432.825,70.672z M1364.789,231.167c0,0-28.61,8.956-58.887,3.283
		c0,0,13.923-36.258,52.493-51.457c0,0,38.893-17.656,71.56-4.658c0,0-14.278,38.413-65.145,52.848L1364.789,231.167z"/>
	<path class="st1" d="M1600.001,245.435c0,0-17.452-51.343-70.781-76.716c0,0-32.907-14.749-62.96-11.089l-0.81,0.115l0.633-0.523
		c23.549-19.02,35.83-52.942,35.83-52.942c18.874-55.97-5.856-104.217-5.856-104.217s-54.74,22.555-72.909,86.859
		c0,0-12.14,41.926,4.857,82.054l1.569,3.691l0,0v0.047l0,0l0.173,0.403l0,0l0.026,0.047l0,0l1.568,3.691
		c16.997,40.123,55.567,60.576,55.567,60.576C1545.706,269.099,1600.001,245.435,1600.001,245.435z M1440.062,154.3v-0.011
		c0,0-17.671-36.969,7.341-83.554c0,0,13.468-26.779,38.611-44.608c0,0,16.36,35.234,0.455,73.526
		C1486.469,99.653,1472.096,139.87,1440.062,154.3L1440.062,154.3z M1515.396,231.225c-50.866-14.451-65.124-52.869-65.124-52.869
		c32.652-12.95,71.54,4.706,71.54,4.706c38.565,15.214,52.493,51.478,52.493,51.478
		C1544.007,240.207,1515.397,231.241,1515.396,231.225z"/>
	<path class="st1" d="M1713.191,237.369c0,0,38.569-20.438,55.593-60.602l1.568-3.686l0,0v-0.047l0,0l0.173-0.397l0,0l0.026-0.052
		l0,0l1.569-3.691c17.008-40.117,4.878-82.054,4.878-82.054c-18.152-64.272-72.909-86.838-72.909-86.838
		s-24.751,48.242-5.877,104.232c0,0,12.265,33.921,35.819,52.942l0.633,0.523l-0.821-0.115c-30.048-3.691-62.96,11.074-62.96,11.074
		c-53.345,25.368-70.802,76.705-70.802,76.705S1654.377,269.016,1713.191,237.369z M1752.727,70.672
		c24.997,46.595,7.32,83.565,7.32,83.565c-32.034-14.44-46.391-54.662-46.391-54.662c-15.894-38.287,0.471-73.521,0.471-73.521
		c25.133,17.834,38.622,44.619,38.622,44.619L1752.727,70.672z M1684.691,231.167c0,0-28.61,8.956-58.887,3.283
		c0,0,13.923-36.258,52.493-51.457c0,0,38.893-17.656,71.56-4.658c0,0-14.278,38.413-65.145,52.848L1684.691,231.167z"/>
	<path class="st1" d="M1919.902,245.435c0,0-17.452-51.343-70.781-76.716c0,0-32.907-14.749-62.96-11.089l-0.81,0.115l0.633-0.523
		c23.549-19.02,35.83-52.942,35.83-52.942c18.874-55.97-5.856-104.217-5.856-104.217s-54.74,22.555-72.909,86.859
		c0,0-12.14,41.926,4.857,82.054l1.569,3.691l0,0v0.047l0,0l0.173,0.403l0,0l0.026,0.047l0,0l1.569,3.691
		c16.997,40.123,55.567,60.576,55.567,60.576C1865.608,269.099,1919.902,245.435,1919.902,245.435z M1759.964,154.289
		c0,0-17.671-36.969,7.341-83.554c0,0,13.468-26.779,38.611-44.608c0,0,16.36,35.234,0.455,73.526c0,0-14.373,40.217-46.407,54.647
		V154.289z M1835.298,231.225c-50.866-14.451-65.124-52.869-65.124-52.869c32.652-12.95,71.54,4.706,71.54,4.706
		c38.565,15.214,52.493,51.478,52.493,51.478C1863.909,240.207,1835.299,231.241,1835.298,231.225z"/>
	<g id="logo_14_">
		<path class="st1" d="M113.76,237.369c0,0,38.57-20.438,55.593-60.602l1.569-3.686l0,0v-0.047l0,0l0.172-0.397l0,0l0.026-0.052l0,0
			l1.568-3.691c17.008-40.117,4.878-82.054,4.878-82.054c-18.152-64.272-72.909-86.838-72.909-86.838S79.906,48.244,98.78,104.234
			c0,0,12.265,33.921,35.819,52.942l0.633,0.523l-0.821-0.115c-30.048-3.691-62.96,11.074-62.96,11.074
			c-53.344,25.368-70.802,76.705-70.802,76.705S54.946,269.016,113.76,237.369z M153.296,70.672
			c24.997,46.595,7.32,83.565,7.32,83.565c-32.034-14.44-46.391-54.662-46.391-54.662c-15.895-38.287,0.47-73.521,0.47-73.521
			c25.133,17.834,38.622,44.619,38.622,44.619L153.296,70.672z M85.259,231.167c0,0-28.61,8.956-58.887,3.283
			c0,0,13.923-36.258,52.493-51.457c0,0,38.893-17.656,71.56-4.658c0,0-14.278,38.413-65.145,52.848L85.259,231.167z"/>
		<path class="st1" d="M320.473,245.435c0,0-17.452-51.343-70.781-76.716c0,0-32.907-14.749-62.96-11.089l-0.81,0.115l0.633-0.523
			c23.549-19.02,35.83-52.942,35.83-52.942c18.874-55.97-5.856-104.217-5.856-104.217s-54.741,22.555-72.909,86.859
			c0,0-12.14,41.926,4.857,82.054l1.568,3.691l0,0v0.047l0,0l0.172,0.403l0,0l0.026,0.047l0,0l1.568,3.691
			c16.997,40.123,55.567,60.576,55.567,60.576C266.176,269.099,320.473,245.435,320.473,245.435z M160.532,154.3v-0.011
			c0,0-17.671-36.969,7.341-83.554c0,0,13.468-26.779,38.611-44.608c0,0,16.36,35.234,0.455,73.526
			C206.939,99.653,192.566,139.87,160.532,154.3L160.532,154.3z M235.866,231.225c-50.866-14.451-65.124-52.869-65.124-52.869
			c32.652-12.95,71.54,4.706,71.54,4.706c38.565,15.214,52.493,51.478,52.493,51.478
			C264.477,240.207,235.867,231.241,235.866,231.225z"/>
	</g>
	<g id="logo_11_">
		<path class="st1" d="M433.662,237.369c0,0,38.569-20.438,55.593-60.602l1.568-3.686l0,0v-0.047l0,0l0.172-0.397l0,0l0.026-0.052
			l0,0l1.569-3.691c17.008-40.117,4.878-82.054,4.878-82.054c-18.153-64.272-72.909-86.838-72.909-86.838
			s-24.751,48.242-5.877,104.232c0,0,12.265,33.921,35.819,52.942l0.633,0.523l-0.821-0.115
			c-30.048-3.691-62.96,11.074-62.96,11.074c-53.344,25.368-70.802,76.705-70.802,76.705S374.847,269.016,433.662,237.369z
			 M473.197,70.672c24.997,46.595,7.32,83.565,7.32,83.565c-32.034-14.44-46.391-54.662-46.391-54.662
			c-15.894-38.287,0.471-73.521,0.471-73.521c25.133,17.834,38.622,44.619,38.622,44.619L473.197,70.672z M405.161,231.167
			c0,0-28.61,8.956-58.887,3.283c0,0,13.923-36.258,52.493-51.457c0,0,38.893-17.656,71.56-4.658c0,0-14.278,38.413-65.145,52.848
			L405.161,231.167z"/>
		<path class="st1" d="M640.374,245.435c0,0-17.452-51.343-70.781-76.716c0,0-32.908-14.749-62.96-11.089l-0.81,0.115l0.633-0.523
			c23.549-19.02,35.83-52.942,35.83-52.942C561.16,48.31,536.43,0.063,536.43,0.063s-54.74,22.555-72.909,86.859
			c0,0-12.14,41.926,4.857,82.054l1.568,3.691l0,0v0.047l0,0l0.172,0.403l0,0l0.026,0.047l0,0l1.569,3.691
			c16.997,40.123,55.567,60.576,55.567,60.576C586.078,269.099,640.374,245.435,640.374,245.435z M480.434,154.3v-0.011
			c0,0-17.672-36.969,7.341-83.554c0,0,13.468-26.779,38.611-44.608c0,0,16.36,35.234,0.455,73.526
			C526.841,99.653,512.468,139.87,480.434,154.3L480.434,154.3z M555.768,231.225c-50.866-14.451-65.124-52.869-65.124-52.869
			c32.651-12.95,71.54,4.706,71.54,4.706c38.565,15.214,52.493,51.478,52.493,51.478
			C584.379,240.207,555.769,231.241,555.768,231.225z"/>
	</g>
	<g id="logo_10_">
		<path class="st1" d="M753.565,237.369c0,0,38.569-20.438,55.593-60.602l1.568-3.686l0,0v-0.047l0,0l0.172-0.397l0,0l0.026-0.052
			l0,0l1.568-3.691c17.008-40.117,4.878-82.054,4.878-82.054c-18.152-64.272-72.909-86.838-72.909-86.838
			s-24.751,48.242-5.877,104.232c0,0,12.265,33.921,35.819,52.942l0.633,0.523l-0.821-0.115
			c-30.048-3.691-62.96,11.074-62.96,11.074c-53.344,25.368-70.802,76.705-70.802,76.705S694.749,269.016,753.565,237.369z
			 M793.099,70.672c24.997,46.595,7.32,83.565,7.32,83.565c-32.034-14.44-46.391-54.662-46.391-54.662
			c-15.894-38.287,0.471-73.521,0.471-73.521c25.133,17.834,38.622,44.619,38.622,44.619L793.099,70.672z M725.062,231.167
			c0,0-28.61,8.956-58.887,3.283c0,0,13.923-36.258,52.493-51.457c0,0,38.894-17.656,71.561-4.658c0,0-14.278,38.413-65.145,52.848
			L725.062,231.167z"/>
		<path class="st1" d="M960.276,245.435c0,0-17.452-51.343-70.781-76.716c0,0-32.907-14.749-62.96-11.089l-0.81,0.115l0.633-0.523
			c23.549-19.02,35.83-52.942,35.83-52.942c18.874-55.97-5.856-104.217-5.856-104.217s-54.74,22.555-72.909,86.859
			c0,0-12.14,41.926,4.857,82.054l1.568,3.691l0,0v0.047l0,0l0.173,0.403l0,0l0.026,0.047l0,0l1.568,3.691
			c16.997,40.123,55.567,60.576,55.567,60.576C905.98,269.099,960.276,245.435,960.276,245.435z M800.336,154.3v-0.011
			c0,0-17.671-36.969,7.341-83.554c0,0,13.468-26.779,38.611-44.608c0,0,16.36,35.234,0.455,73.526
			C846.743,99.653,832.37,139.87,800.336,154.3L800.336,154.3z M875.67,231.225c-50.866-14.451-65.124-52.869-65.124-52.869
			c32.651-12.95,71.54,4.706,71.54,4.706c38.565,15.214,52.493,51.478,52.493,51.478
			C904.281,240.207,875.671,231.241,875.67,231.225z"/>
	</g>
	<path class="st1" d="M960.277,261.841c0,0,17.457,51.337,70.802,76.705c0,0,32.913,14.765,62.96,11.074l0.821-0.115l-0.633,0.523
		c-23.553,19.02-35.819,52.942-35.819,52.942c-18.874,55.99,5.877,104.232,5.877,104.232s54.756-22.566,72.909-86.838
		c0,0,12.13-41.937-4.878-82.054l-1.569-3.691l0,0l-0.026-0.052l0,0l-0.172-0.397l0,0v-0.047l0,0l-1.569-3.686
		c-17.023-40.164-55.593-60.602-55.593-60.602C1014.573,238.187,960.277,261.841,960.277,261.841z M1112.946,436.529
		c0,0-13.489,26.785-38.622,44.619c0,0-16.365-35.234-0.471-73.521c0,0,14.357-40.221,46.391-54.662c0,0,17.677,36.97-7.32,83.565
		L1112.946,436.529z M1044.908,276.019c50.866,14.435,65.145,52.848,65.145,52.848c-32.666,12.998-71.56-4.658-71.56-4.658
		C999.923,309.011,986,272.752,986,272.752c30.277-5.673,58.887,3.283,58.887,3.283L1044.908,276.019z"/>
	<path class="st1" d="M1167.007,269.771c0,0-38.57,20.454-55.567,60.576l-1.568,3.691l0,0l-0.026,0.047l0,0l-0.173,0.403l0,0v0.047
		l0,0l-1.569,3.691c-16.997,40.128-4.857,82.054-4.857,82.054c18.168,64.304,72.909,86.859,72.909,86.859
		s24.73-48.247,5.856-104.217c0,0-12.282-33.921-35.83-52.942l-0.633-0.523l0.81,0.115c30.053,3.66,62.96-11.089,62.96-11.089
		c53.329-25.374,70.781-76.716,70.781-76.716S1225.804,238.104,1167.007,269.771z M1120.16,352.913v-0.011
		c32.034,14.431,46.407,54.647,46.407,54.647c15.904,38.292-0.455,73.526-0.455,73.526c-25.143-17.828-38.611-44.608-38.611-44.608
		C1102.488,389.883,1120.16,352.913,1120.16,352.913L1120.16,352.913z M1254.404,272.663c0,0-13.929,36.263-52.493,51.478
		c0,0-38.889,17.657-71.54,4.706c0,0,14.257-38.418,65.124-52.869C1195.495,275.962,1224.105,266.996,1254.404,272.663z"/>
	<path class="st1" d="M1280.18,261.841c0,0,17.457,51.337,70.802,76.705c0,0,32.913,14.765,62.96,11.074l0.821-0.115l-0.633,0.523
		c-23.553,19.02-35.819,52.942-35.819,52.942c-18.874,55.99,5.877,104.232,5.877,104.232s54.756-22.566,72.909-86.838
		c0,0,12.13-41.937-4.878-82.054l-1.569-3.691l0,0l-0.026-0.052l0,0l-0.173-0.397l0,0v-0.047l0,0l-1.569-3.686
		c-17.023-40.164-55.593-60.602-55.593-60.602C1334.475,238.187,1280.18,261.841,1280.18,261.841z M1432.848,436.529
		c0,0-13.489,26.785-38.622,44.619c0,0-16.365-35.234-0.471-73.521c0,0,14.357-40.221,46.391-54.662c0,0,17.677,36.97-7.32,83.565
		L1432.848,436.529z M1364.81,276.019c50.866,14.435,65.145,52.848,65.145,52.848c-32.666,12.998-71.56-4.658-71.56-4.658
		c-38.57-15.198-52.493-51.457-52.493-51.457c30.277-5.673,58.887,3.283,58.887,3.283L1364.81,276.019z"/>
	<path class="st1" d="M1486.909,269.771c0,0-38.57,20.454-55.567,60.576l-1.568,3.691l0,0l-0.026,0.047l0,0l-0.173,0.403l0,0v0.047
		l0,0l-1.569,3.691c-16.997,40.128-4.857,82.054-4.857,82.054c18.168,64.304,72.909,86.859,72.909,86.859
		s24.73-48.247,5.856-104.217c0,0-12.281-33.921-35.83-52.942l-0.633-0.523l0.81,0.115c30.053,3.66,62.96-11.089,62.96-11.089
		c53.329-25.374,70.781-76.716,70.781-76.716S1545.706,238.104,1486.909,269.771z M1440.062,352.913v-0.011
		c32.034,14.431,46.407,54.647,46.407,54.647c15.905,38.292-0.455,73.526-0.455,73.526c-25.143-17.828-38.611-44.608-38.611-44.608
		C1422.39,389.883,1440.062,352.913,1440.062,352.913L1440.062,352.913z M1574.306,272.663c0,0-13.929,36.263-52.493,51.478
		c0,0-38.889,17.657-71.54,4.706c0,0,14.257-38.418,65.124-52.869C1515.397,275.962,1544.007,266.996,1574.306,272.663z"/>
	<g id="logo_9_">
		<path class="st1" d="M0.648,261.841c0,0,17.457,51.337,70.802,76.705c0,0,32.913,14.765,62.96,11.074l0.821-0.115l-0.633,0.523
			c-23.553,19.02-35.819,52.942-35.819,52.942c-18.874,55.99,5.877,104.232,5.877,104.232s54.756-22.566,72.909-86.838
			c0,0,12.13-41.937-4.878-82.054l-1.568-3.691l0,0l-0.026-0.052l0,0l-0.172-0.397l0,0v-0.047l0,0l-1.569-3.686
			c-17.023-40.164-55.593-60.602-55.593-60.602C54.946,238.187,0.648,261.841,0.648,261.841z M153.317,436.529
			c0,0-13.489,26.785-38.622,44.619c0,0-16.364-35.234-0.47-73.521c0,0,14.357-40.221,46.391-54.662c0,0,17.677,36.97-7.32,83.565
			L153.317,436.529z M85.28,276.019c50.866,14.435,65.145,52.848,65.145,52.848c-32.666,12.998-71.56-4.658-71.56-4.658
			c-38.57-15.198-52.493-51.457-52.493-51.457c30.277-5.673,58.887,3.283,58.887,3.283L85.28,276.019z"/>
		<path class="st1" d="M207.378,269.771c0,0-38.57,20.454-55.567,60.576l-1.568,3.691l0,0l-0.026,0.047l0,0l-0.172,0.403l0,0v0.047
			l0,0l-1.568,3.691c-16.997,40.128-4.857,82.054-4.857,82.054c18.168,64.304,72.909,86.859,72.909,86.859
			s24.73-48.247,5.856-104.217c0,0-12.281-33.921-35.83-52.942l-0.633-0.523l0.81,0.115c30.053,3.66,62.96-11.089,62.96-11.089
			c53.329-25.374,70.781-76.716,70.781-76.716S266.176,238.104,207.378,269.771z M160.532,352.913v-0.011
			c32.034,14.431,46.407,54.647,46.407,54.647c15.904,38.292-0.455,73.526-0.455,73.526c-25.143-17.828-38.611-44.608-38.611-44.608
			C142.86,389.883,160.532,352.913,160.532,352.913L160.532,352.913z M294.776,272.663c0,0-13.929,36.263-52.493,51.478
			c0,0-38.889,17.657-71.54,4.706c0,0,14.257-38.418,65.124-52.869C235.867,275.962,264.477,266.996,294.776,272.663z"/>
	</g>
	<g id="logo_8_">
		<path class="st1" d="M320.55,261.841c0,0,17.457,51.337,70.802,76.705c0,0,32.913,14.765,62.96,11.074l0.821-0.115l-0.633,0.523
			c-23.553,19.02-35.819,52.942-35.819,52.942c-18.874,55.99,5.877,104.232,5.877,104.232s54.756-22.566,72.909-86.838
			c0,0,12.13-41.937-4.878-82.054l-1.569-3.691l0,0l-0.026-0.052l0,0l-0.172-0.397l0,0v-0.047l0,0l-1.568-3.686
			c-17.023-40.164-55.593-60.602-55.593-60.602C374.847,238.187,320.55,261.841,320.55,261.841z M473.22,436.529
			c0,0-13.489,26.785-38.622,44.619c0,0-16.365-35.234-0.471-73.521c0,0,14.357-40.221,46.391-54.662c0,0,17.677,36.97-7.32,83.565
			L473.22,436.529z M405.182,276.019c50.866,14.435,65.145,52.848,65.145,52.848c-32.666,12.998-71.56-4.658-71.56-4.658
			c-38.57-15.198-52.493-51.457-52.493-51.457c30.277-5.673,58.887,3.283,58.887,3.283L405.182,276.019z"/>
		<path class="st1" d="M527.281,269.771c0,0-38.57,20.454-55.567,60.576l-1.569,3.691l0,0l-0.026,0.047l0,0l-0.172,0.403l0,0v0.047
			l0,0l-1.568,3.691c-16.997,40.128-4.857,82.054-4.857,82.054c18.168,64.304,72.909,86.859,72.909,86.859
			s24.73-48.247,5.856-104.217c0,0-12.281-33.921-35.83-52.942l-0.633-0.523l0.81,0.115c30.053,3.66,62.96-11.089,62.96-11.089
			c53.329-25.374,70.781-76.716,70.781-76.716S586.078,238.104,527.281,269.771z M480.434,352.913v-0.011
			c32.034,14.431,46.407,54.647,46.407,54.647c15.904,38.292-0.455,73.526-0.455,73.526c-25.143-17.828-38.611-44.608-38.611-44.608
			C462.762,389.883,480.434,352.913,480.434,352.913L480.434,352.913z M614.678,272.663c0,0-13.929,36.263-52.493,51.478
			c0,0-38.889,17.657-71.54,4.706c0,0,14.257-38.418,65.124-52.869C555.769,275.962,584.379,266.996,614.678,272.663z"/>
	</g>
	<g id="logo_7_">
		<path class="st1" d="M640.451,261.841c0,0,17.457,51.337,70.802,76.705c0,0,32.913,14.765,62.96,11.074l0.821-0.115l-0.633,0.523
			c-23.553,19.02-35.819,52.942-35.819,52.942c-18.874,55.99,5.877,104.232,5.877,104.232s54.756-22.566,72.909-86.838
			c0,0,12.13-41.937-4.878-82.054l-1.568-3.691l0,0l-0.026-0.052l0,0l-0.172-0.397l0,0v-0.047l0,0l-1.568-3.686
			c-17.023-40.164-55.593-60.602-55.593-60.602C694.749,238.187,640.451,261.841,640.451,261.841z M793.122,436.529
			c0,0-13.489,26.785-38.622,44.619c0,0-16.365-35.234-0.471-73.521c0,0,14.357-40.221,46.391-54.662c0,0,17.677,36.97-7.32,83.565
			L793.122,436.529z M725.085,276.019c50.866,14.435,65.145,52.848,65.145,52.848c-32.667,12.998-71.561-4.658-71.561-4.658
			c-38.57-15.198-52.493-51.457-52.493-51.457c30.278-5.673,58.887,3.283,58.887,3.283L725.085,276.019z"/>
		<path class="st1" d="M847.183,269.771c0,0-38.57,20.454-55.567,60.576l-1.568,3.691l0,0l-0.026,0.047l0,0l-0.173,0.403l0,0v0.047
			l0,0l-1.568,3.691c-16.997,40.128-4.857,82.054-4.857,82.054c18.168,64.304,72.909,86.859,72.909,86.859
			s24.73-48.247,5.856-104.217c0,0-12.282-33.921-35.83-52.942l-0.633-0.523l0.81,0.115c30.053,3.66,62.96-11.089,62.96-11.089
			c53.329-25.374,70.781-76.716,70.781-76.716S905.98,238.104,847.183,269.771z M800.336,352.913v-0.011
			c32.034,14.431,46.407,54.647,46.407,54.647c15.905,38.292-0.455,73.526-0.455,73.526c-25.143-17.828-38.611-44.608-38.611-44.608
			C782.664,389.883,800.336,352.913,800.336,352.913L800.336,352.913z M934.58,272.663c0,0-13.929,36.263-52.493,51.478
			c0,0-38.889,17.657-71.54,4.706c0,0,14.257-38.418,65.124-52.869C875.671,275.962,904.281,266.996,934.58,272.663z"/>
	</g>
	<path class="st1" d="M1073.387,744.507c0,0,38.57-20.438,55.593-60.602l1.569-3.686l0,0v-0.047l0,0l0.172-0.397l0,0l0.026-0.052
		l0,0l1.569-3.691c17.008-40.117,4.878-82.054,4.878-82.054c-18.152-64.272-72.909-86.838-72.909-86.838
		s-24.751,48.242-5.877,104.232c0,0,12.265,33.921,35.819,52.942l0.633,0.523l-0.821-0.115c-30.048-3.691-62.96,11.074-62.96,11.074
		c-53.345,25.368-70.802,76.705-70.802,76.705S1014.573,776.154,1073.387,744.507z M1112.945,577.81h-0.022
		c24.997,46.595,7.32,83.565,7.32,83.565c-32.034-14.44-46.391-54.662-46.391-54.662c-15.894-38.287,0.471-73.521,0.471-73.521
		c25.133,17.834,38.622,44.619,38.622,44.619V577.81z M1044.887,738.305c0,0-28.61,8.956-58.887,3.283
		c0,0,13.923-36.258,52.493-51.457c0,0,38.893-17.656,71.56-4.658c0,0-14.278,38.413-65.145,52.848L1044.887,738.305z"/>
	<path class="st1" d="M1280.099,752.573c0,0-17.452-51.343-70.781-76.716c0,0-32.907-14.749-62.96-11.089l-0.81,0.115l0.633-0.523
		c23.549-19.02,35.83-52.942,35.83-52.942c18.874-55.97-5.856-104.217-5.856-104.217s-54.74,22.555-72.909,86.859
		c0,0-12.14,41.926,4.857,82.054l1.569,3.691l0,0v0.047l0,0l0.173,0.403l0,0l0.026,0.047l0,0l1.568,3.691
		c16.997,40.123,55.567,60.576,55.567,60.576C1225.804,776.237,1280.099,752.573,1280.099,752.573z M1120.16,661.438v-0.011
		c0,0-17.671-36.969,7.341-83.554c0,0,13.468-26.779,38.611-44.608c0,0,16.36,35.234,0.455,73.526
		C1166.567,606.791,1152.194,647.008,1120.16,661.438L1120.16,661.438z M1195.494,738.363
		c-50.866-14.451-65.124-52.869-65.124-52.869c32.652-12.95,71.54,4.706,71.54,4.706c38.565,15.214,52.493,51.478,52.493,51.478
		C1224.105,747.345,1195.495,738.379,1195.494,738.363z"/>
	<g id="logo_6_">
		<path class="st1" d="M113.76,744.507c0,0,38.57-20.438,55.593-60.602l1.569-3.686l0,0v-0.047l0,0l0.172-0.397l0,0l0.026-0.052l0,0
			l1.568-3.691c17.008-40.117,4.878-82.054,4.878-82.054c-18.152-64.272-72.909-86.838-72.909-86.838s-24.751,48.242-5.877,104.232
			c0,0,12.265,33.921,35.819,52.942l0.633,0.523l-0.821-0.115c-30.048-3.691-62.96,11.074-62.96,11.074
			c-53.344,25.368-70.802,76.705-70.802,76.705S54.946,776.154,113.76,744.507z M153.317,577.81h-0.021
			c24.997,46.595,7.32,83.565,7.32,83.565c-32.034-14.44-46.391-54.662-46.391-54.662c-15.895-38.287,0.47-73.521,0.47-73.521
			c25.133,17.834,38.622,44.619,38.622,44.619V577.81z M85.259,738.305c0,0-28.61,8.956-58.887,3.283
			c0,0,13.923-36.258,52.493-51.457c0,0,38.893-17.656,71.56-4.658c0,0-14.278,38.413-65.145,52.848L85.259,738.305z"/>
		<path class="st1" d="M320.473,752.573c0,0-17.452-51.343-70.781-76.716c0,0-32.907-14.749-62.96-11.089l-0.81,0.115l0.633-0.523
			c23.549-19.02,35.83-52.942,35.83-52.942c18.874-55.97-5.856-104.217-5.856-104.217s-54.741,22.555-72.909,86.859
			c0,0-12.14,41.926,4.857,82.054l1.568,3.691l0,0v0.047l0,0l0.172,0.403l0,0l0.026,0.047l0,0l1.568,3.691
			c16.997,40.123,55.567,60.576,55.567,60.576C266.176,776.237,320.473,752.573,320.473,752.573z M160.532,661.438v-0.011
			c0,0-17.671-36.969,7.341-83.554c0,0,13.468-26.779,38.611-44.608c0,0,16.36,35.234,0.455,73.526
			C206.939,606.791,192.566,647.008,160.532,661.438L160.532,661.438z M235.866,738.363c-50.866-14.451-65.124-52.869-65.124-52.869
			c32.652-12.95,71.54,4.706,71.54,4.706c38.565,15.214,52.493,51.478,52.493,51.478
			C264.477,747.345,235.867,738.379,235.866,738.363z"/>
	</g>
	<g id="logo_5_">
		<path class="st1" d="M433.662,744.507c0,0,38.569-20.438,55.593-60.602l1.568-3.686l0,0v-0.047l0,0l0.172-0.397l0,0l0.026-0.052
			l0,0l1.569-3.691c17.008-40.117,4.878-82.054,4.878-82.054c-18.153-64.272-72.909-86.838-72.909-86.838
			s-24.751,48.242-5.877,104.232c0,0,12.265,33.921,35.819,52.942l0.633,0.523l-0.821-0.115
			c-30.048-3.691-62.96,11.074-62.96,11.074c-53.344,25.368-70.802,76.705-70.802,76.705S374.847,776.154,433.662,744.507z
			 M473.219,577.81h-0.022c24.997,46.595,7.32,83.565,7.32,83.565c-32.034-14.44-46.391-54.662-46.391-54.662
			c-15.894-38.287,0.471-73.521,0.471-73.521c25.133,17.834,38.622,44.619,38.622,44.619V577.81z M405.161,738.305
			c0,0-28.61,8.956-58.887,3.283c0,0,13.923-36.258,52.493-51.457c0,0,38.893-17.656,71.56-4.658c0,0-14.278,38.413-65.145,52.848
			L405.161,738.305z"/>
		<path class="st1" d="M640.374,752.573c0,0-17.452-51.343-70.781-76.716c0,0-32.908-14.749-62.96-11.089l-0.81,0.115l0.633-0.523
			c23.549-19.02,35.83-52.942,35.83-52.942c18.874-55.97-5.856-104.217-5.856-104.217s-54.74,22.555-72.909,86.859
			c0,0-12.14,41.926,4.857,82.054l1.568,3.691l0,0v0.047l0,0l0.172,0.403l0,0l0.026,0.047l0,0l1.569,3.691
			c16.997,40.123,55.567,60.576,55.567,60.576C586.078,776.237,640.374,752.573,640.374,752.573z M480.434,661.438v-0.011
			c0,0-17.672-36.969,7.341-83.554c0,0,13.468-26.779,38.611-44.608c0,0,16.36,35.234,0.455,73.526
			C526.841,606.791,512.468,647.008,480.434,661.438L480.434,661.438z M555.768,738.363c-50.866-14.451-65.124-52.869-65.124-52.869
			c32.651-12.95,71.54,4.706,71.54,4.706c38.565,15.214,52.493,51.478,52.493,51.478
			C584.379,747.345,555.769,738.379,555.768,738.363z"/>
	</g>
	<g id="logo_4_">
		<path class="st1" d="M753.565,744.507c0,0,38.569-20.438,55.593-60.602l1.568-3.686l0,0v-0.047l0,0l0.172-0.397l0,0l0.026-0.052
			l0,0l1.568-3.691c17.008-40.117,4.878-82.054,4.878-82.054c-18.152-64.272-72.909-86.838-72.909-86.838
			s-24.751,48.242-5.877,104.232c0,0,12.265,33.921,35.819,52.942l0.633,0.523l-0.821-0.115
			c-30.048-3.691-62.96,11.074-62.96,11.074c-53.344,25.368-70.802,76.705-70.802,76.705S694.749,776.154,753.565,744.507z
			 M793.121,577.81h-0.022c24.997,46.595,7.32,83.565,7.32,83.565c-32.034-14.44-46.391-54.662-46.391-54.662
			c-15.894-38.287,0.471-73.521,0.471-73.521c25.133,17.834,38.622,44.619,38.622,44.619V577.81z M725.062,738.305
			c0,0-28.61,8.956-58.887,3.283c0,0,13.923-36.258,52.493-51.457c0,0,38.894-17.656,71.561-4.658c0,0-14.278,38.413-65.145,52.848
			L725.062,738.305z"/>
		<path class="st1" d="M960.276,752.573c0,0-17.452-51.343-70.781-76.716c0,0-32.907-14.749-62.96-11.089l-0.81,0.115l0.633-0.523
			c23.549-19.02,35.83-52.942,35.83-52.942c18.874-55.97-5.856-104.217-5.856-104.217s-54.74,22.555-72.909,86.859
			c0,0-12.14,41.926,4.857,82.054l1.568,3.691l0,0v0.047l0,0l0.173,0.403l0,0l0.026,0.047l0,0l1.568,3.691
			c16.997,40.123,55.567,60.576,55.567,60.576C905.98,776.237,960.276,752.573,960.276,752.573z M800.336,661.438v-0.011
			c0,0-17.671-36.969,7.341-83.554c0,0,13.468-26.779,38.611-44.608c0,0,16.36,35.234,0.455,73.526
			C846.743,606.791,832.37,647.008,800.336,661.438L800.336,661.438z M875.67,738.363c-50.866-14.451-65.124-52.869-65.124-52.869
			c32.651-12.95,71.54,4.706,71.54,4.706c38.565,15.214,52.493,51.478,52.493,51.478
			C904.281,747.345,875.671,738.379,875.67,738.363z"/>
	</g>
	<g>
		<path class="st1" d="M960.277,768.979c0,0,17.457,51.337,70.802,76.705c0,0,32.913,14.765,62.96,11.074l0.821-0.115l-0.633,0.523
			c-23.553,19.02-35.819,52.942-35.819,52.942c-18.874,55.99,5.877,104.232,5.877,104.232s54.756-22.566,72.909-86.838
			c0,0,12.13-41.937-4.878-82.054l-1.569-3.691l0,0l-0.026-0.052l0,0l-0.172-0.397l0,0v-0.047l0,0l-1.569-3.686
			c-17.023-40.164-55.593-60.602-55.593-60.602C1014.573,745.325,960.277,768.979,960.277,768.979z M1112.924,943.667h0.022
			c0,0-13.489,26.785-38.622,44.619c0,0-16.365-35.234-0.471-73.521c0,0,14.357-40.221,46.391-54.662c0,0,17.677,36.97-7.32,83.565
			V943.667z M1044.908,783.157c50.866,14.435,65.145,52.848,65.145,52.848c-32.666,12.998-71.56-4.658-71.56-4.658
			C999.923,816.149,986,779.89,986,779.89c30.277-5.673,58.887,3.283,58.887,3.283L1044.908,783.157z"/>
		<path class="st1" d="M1167.007,776.909c0,0-38.57,20.454-55.567,60.576l-1.568,3.691l0,0l-0.026,0.047l0,0l-0.173,0.403l0,0v0.047
			l0,0l-1.569,3.691c-16.997,40.128-4.857,82.054-4.857,82.054c18.168,64.304,72.909,86.859,72.909,86.859
			s24.73-48.248,5.856-104.217c0,0-12.282-33.921-35.83-52.942l-0.633-0.523l0.81,0.115c30.053,3.66,62.96-11.089,62.96-11.089
			c53.329-25.374,70.781-76.716,70.781-76.716S1225.804,745.242,1167.007,776.909z M1120.16,860.051v-0.011
			c32.034,14.431,46.407,54.647,46.407,54.647c15.904,38.292-0.455,73.526-0.455,73.526c-25.143-17.828-38.611-44.608-38.611-44.608
			C1102.488,897.021,1120.16,860.051,1120.16,860.051L1120.16,860.051z M1254.404,779.801c0,0-13.929,36.264-52.493,51.478
			c0,0-38.889,17.657-71.54,4.706c0,0,14.257-38.418,65.124-52.869C1195.495,783.1,1224.105,774.134,1254.404,779.801z"/>
	</g>
	<g id="logo_3_">
		<path class="st1" d="M0.648,768.979c0,0,17.457,51.337,70.802,76.705c0,0,32.913,14.765,62.96,11.074l0.821-0.115l-0.633,0.523
			c-23.553,19.02-35.819,52.942-35.819,52.942c-18.874,55.99,5.877,104.232,5.877,104.232s54.756-22.566,72.909-86.838
			c0,0,12.13-41.937-4.878-82.054l-1.568-3.691l0,0l-0.026-0.052l0,0l-0.172-0.397l0,0v-0.047l0,0l-1.569-3.686
			c-17.023-40.164-55.593-60.602-55.593-60.602C54.946,745.325,0.648,768.979,0.648,768.979z M153.296,943.667h0.021
			c0,0-13.489,26.785-38.622,44.619c0,0-16.364-35.234-0.47-73.521c0,0,14.357-40.221,46.391-54.662c0,0,17.677,36.97-7.32,83.565
			V943.667z M85.28,783.157c50.866,14.435,65.145,52.848,65.145,52.848c-32.666,12.998-71.56-4.658-71.56-4.658
			c-38.57-15.198-52.493-51.457-52.493-51.457c30.277-5.673,58.887,3.283,58.887,3.283L85.28,783.157z"/>
		<path class="st1" d="M207.378,776.909c0,0-38.57,20.454-55.567,60.576l-1.568,3.691l0,0l-0.026,0.047l0,0l-0.172,0.403l0,0v0.047
			l0,0l-1.568,3.691c-16.997,40.128-4.857,82.054-4.857,82.054c18.168,64.304,72.909,86.859,72.909,86.859
			s24.73-48.248,5.856-104.217c0,0-12.281-33.921-35.83-52.942l-0.633-0.523l0.81,0.115c30.053,3.66,62.96-11.089,62.96-11.089
			c53.329-25.374,70.781-76.716,70.781-76.716S266.176,745.242,207.378,776.909z M160.532,860.051v-0.011
			c32.034,14.431,46.407,54.647,46.407,54.647c15.904,38.292-0.455,73.526-0.455,73.526c-25.143-17.828-38.611-44.608-38.611-44.608
			C142.86,897.021,160.532,860.051,160.532,860.051L160.532,860.051z M294.776,779.801c0,0-13.929,36.264-52.493,51.478
			c0,0-38.889,17.657-71.54,4.706c0,0,14.257-38.418,65.124-52.869C235.867,783.1,264.477,774.134,294.776,779.801z"/>
	</g>
	<g id="logo_2_">
		<path class="st1" d="M320.55,768.979c0,0,17.457,51.337,70.802,76.705c0,0,32.913,14.765,62.96,11.074l0.821-0.115l-0.633,0.523
			c-23.553,19.02-35.819,52.942-35.819,52.942c-18.874,55.99,5.877,104.232,5.877,104.232s54.756-22.566,72.909-86.838
			c0,0,12.13-41.937-4.878-82.054l-1.569-3.691l0,0l-0.026-0.052l0,0l-0.172-0.397l0,0v-0.047l0,0l-1.568-3.686
			c-17.023-40.164-55.593-60.602-55.593-60.602C374.847,745.325,320.55,768.979,320.55,768.979z M473.198,943.667h0.022
			c0,0-13.489,26.785-38.622,44.619c0,0-16.365-35.234-0.471-73.521c0,0,14.357-40.221,46.391-54.662c0,0,17.677,36.97-7.32,83.565
			V943.667z M405.182,783.157c50.866,14.435,65.145,52.848,65.145,52.848c-32.666,12.998-71.56-4.658-71.56-4.658
			c-38.57-15.198-52.493-51.457-52.493-51.457c30.277-5.673,58.887,3.283,58.887,3.283L405.182,783.157z"/>
		<path class="st1" d="M527.281,776.909c0,0-38.57,20.454-55.567,60.576l-1.569,3.691l0,0l-0.026,0.047l0,0l-0.172,0.403l0,0v0.047
			l0,0l-1.568,3.691c-16.997,40.128-4.857,82.054-4.857,82.054c18.168,64.304,72.909,86.859,72.909,86.859
			s24.73-48.248,5.856-104.217c0,0-12.281-33.921-35.83-52.942l-0.633-0.523l0.81,0.115c30.053,3.66,62.96-11.089,62.96-11.089
			c53.329-25.374,70.781-76.716,70.781-76.716S586.078,745.242,527.281,776.909z M480.434,860.051v-0.011
			c32.034,14.431,46.407,54.647,46.407,54.647c15.904,38.292-0.455,73.526-0.455,73.526c-25.143-17.828-38.611-44.608-38.611-44.608
			C462.762,897.021,480.434,860.051,480.434,860.051L480.434,860.051z M614.678,779.801c0,0-13.929,36.264-52.493,51.478
			c0,0-38.889,17.657-71.54,4.706c0,0,14.257-38.418,65.124-52.869C555.769,783.1,584.379,774.134,614.678,779.801z"/>
	</g>
	<g id="logo_1_">
		<path class="st1" d="M640.451,768.979c0,0,17.457,51.337,70.802,76.705c0,0,32.913,14.765,62.96,11.074l0.821-0.115l-0.633,0.523
			c-23.553,19.02-35.819,52.942-35.819,52.942c-18.874,55.99,5.877,104.232,5.877,104.232s54.756-22.566,72.909-86.838
			c0,0,12.13-41.937-4.878-82.054l-1.568-3.691l0,0l-0.026-0.052l0,0l-0.172-0.397l0,0v-0.047l0,0l-1.568-3.686
			c-17.023-40.164-55.593-60.602-55.593-60.602C694.749,745.325,640.451,768.979,640.451,768.979z M793.1,943.667h0.022
			c0,0-13.489,26.785-38.622,44.619c0,0-16.365-35.234-0.471-73.521c0,0,14.357-40.221,46.391-54.662c0,0,17.677,36.97-7.32,83.565
			V943.667z M725.085,783.157c50.866,14.435,65.145,52.848,65.145,52.848c-32.667,12.998-71.561-4.658-71.561-4.658
			c-38.57-15.198-52.493-51.457-52.493-51.457c30.278-5.673,58.887,3.283,58.887,3.283L725.085,783.157z"/>
		<path class="st1" d="M847.183,776.909c0,0-38.57,20.454-55.567,60.576l-1.568,3.691l0,0l-0.026,0.047l0,0l-0.173,0.403l0,0v0.047
			l0,0l-1.568,3.691c-16.997,40.128-4.857,82.054-4.857,82.054c18.168,64.304,72.909,86.859,72.909,86.859
			s24.73-48.248,5.856-104.217c0,0-12.282-33.921-35.83-52.942l-0.633-0.523l0.81,0.115c30.053,3.66,62.96-11.089,62.96-11.089
			c53.329-25.374,70.781-76.716,70.781-76.716S905.98,745.242,847.183,776.909z M800.336,860.051v-0.011
			c32.034,14.431,46.407,54.647,46.407,54.647c15.905,38.292-0.455,73.526-0.455,73.526c-25.143-17.828-38.611-44.608-38.611-44.608
			C782.664,897.021,800.336,860.051,800.336,860.051L800.336,860.051z M934.58,779.801c0,0-13.929,36.264-52.493,51.478
			c0,0-38.889,17.657-71.54,4.706c0,0,14.257-38.418,65.124-52.869C875.671,783.1,904.281,774.134,934.58,779.801z"/>
	</g>
	<path class="st1" d="M113.76,1251.769c0,0,38.57-20.438,55.593-60.602l1.569-3.686l0,0v-0.047l0,0l0.172-0.397l0,0l0.026-0.052l0,0
		l1.568-3.691c17.008-40.117,4.878-82.054,4.878-82.054c-18.152-64.272-72.909-86.838-72.909-86.838s-24.751,48.242-5.877,104.232
		c0,0,12.265,33.921,35.819,52.942l0.633,0.523l-0.821-0.115c-30.048-3.691-62.96,11.074-62.96,11.074
		c-53.344,25.368-70.802,76.705-70.802,76.705S54.946,1283.416,113.76,1251.769z M153.317,1085.072h-0.021
		c24.997,46.595,7.32,83.565,7.32,83.565c-32.034-14.44-46.391-54.662-46.391-54.662c-15.895-38.287,0.47-73.521,0.47-73.521
		C139.828,1058.288,153.317,1085.073,153.317,1085.072L153.317,1085.072z M85.259,1245.568c0,0-28.61,8.956-58.887,3.283
		c0,0,13.923-36.258,52.493-51.457c0,0,38.893-17.656,71.56-4.658c0,0-14.278,38.413-65.145,52.848L85.259,1245.568z"/>
	<path class="st1" d="M320.473,1259.836c0,0-17.452-51.343-70.781-76.716c0,0-32.907-14.749-62.96-11.089l-0.81,0.115l0.633-0.523
		c23.549-19.02,35.83-52.942,35.83-52.942c18.874-55.97-5.856-104.217-5.856-104.217s-54.741,22.556-72.909,86.859
		c0,0-12.14,41.926,4.857,82.054l1.568,3.691l0,0v0.047l0,0l0.172,0.403l0,0l0.026,0.047l0,0l1.568,3.691
		c16.997,40.123,55.567,60.576,55.567,60.576C266.176,1283.5,320.473,1259.836,320.473,1259.836z M160.532,1168.701v-0.011
		c0,0-17.671-36.969,7.341-83.554c0,0,13.468-26.779,38.611-44.608c0,0,16.36,35.234,0.455,73.526
		C206.939,1114.054,192.566,1154.271,160.532,1168.701L160.532,1168.701z M235.866,1245.625
		c-50.866-14.451-65.124-52.869-65.124-52.869c32.652-12.95,71.54,4.706,71.54,4.706c38.565,15.214,52.493,51.478,52.493,51.478
		C264.477,1254.608,235.867,1245.641,235.866,1245.625z"/>
	<path class="st1" d="M433.662,1251.769c0,0,38.569-20.438,55.593-60.602l1.568-3.686l0,0v-0.047l0,0l0.172-0.397l0,0l0.026-0.052
		l0,0l1.569-3.691c17.008-40.117,4.878-82.054,4.878-82.054c-18.153-64.272-72.909-86.838-72.909-86.838
		s-24.751,48.242-5.877,104.232c0,0,12.265,33.921,35.819,52.942l0.633,0.523l-0.821-0.115c-30.048-3.691-62.96,11.074-62.96,11.074
		c-53.344,25.368-70.802,76.705-70.802,76.705S374.847,1283.416,433.662,1251.769z M473.219,1085.072h-0.022
		c24.997,46.595,7.32,83.565,7.32,83.565c-32.034-14.44-46.391-54.662-46.391-54.662c-15.894-38.287,0.471-73.521,0.471-73.521
		C459.73,1058.288,473.219,1085.073,473.219,1085.072L473.219,1085.072z M405.161,1245.568c0,0-28.61,8.956-58.887,3.283
		c0,0,13.923-36.258,52.493-51.457c0,0,38.893-17.656,71.56-4.658c0,0-14.278,38.413-65.145,52.848L405.161,1245.568z"/>
	<path class="st1" d="M640.374,1259.836c0,0-17.452-51.343-70.781-76.716c0,0-32.908-14.749-62.96-11.089l-0.81,0.115l0.633-0.523
		c23.549-19.02,35.83-52.942,35.83-52.942c18.874-55.97-5.856-104.217-5.856-104.217s-54.74,22.556-72.909,86.859
		c0,0-12.14,41.926,4.857,82.054l1.568,3.691l0,0v0.047l0,0l0.172,0.403l0,0l0.026,0.047l0,0l1.569,3.691
		c16.997,40.123,55.567,60.576,55.567,60.576C586.078,1283.5,640.374,1259.836,640.374,1259.836z M480.434,1168.701v-0.011
		c0,0-17.672-36.969,7.341-83.554c0,0,13.468-26.779,38.611-44.608c0,0,16.36,35.234,0.455,73.526
		C526.841,1114.054,512.468,1154.271,480.434,1168.701L480.434,1168.701z M555.768,1245.625
		c-50.866-14.451-65.124-52.869-65.124-52.869c32.651-12.95,71.54,4.706,71.54,4.706c38.565,15.214,52.493,51.478,52.493,51.478
		C584.379,1254.608,555.769,1245.641,555.768,1245.625z"/>
	<path class="st1" d="M753.565,1251.769c0,0,38.569-20.438,55.593-60.602l1.568-3.686l0,0v-0.047l0,0l0.172-0.397l0,0l0.026-0.052
		l0,0l1.568-3.691c17.008-40.117,4.878-82.054,4.878-82.054c-18.152-64.272-72.909-86.838-72.909-86.838
		s-24.751,48.242-5.877,104.232c0,0,12.265,33.921,35.819,52.942l0.633,0.523l-0.821-0.115c-30.048-3.691-62.96,11.074-62.96,11.074
		c-53.344,25.368-70.802,76.705-70.802,76.705S694.749,1283.416,753.565,1251.769z M793.121,1085.072h-0.022
		c24.997,46.595,7.32,83.565,7.32,83.565c-32.034-14.44-46.391-54.662-46.391-54.662c-15.894-38.287,0.471-73.521,0.471-73.521
		C779.632,1058.288,793.121,1085.073,793.121,1085.072L793.121,1085.072z M725.062,1245.568c0,0-28.61,8.956-58.887,3.283
		c0,0,13.923-36.258,52.493-51.457c0,0,38.894-17.656,71.561-4.658c0,0-14.278,38.413-65.145,52.848L725.062,1245.568z"/>
	<path class="st1" d="M960.276,1259.836c0,0-17.452-51.343-70.781-76.716c0,0-32.907-14.749-62.96-11.089l-0.81,0.115l0.633-0.523
		c23.549-19.02,35.83-52.942,35.83-52.942c18.874-55.97-5.856-104.217-5.856-104.217s-54.74,22.556-72.909,86.859
		c0,0-12.14,41.926,4.857,82.054l1.568,3.691l0,0v0.047l0,0l0.173,0.403l0,0l0.026,0.047l0,0l1.568,3.691
		c16.997,40.123,55.567,60.576,55.567,60.576C905.98,1283.5,960.276,1259.836,960.276,1259.836z M800.336,1168.701v-0.011
		c0,0-17.671-36.969,7.341-83.554c0,0,13.468-26.779,38.611-44.608c0,0,16.36,35.234,0.455,73.526
		C846.743,1114.054,832.37,1154.271,800.336,1168.701L800.336,1168.701z M875.67,1245.625
		c-50.866-14.451-65.124-52.869-65.124-52.869c32.651-12.95,71.54,4.706,71.54,4.706c38.565,15.214,52.493,51.478,52.493,51.478
		C904.281,1254.608,875.671,1245.641,875.67,1245.625z"/>
	<g>
		<path class="st1" d="M0.648,1276.241c0,0,17.457,51.337,70.802,76.705c0,0,32.913,14.765,62.96,11.074l0.821-0.115l-0.633,0.523
			c-23.553,19.02-35.819,52.942-35.819,52.942c-18.874,55.99,5.877,104.232,5.877,104.232s54.756-22.566,72.909-86.838
			c0,0,12.13-41.937-4.878-82.054l-1.568-3.691l0,0l-0.026-0.052l0,0l-0.172-0.397l0,0v-0.047l0,0l-1.569-3.686
			c-17.023-40.164-55.593-60.602-55.593-60.602C54.946,1252.588,0.648,1276.241,0.648,1276.241z M153.296,1450.93h0.021
			c0,0-13.489,26.785-38.622,44.619c0,0-16.364-35.234-0.47-73.521c0,0,14.357-40.221,46.391-54.662c0,0,17.677,36.97-7.32,83.565
			V1450.93z M85.28,1290.421c50.866,14.435,65.145,52.848,65.145,52.848c-32.666,12.998-71.56-4.658-71.56-4.658
			c-38.57-15.199-52.493-51.458-52.493-51.458c30.277-5.673,58.887,3.283,58.887,3.283L85.28,1290.421z"/>
		<path class="st1" d="M207.378,1284.172c0,0-38.57,20.454-55.567,60.576l-1.568,3.691l0,0l-0.026,0.047l0,0l-0.172,0.403l0,0v0.047
			l0,0l-1.568,3.691c-16.997,40.128-4.857,82.054-4.857,82.054c18.168,64.304,72.909,86.859,72.909,86.859
			s24.73-48.247,5.856-104.217c0,0-12.281-33.921-35.83-52.942l-0.633-0.523l0.81,0.115c30.053,3.66,62.96-11.089,62.96-11.089
			c53.329-25.374,70.781-76.716,70.781-76.716S266.176,1252.504,207.378,1284.172z M160.532,1367.313v-0.011
			c32.034,14.431,46.407,54.647,46.407,54.647c15.904,38.292-0.455,73.526-0.455,73.526c-25.143-17.828-38.611-44.608-38.611-44.608
			C142.86,1404.283,160.532,1367.313,160.532,1367.313L160.532,1367.313z M294.776,1287.064c0,0-13.929,36.264-52.493,51.478
			c0,0-38.889,17.656-71.54,4.705c0,0,14.257-38.418,65.124-52.869C235.867,1290.363,264.477,1281.396,294.776,1287.064z"/>
	</g>
	<g>
		<path class="st1" d="M320.55,1276.241c0,0,17.457,51.337,70.802,76.705c0,0,32.913,14.765,62.96,11.074l0.821-0.115l-0.633,0.523
			c-23.553,19.02-35.819,52.942-35.819,52.942c-18.874,55.99,5.877,104.232,5.877,104.232s54.756-22.566,72.909-86.838
			c0,0,12.13-41.937-4.878-82.054l-1.569-3.691l0,0l-0.026-0.052l0,0l-0.172-0.397l0,0v-0.047l0,0l-1.568-3.686
			c-17.023-40.164-55.593-60.602-55.593-60.602C374.847,1252.588,320.55,1276.241,320.55,1276.241z M473.198,1450.93h0.022
			c0,0-13.489,26.785-38.622,44.619c0,0-16.365-35.234-0.471-73.521c0,0,14.357-40.221,46.391-54.662c0,0,17.677,36.97-7.32,83.565
			V1450.93z M405.182,1290.421c50.866,14.435,65.145,52.848,65.145,52.848c-32.666,12.998-71.56-4.658-71.56-4.658
			c-38.57-15.199-52.493-51.458-52.493-51.458c30.277-5.673,58.887,3.283,58.887,3.283L405.182,1290.421z"/>
		<path class="st1" d="M527.281,1284.172c0,0-38.57,20.454-55.567,60.576l-1.569,3.691l0,0l-0.026,0.047l0,0l-0.172,0.403l0,0v0.047
			l0,0l-1.568,3.691c-16.997,40.128-4.857,82.054-4.857,82.054c18.168,64.304,72.909,86.859,72.909,86.859
			s24.73-48.247,5.856-104.217c0,0-12.281-33.921-35.83-52.942l-0.633-0.523l0.81,0.115c30.053,3.66,62.96-11.089,62.96-11.089
			c53.329-25.374,70.781-76.716,70.781-76.716S586.078,1252.504,527.281,1284.172z M480.434,1367.313v-0.011
			c32.034,14.431,46.407,54.647,46.407,54.647c15.904,38.292-0.455,73.526-0.455,73.526c-25.143-17.828-38.611-44.608-38.611-44.608
			C462.762,1404.283,480.434,1367.313,480.434,1367.313L480.434,1367.313z M614.678,1287.064c0,0-13.929,36.264-52.493,51.478
			c0,0-38.889,17.656-71.54,4.705c0,0,14.257-38.418,65.124-52.869C555.769,1290.363,584.379,1281.396,614.678,1287.064z"/>
	</g>
	<g>
		<path class="st1" d="M113.76,1758.907c0,0,38.57-20.438,55.593-60.602l1.569-3.686l0,0v-0.047l0,0l0.172-0.397l0,0l0.026-0.052
			l0,0l1.568-3.691c17.008-40.117,4.878-82.054,4.878-82.054c-18.152-64.272-72.909-86.838-72.909-86.838
			s-24.751,48.242-5.877,104.232c0,0,12.265,33.921,35.819,52.942l0.633,0.523l-0.821-0.115
			c-30.048-3.691-62.96,11.074-62.96,11.074c-53.344,25.368-70.802,76.705-70.802,76.705S54.946,1790.554,113.76,1758.907z
			 M153.317,1592.21h-0.021c24.997,46.595,7.32,83.565,7.32,83.565c-32.034-14.44-46.391-54.662-46.391-54.662
			c-15.895-38.287,0.47-73.521,0.47-73.521c25.133,17.834,38.622,44.619,38.622,44.619V1592.21z M85.259,1752.706
			c0,0-28.61,8.956-58.887,3.283c0,0,13.923-36.258,52.493-51.457c0,0,38.893-17.656,71.56-4.658c0,0-14.278,38.413-65.145,52.848
			L85.259,1752.706z"/>
		<path class="st1" d="M320.473,1766.973c0,0-17.452-51.343-70.781-76.716c0,0-32.907-14.749-62.96-11.089l-0.81,0.115l0.633-0.523
			c23.549-19.02,35.83-52.942,35.83-52.942c18.874-55.97-5.856-104.217-5.856-104.217s-54.741,22.556-72.909,86.859
			c0,0-12.14,41.926,4.857,82.054l1.568,3.691l0,0v0.047l0,0l0.172,0.403l0,0l0.026,0.047l0,0l1.568,3.691
			c16.997,40.123,55.567,60.576,55.567,60.576C266.176,1790.638,320.473,1766.973,320.473,1766.973z M160.532,1675.839v-0.011
			c0,0-17.671-36.969,7.341-83.554c0,0,13.468-26.779,38.611-44.608c0,0,16.36,35.234,0.455,73.526
			C206.939,1621.192,192.566,1661.409,160.532,1675.839L160.532,1675.839z M235.866,1752.763
			c-50.866-14.451-65.124-52.869-65.124-52.869c32.652-12.95,71.54,4.706,71.54,4.706c38.565,15.214,52.493,51.478,52.493,51.478
			C264.477,1761.746,235.867,1752.779,235.866,1752.763z"/>
	</g>
	<g>
		<path class="st1" d="M0.648,1783.379c0,0,17.457,51.337,70.802,76.705c0,0,32.913,14.765,62.96,11.074l0.821-0.115l-0.633,0.523
			c-23.553,19.02-35.819,52.942-35.819,52.942c-18.874,55.99,5.877,104.232,5.877,104.232s54.756-22.566,72.909-86.838
			c0,0,12.13-41.937-4.878-82.054l-1.568-3.691l0,0l-0.026-0.052l0,0l-0.172-0.397l0,0v-0.047l0,0l-1.569-3.686
			c-17.023-40.164-55.593-60.602-55.593-60.602C54.946,1759.726,0.648,1783.379,0.648,1783.379z M153.296,1958.067h0.021
			c0,0-13.489,26.785-38.622,44.619c0,0-16.364-35.234-0.47-73.521c0,0,14.357-40.221,46.391-54.662c0,0,17.677,36.97-7.32,83.565
			V1958.067z M85.28,1797.558c50.866,14.435,65.145,52.848,65.145,52.848c-32.666,12.998-71.56-4.658-71.56-4.658
			c-38.57-15.198-52.493-51.457-52.493-51.457c30.277-5.673,58.887,3.283,58.887,3.283L85.28,1797.558z"/>
		<path class="st1" d="M207.378,1791.31c0,0-38.57,20.454-55.567,60.576l-1.568,3.691l0,0l-0.026,0.047l0,0l-0.172,0.403l0,0v0.047
			l0,0l-1.568,3.691c-16.997,40.128-4.857,82.054-4.857,82.054c18.168,64.304,72.909,86.859,72.909,86.859
			s24.73-48.248,5.856-104.217c0,0-12.281-33.921-35.83-52.942l-0.633-0.523l0.81,0.115c30.053,3.66,62.96-11.089,62.96-11.089
			c53.329-25.374,70.781-76.716,70.781-76.716S266.176,1759.642,207.378,1791.31z M160.532,1874.451v-0.011
			c32.034,14.431,46.407,54.647,46.407,54.647c15.904,38.292-0.455,73.526-0.455,73.526c-25.143-17.828-38.611-44.608-38.611-44.608
			C142.86,1911.421,160.532,1874.451,160.532,1874.451L160.532,1874.451z M294.776,1794.201c0,0-13.929,36.264-52.493,51.478
			c0,0-38.889,17.657-71.54,4.706c0,0,14.257-38.418,65.124-52.869C235.867,1797.5,264.477,1788.534,294.776,1794.201z"/>
	</g>
</g>
</svg>
